<?xml version="1.0" encoding="utf-8" standalone="no"?>
<!DOCTYPE svg PUBLIC "-//W3C//DTD SVG 1.1//EN"
  "http://www.w3.org/Graphics/SVG/1.1/DTD/svg11.dtd">
<svg xmlns:xlink="http://www.w3.org/1999/xlink" width="251.28pt" height="236.88pt" viewBox="0 0 251.28 236.88" xmlns="http://www.w3.org/2000/svg" version="1.1">
 <metadata>
  <rdf:RDF xmlns:dc="http://purl.org/dc/elements/1.1/" xmlns:cc="http://creativecommons.org/ns#" xmlns:rdf="http://www.w3.org/1999/02/22-rdf-syntax-ns#">
   <cc:Work>
    <dc:type rdf:resource="http://purl.org/dc/dcmitype/StillImage"/>
    <dc:date>2026-05-21T23:45:28.003882</dc:date>
    <dc:format>image/svg+xml</dc:format>
    <dc:creator>
     <cc:Agent>
      <dc:title>Matplotlib v3.10.8, https://matplotlib.org/</dc:title>
     </cc:Agent>
    </dc:creator>
   </cc:Work>
  </rdf:RDF>
 </metadata>
 <defs>
  <style type="text/css">*{stroke-linejoin: round; stroke-linecap: butt}</style>
 </defs>
 <g id="figure_1">
  <g id="patch_1">
   <path d="M 0 236.88 
L 251.28 236.88 
L 251.28 0 
L 0 0 
z
" style="fill: #ffffff"/>
  </g>
  <g id="axes_1">
   <g id="patch_2">
    <path d="M 35.96392 203.917368 
L 236.601671 203.917368 
L 236.601671 7.14916 
L 35.96392 7.14916 
z
" style="fill: #ffffff"/>
   </g>
   <g id="FillBetweenPolyCollection_1">
    <defs>
     <path id="m0077cc5e66" d="M 36.962117 -235.970514 
L 36.962117 -166.708221 
L 37.295406 -158.235013 
L 37.628694 -149.774076 
L 37.961982 -140.81992 
L 38.29527 -131.20967 
L 38.628558 -120.996737 
L 38.961846 -110.483051 
L 39.295134 -100.179863 
L 39.628422 -90.517021 
L 39.96171 -81.751515 
L 40.294998 -74.055971 
L 40.628286 -67.480349 
L 40.961574 -61.928041 
L 41.294862 -57.197456 
L 41.62815 -53.057677 
L 41.961439 -49.343289 
L 42.294727 -46.018227 
L 42.628015 -43.103077 
L 42.961303 -40.638478 
L 43.294591 -38.63015 
L 43.627879 -36.891589 
L 43.961167 -35.145672 
L 44.294455 -33.27953 
L 44.627743 -31.530337 
L 44.961031 -30.276247 
L 45.294319 -29.715178 
L 45.627607 -29.687678 
L 45.960895 -29.904366 
L 46.294183 -30.14849 
L 46.627471 -30.258898 
L 46.96076 -30.132715 
L 47.294048 -29.771048 
L 47.627336 -29.218966 
L 47.960624 -28.509724 
L 48.293912 -27.663524 
L 48.6272 -26.708832 
L 48.960488 -25.70502 
L 49.293776 -24.757537 
L 49.627064 -24.019274 
L 49.960352 -23.664479 
L 50.29364 -23.791297 
L 50.626928 -24.325368 
L 50.960216 -25.117614 
L 51.293504 -26.018601 
L 51.626793 -26.901683 
L 51.960081 -27.691739 
L 52.293369 -28.380076 
L 52.626657 -28.987391 
L 52.959945 -29.529031 
L 53.293233 -30.010259 
L 53.626521 -30.433006 
L 53.959809 -30.800993 
L 54.293097 -31.120833 
L 54.626385 -31.40108 
L 54.959673 -31.650665 
L 55.292961 -31.877831 
L 55.626249 -32.089493 
L 55.959537 -32.29094 
L 56.292825 -32.486344 
L 56.626114 -32.678795 
L 56.959402 -32.870449 
L 57.29269 -33.062761 
L 57.625978 -33.256672 
L 57.959266 -33.452752 
L 58.292554 -33.651317 
L 58.625842 -33.852501 
L 58.95913 -34.056317 
L 59.292418 -34.262697 
L 59.625706 -34.471516 
L 59.958994 -34.682619 
L 60.292282 -34.895978 
L 60.62557 -35.111572 
L 60.958858 -35.329347 
L 61.292147 -35.549238 
L 61.625435 -35.771177 
L 61.958723 -35.995093 
L 62.292011 -36.220915 
L 62.625299 -36.448567 
L 62.958587 -36.677975 
L 63.291875 -36.909065 
L 63.625163 -37.14176 
L 63.958451 -37.375986 
L 64.291739 -37.611665 
L 64.625027 -37.848723 
L 64.958315 -38.087082 
L 65.291603 -38.326681 
L 65.624891 -38.567519 
L 65.958179 -38.809564 
L 66.291468 -39.052772 
L 66.624756 -39.2971 
L 66.958044 -39.542508 
L 67.291332 -39.788959 
L 67.62462 -40.036414 
L 67.957908 -40.284836 
L 68.291196 -40.53419 
L 68.624484 -40.784442 
L 68.957772 -41.03556 
L 69.29106 -41.28751 
L 69.624348 -41.54026 
L 69.957636 -41.793781 
L 70.290924 -42.048043 
L 70.624212 -42.303014 
L 70.957501 -42.558667 
L 71.290789 -42.814973 
L 71.624077 -43.071906 
L 71.957365 -43.329436 
L 72.290653 -43.587538 
L 72.623941 -43.846186 
L 72.957229 -44.105352 
L 73.290517 -44.365012 
L 73.623805 -44.625141 
L 73.957093 -44.885713 
L 74.290381 -45.146704 
L 74.623669 -45.40809 
L 74.956957 -45.669846 
L 75.290245 -45.93195 
L 75.623533 -46.194378 
L 75.956822 -46.457107 
L 76.29011 -46.720113 
L 76.623398 -46.983375 
L 76.956686 -47.24687 
L 77.289974 -47.510577 
L 77.623262 -47.774472 
L 77.95655 -48.038535 
L 78.289838 -48.302744 
L 78.623126 -48.567079 
L 78.956414 -48.831518 
L 79.289702 -49.096039 
L 79.62299 -49.360624 
L 79.956278 -49.625252 
L 80.289566 -49.889903 
L 80.622855 -50.154556 
L 80.956143 -50.419192 
L 81.289431 -50.683791 
L 81.622719 -50.948336 
L 81.956007 -51.212806 
L 82.289295 -51.477182 
L 82.622583 -51.741446 
L 82.955871 -52.00558 
L 83.289159 -52.269565 
L 83.622447 -52.533384 
L 83.955735 -52.797018 
L 84.289023 -53.06045 
L 84.622311 -53.323664 
L 84.955599 -53.586641 
L 85.288887 -53.849364 
L 85.622176 -54.111817 
L 85.955464 -54.373984 
L 86.288752 -54.635848 
L 86.62204 -54.897393 
L 86.955328 -55.158603 
L 87.288616 -55.419462 
L 87.621904 -55.679955 
L 87.955192 -55.940067 
L 88.28848 -56.199783 
L 88.621768 -56.459087 
L 88.955056 -56.717966 
L 89.288344 -56.976404 
L 89.621632 -57.234388 
L 89.95492 -57.491904 
L 90.288208 -57.748938 
L 90.621497 -58.005477 
L 90.954785 -58.261506 
L 91.288073 -58.517013 
L 91.621361 -58.771985 
L 91.954649 -59.02641 
L 92.287937 -59.280274 
L 92.621225 -59.533566 
L 92.954513 -59.786273 
L 93.287801 -60.038385 
L 93.621089 -60.289888 
L 93.954377 -60.540772 
L 94.287665 -60.791026 
L 94.620953 -61.040637 
L 94.954241 -61.289597 
L 95.28753 -61.537893 
L 95.620818 -61.785517 
L 95.954106 -62.032457 
L 96.287394 -62.278704 
L 96.620682 -62.524247 
L 96.95397 -62.769077 
L 97.287258 -63.013186 
L 97.620546 -63.256563 
L 97.953834 -63.499201 
L 98.287122 -63.741089 
L 98.62041 -63.98222 
L 98.953698 -64.222585 
L 99.286986 -64.462177 
L 99.620274 -64.700986 
L 99.953562 -64.939007 
L 100.286851 -65.176229 
L 100.620139 -65.412647 
L 100.953427 -65.648254 
L 101.286715 -65.883041 
L 101.620003 -66.117004 
L 101.953291 -66.350134 
L 102.286579 -66.582426 
L 102.619867 -66.813873 
L 102.953155 -67.044468 
L 103.286443 -67.274207 
L 103.619731 -67.503084 
L 103.953019 -67.731093 
L 104.286307 -67.958228 
L 104.619595 -68.184484 
L 104.952884 -68.409857 
L 105.286172 -68.634341 
L 105.61946 -68.857932 
L 105.952748 -69.080626 
L 106.286036 -69.302418 
L 106.619324 -69.523303 
L 106.952612 -69.743278 
L 107.2859 -69.962339 
L 107.619188 -70.180482 
L 107.952476 -70.397703 
L 108.285764 -70.614 
L 108.619052 -70.829369 
L 108.95234 -71.043807 
L 109.285628 -71.25731 
L 109.618916 -71.469876 
L 109.952205 -71.681503 
L 110.285493 -71.892187 
L 110.618781 -72.101928 
L 110.952069 -72.310721 
L 111.285357 -72.518565 
L 111.618645 -72.725459 
L 111.951933 -72.931399 
L 112.285221 -73.136385 
L 112.618509 -73.340415 
L 112.951797 -73.543488 
L 113.285085 -73.745602 
L 113.618373 -73.946756 
L 113.951661 -74.146948 
L 114.284949 -74.346178 
L 114.618238 -74.544445 
L 114.951526 -74.741749 
L 115.284814 -74.938089 
L 115.618102 -75.133464 
L 115.95139 -75.327873 
L 116.284678 -75.521316 
L 116.617966 -75.713794 
L 116.951254 -75.905307 
L 117.284542 -76.095854 
L 117.61783 -76.285437 
L 117.951118 -76.474055 
L 118.284406 -76.66171 
L 118.617694 -76.848402 
L 118.950982 -77.034134 
L 119.28427 -77.21891 
L 119.617559 -77.402733 
L 119.950847 -77.58561 
L 120.284135 -77.767552 
L 120.617423 -77.948571 
L 120.950711 -78.12869 
L 121.283999 -78.307941 
L 121.617287 -78.486371 
L 121.950575 -78.664053 
L 122.283863 -78.841092 
L 122.617151 -79.017648 
L 122.950439 -79.193953 
L 123.283727 -79.370356 
L 123.617015 -79.547372 
L 123.950303 -79.725765 
L 124.283592 -79.906692 
L 124.61688 -80.091898 
L 124.950168 -80.284029 
L 125.283456 -80.487091 
L 125.616744 -80.707036 
L 125.950032 -80.952355 
L 126.28332 -81.234174 
L 126.616608 -81.564676 
L 126.949896 -81.951741 
L 127.283184 -82.387264 
L 127.616472 -82.829794 
L 127.94976 -83.194636 
L 128.283048 -83.389013 
L 128.616336 -83.415176 
L 128.949624 -83.37828 
L 129.282913 -83.381597 
L 129.616201 -83.481519 
L 129.949489 -83.685595 
L 130.282777 -83.954097 
L 130.616065 -84.20247 
L 130.949353 -84.338362 
L 131.282641 -84.354934 
L 131.615929 -84.337032 
L 131.949217 -84.370548 
L 132.282505 -84.507979 
L 132.615793 -84.776518 
L 132.949081 -85.190747 
L 133.282369 -85.754238 
L 133.615657 -86.449975 
L 133.948946 -87.234597 
L 134.282234 -88.072537 
L 134.615522 -89.023533 
L 134.94881 -90.225085 
L 135.282098 -91.766218 
L 135.615386 -93.61437 
L 135.948674 -95.601459 
L 136.281962 -97.455909 
L 136.61525 -98.86783 
L 136.948538 -99.670087 
L 137.281826 -99.789166 
L 137.615114 -99.167328 
L 137.948402 -97.836753 
L 138.28169 -96.016105 
L 138.614978 -94.086774 
L 138.948267 -92.350535 
L 139.281555 -90.945197 
L 139.614843 -89.868329 
L 139.948131 -89.04602 
L 140.281419 -88.423915 
L 140.614707 -87.989264 
L 140.947995 -87.727887 
L 141.281283 -87.608569 
L 141.614571 -87.59211 
L 141.947859 -87.642512 
L 142.281147 -87.732366 
L 142.614435 -87.843301 
L 142.947723 -87.96415 
L 143.281011 -88.088681 
L 143.614299 -88.21371 
L 143.947588 -88.337785 
L 144.280876 -88.46037 
L 144.614164 -88.581365 
L 144.947452 -88.700858 
L 145.28074 -88.818998 
L 145.614028 -88.93593 
L 145.947316 -89.051783 
L 146.280604 -89.166657 
L 146.613892 -89.280627 
L 146.94718 -89.393751 
L 147.280468 -89.506069 
L 147.613756 -89.61761 
L 147.947044 -89.728397 
L 148.280332 -89.838445 
L 148.613621 -89.947765 
L 148.946909 -90.056367 
L 149.280197 -90.164259 
L 149.613485 -90.271445 
L 149.946773 -90.377932 
L 150.280061 -90.483724 
L 150.613349 -90.588825 
L 150.946637 -90.69324 
L 151.279925 -90.796972 
L 151.613213 -90.900025 
L 151.946501 -91.002404 
L 152.279789 -91.104112 
L 152.613077 -91.205153 
L 152.946365 -91.305534 
L 153.279653 -91.405259 
L 153.612942 -91.50433 
L 153.94623 -91.602752 
L 154.279518 -91.700529 
L 154.612806 -91.797662 
L 154.946094 -91.894157 
L 155.279382 -91.990016 
L 155.61267 -92.085242 
L 155.945958 -92.17984 
L 156.279246 -92.273812 
L 156.612534 -92.367163 
L 156.945822 -92.459895 
L 157.27911 -92.552012 
L 157.612398 -92.643517 
L 157.945686 -92.734414 
L 158.278975 -92.824706 
L 158.612263 -92.914397 
L 158.945551 -93.00349 
L 159.278839 -93.091989 
L 159.612127 -93.179896 
L 159.945415 -93.267216 
L 160.278703 -93.353952 
L 160.611991 -93.440107 
L 160.945279 -93.525685 
L 161.278567 -93.610689 
L 161.611855 -93.695123 
L 161.945143 -93.77899 
L 162.278431 -93.862293 
L 162.611719 -93.945036 
L 162.945007 -94.027222 
L 163.278296 -94.108855 
L 163.611584 -94.189939 
L 163.944872 -94.270476 
L 164.27816 -94.35047 
L 164.611448 -94.429924 
L 164.944736 -94.508843 
L 165.278024 -94.587229 
L 165.611312 -94.665086 
L 165.9446 -94.742417 
L 166.277888 -94.819226 
L 166.611176 -94.895516 
L 166.944464 -94.97129 
L 167.277752 -95.046553 
L 167.61104 -95.121307 
L 167.944329 -95.195555 
L 168.277617 -95.269303 
L 168.610905 -95.342551 
L 168.944193 -95.415305 
L 169.277481 -95.487568 
L 169.610769 -95.559343 
L 169.944057 -95.630633 
L 170.277345 -95.701442 
L 170.610633 -95.771774 
L 170.943921 -95.841634 
L 171.277209 -95.911024 
L 171.610497 -95.979948 
L 171.943785 -96.048407 
L 172.277073 -96.116406 
L 172.610361 -96.183945 
L 172.94365 -96.251028 
L 173.276938 -96.317658 
L 173.610226 -96.383837 
L 173.943514 -96.449567 
L 174.276802 -96.514851 
L 174.61009 -96.579692 
L 174.943378 -96.644092 
L 175.276666 -96.708054 
L 175.609954 -96.771581 
L 175.943242 -96.834674 
L 176.27653 -96.897338 
L 176.609818 -96.959573 
L 176.943106 -97.021384 
L 177.276394 -97.082771 
L 177.609683 -97.143739 
L 177.942971 -97.204289 
L 178.276259 -97.264425 
L 178.609547 -97.324148 
L 178.942835 -97.383462 
L 179.276123 -97.442368 
L 179.609411 -97.50087 
L 179.942699 -97.55897 
L 180.275987 -97.616671 
L 180.609275 -97.673975 
L 180.942563 -97.730885 
L 181.275851 -97.787404 
L 181.609139 -97.843533 
L 181.942427 -97.899276 
L 182.275715 -97.954636 
L 182.609004 -98.009614 
L 182.942292 -98.064214 
L 183.27558 -98.118437 
L 183.608868 -98.172287 
L 183.942156 -98.225767 
L 184.275444 -98.278878 
L 184.608732 -98.331623 
L 184.94202 -98.384005 
L 185.275308 -98.436027 
L 185.608596 -98.487691 
L 185.941884 -98.539 
L 186.275172 -98.589955 
L 186.60846 -98.640561 
L 186.941748 -98.690819 
L 187.275037 -98.740732 
L 187.608325 -98.790303 
L 187.941613 -98.839534 
L 188.274901 -98.888428 
L 188.608189 -98.936987 
L 188.941477 -98.985215 
L 189.274765 -99.033112 
L 189.608053 -99.080683 
L 189.941341 -99.12793 
L 190.274629 -99.174855 
L 190.607917 -99.221461 
L 190.941205 -99.26775 
L 191.274493 -99.313725 
L 191.607781 -99.359389 
L 191.941069 -99.404745 
L 192.274358 -99.449794 
L 192.607646 -99.494541 
L 192.940934 -99.538987 
L 193.274222 -99.583135 
L 193.60751 -99.626985 
L 193.940798 -99.67054 
L 194.274086 -99.713802 
L 194.607374 -99.756771 
L 194.940662 -99.79945 
L 195.27395 -99.841839 
L 195.607238 -99.883942 
L 195.940526 -99.925758 
L 196.273814 -99.967291 
L 196.607102 -100.008541 
L 196.940391 -100.04951 
L 197.273679 -100.0902 
L 197.606967 -100.130613 
L 197.940255 -100.170749 
L 198.273543 -100.210611 
L 198.606831 -100.2502 
L 198.940119 -100.289519 
L 199.273407 -100.328567 
L 199.606695 -100.367348 
L 199.939983 -100.405862 
L 200.273271 -100.444112 
L 200.606559 -100.482099 
L 200.939847 -100.519824 
L 201.273135 -100.55729 
L 201.606423 -100.594497 
L 201.939712 -100.631448 
L 202.273 -100.668144 
L 202.606288 -100.704586 
L 202.939576 -100.740777 
L 203.272864 -100.776717 
L 203.606152 -100.81241 
L 203.93944 -100.847855 
L 204.272728 -100.883055 
L 204.606016 -100.918011 
L 204.939304 -100.952726 
L 205.272592 -100.9872 
L 205.60588 -101.021435 
L 205.939168 -101.055433 
L 206.272456 -101.089196 
L 206.605744 -101.122724 
L 206.939033 -101.156021 
L 207.272321 -101.189086 
L 207.605609 -101.221923 
L 207.938897 -101.254532 
L 208.272185 -101.286915 
L 208.605473 -101.319075 
L 208.938761 -101.351011 
L 209.272049 -101.382727 
L 209.605337 -101.414223 
L 209.938625 -101.445501 
L 210.271913 -101.476564 
L 210.605201 -101.507412 
L 210.938489 -101.538047 
L 211.271777 -101.568471 
L 211.605066 -101.598685 
L 211.938354 -101.628691 
L 212.271642 -101.65849 
L 212.60493 -101.688085 
L 212.938218 -101.717477 
L 213.271506 -101.746667 
L 213.604794 -101.775658 
L 213.938082 -101.80445 
L 214.27137 -101.833045 
L 214.604658 -101.861445 
L 214.937946 -101.889652 
L 215.271234 -101.917667 
L 215.604522 -101.945491 
L 215.93781 -101.973128 
L 216.271098 -102.000577 
L 216.604387 -102.02784 
L 216.937675 -102.05492 
L 217.270963 -102.081818 
L 217.604251 -102.108535 
L 217.937539 -102.135073 
L 218.270827 -102.161434 
L 218.604115 -102.187619 
L 218.937403 -102.213629 
L 219.270691 -102.239466 
L 219.603979 -102.265131 
L 219.937267 -102.290625 
L 220.270555 -102.315947 
L 220.603843 -102.341095 
L 220.937131 -102.366065 
L 221.27042 -102.390854 
L 221.603708 -102.415457 
L 221.936996 -102.439863 
L 222.270284 -102.464059 
L 222.603572 -102.488018 
L 222.93686 -102.511703 
L 223.270148 -102.535055 
L 223.603436 -102.55798 
L 223.936724 -102.580339 
L 224.270012 -102.601917 
L 224.6033 -102.622388 
L 224.936588 -102.641266 
L 225.269876 -102.657819 
L 225.603164 -102.67097 
L 225.936452 -102.679134 
L 226.269741 -102.680012 
L 226.603029 -102.670313 
L 226.936317 -102.645402 
L 227.269605 -102.59888 
L 227.602893 -102.522143 
L 227.936181 -102.404024 
L 228.269469 -102.230711 
L 228.602757 -101.986293 
L 228.936045 -101.654434 
L 229.269333 -101.221764 
L 229.602621 -100.683401 
L 229.935909 -100.050245 
L 230.269197 -99.356132 
L 230.602485 -98.660972 
L 230.935774 -98.046286 
L 231.269062 -97.605647 
L 231.60235 -97.434589 
L 231.935638 -97.589917 
L 232.268926 -98.03314 
L 232.602214 -98.671759 
L 232.935502 -99.407216 
L 233.26879 -100.151794 
L 233.602078 -100.840287 
L 233.935366 -101.435101 
L 234.268654 -101.923081 
L 234.601942 -102.308036 
L 234.93523 -102.603041 
L 235.268518 -102.824578 
L 235.601806 -102.988909 
L 235.935095 -103.110251 
L 236.268383 -103.200152 
L 236.601671 -103.267538 
L 236.601671 -174.624414 
L 236.601671 -174.624414 
L 236.268383 -174.556082 
L 235.935095 -174.464139 
L 235.601806 -174.338468 
L 235.268518 -174.165152 
L 234.93523 -173.925424 
L 234.601942 -173.594636 
L 234.268654 -173.14167 
L 233.935366 -172.52968 
L 233.602078 -171.720033 
L 233.26879 -170.68274 
L 232.935502 -169.418172 
L 232.602214 -167.994046 
L 232.268926 -166.591758 
L 231.935638 -165.52436 
L 231.60235 -165.134329 
L 231.269062 -165.563792 
L 230.935774 -166.641986 
L 230.602485 -168.020747 
L 230.269197 -169.397391 
L 229.935909 -170.602474 
L 229.602621 -171.576699 
L 229.269333 -172.324366 
L 228.936045 -172.877511 
L 228.602757 -173.275293 
L 228.269469 -173.554331 
L 227.936181 -173.745216 
L 227.602893 -173.872002 
L 227.269605 -173.952911 
L 226.936317 -174.0014 
L 226.603029 -174.02722 
L 226.269741 -174.037333 
L 225.936452 -174.036641 
L 225.603164 -174.02856 
L 225.269876 -174.015445 
L 224.936588 -173.998907 
L 224.6033 -173.980037 
L 224.270012 -173.959568 
L 223.936724 -173.937992 
L 223.603436 -173.915633 
L 223.270148 -173.892708 
L 222.93686 -173.869357 
L 222.603572 -173.845672 
L 222.270284 -173.821712 
L 221.936996 -173.797517 
L 221.603708 -173.77311 
L 221.27042 -173.748507 
L 220.937131 -173.723718 
L 220.603843 -173.698748 
L 220.270555 -173.673601 
L 219.937267 -173.648278 
L 219.603979 -173.622785 
L 219.270691 -173.59712 
L 218.937403 -173.571282 
L 218.604115 -173.545272 
L 218.270827 -173.519087 
L 217.937539 -173.492727 
L 217.604251 -173.466189 
L 217.270963 -173.439471 
L 216.937675 -173.412574 
L 216.604387 -173.385494 
L 216.271098 -173.35823 
L 215.93781 -173.330781 
L 215.604522 -173.303145 
L 215.271234 -173.27532 
L 214.937946 -173.247305 
L 214.604658 -173.219098 
L 214.27137 -173.190698 
L 213.938082 -173.162103 
L 213.604794 -173.133311 
L 213.271506 -173.104321 
L 212.938218 -173.075131 
L 212.60493 -173.045739 
L 212.271642 -173.016144 
L 211.938354 -172.986344 
L 211.605066 -172.956338 
L 211.271777 -172.926124 
L 210.938489 -172.8957 
L 210.605201 -172.865065 
L 210.271913 -172.834217 
L 209.938625 -172.803155 
L 209.605337 -172.771876 
L 209.272049 -172.74038 
L 208.938761 -172.708665 
L 208.605473 -172.676728 
L 208.272185 -172.644569 
L 207.938897 -172.612185 
L 207.605609 -172.579576 
L 207.272321 -172.54674 
L 206.939033 -172.513674 
L 206.605744 -172.480378 
L 206.272456 -172.446849 
L 205.939168 -172.413086 
L 205.60588 -172.379088 
L 205.272592 -172.344853 
L 204.939304 -172.310379 
L 204.606016 -172.275665 
L 204.272728 -172.240708 
L 203.93944 -172.205508 
L 203.606152 -172.170063 
L 203.272864 -172.134371 
L 202.939576 -172.09843 
L 202.606288 -172.062239 
L 202.273 -172.025797 
L 201.939712 -171.989101 
L 201.606423 -171.95215 
L 201.273135 -171.914943 
L 200.939847 -171.877478 
L 200.606559 -171.839752 
L 200.273271 -171.801766 
L 199.939983 -171.763516 
L 199.606695 -171.725001 
L 199.273407 -171.686221 
L 198.940119 -171.647172 
L 198.606831 -171.607854 
L 198.273543 -171.568265 
L 197.940255 -171.528403 
L 197.606967 -171.488266 
L 197.273679 -171.447854 
L 196.940391 -171.407164 
L 196.607102 -171.366194 
L 196.273814 -171.324944 
L 195.940526 -171.283412 
L 195.607238 -171.241595 
L 195.27395 -171.199493 
L 194.940662 -171.157103 
L 194.607374 -171.114424 
L 194.274086 -171.071455 
L 193.940798 -171.028194 
L 193.60751 -170.984639 
L 193.274222 -170.940788 
L 192.940934 -170.89664 
L 192.607646 -170.852194 
L 192.274358 -170.807447 
L 191.941069 -170.762398 
L 191.607781 -170.717043 
L 191.274493 -170.671379 
L 190.941205 -170.625403 
L 190.607917 -170.579114 
L 190.274629 -170.532508 
L 189.941341 -170.485583 
L 189.608053 -170.438337 
L 189.274765 -170.390766 
L 188.941477 -170.342868 
L 188.608189 -170.294641 
L 188.274901 -170.246082 
L 187.941613 -170.197188 
L 187.608325 -170.147957 
L 187.275037 -170.098386 
L 186.941748 -170.048473 
L 186.60846 -169.998214 
L 186.275172 -169.947609 
L 185.941884 -169.896653 
L 185.608596 -169.845344 
L 185.275308 -169.79368 
L 184.94202 -169.741659 
L 184.608732 -169.689276 
L 184.275444 -169.636531 
L 183.942156 -169.58342 
L 183.608868 -169.529941 
L 183.27558 -169.476091 
L 182.942292 -169.421867 
L 182.609004 -169.367267 
L 182.275715 -169.312289 
L 181.942427 -169.25693 
L 181.609139 -169.201187 
L 181.275851 -169.145057 
L 180.942563 -169.088539 
L 180.609275 -169.031629 
L 180.275987 -168.974325 
L 179.942699 -168.916624 
L 179.609411 -168.858524 
L 179.276123 -168.800022 
L 178.942835 -168.741115 
L 178.609547 -168.681801 
L 178.276259 -168.622078 
L 177.942971 -168.561943 
L 177.609683 -168.501392 
L 177.276394 -168.440425 
L 176.943106 -168.379037 
L 176.609818 -168.317227 
L 176.27653 -168.254991 
L 175.943242 -168.192328 
L 175.609954 -168.129234 
L 175.276666 -168.065708 
L 174.943378 -168.001746 
L 174.61009 -167.937345 
L 174.276802 -167.872504 
L 173.943514 -167.80722 
L 173.610226 -167.74149 
L 173.276938 -167.675311 
L 172.94365 -167.608682 
L 172.610361 -167.541599 
L 172.277073 -167.474059 
L 171.943785 -167.406061 
L 171.610497 -167.337601 
L 171.277209 -167.268677 
L 170.943921 -167.199287 
L 170.610633 -167.129428 
L 170.277345 -167.059096 
L 169.944057 -166.988287 
L 169.610769 -166.916996 
L 169.277481 -166.845222 
L 168.944193 -166.772959 
L 168.610905 -166.700205 
L 168.277617 -166.626956 
L 167.944329 -166.553209 
L 167.61104 -166.47896 
L 167.277752 -166.404206 
L 166.944464 -166.328944 
L 166.611176 -166.253169 
L 166.277888 -166.176879 
L 165.9446 -166.10007 
L 165.611312 -166.022739 
L 165.278024 -165.944882 
L 164.944736 -165.866496 
L 164.611448 -165.787578 
L 164.27816 -165.708123 
L 163.944872 -165.628129 
L 163.611584 -165.547592 
L 163.278296 -165.466509 
L 162.945007 -165.384876 
L 162.611719 -165.302689 
L 162.278431 -165.219946 
L 161.945143 -165.136643 
L 161.611855 -165.052776 
L 161.278567 -164.968343 
L 160.945279 -164.883339 
L 160.611991 -164.797761 
L 160.278703 -164.711606 
L 159.945415 -164.62487 
L 159.612127 -164.53755 
L 159.278839 -164.449642 
L 158.945551 -164.361144 
L 158.612263 -164.272051 
L 158.278975 -164.18236 
L 157.945686 -164.092067 
L 157.612398 -164.00117 
L 157.27911 -163.909665 
L 156.945822 -163.817548 
L 156.612534 -163.724816 
L 156.279246 -163.631466 
L 155.945958 -163.537493 
L 155.61267 -163.442896 
L 155.279382 -163.347669 
L 154.946094 -163.25181 
L 154.612806 -163.155316 
L 154.279518 -163.058182 
L 153.94623 -162.960406 
L 153.612942 -162.861984 
L 153.279653 -162.762912 
L 152.946365 -162.663187 
L 152.613077 -162.562806 
L 152.279789 -162.461765 
L 151.946501 -162.360058 
L 151.613213 -162.257679 
L 151.279925 -162.154625 
L 150.946637 -162.050893 
L 150.613349 -161.946478 
L 150.280061 -161.841377 
L 149.946773 -161.735585 
L 149.613485 -161.629098 
L 149.280197 -161.521912 
L 148.946909 -161.414021 
L 148.613621 -161.305419 
L 148.280332 -161.196098 
L 147.947044 -161.086051 
L 147.613756 -160.975264 
L 147.280468 -160.863722 
L 146.94718 -160.751403 
L 146.613892 -160.638278 
L 146.280604 -160.524304 
L 145.947316 -160.409422 
L 145.614028 -160.293549 
L 145.28074 -160.176572 
L 144.947452 -160.058332 
L 144.614164 -159.938614 
L 144.280876 -159.817125 
L 143.947588 -159.693471 
L 143.614299 -159.567119 
L 143.281011 -159.437347 
L 142.947723 -159.303172 
L 142.614435 -159.163262 
L 142.281147 -159.015908 
L 141.947859 -158.859266 
L 141.614571 -158.692452 
L 141.281283 -158.5187 
L 140.947995 -158.352647 
L 140.614707 -158.233752 
L 140.281419 -158.243872 
L 139.948131 -158.512871 
L 139.614843 -159.169811 
L 139.281555 -160.218115 
L 138.948267 -161.525472 
L 138.614978 -162.93414 
L 138.28169 -164.30109 
L 137.948402 -165.487955 
L 137.615114 -166.341545 
L 137.281826 -166.717238 
L 136.948538 -166.544562 
L 136.61525 -165.883615 
L 136.281962 -164.797958 
L 135.948674 -163.393191 
L 135.615386 -161.91278 
L 135.282098 -160.530796 
L 134.94881 -159.290657 
L 134.615522 -158.203741 
L 134.282234 -157.308237 
L 133.948946 -156.652936 
L 133.615657 -156.2201 
L 133.282369 -155.922476 
L 132.949081 -155.67707 
L 132.615793 -155.432893 
L 132.282505 -155.163758 
L 131.949217 -154.858098 
L 131.615929 -154.519575 
L 131.282641 -154.178453 
L 130.949353 -153.899287 
L 130.616065 -153.750094 
L 130.282777 -153.721476 
L 129.949489 -153.73061 
L 129.616201 -153.701461 
L 129.282913 -153.59458 
L 128.949624 -153.405559 
L 128.616336 -153.164049 
L 128.283048 -152.933417 
L 127.94976 -152.781214 
L 127.616472 -152.710214 
L 127.283184 -152.663753 
L 126.949896 -152.594065 
L 126.616608 -152.484567 
L 126.28332 -152.339896 
L 125.950032 -152.172017 
L 125.616744 -151.99211 
L 125.283456 -151.807839 
L 124.950168 -151.623446 
L 124.61688 -151.440757 
L 124.283592 -151.260194 
L 123.950303 -151.081494 
L 123.617015 -150.904147 
L 123.283727 -150.727615 
L 122.950439 -150.551432 
L 122.617151 -150.375224 
L 122.283863 -150.198712 
L 121.950575 -150.021692 
L 121.617287 -149.844018 
L 121.283999 -149.665591 
L 120.950711 -149.486342 
L 120.617423 -149.306224 
L 120.284135 -149.125205 
L 119.950847 -148.943264 
L 119.617559 -148.760386 
L 119.28427 -148.576563 
L 118.950982 -148.391788 
L 118.617694 -148.206055 
L 118.284406 -148.019363 
L 117.951118 -147.831708 
L 117.61783 -147.64309 
L 117.284542 -147.453507 
L 116.951254 -147.26296 
L 116.617966 -147.071448 
L 116.284678 -146.87897 
L 115.95139 -146.685526 
L 115.618102 -146.491117 
L 115.284814 -146.295742 
L 114.951526 -146.099403 
L 114.618238 -145.902099 
L 114.284949 -145.703831 
L 113.951661 -145.504601 
L 113.618373 -145.304409 
L 113.285085 -145.103256 
L 112.951797 -144.901142 
L 112.618509 -144.698069 
L 112.285221 -144.494038 
L 111.951933 -144.289052 
L 111.618645 -144.083112 
L 111.285357 -143.876219 
L 110.952069 -143.668375 
L 110.618781 -143.459581 
L 110.285493 -143.249841 
L 109.952205 -143.039156 
L 109.618916 -142.827529 
L 109.285628 -142.614963 
L 108.95234 -142.40146 
L 108.619052 -142.187023 
L 108.285764 -141.971654 
L 107.952476 -141.755357 
L 107.619188 -141.538135 
L 107.2859 -141.319992 
L 106.952612 -141.100931 
L 106.619324 -140.880957 
L 106.286036 -140.660071 
L 105.952748 -140.43828 
L 105.61946 -140.215586 
L 105.286172 -139.991994 
L 104.952884 -139.76751 
L 104.619595 -139.542138 
L 104.286307 -139.315881 
L 103.953019 -139.088746 
L 103.619731 -138.860737 
L 103.286443 -138.631861 
L 102.953155 -138.402122 
L 102.619867 -138.171526 
L 102.286579 -137.94008 
L 101.953291 -137.707788 
L 101.620003 -137.474657 
L 101.286715 -137.240695 
L 100.953427 -137.005907 
L 100.620139 -136.770301 
L 100.286851 -136.533883 
L 99.953562 -136.29666 
L 99.620274 -136.05864 
L 99.286986 -135.81983 
L 98.953698 -135.580239 
L 98.62041 -135.339874 
L 98.287122 -135.098743 
L 97.953834 -134.856854 
L 97.620546 -134.614217 
L 97.287258 -134.370839 
L 96.95397 -134.12673 
L 96.620682 -133.8819 
L 96.287394 -133.636357 
L 95.954106 -133.39011 
L 95.620818 -133.14317 
L 95.28753 -132.895547 
L 94.954241 -132.64725 
L 94.620953 -132.398291 
L 94.287665 -132.148679 
L 93.954377 -131.898426 
L 93.621089 -131.647541 
L 93.287801 -131.396038 
L 92.954513 -131.143927 
L 92.621225 -130.89122 
L 92.287937 -130.637928 
L 91.954649 -130.384063 
L 91.621361 -130.129638 
L 91.288073 -129.874666 
L 90.954785 -129.619159 
L 90.621497 -129.36313 
L 90.288208 -129.106592 
L 89.95492 -128.849558 
L 89.621632 -128.592042 
L 89.288344 -128.334058 
L 88.955056 -128.075619 
L 88.621768 -127.816741 
L 88.28848 -127.557436 
L 87.955192 -127.29772 
L 87.621904 -127.037608 
L 87.288616 -126.777115 
L 86.955328 -126.516256 
L 86.62204 -126.255046 
L 86.288752 -125.993501 
L 85.955464 -125.731637 
L 85.622176 -125.469471 
L 85.288887 -125.207018 
L 84.955599 -124.944294 
L 84.622311 -124.681317 
L 84.289023 -124.418104 
L 83.955735 -124.154672 
L 83.622447 -123.891037 
L 83.289159 -123.627219 
L 82.955871 -123.363233 
L 82.622583 -123.099099 
L 82.289295 -122.834835 
L 81.956007 -122.570459 
L 81.622719 -122.305989 
L 81.289431 -122.041445 
L 80.956143 -121.776845 
L 80.622855 -121.512209 
L 80.289566 -121.247556 
L 79.956278 -120.982906 
L 79.62299 -120.718278 
L 79.289702 -120.453693 
L 78.956414 -120.189171 
L 78.623126 -119.924732 
L 78.289838 -119.660398 
L 77.95655 -119.396188 
L 77.623262 -119.132126 
L 77.289974 -118.86823 
L 76.956686 -118.604524 
L 76.623398 -118.341028 
L 76.29011 -118.077767 
L 75.956822 -117.81476 
L 75.623533 -117.552031 
L 75.290245 -117.289603 
L 74.956957 -117.0275 
L 74.623669 -116.765743 
L 74.290381 -116.504357 
L 73.957093 -116.243366 
L 73.623805 -115.982794 
L 73.290517 -115.722666 
L 72.957229 -115.463006 
L 72.623941 -115.203839 
L 72.290653 -114.945192 
L 71.957365 -114.68709 
L 71.624077 -114.429559 
L 71.290789 -114.172627 
L 70.957501 -113.91632 
L 70.624212 -113.660667 
L 70.290924 -113.405696 
L 69.957636 -113.151435 
L 69.624348 -112.897914 
L 69.29106 -112.645163 
L 68.957772 -112.393214 
L 68.624484 -112.142096 
L 68.291196 -111.891843 
L 67.957908 -111.642489 
L 67.62462 -111.394067 
L 67.291332 -111.146612 
L 66.958044 -110.900161 
L 66.624756 -110.654753 
L 66.291468 -110.410425 
L 65.958179 -110.167217 
L 65.624891 -109.925173 
L 65.291603 -109.684334 
L 64.958315 -109.444736 
L 64.625027 -109.206376 
L 64.291739 -108.969318 
L 63.958451 -108.733639 
L 63.625163 -108.499414 
L 63.291875 -108.266718 
L 62.958587 -108.035629 
L 62.625299 -107.80622 
L 62.292011 -107.578568 
L 61.958723 -107.352747 
L 61.625435 -107.12883 
L 61.292147 -106.906891 
L 60.958858 -106.687 
L 60.62557 -106.469226 
L 60.292282 -106.253631 
L 59.958994 -106.040273 
L 59.625706 -105.82917 
L 59.292418 -105.62035 
L 58.95913 -105.41397 
L 58.625842 -105.210152 
L 58.292554 -105.008966 
L 57.959266 -104.810396 
L 57.625978 -104.614304 
L 57.29269 -104.420365 
L 56.959402 -104.227989 
L 56.626114 -104.036191 
L 56.292825 -103.843422 
L 55.959537 -103.64732 
L 55.626249 -103.444374 
L 55.292961 -103.229551 
L 54.959673 -102.995867 
L 54.626385 -102.73318 
L 54.293097 -102.427391 
L 53.959809 -102.059555 
L 53.626521 -101.605332 
L 53.293233 -101.036091 
L 52.959945 -100.323396 
L 52.626657 -99.450044 
L 52.293369 -98.429357 
L 51.960081 -97.327138 
L 51.626793 -96.259168 
L 51.293504 -95.311374 
L 50.960216 -94.452045 
L 50.626928 -93.664026 
L 50.29364 -93.08462 
L 49.960352 -92.992934 
L 49.627064 -93.585321 
L 49.293776 -94.702321 
L 48.960488 -96.020501 
L 48.6272 -97.278774 
L 48.293912 -98.321311 
L 47.960624 -99.071612 
L 47.627336 -99.50213 
L 47.294048 -99.620645 
L 46.96076 -99.472529 
L 46.627471 -99.139368 
L 46.294183 -98.701889 
L 45.960895 -98.21756 
L 45.627607 -97.819635 
L 45.294319 -97.764028 
L 44.961031 -98.341944 
L 44.627743 -99.669845 
L 44.294455 -101.457605 
L 43.961167 -103.289598 
L 43.627879 -104.947835 
L 43.294591 -106.533923 
L 42.961303 -108.37794 
L 42.628015 -110.775919 
L 42.294727 -113.701717 
L 41.961439 -116.968848 
L 41.62815 -120.498112 
L 41.294862 -124.403574 
L 40.961574 -128.944925 
L 40.628286 -134.378588 
L 40.294998 -140.807717 
L 39.96171 -148.315345 
L 39.628422 -156.941559 
L 39.295134 -166.507036 
L 38.961846 -176.735391 
L 38.628558 -187.278123 
L 38.29527 -197.690173 
L 37.961982 -207.713336 
L 37.628694 -217.325779 
L 37.295406 -226.632773 
L 36.962117 -235.970514 
z
"/>
    </defs>
    <g clip-path="url(#p0455feab0e)">
     <use xlink:href="#m0077cc5e66" x="0" y="236.88" style="fill: #888578; fill-opacity: 0.4"/>
    </g>
   </g>
   <g id="matplotlib.axis_1">
    <g id="xtick_1">
     <g id="line2d_1">
      <defs>
       <path id="m26b62b878c" d="M 0 0 
L 0 2.5 
" style="stroke: #000000; stroke-width: 1.1"/>
      </defs>
      <g>
       <use xlink:href="#m26b62b878c" x="36.962117" y="203.917368" style="stroke: #000000; stroke-width: 1.1"/>
      </g>
     </g>
     <g id="line2d_2">
      <defs>
       <path id="ma848658305" d="M 0 0 
L 0 -2.5 
" style="stroke: #000000; stroke-width: 1.1"/>
      </defs>
      <g>
       <use xlink:href="#ma848658305" x="36.962117" y="7.14916" style="stroke: #000000; stroke-width: 1.1"/>
      </g>
     </g>
     <g id="text_1">
      <!-- $\mathdefault{0}$ -->
      <g transform="translate(34.192535 217.015688) scale(0.1 -0.1)">
       <defs>
        <path id="NimbusSanL-Regu-30" d="M 1760 4544 
C 1338 4544 954 4360 717 4046 
C 422 3651 275 3044 275 2208 
C 275 683 787 -128 1760 -128 
C 2720 -128 3245 683 3245 2170 
C 3245 3050 3104 3638 2803 4046 
C 2566 4366 2189 4544 1760 4544 
z
M 1760 4044 
C 2368 4044 2669 3432 2669 2221 
C 2669 939 2374 340 1747 340 
C 1152 340 851 965 851 2202 
C 851 3438 1152 4044 1760 4044 
z
" transform="scale(0.015625)"/>
       </defs>
       <use xlink:href="#NimbusSanL-Regu-30" transform="scale(0.996264)"/>
      </g>
     </g>
    </g>
    <g id="xtick_2">
     <g id="line2d_3">
      <g>
       <use xlink:href="#m26b62b878c" x="103.508635" y="203.917368" style="stroke: #000000; stroke-width: 1.1"/>
      </g>
     </g>
     <g id="line2d_4">
      <g>
       <use xlink:href="#ma848658305" x="103.508635" y="7.14916" style="stroke: #000000; stroke-width: 1.1"/>
      </g>
     </g>
     <g id="text_2">
      <!-- $\mathdefault{1000}$ -->
      <g transform="translate(92.430306 217.015688) scale(0.1 -0.1)">
       <defs>
        <path id="NimbusSanL-Regu-31" d="M 1658 3238 
L 1658 0 
L 2221 0 
L 2221 4545 
L 1850 4545 
C 1651 3847 1523 3751 653 3642 
L 653 3238 
L 1658 3238 
z
" transform="scale(0.015625)"/>
       </defs>
       <use xlink:href="#NimbusSanL-Regu-31" transform="scale(0.996264)"/>
       <use xlink:href="#NimbusSanL-Regu-30" transform="translate(55.391677 0) scale(0.996264)"/>
       <use xlink:href="#NimbusSanL-Regu-30" transform="translate(110.783354 0) scale(0.996264)"/>
       <use xlink:href="#NimbusSanL-Regu-30" transform="translate(166.175031 0) scale(0.996264)"/>
      </g>
     </g>
    </g>
    <g id="xtick_3">
     <g id="line2d_5">
      <g>
       <use xlink:href="#m26b62b878c" x="170.055153" y="203.917368" style="stroke: #000000; stroke-width: 1.1"/>
      </g>
     </g>
     <g id="line2d_6">
      <g>
       <use xlink:href="#ma848658305" x="170.055153" y="7.14916" style="stroke: #000000; stroke-width: 1.1"/>
      </g>
     </g>
     <g id="text_3">
      <!-- $\mathdefault{2000}$ -->
      <g transform="translate(158.976824 217.015688) scale(0.1 -0.1)">
       <defs>
        <path id="NimbusSanL-Regu-32" d="M 3238 558 
L 851 558 
C 909 930 1114 1167 1670 1494 
L 2310 1840 
C 2944 2186 3270 2653 3270 3211 
C 3270 3589 3117 3942 2848 4185 
C 2579 4429 2246 4544 1818 4544 
C 1242 4544 813 4339 563 3955 
C 403 3711 333 3429 320 2967 
L 883 2967 
C 902 3275 941 3461 1018 3608 
C 1165 3884 1459 4051 1798 4051 
C 2310 4051 2694 3685 2694 3198 
C 2694 2839 2483 2531 2080 2301 
L 1491 1968 
C 544 1430 269 1000 218 0 
L 3238 0 
L 3238 558 
z
" transform="scale(0.015625)"/>
       </defs>
       <use xlink:href="#NimbusSanL-Regu-32" transform="scale(0.996264)"/>
       <use xlink:href="#NimbusSanL-Regu-30" transform="translate(55.391677 0) scale(0.996264)"/>
       <use xlink:href="#NimbusSanL-Regu-30" transform="translate(110.783354 0) scale(0.996264)"/>
       <use xlink:href="#NimbusSanL-Regu-30" transform="translate(166.175031 0) scale(0.996264)"/>
      </g>
     </g>
    </g>
    <g id="xtick_4">
     <g id="line2d_7">
      <g>
       <use xlink:href="#m26b62b878c" x="236.601671" y="203.917368" style="stroke: #000000; stroke-width: 1.1"/>
      </g>
     </g>
     <g id="line2d_8">
      <g>
       <use xlink:href="#ma848658305" x="236.601671" y="7.14916" style="stroke: #000000; stroke-width: 1.1"/>
      </g>
     </g>
     <g id="text_4">
      <!-- $\mathdefault{3000}$ -->
      <g transform="translate(225.523341 217.015688) scale(0.1 -0.1)">
       <defs>
        <path id="NimbusSanL-Regu-33" d="M 1414 2112 
L 1485 2112 
L 1722 2112 
C 2342 2112 2662 1830 2662 1284 
C 2662 712 2310 372 1722 372 
C 1107 372 806 681 768 1345 
L 205 1345 
C 230 978 294 740 403 534 
C 634 97 1082 -128 1702 -128 
C 2637 -128 3238 431 3238 1293 
C 3238 1872 3014 2194 2470 2381 
C 2893 2546 3104 2862 3104 3311 
C 3104 4082 2586 4544 1722 4544 
C 806 4544 320 4050 301 3095 
L 864 3095 
C 870 3366 896 3517 966 3655 
C 1094 3900 1376 4051 1728 4051 
C 2227 4051 2528 3760 2528 3287 
C 2528 2971 2413 2781 2163 2681 
C 2010 2618 1811 2592 1414 2592 
L 1414 2112 
z
" transform="scale(0.015625)"/>
       </defs>
       <use xlink:href="#NimbusSanL-Regu-33" transform="scale(0.996264)"/>
       <use xlink:href="#NimbusSanL-Regu-30" transform="translate(55.391677 0) scale(0.996264)"/>
       <use xlink:href="#NimbusSanL-Regu-30" transform="translate(110.783354 0) scale(0.996264)"/>
       <use xlink:href="#NimbusSanL-Regu-30" transform="translate(166.175031 0) scale(0.996264)"/>
      </g>
     </g>
    </g>
    <g id="xtick_5">
     <g id="line2d_9">
      <g>
       <use xlink:href="#m26b62b878c" x="50.271421" y="203.917368" style="stroke: #000000; stroke-width: 1.1"/>
      </g>
     </g>
     <g id="line2d_10">
      <g>
       <use xlink:href="#ma848658305" x="50.271421" y="7.14916" style="stroke: #000000; stroke-width: 1.1"/>
      </g>
     </g>
    </g>
    <g id="xtick_6">
     <g id="line2d_11">
      <g>
       <use xlink:href="#m26b62b878c" x="63.580725" y="203.917368" style="stroke: #000000; stroke-width: 1.1"/>
      </g>
     </g>
     <g id="line2d_12">
      <g>
       <use xlink:href="#ma848658305" x="63.580725" y="7.14916" style="stroke: #000000; stroke-width: 1.1"/>
      </g>
     </g>
    </g>
    <g id="xtick_7">
     <g id="line2d_13">
      <g>
       <use xlink:href="#m26b62b878c" x="76.890028" y="203.917368" style="stroke: #000000; stroke-width: 1.1"/>
      </g>
     </g>
     <g id="line2d_14">
      <g>
       <use xlink:href="#ma848658305" x="76.890028" y="7.14916" style="stroke: #000000; stroke-width: 1.1"/>
      </g>
     </g>
    </g>
    <g id="xtick_8">
     <g id="line2d_15">
      <g>
       <use xlink:href="#m26b62b878c" x="90.199332" y="203.917368" style="stroke: #000000; stroke-width: 1.1"/>
      </g>
     </g>
     <g id="line2d_16">
      <g>
       <use xlink:href="#ma848658305" x="90.199332" y="7.14916" style="stroke: #000000; stroke-width: 1.1"/>
      </g>
     </g>
    </g>
    <g id="xtick_9">
     <g id="line2d_17">
      <g>
       <use xlink:href="#m26b62b878c" x="116.817939" y="203.917368" style="stroke: #000000; stroke-width: 1.1"/>
      </g>
     </g>
     <g id="line2d_18">
      <g>
       <use xlink:href="#ma848658305" x="116.817939" y="7.14916" style="stroke: #000000; stroke-width: 1.1"/>
      </g>
     </g>
    </g>
    <g id="xtick_10">
     <g id="line2d_19">
      <g>
       <use xlink:href="#m26b62b878c" x="130.127242" y="203.917368" style="stroke: #000000; stroke-width: 1.1"/>
      </g>
     </g>
     <g id="line2d_20">
      <g>
       <use xlink:href="#ma848658305" x="130.127242" y="7.14916" style="stroke: #000000; stroke-width: 1.1"/>
      </g>
     </g>
    </g>
    <g id="xtick_11">
     <g id="line2d_21">
      <g>
       <use xlink:href="#m26b62b878c" x="143.436546" y="203.917368" style="stroke: #000000; stroke-width: 1.1"/>
      </g>
     </g>
     <g id="line2d_22">
      <g>
       <use xlink:href="#ma848658305" x="143.436546" y="7.14916" style="stroke: #000000; stroke-width: 1.1"/>
      </g>
     </g>
    </g>
    <g id="xtick_12">
     <g id="line2d_23">
      <g>
       <use xlink:href="#m26b62b878c" x="156.745849" y="203.917368" style="stroke: #000000; stroke-width: 1.1"/>
      </g>
     </g>
     <g id="line2d_24">
      <g>
       <use xlink:href="#ma848658305" x="156.745849" y="7.14916" style="stroke: #000000; stroke-width: 1.1"/>
      </g>
     </g>
    </g>
    <g id="xtick_13">
     <g id="line2d_25">
      <g>
       <use xlink:href="#m26b62b878c" x="183.364457" y="203.917368" style="stroke: #000000; stroke-width: 1.1"/>
      </g>
     </g>
     <g id="line2d_26">
      <g>
       <use xlink:href="#ma848658305" x="183.364457" y="7.14916" style="stroke: #000000; stroke-width: 1.1"/>
      </g>
     </g>
    </g>
    <g id="xtick_14">
     <g id="line2d_27">
      <g>
       <use xlink:href="#m26b62b878c" x="196.67376" y="203.917368" style="stroke: #000000; stroke-width: 1.1"/>
      </g>
     </g>
     <g id="line2d_28">
      <g>
       <use xlink:href="#ma848658305" x="196.67376" y="7.14916" style="stroke: #000000; stroke-width: 1.1"/>
      </g>
     </g>
    </g>
    <g id="xtick_15">
     <g id="line2d_29">
      <g>
       <use xlink:href="#m26b62b878c" x="209.983064" y="203.917368" style="stroke: #000000; stroke-width: 1.1"/>
      </g>
     </g>
     <g id="line2d_30">
      <g>
       <use xlink:href="#ma848658305" x="209.983064" y="7.14916" style="stroke: #000000; stroke-width: 1.1"/>
      </g>
     </g>
    </g>
    <g id="xtick_16">
     <g id="line2d_31">
      <g>
       <use xlink:href="#m26b62b878c" x="223.292367" y="203.917368" style="stroke: #000000; stroke-width: 1.1"/>
      </g>
     </g>
     <g id="line2d_32">
      <g>
       <use xlink:href="#ma848658305" x="223.292367" y="7.14916" style="stroke: #000000; stroke-width: 1.1"/>
      </g>
     </g>
    </g>
    <g id="text_5">
     <!-- Time [min] -->
     <g transform="translate(110.710539 230.945827) scale(0.11 -0.11)">
      <defs>
       <path id="NimbusSanL-Regu-54" d="M 2266 4146 
L 3795 4146 
L 3795 4672 
L 134 4672 
L 134 4146 
L 1670 4146 
L 1670 -14 
L 2266 -14 
L 2266 4146 
z
" transform="scale(0.015625)"/>
       <path id="NimbusSanL-Regu-69" d="M 960 3359 
L 429 3359 
L 429 0 
L 960 0 
L 960 3359 
z
M 960 4672 
L 422 4672 
L 422 3999 
L 960 3999 
L 960 4672 
z
" transform="scale(0.015625)"/>
       <path id="NimbusSanL-Regu-6d" d="M 448 3359 
L 448 0 
L 986 0 
L 986 2109 
C 986 2597 1338 2988 1773 2988 
C 2170 2988 2394 2744 2394 2314 
L 2394 0 
L 2931 0 
L 2931 2109 
C 2931 2597 3283 2988 3718 2988 
C 4109 2988 4339 2738 4339 2314 
L 4339 0 
L 4877 0 
L 4877 2520 
C 4877 3122 4531 3456 3904 3456 
C 3456 3456 3187 3321 2874 2943 
C 2675 3302 2406 3456 1971 3456 
C 1523 3456 1229 3289 941 2885 
L 941 3359 
L 448 3359 
z
" transform="scale(0.015625)"/>
       <path id="NimbusSanL-Regu-65" d="M 3283 1529 
C 3283 2034 3245 2338 3149 2584 
C 2931 3127 2419 3456 1792 3456 
C 858 3456 256 2742 256 1645 
C 256 547 838 -128 1779 -128 
C 2547 -128 3078 310 3213 1044 
L 2675 1044 
C 2528 598 2227 365 1798 365 
C 1459 365 1171 520 992 805 
C 864 998 819 1193 813 1529 
L 3283 1529 
z
M 826 1984 
C 870 2577 1248 2962 1786 2962 
C 2310 2962 2714 2530 2714 1984 
C 2714 1984 2714 1984 2707 1984 
L 826 1984 
z
" transform="scale(0.015625)"/>
       <path id="NimbusSanL-Regu-5b" d="M 1600 4672 
L 410 4672 
L 410 -1357 
L 1600 -1357 
L 1600 -896 
L 941 -896 
L 941 4210 
L 1600 4210 
L 1600 4672 
z
" transform="scale(0.015625)"/>
       <path id="NimbusSanL-Regu-6e" d="M 448 3359 
L 448 0 
L 986 0 
L 986 1853 
C 986 2539 1344 2988 1894 2988 
C 2317 2988 2586 2731 2586 2327 
L 2586 0 
L 3117 0 
L 3117 2539 
C 3117 3097 2701 3456 2054 3456 
C 1555 3456 1235 3263 941 2796 
L 941 3359 
L 448 3359 
z
" transform="scale(0.015625)"/>
       <path id="NimbusSanL-Regu-5d" d="M 147 -1357 
L 1338 -1357 
L 1338 4672 
L 147 4672 
L 147 4210 
L 806 4210 
L 806 -896 
L 147 -896 
L 147 -1357 
z
" transform="scale(0.015625)"/>
      </defs>
      <use xlink:href="#NimbusSanL-Regu-54" transform="scale(0.996264)"/>
      <use xlink:href="#NimbusSanL-Regu-69" transform="translate(60.871631 0) scale(0.996264)"/>
      <use xlink:href="#NimbusSanL-Regu-6d" transform="translate(82.988415 0) scale(0.996264)"/>
      <use xlink:href="#NimbusSanL-Regu-65" transform="translate(165.976845 0) scale(0.996264)"/>
      <use xlink:href="#NimbusSanL-Regu-5b" transform="translate(249.063692 0) scale(0.996264)"/>
      <use xlink:href="#NimbusSanL-Regu-6d" transform="translate(276.758861 0) scale(0.996264)"/>
      <use xlink:href="#NimbusSanL-Regu-69" transform="translate(359.747292 0) scale(0.996264)"/>
      <use xlink:href="#NimbusSanL-Regu-6e" transform="translate(381.864076 0) scale(0.996264)"/>
      <use xlink:href="#NimbusSanL-Regu-5d" transform="translate(437.255753 0) scale(0.996264)"/>
     </g>
    </g>
   </g>
   <g id="matplotlib.axis_2">
    <g id="ytick_1">
     <g id="line2d_33">
      <defs>
       <path id="m5b38002583" d="M 0 0 
L -2.5 0 
" style="stroke: #000000; stroke-width: 1.1"/>
      </defs>
      <g>
       <use xlink:href="#m5b38002583" x="35.96392" y="194.547454" style="stroke: #000000; stroke-width: 1.1"/>
      </g>
     </g>
     <g id="line2d_34">
      <defs>
       <path id="m870d76f7a1" d="M 0 0 
L 2.5 0 
" style="stroke: #000000; stroke-width: 1.1"/>
      </defs>
      <g>
       <use xlink:href="#m870d76f7a1" x="236.601671" y="194.547454" style="stroke: #000000; stroke-width: 1.1"/>
      </g>
     </g>
     <g id="text_6">
      <!-- $\mathdefault{0}$ -->
      <g transform="translate(24.424755 198.096614) scale(0.1 -0.1)">
       <use xlink:href="#NimbusSanL-Regu-30" transform="scale(0.996264)"/>
      </g>
     </g>
    </g>
    <g id="ytick_2">
     <g id="line2d_35">
      <g>
       <use xlink:href="#m5b38002583" x="35.96392" y="171.122667" style="stroke: #000000; stroke-width: 1.1"/>
      </g>
     </g>
     <g id="line2d_36">
      <g>
       <use xlink:href="#m870d76f7a1" x="236.601671" y="171.122667" style="stroke: #000000; stroke-width: 1.1"/>
      </g>
     </g>
     <g id="text_7">
      <!-- $\mathdefault{5}$ -->
      <g transform="translate(24.424755 174.671827) scale(0.1 -0.1)">
       <defs>
        <path id="NimbusSanL-Regu-35" d="M 3046 4544 
L 704 4544 
L 365 2086 
L 883 2086 
C 1146 2399 1363 2508 1715 2508 
C 2323 2508 2707 2092 2707 1421 
C 2707 768 2330 372 1715 372 
C 1222 372 922 621 787 1133 
L 224 1133 
C 301 762 365 582 499 415 
C 755 70 1216 -128 1728 -128 
C 2643 -128 3283 537 3283 1497 
C 3283 2394 2688 3008 1818 3008 
C 1498 3008 1242 2925 979 2732 
L 1158 3987 
L 3046 3987 
L 3046 4544 
z
" transform="scale(0.015625)"/>
       </defs>
       <use xlink:href="#NimbusSanL-Regu-35" transform="scale(0.996264)"/>
      </g>
     </g>
    </g>
    <g id="ytick_3">
     <g id="line2d_37">
      <g>
       <use xlink:href="#m5b38002583" x="35.96392" y="147.69788" style="stroke: #000000; stroke-width: 1.1"/>
      </g>
     </g>
     <g id="line2d_38">
      <g>
       <use xlink:href="#m870d76f7a1" x="236.601671" y="147.69788" style="stroke: #000000; stroke-width: 1.1"/>
      </g>
     </g>
     <g id="text_8">
      <!-- $\mathdefault{10}$ -->
      <g transform="translate(18.88559 151.24704) scale(0.1 -0.1)">
       <use xlink:href="#NimbusSanL-Regu-31" transform="scale(0.996264)"/>
       <use xlink:href="#NimbusSanL-Regu-30" transform="translate(55.391677 0) scale(0.996264)"/>
      </g>
     </g>
    </g>
    <g id="ytick_4">
     <g id="line2d_39">
      <g>
       <use xlink:href="#m5b38002583" x="35.96392" y="124.273093" style="stroke: #000000; stroke-width: 1.1"/>
      </g>
     </g>
     <g id="line2d_40">
      <g>
       <use xlink:href="#m870d76f7a1" x="236.601671" y="124.273093" style="stroke: #000000; stroke-width: 1.1"/>
      </g>
     </g>
     <g id="text_9">
      <!-- $\mathdefault{15}$ -->
      <g transform="translate(18.88559 127.822254) scale(0.1 -0.1)">
       <use xlink:href="#NimbusSanL-Regu-31" transform="scale(0.996264)"/>
       <use xlink:href="#NimbusSanL-Regu-35" transform="translate(55.391677 0) scale(0.996264)"/>
      </g>
     </g>
    </g>
    <g id="ytick_5">
     <g id="line2d_41">
      <g>
       <use xlink:href="#m5b38002583" x="35.96392" y="100.848307" style="stroke: #000000; stroke-width: 1.1"/>
      </g>
     </g>
     <g id="line2d_42">
      <g>
       <use xlink:href="#m870d76f7a1" x="236.601671" y="100.848307" style="stroke: #000000; stroke-width: 1.1"/>
      </g>
     </g>
     <g id="text_10">
      <!-- $\mathdefault{20}$ -->
      <g transform="translate(18.88559 104.397467) scale(0.1 -0.1)">
       <use xlink:href="#NimbusSanL-Regu-32" transform="scale(0.996264)"/>
       <use xlink:href="#NimbusSanL-Regu-30" transform="translate(55.391677 0) scale(0.996264)"/>
      </g>
     </g>
    </g>
    <g id="ytick_6">
     <g id="line2d_43">
      <g>
       <use xlink:href="#m5b38002583" x="35.96392" y="77.42352" style="stroke: #000000; stroke-width: 1.1"/>
      </g>
     </g>
     <g id="line2d_44">
      <g>
       <use xlink:href="#m870d76f7a1" x="236.601671" y="77.42352" style="stroke: #000000; stroke-width: 1.1"/>
      </g>
     </g>
     <g id="text_11">
      <!-- $\mathdefault{25}$ -->
      <g transform="translate(18.88559 80.97268) scale(0.1 -0.1)">
       <use xlink:href="#NimbusSanL-Regu-32" transform="scale(0.996264)"/>
       <use xlink:href="#NimbusSanL-Regu-35" transform="translate(55.391677 0) scale(0.996264)"/>
      </g>
     </g>
    </g>
    <g id="ytick_7">
     <g id="line2d_45">
      <g>
       <use xlink:href="#m5b38002583" x="35.96392" y="53.998733" style="stroke: #000000; stroke-width: 1.1"/>
      </g>
     </g>
     <g id="line2d_46">
      <g>
       <use xlink:href="#m870d76f7a1" x="236.601671" y="53.998733" style="stroke: #000000; stroke-width: 1.1"/>
      </g>
     </g>
     <g id="text_12">
      <!-- $\mathdefault{30}$ -->
      <g transform="translate(18.88559 57.547894) scale(0.1 -0.1)">
       <use xlink:href="#NimbusSanL-Regu-33" transform="scale(0.996264)"/>
       <use xlink:href="#NimbusSanL-Regu-30" transform="translate(55.391677 0) scale(0.996264)"/>
      </g>
     </g>
    </g>
    <g id="ytick_8">
     <g id="line2d_47">
      <g>
       <use xlink:href="#m5b38002583" x="35.96392" y="30.573947" style="stroke: #000000; stroke-width: 1.1"/>
      </g>
     </g>
     <g id="line2d_48">
      <g>
       <use xlink:href="#m870d76f7a1" x="236.601671" y="30.573947" style="stroke: #000000; stroke-width: 1.1"/>
      </g>
     </g>
     <g id="text_13">
      <!-- $\mathdefault{35}$ -->
      <g transform="translate(18.88559 34.123107) scale(0.1 -0.1)">
       <use xlink:href="#NimbusSanL-Regu-33" transform="scale(0.996264)"/>
       <use xlink:href="#NimbusSanL-Regu-35" transform="translate(55.391677 0) scale(0.996264)"/>
      </g>
     </g>
    </g>
    <g id="ytick_9">
     <g id="line2d_49">
      <g>
       <use xlink:href="#m5b38002583" x="35.96392" y="7.14916" style="stroke: #000000; stroke-width: 1.1"/>
      </g>
     </g>
     <g id="line2d_50">
      <g>
       <use xlink:href="#m870d76f7a1" x="236.601671" y="7.14916" style="stroke: #000000; stroke-width: 1.1"/>
      </g>
     </g>
     <g id="text_14">
      <!-- $\mathdefault{40}$ -->
      <g transform="translate(18.88559 10.69832) scale(0.1 -0.1)">
       <defs>
        <path id="NimbusSanL-Regu-34" d="M 2093 1088 
L 2093 0 
L 2656 0 
L 2656 1088 
L 3328 1088 
L 3328 1594 
L 2656 1594 
L 2656 4545 
L 2240 4545 
L 179 1684 
L 179 1088 
L 2093 1088 
z
M 2093 1594 
L 672 1594 
L 2093 3583 
L 2093 1594 
z
" transform="scale(0.015625)"/>
       </defs>
       <use xlink:href="#NimbusSanL-Regu-34" transform="scale(0.996264)"/>
       <use xlink:href="#NimbusSanL-Regu-30" transform="translate(55.391677 0) scale(0.996264)"/>
      </g>
     </g>
    </g>
    <g id="ytick_10">
     <g id="line2d_51">
      <g>
       <use xlink:href="#m5b38002583" x="35.96392" y="203.917368" style="stroke: #000000; stroke-width: 1.1"/>
      </g>
     </g>
     <g id="line2d_52">
      <g>
       <use xlink:href="#m870d76f7a1" x="236.601671" y="203.917368" style="stroke: #000000; stroke-width: 1.1"/>
      </g>
     </g>
    </g>
    <g id="ytick_11">
     <g id="line2d_53">
      <g>
       <use xlink:href="#m5b38002583" x="35.96392" y="199.232411" style="stroke: #000000; stroke-width: 1.1"/>
      </g>
     </g>
     <g id="line2d_54">
      <g>
       <use xlink:href="#m870d76f7a1" x="236.601671" y="199.232411" style="stroke: #000000; stroke-width: 1.1"/>
      </g>
     </g>
    </g>
    <g id="ytick_12">
     <g id="line2d_55">
      <g>
       <use xlink:href="#m5b38002583" x="35.96392" y="189.862496" style="stroke: #000000; stroke-width: 1.1"/>
      </g>
     </g>
     <g id="line2d_56">
      <g>
       <use xlink:href="#m870d76f7a1" x="236.601671" y="189.862496" style="stroke: #000000; stroke-width: 1.1"/>
      </g>
     </g>
    </g>
    <g id="ytick_13">
     <g id="line2d_57">
      <g>
       <use xlink:href="#m5b38002583" x="35.96392" y="185.177539" style="stroke: #000000; stroke-width: 1.1"/>
      </g>
     </g>
     <g id="line2d_58">
      <g>
       <use xlink:href="#m870d76f7a1" x="236.601671" y="185.177539" style="stroke: #000000; stroke-width: 1.1"/>
      </g>
     </g>
    </g>
    <g id="ytick_14">
     <g id="line2d_59">
      <g>
       <use xlink:href="#m5b38002583" x="35.96392" y="180.492581" style="stroke: #000000; stroke-width: 1.1"/>
      </g>
     </g>
     <g id="line2d_60">
      <g>
       <use xlink:href="#m870d76f7a1" x="236.601671" y="180.492581" style="stroke: #000000; stroke-width: 1.1"/>
      </g>
     </g>
    </g>
    <g id="ytick_15">
     <g id="line2d_61">
      <g>
       <use xlink:href="#m5b38002583" x="35.96392" y="175.807624" style="stroke: #000000; stroke-width: 1.1"/>
      </g>
     </g>
     <g id="line2d_62">
      <g>
       <use xlink:href="#m870d76f7a1" x="236.601671" y="175.807624" style="stroke: #000000; stroke-width: 1.1"/>
      </g>
     </g>
    </g>
    <g id="ytick_16">
     <g id="line2d_63">
      <g>
       <use xlink:href="#m5b38002583" x="35.96392" y="166.437709" style="stroke: #000000; stroke-width: 1.1"/>
      </g>
     </g>
     <g id="line2d_64">
      <g>
       <use xlink:href="#m870d76f7a1" x="236.601671" y="166.437709" style="stroke: #000000; stroke-width: 1.1"/>
      </g>
     </g>
    </g>
    <g id="ytick_17">
     <g id="line2d_65">
      <g>
       <use xlink:href="#m5b38002583" x="35.96392" y="161.752752" style="stroke: #000000; stroke-width: 1.1"/>
      </g>
     </g>
     <g id="line2d_66">
      <g>
       <use xlink:href="#m870d76f7a1" x="236.601671" y="161.752752" style="stroke: #000000; stroke-width: 1.1"/>
      </g>
     </g>
    </g>
    <g id="ytick_18">
     <g id="line2d_67">
      <g>
       <use xlink:href="#m5b38002583" x="35.96392" y="157.067795" style="stroke: #000000; stroke-width: 1.1"/>
      </g>
     </g>
     <g id="line2d_68">
      <g>
       <use xlink:href="#m870d76f7a1" x="236.601671" y="157.067795" style="stroke: #000000; stroke-width: 1.1"/>
      </g>
     </g>
    </g>
    <g id="ytick_19">
     <g id="line2d_69">
      <g>
       <use xlink:href="#m5b38002583" x="35.96392" y="152.382837" style="stroke: #000000; stroke-width: 1.1"/>
      </g>
     </g>
     <g id="line2d_70">
      <g>
       <use xlink:href="#m870d76f7a1" x="236.601671" y="152.382837" style="stroke: #000000; stroke-width: 1.1"/>
      </g>
     </g>
    </g>
    <g id="ytick_20">
     <g id="line2d_71">
      <g>
       <use xlink:href="#m5b38002583" x="35.96392" y="143.012923" style="stroke: #000000; stroke-width: 1.1"/>
      </g>
     </g>
     <g id="line2d_72">
      <g>
       <use xlink:href="#m870d76f7a1" x="236.601671" y="143.012923" style="stroke: #000000; stroke-width: 1.1"/>
      </g>
     </g>
    </g>
    <g id="ytick_21">
     <g id="line2d_73">
      <g>
       <use xlink:href="#m5b38002583" x="35.96392" y="138.327965" style="stroke: #000000; stroke-width: 1.1"/>
      </g>
     </g>
     <g id="line2d_74">
      <g>
       <use xlink:href="#m870d76f7a1" x="236.601671" y="138.327965" style="stroke: #000000; stroke-width: 1.1"/>
      </g>
     </g>
    </g>
    <g id="ytick_22">
     <g id="line2d_75">
      <g>
       <use xlink:href="#m5b38002583" x="35.96392" y="133.643008" style="stroke: #000000; stroke-width: 1.1"/>
      </g>
     </g>
     <g id="line2d_76">
      <g>
       <use xlink:href="#m870d76f7a1" x="236.601671" y="133.643008" style="stroke: #000000; stroke-width: 1.1"/>
      </g>
     </g>
    </g>
    <g id="ytick_23">
     <g id="line2d_77">
      <g>
       <use xlink:href="#m5b38002583" x="35.96392" y="128.958051" style="stroke: #000000; stroke-width: 1.1"/>
      </g>
     </g>
     <g id="line2d_78">
      <g>
       <use xlink:href="#m870d76f7a1" x="236.601671" y="128.958051" style="stroke: #000000; stroke-width: 1.1"/>
      </g>
     </g>
    </g>
    <g id="ytick_24">
     <g id="line2d_79">
      <g>
       <use xlink:href="#m5b38002583" x="35.96392" y="119.588136" style="stroke: #000000; stroke-width: 1.1"/>
      </g>
     </g>
     <g id="line2d_80">
      <g>
       <use xlink:href="#m870d76f7a1" x="236.601671" y="119.588136" style="stroke: #000000; stroke-width: 1.1"/>
      </g>
     </g>
    </g>
    <g id="ytick_25">
     <g id="line2d_81">
      <g>
       <use xlink:href="#m5b38002583" x="35.96392" y="114.903179" style="stroke: #000000; stroke-width: 1.1"/>
      </g>
     </g>
     <g id="line2d_82">
      <g>
       <use xlink:href="#m870d76f7a1" x="236.601671" y="114.903179" style="stroke: #000000; stroke-width: 1.1"/>
      </g>
     </g>
    </g>
    <g id="ytick_26">
     <g id="line2d_83">
      <g>
       <use xlink:href="#m5b38002583" x="35.96392" y="110.218221" style="stroke: #000000; stroke-width: 1.1"/>
      </g>
     </g>
     <g id="line2d_84">
      <g>
       <use xlink:href="#m870d76f7a1" x="236.601671" y="110.218221" style="stroke: #000000; stroke-width: 1.1"/>
      </g>
     </g>
    </g>
    <g id="ytick_27">
     <g id="line2d_85">
      <g>
       <use xlink:href="#m5b38002583" x="35.96392" y="105.533264" style="stroke: #000000; stroke-width: 1.1"/>
      </g>
     </g>
     <g id="line2d_86">
      <g>
       <use xlink:href="#m870d76f7a1" x="236.601671" y="105.533264" style="stroke: #000000; stroke-width: 1.1"/>
      </g>
     </g>
    </g>
    <g id="ytick_28">
     <g id="line2d_87">
      <g>
       <use xlink:href="#m5b38002583" x="35.96392" y="96.163349" style="stroke: #000000; stroke-width: 1.1"/>
      </g>
     </g>
     <g id="line2d_88">
      <g>
       <use xlink:href="#m870d76f7a1" x="236.601671" y="96.163349" style="stroke: #000000; stroke-width: 1.1"/>
      </g>
     </g>
    </g>
    <g id="ytick_29">
     <g id="line2d_89">
      <g>
       <use xlink:href="#m5b38002583" x="35.96392" y="91.478392" style="stroke: #000000; stroke-width: 1.1"/>
      </g>
     </g>
     <g id="line2d_90">
      <g>
       <use xlink:href="#m870d76f7a1" x="236.601671" y="91.478392" style="stroke: #000000; stroke-width: 1.1"/>
      </g>
     </g>
    </g>
    <g id="ytick_30">
     <g id="line2d_91">
      <g>
       <use xlink:href="#m5b38002583" x="35.96392" y="86.793435" style="stroke: #000000; stroke-width: 1.1"/>
      </g>
     </g>
     <g id="line2d_92">
      <g>
       <use xlink:href="#m870d76f7a1" x="236.601671" y="86.793435" style="stroke: #000000; stroke-width: 1.1"/>
      </g>
     </g>
    </g>
    <g id="ytick_31">
     <g id="line2d_93">
      <g>
       <use xlink:href="#m5b38002583" x="35.96392" y="82.108477" style="stroke: #000000; stroke-width: 1.1"/>
      </g>
     </g>
     <g id="line2d_94">
      <g>
       <use xlink:href="#m870d76f7a1" x="236.601671" y="82.108477" style="stroke: #000000; stroke-width: 1.1"/>
      </g>
     </g>
    </g>
    <g id="ytick_32">
     <g id="line2d_95">
      <g>
       <use xlink:href="#m5b38002583" x="35.96392" y="72.738563" style="stroke: #000000; stroke-width: 1.1"/>
      </g>
     </g>
     <g id="line2d_96">
      <g>
       <use xlink:href="#m870d76f7a1" x="236.601671" y="72.738563" style="stroke: #000000; stroke-width: 1.1"/>
      </g>
     </g>
    </g>
    <g id="ytick_33">
     <g id="line2d_97">
      <g>
       <use xlink:href="#m5b38002583" x="35.96392" y="68.053605" style="stroke: #000000; stroke-width: 1.1"/>
      </g>
     </g>
     <g id="line2d_98">
      <g>
       <use xlink:href="#m870d76f7a1" x="236.601671" y="68.053605" style="stroke: #000000; stroke-width: 1.1"/>
      </g>
     </g>
    </g>
    <g id="ytick_34">
     <g id="line2d_99">
      <g>
       <use xlink:href="#m5b38002583" x="35.96392" y="63.368648" style="stroke: #000000; stroke-width: 1.1"/>
      </g>
     </g>
     <g id="line2d_100">
      <g>
       <use xlink:href="#m870d76f7a1" x="236.601671" y="63.368648" style="stroke: #000000; stroke-width: 1.1"/>
      </g>
     </g>
    </g>
    <g id="ytick_35">
     <g id="line2d_101">
      <g>
       <use xlink:href="#m5b38002583" x="35.96392" y="58.683691" style="stroke: #000000; stroke-width: 1.1"/>
      </g>
     </g>
     <g id="line2d_102">
      <g>
       <use xlink:href="#m870d76f7a1" x="236.601671" y="58.683691" style="stroke: #000000; stroke-width: 1.1"/>
      </g>
     </g>
    </g>
    <g id="ytick_36">
     <g id="line2d_103">
      <g>
       <use xlink:href="#m5b38002583" x="35.96392" y="49.313776" style="stroke: #000000; stroke-width: 1.1"/>
      </g>
     </g>
     <g id="line2d_104">
      <g>
       <use xlink:href="#m870d76f7a1" x="236.601671" y="49.313776" style="stroke: #000000; stroke-width: 1.1"/>
      </g>
     </g>
    </g>
    <g id="ytick_37">
     <g id="line2d_105">
      <g>
       <use xlink:href="#m5b38002583" x="35.96392" y="44.628819" style="stroke: #000000; stroke-width: 1.1"/>
      </g>
     </g>
     <g id="line2d_106">
      <g>
       <use xlink:href="#m870d76f7a1" x="236.601671" y="44.628819" style="stroke: #000000; stroke-width: 1.1"/>
      </g>
     </g>
    </g>
    <g id="ytick_38">
     <g id="line2d_107">
      <g>
       <use xlink:href="#m5b38002583" x="35.96392" y="39.943861" style="stroke: #000000; stroke-width: 1.1"/>
      </g>
     </g>
     <g id="line2d_108">
      <g>
       <use xlink:href="#m870d76f7a1" x="236.601671" y="39.943861" style="stroke: #000000; stroke-width: 1.1"/>
      </g>
     </g>
    </g>
    <g id="ytick_39">
     <g id="line2d_109">
      <g>
       <use xlink:href="#m5b38002583" x="35.96392" y="35.258904" style="stroke: #000000; stroke-width: 1.1"/>
      </g>
     </g>
     <g id="line2d_110">
      <g>
       <use xlink:href="#m870d76f7a1" x="236.601671" y="35.258904" style="stroke: #000000; stroke-width: 1.1"/>
      </g>
     </g>
    </g>
    <g id="ytick_40">
     <g id="line2d_111">
      <g>
       <use xlink:href="#m5b38002583" x="35.96392" y="25.888989" style="stroke: #000000; stroke-width: 1.1"/>
      </g>
     </g>
     <g id="line2d_112">
      <g>
       <use xlink:href="#m870d76f7a1" x="236.601671" y="25.888989" style="stroke: #000000; stroke-width: 1.1"/>
      </g>
     </g>
    </g>
    <g id="ytick_41">
     <g id="line2d_113">
      <g>
       <use xlink:href="#m5b38002583" x="35.96392" y="21.204032" style="stroke: #000000; stroke-width: 1.1"/>
      </g>
     </g>
     <g id="line2d_114">
      <g>
       <use xlink:href="#m870d76f7a1" x="236.601671" y="21.204032" style="stroke: #000000; stroke-width: 1.1"/>
      </g>
     </g>
    </g>
    <g id="ytick_42">
     <g id="line2d_115">
      <g>
       <use xlink:href="#m5b38002583" x="35.96392" y="16.519075" style="stroke: #000000; stroke-width: 1.1"/>
      </g>
     </g>
     <g id="line2d_116">
      <g>
       <use xlink:href="#m870d76f7a1" x="236.601671" y="16.519075" style="stroke: #000000; stroke-width: 1.1"/>
      </g>
     </g>
    </g>
    <g id="ytick_43">
     <g id="line2d_117">
      <g>
       <use xlink:href="#m5b38002583" x="35.96392" y="11.834117" style="stroke: #000000; stroke-width: 1.1"/>
      </g>
     </g>
     <g id="line2d_118">
      <g>
       <use xlink:href="#m870d76f7a1" x="236.601671" y="11.834117" style="stroke: #000000; stroke-width: 1.1"/>
      </g>
     </g>
    </g>
    <g id="text_15">
     <!-- Glucose [g/L] -->
     <g transform="translate(12.339216 140.752662) rotate(-90) scale(0.12 -0.12)">
      <defs>
       <path id="NimbusSanL-Regu-47" d="M 4538 2496 
L 2592 2496 
L 2592 1971 
L 4013 1971 
L 4013 1841 
C 4013 1003 3398 397 2547 397 
C 2074 397 1645 569 1370 870 
C 1062 1201 877 1756 877 2330 
C 877 3471 1530 4224 2515 4224 
C 3226 4224 3738 3864 3866 3272 
L 4474 3272 
C 4307 4211 3590 4750 2522 4750 
C 1952 4750 1491 4603 1126 4303 
C 589 3856 282 3135 282 2298 
C 282 868 1158 -128 2419 -128 
C 3053 -128 3558 109 4013 616 
L 4160 -7 
L 4538 -7 
L 4538 2496 
z
" transform="scale(0.015625)"/>
       <path id="NimbusSanL-Regu-6c" d="M 973 4672 
L 435 4672 
L 435 -2 
L 973 -2 
L 973 4672 
z
" transform="scale(0.015625)"/>
       <path id="NimbusSanL-Regu-75" d="M 3085 33 
L 3085 3392 
L 2554 3392 
L 2554 1479 
C 2554 790 2195 340 1638 340 
C 1216 340 947 597 947 1003 
L 947 3392 
L 416 3392 
L 416 792 
C 416 232 832 -128 1485 -128 
C 1978 -128 2291 45 2605 488 
L 2605 33 
L 3085 33 
z
" transform="scale(0.015625)"/>
       <path id="NimbusSanL-Regu-63" d="M 3014 2236 
C 2989 2562 2918 2773 2790 2958 
C 2560 3271 2157 3456 1690 3456 
C 787 3456 198 2742 198 1632 
C 198 554 774 -128 1683 -128 
C 2483 -128 2989 350 3053 1167 
L 2515 1167 
C 2426 632 2150 365 1696 365 
C 1107 365 755 843 755 1632 
C 755 2466 1101 2962 1683 2962 
C 2131 2962 2413 2701 2477 2236 
L 3014 2236 
z
" transform="scale(0.015625)"/>
       <path id="NimbusSanL-Regu-6f" d="M 1741 3456 
C 800 3456 230 2786 230 1663 
C 230 541 794 -128 1747 -128 
C 2688 -128 3264 541 3264 1638 
C 3264 2792 2707 3456 1741 3456 
z
M 1747 2962 
C 2349 2962 2707 2472 2707 1645 
C 2707 861 2336 365 1747 365 
C 1152 365 787 855 787 1663 
C 787 2466 1152 2962 1747 2962 
z
" transform="scale(0.015625)"/>
       <path id="NimbusSanL-Regu-73" d="M 2803 2427 
C 2797 3085 2362 3456 1587 3456 
C 806 3456 301 3054 301 2436 
C 301 1913 570 1665 1363 1474 
L 1862 1353 
C 2234 1263 2381 1130 2381 888 
C 2381 576 2067 365 1600 365 
C 1312 365 1069 448 934 588 
C 851 684 813 779 781 1014 
L 218 1014 
C 243 241 678 -128 1555 -128 
C 2400 -128 2938 285 2938 929 
C 2938 1426 2656 1701 1990 1860 
L 1478 1981 
C 1043 2082 858 2223 858 2458 
C 858 2764 1133 2962 1568 2962 
C 1997 2962 2227 2777 2240 2427 
L 2803 2427 
z
" transform="scale(0.015625)"/>
       <path id="NimbusSanL-Regu-67" d="M 2637 3341 
L 2637 2854 
C 2368 3252 2042 3438 1613 3438 
C 762 3438 186 2692 186 1600 
C 186 1048 333 598 608 276 
C 858 -7 1216 -173 1568 -173 
C 1990 -173 2285 6 2586 429 
L 2586 258 
C 2586 -192 2528 -465 2394 -649 
C 2253 -844 1978 -959 1651 -959 
C 1408 -959 1190 -896 1043 -783 
C 922 -688 870 -600 838 -406 
L 294 -406 
C 352 -1033 845 -1408 1632 -1408 
C 2131 -1408 2560 -1247 2778 -979 
C 3034 -671 3130 -249 3130 538 
L 3130 3341 
L 2637 3341 
z
M 1670 2944 
C 2246 2944 2586 2455 2586 1613 
C 2586 808 2240 320 1677 320 
C 1094 320 742 816 742 1632 
C 742 2442 1101 2944 1670 2944 
z
" transform="scale(0.015625)"/>
       <path id="NimbusSanL-Regu-2f" d="M 1466 4672 
L -51 -128 
L 301 -128 
L 1818 4672 
L 1466 4672 
z
" transform="scale(0.015625)"/>
       <path id="NimbusSanL-Regu-4c" d="M 1107 4672 
L 512 4672 
L 512 0 
L 3411 0 
L 3411 526 
L 1107 526 
L 1107 4672 
z
" transform="scale(0.015625)"/>
      </defs>
      <use xlink:href="#NimbusSanL-Regu-47" transform="scale(0.996264)"/>
      <use xlink:href="#NimbusSanL-Regu-6c" transform="translate(77.50837 0) scale(0.996264)"/>
      <use xlink:href="#NimbusSanL-Regu-75" transform="translate(99.625154 0) scale(0.996264)"/>
      <use xlink:href="#NimbusSanL-Regu-63" transform="translate(155.016831 0) scale(0.996264)"/>
      <use xlink:href="#NimbusSanL-Regu-6f" transform="translate(204.830032 0) scale(0.996264)"/>
      <use xlink:href="#NimbusSanL-Regu-73" transform="translate(260.221709 0) scale(0.996264)"/>
      <use xlink:href="#NimbusSanL-Regu-65" transform="translate(310.034909 0) scale(0.996264)"/>
      <use xlink:href="#NimbusSanL-Regu-5b" transform="translate(393.121756 0) scale(0.996264)"/>
      <use xlink:href="#NimbusSanL-Regu-67" transform="translate(420.816926 0) scale(0.996264)"/>
      <use xlink:href="#NimbusSanL-Regu-2f" transform="translate(476.208603 0) scale(0.996264)"/>
      <use xlink:href="#NimbusSanL-Regu-4c" transform="translate(503.903772 0) scale(0.996264)"/>
      <use xlink:href="#NimbusSanL-Regu-5d" transform="translate(559.295449 0) scale(0.996264)"/>
     </g>
    </g>
   </g>
   <g id="PathCollection_1">
    <defs>
     <path id="m7240768bed" d="M 0 1.936492 
C 0.513564 1.936492 1.006162 1.732451 1.369306 1.369306 
C 1.732451 1.006162 1.936492 0.513564 1.936492 0 
C 1.936492 -0.513564 1.732451 -1.006162 1.369306 -1.369306 
C 1.006162 -1.732451 0.513564 -1.936492 0 -1.936492 
C -0.513564 -1.936492 -1.006162 -1.732451 -1.369306 -1.369306 
C -1.732451 -1.006162 -1.936492 -0.513564 -1.936492 0 
C -1.936492 0.513564 -1.732451 1.006162 -1.369306 1.369306 
C -1.006162 1.732451 -0.513564 1.936492 0 1.936492 
z
" style="stroke: #083370"/>
    </defs>
    <g clip-path="url(#p0455feab0e)">
     <use xlink:href="#m7240768bed" x="37.960315" y="71.329755" style="fill: #083370; stroke: #083370"/>
     <use xlink:href="#m7240768bed" x="38.958513" y="76.826901" style="fill: #083370; stroke: #083370"/>
     <use xlink:href="#m7240768bed" x="39.956711" y="81.948816" style="fill: #083370; stroke: #083370"/>
     <use xlink:href="#m7240768bed" x="40.954909" y="106.855018" style="fill: #083370; stroke: #083370"/>
     <use xlink:href="#m7240768bed" x="42.951304" y="129.541536" style="fill: #083370; stroke: #083370"/>
     <use xlink:href="#m7240768bed" x="44.9477" y="132.115627" style="fill: #083370; stroke: #083370"/>
     <use xlink:href="#m7240768bed" x="49.938688" y="148.460727" style="fill: #083370; stroke: #083370"/>
     <use xlink:href="#m7240768bed" x="134.120033" y="131.950525" style="fill: #083370; stroke: #083370"/>
     <use xlink:href="#m7240768bed" x="135.783696" y="132.700989" style="fill: #083370; stroke: #083370"/>
     <use xlink:href="#m7240768bed" x="137.780092" y="129.421462" style="fill: #083370; stroke: #083370"/>
    </g>
   </g>
   <g id="line2d_119">
    <path d="M 35.96392 194.547454 
L 236.601671 194.547454 
" clip-path="url(#p0455feab0e)" style="fill: none; stroke-dasharray: 12.8,3.2,2,3.2; stroke-dashoffset: 0; stroke: #666970; stroke-width: 2"/>
   </g>
   <g id="patch_3">
    <path d="M 35.96392 203.917368 
L 35.96392 7.14916 
" style="fill: none; stroke: #000000; stroke-width: 0.5; stroke-linejoin: miter; stroke-linecap: square"/>
   </g>
   <g id="patch_4">
    <path d="M 236.601671 203.917368 
L 236.601671 7.14916 
" style="fill: none; stroke: #000000; stroke-width: 0.5; stroke-linejoin: miter; stroke-linecap: square"/>
   </g>
   <g id="patch_5">
    <path d="M 35.96392 203.917368 
L 236.601671 203.917368 
" style="fill: none; stroke: #000000; stroke-width: 0.5; stroke-linejoin: miter; stroke-linecap: square"/>
   </g>
   <g id="patch_6">
    <path d="M 35.96392 7.14916 
L 236.601671 7.14916 
" style="fill: none; stroke: #000000; stroke-width: 0.5; stroke-linejoin: miter; stroke-linecap: square"/>
   </g>
   <g id="line2d_120">
    <path d="M 36.962117 53.998733 
L 37.961982 84.969972 
L 38.961846 109.763843 
L 39.96171 128.967816 
L 40.961574 143.386307 
L 41.961439 153.923073 
L 42.961303 161.4416 
L 43.961167 166.712061 
L 44.627743 169.27769 
L 45.294319 171.255741 
L 45.960895 172.771189 
L 46.627471 173.91414 
L 47.294048 174.759997 
L 48.293912 175.599121 
L 49.293776 176.053305 
L 50.29364 176.22902 
L 51.293504 176.201017 
L 52.626657 175.935606 
L 54.293097 175.35004 
L 56.292825 174.403494 
L 58.95913 172.879836 
L 62.625299 170.48916 
L 67.291332 167.148779 
L 73.623805 162.312597 
L 97.620546 143.681175 
L 103.953019 139.206645 
L 109.618916 135.467862 
L 115.284814 131.999649 
L 120.617423 128.989474 
L 125.950032 126.224543 
L 131.282641 123.698036 
L 136.948538 121.26262 
L 142.614435 119.069031 
L 148.613621 116.989919 
L 154.946094 115.043581 
L 161.278567 113.327049 
L 168.277617 111.668435 
L 175.609954 110.166157 
L 183.27558 108.819301 
L 191.607781 107.578348 
L 200.939847 106.417914 
L 210.938489 105.399691 
L 222.270284 104.473332 
L 234.93523 103.661837 
L 236.601671 103.569816 
L 236.601671 103.569816 
" clip-path="url(#p0455feab0e)" style="fill: none; stroke: #bcae6c; stroke-width: 1.8; stroke-linecap: square"/>
   </g>
   <g id="line2d_121">
    <path d="M 36.962117 35.540633 
L 38.628558 82.74257 
L 39.96171 121.84657 
L 40.628286 135.950532 
L 41.294862 146.079485 
L 42.294727 157.020028 
L 42.961303 162.371791 
L 44.294455 169.511432 
L 44.961031 172.570905 
L 45.294319 173.140397 
L 45.627607 173.126343 
L 46.627471 172.180867 
L 46.96076 172.077378 
L 47.294048 172.184154 
L 47.627336 172.519452 
L 47.960624 173.089332 
L 48.6272 174.886197 
L 49.627064 178.077703 
L 49.960352 178.551294 
L 50.29364 178.442042 
L 50.626928 177.885303 
L 51.626793 175.299575 
L 52.626657 172.661282 
L 53.293233 171.356825 
L 53.959809 170.449726 
L 54.959673 169.556734 
L 56.626114 168.522507 
L 60.292282 166.305196 
L 64.291739 163.589508 
L 69.624348 159.660913 
L 77.289974 153.690597 
L 93.287801 141.162789 
L 99.953562 136.262167 
L 105.952748 132.120547 
L 111.618645 128.475715 
L 117.284542 125.105319 
L 122.950439 122.007308 
L 125.950032 120.317814 
L 128.616336 118.590388 
L 130.949353 117.761176 
L 131.949217 117.265677 
L 132.615793 116.775295 
L 133.282369 116.041643 
L 133.948946 114.936233 
L 134.615522 113.266363 
L 135.282098 110.731493 
L 136.61525 104.504277 
L 136.948538 103.772675 
L 137.281826 103.626798 
L 137.615114 104.125564 
L 137.948402 105.217646 
L 139.614843 112.36093 
L 139.948131 113.100554 
L 140.281419 113.546107 
L 140.614707 113.768492 
L 141.281283 113.816365 
L 142.281147 113.505863 
L 146.94718 111.807423 
L 152.946365 109.895639 
L 159.278839 108.109184 
L 165.9446 106.458756 
L 172.94365 104.950145 
L 180.609275 103.527198 
L 188.941477 102.215959 
L 197.940255 101.030424 
L 207.605609 99.97925 
L 218.604115 99.013554 
L 226.269741 98.521328 
L 227.269605 98.604105 
L 227.936181 98.80538 
L 228.602757 99.249207 
L 229.269333 100.106935 
L 229.935909 101.55364 
L 231.269062 105.29528 
L 231.60235 105.595541 
L 231.935638 105.322861 
L 232.602214 103.547098 
L 233.602078 100.59984 
L 234.268654 99.347624 
L 234.93523 98.615768 
L 235.601806 98.216311 
L 236.601671 97.934024 
L 236.601671 97.934024 
" clip-path="url(#p0455feab0e)" style="fill: none; stroke-dasharray: 6.66,2.88; stroke-dashoffset: 0; stroke: #7d7c78; stroke-width: 1.8"/>
   </g>
   <g id="legend_1">
    <g id="patch_7">
     <path d="M 86.566997 21.637648 
L 104.566997 21.637648 
L 104.566997 15.337648 
L 86.566997 15.337648 
z
" style="fill: #888578; fill-opacity: 0.4"/>
    </g>
    <g id="text_16">
     <!-- Hybrid Uncertainty -->
     <g transform="translate(111.766997 21.637648) scale(0.09 -0.09)">
      <defs>
       <path id="NimbusSanL-Regu-48" d="M 3526 2112 
L 3526 -2 
L 4122 -2 
L 4122 4672 
L 3526 4672 
L 3526 2638 
L 1126 2638 
L 1126 4672 
L 531 4672 
L 531 -2 
L 1133 -2 
L 1133 2112 
L 3526 2112 
z
" transform="scale(0.015625)"/>
       <path id="NimbusSanL-Regu-79" d="M 2483 3360 
L 1555 738 
L 698 3360 
L 128 3360 
L 1261 -21 
L 1056 -554 
C 973 -792 851 -882 627 -882 
C 550 -882 461 -869 346 -843 
L 346 -1325 
C 454 -1382 563 -1408 704 -1408 
C 877 -1408 1062 -1350 1203 -1247 
C 1370 -1125 1466 -983 1568 -713 
L 3059 3360 
L 2483 3360 
z
" transform="scale(0.015625)"/>
       <path id="NimbusSanL-Regu-62" d="M 346 4672 
L 346 -2 
L 826 -2 
L 826 448 
C 1082 57 1421 -128 1888 -128 
C 2771 -128 3347 592 3347 1702 
C 3347 2786 2797 3456 1914 3456 
C 1453 3456 1126 3282 877 2905 
L 877 4672 
L 346 4672 
z
M 1811 2956 
C 2406 2956 2790 2440 2790 1645 
C 2790 887 2394 372 1811 372 
C 1248 372 877 881 877 1664 
C 877 2447 1248 2956 1811 2956 
z
" transform="scale(0.015625)"/>
       <path id="NimbusSanL-Regu-72" d="M 442 3359 
L 442 0 
L 979 0 
L 979 1741 
C 979 2221 1101 2535 1357 2720 
C 1523 2842 1683 2880 2054 2880 
L 2054 3432 
C 1965 3444 1920 3444 1850 3444 
C 1504 3444 1242 3240 934 2746 
L 934 3359 
L 442 3359 
z
" transform="scale(0.015625)"/>
       <path id="NimbusSanL-Regu-64" d="M 3168 4672 
L 2637 4672 
L 2637 2937 
C 2413 3276 2054 3456 1606 3456 
C 736 3456 166 2761 166 1695 
C 166 566 723 -128 1626 -128 
C 2086 -128 2406 45 2694 461 
L 2694 -2 
L 3168 -2 
L 3168 4672 
z
M 1696 2956 
C 2272 2956 2637 2447 2637 1651 
C 2637 881 2266 372 1702 372 
C 1114 372 723 887 723 1664 
C 723 2440 1114 2956 1696 2956 
z
" transform="scale(0.015625)"/>
       <path id="NimbusSanL-Regu-55" d="M 3533 4672 
L 3533 1395 
C 3533 768 3078 384 2330 384 
C 1984 384 1702 468 1478 628 
C 1248 806 1139 1044 1139 1395 
L 1139 4672 
L 544 4672 
L 544 1394 
C 544 447 1222 -141 2330 -141 
C 3424 -141 4128 460 4128 1394 
L 4128 4672 
L 3533 4672 
z
" transform="scale(0.015625)"/>
       <path id="NimbusSanL-Regu-74" d="M 1626 3380 
L 1075 3380 
L 1075 4288 
L 544 4288 
L 544 3380 
L 90 3380 
L 90 2944 
L 544 2944 
L 544 404 
C 544 64 774 -128 1190 -128 
C 1318 -128 1446 -116 1626 -83 
L 1626 366 
C 1555 346 1472 340 1370 340 
C 1139 340 1075 404 1075 641 
L 1075 2944 
L 1626 2944 
L 1626 3380 
z
" transform="scale(0.015625)"/>
       <path id="NimbusSanL-Regu-61" d="M 3424 333 
C 3366 320 3341 320 3309 320 
C 3123 320 3021 415 3021 581 
L 3021 2545 
C 3021 3137 2586 3456 1760 3456 
C 1274 3456 870 3316 646 3066 
C 493 2893 429 2702 416 2370 
L 954 2370 
C 998 2777 1242 2962 1741 2962 
C 2221 2962 2490 2783 2490 2465 
L 2490 2325 
C 2490 2101 2355 2006 1933 1955 
C 1178 1860 1062 1834 858 1751 
C 467 1592 269 1292 269 859 
C 269 254 691 -128 1370 -128 
C 1792 -128 2131 19 2509 365 
C 2547 25 2714 -128 3059 -128 
C 3168 -128 3251 -116 3424 -70 
L 3424 333 
z
M 2490 1072 
C 2490 893 2438 785 2278 639 
C 2061 441 1798 340 1485 340 
C 1069 340 826 537 826 874 
C 826 1225 1062 1403 1632 1486 
C 2195 1562 2310 1588 2490 1670 
L 2490 1072 
z
" transform="scale(0.015625)"/>
      </defs>
      <use xlink:href="#NimbusSanL-Regu-48" transform="scale(0.996264)"/>
      <use xlink:href="#NimbusSanL-Regu-79" transform="translate(71.929985 0) scale(0.996264)"/>
      <use xlink:href="#NimbusSanL-Regu-62" transform="translate(121.743185 0) scale(0.996264)"/>
      <use xlink:href="#NimbusSanL-Regu-72" transform="translate(177.134862 0) scale(0.996264)"/>
      <use xlink:href="#NimbusSanL-Regu-69" transform="translate(211.80347 0) scale(0.996264)"/>
      <use xlink:href="#NimbusSanL-Regu-64" transform="translate(233.920254 0) scale(0.996264)"/>
      <use xlink:href="#NimbusSanL-Regu-55" transform="translate(317.0071 0) scale(0.996264)"/>
      <use xlink:href="#NimbusSanL-Regu-6e" transform="translate(388.937085 0) scale(0.996264)"/>
      <use xlink:href="#NimbusSanL-Regu-63" transform="translate(444.328762 0) scale(0.996264)"/>
      <use xlink:href="#NimbusSanL-Regu-65" transform="translate(494.141963 0) scale(0.996264)"/>
      <use xlink:href="#NimbusSanL-Regu-72" transform="translate(549.53364 0) scale(0.996264)"/>
      <use xlink:href="#NimbusSanL-Regu-74" transform="translate(586.692968 0) scale(0.996264)"/>
      <use xlink:href="#NimbusSanL-Regu-61" transform="translate(614.388137 0) scale(0.996264)"/>
      <use xlink:href="#NimbusSanL-Regu-69" transform="translate(669.779814 0) scale(0.996264)"/>
      <use xlink:href="#NimbusSanL-Regu-6e" transform="translate(691.896599 0) scale(0.996264)"/>
      <use xlink:href="#NimbusSanL-Regu-74" transform="translate(747.288276 0) scale(0.996264)"/>
      <use xlink:href="#NimbusSanL-Regu-79" transform="translate(774.983445 0) scale(0.996264)"/>
     </g>
    </g>
    <g id="line2d_122">
     <path d="M 86.566997 31.285921 
L 95.566997 31.285921 
L 104.566997 31.285921 
" style="fill: none; stroke-dasharray: 6.66,2.88; stroke-dashoffset: 0; stroke: #7d7c78; stroke-width: 1.8"/>
    </g>
    <g id="text_17">
     <!-- Hybrid -->
     <g transform="translate(111.766997 34.435921) scale(0.09 -0.09)">
      <use xlink:href="#NimbusSanL-Regu-48" transform="scale(0.996264)"/>
      <use xlink:href="#NimbusSanL-Regu-79" transform="translate(71.929985 0) scale(0.996264)"/>
      <use xlink:href="#NimbusSanL-Regu-62" transform="translate(121.743185 0) scale(0.996264)"/>
      <use xlink:href="#NimbusSanL-Regu-72" transform="translate(177.134862 0) scale(0.996264)"/>
      <use xlink:href="#NimbusSanL-Regu-69" transform="translate(211.80347 0) scale(0.996264)"/>
      <use xlink:href="#NimbusSanL-Regu-64" transform="translate(233.920254 0) scale(0.996264)"/>
     </g>
    </g>
    <g id="line2d_123">
     <path d="M 86.566997 44.084194 
L 95.566997 44.084194 
L 104.566997 44.084194 
" style="fill: none; stroke: #bcae6c; stroke-width: 1.8; stroke-linecap: square"/>
    </g>
    <g id="text_18">
     <!-- Empirical -->
     <g transform="translate(111.766997 47.234194) scale(0.09 -0.09)">
      <defs>
       <path id="NimbusSanL-Regu-45" d="M 1171 2112 
L 3712 2112 
L 3712 2638 
L 1171 2638 
L 1171 4146 
L 3808 4146 
L 3808 4672 
L 576 4672 
L 576 0 
L 3923 0 
L 3923 526 
L 1171 526 
L 1171 2112 
z
" transform="scale(0.015625)"/>
       <path id="NimbusSanL-Regu-70" d="M 346 -1408 
L 883 -1408 
L 883 320 
C 1165 -27 1478 -180 1914 -180 
C 2778 -180 3347 522 3347 1599 
C 3347 2734 2797 3444 1907 3444 
C 1453 3444 1088 3238 838 2841 
L 838 3349 
L 346 3349 
L 346 -1408 
z
M 1818 2944 
C 2406 2944 2790 2420 2790 1612 
C 2790 843 2400 320 1818 320 
C 1254 320 883 837 883 1632 
C 883 2427 1254 2944 1818 2944 
z
" transform="scale(0.015625)"/>
      </defs>
      <use xlink:href="#NimbusSanL-Regu-45" transform="scale(0.996264)"/>
      <use xlink:href="#NimbusSanL-Regu-6d" transform="translate(66.450031 0) scale(0.996264)"/>
      <use xlink:href="#NimbusSanL-Regu-70" transform="translate(149.438461 0) scale(0.996264)"/>
      <use xlink:href="#NimbusSanL-Regu-69" transform="translate(204.830138 0) scale(0.996264)"/>
      <use xlink:href="#NimbusSanL-Regu-72" transform="translate(226.946923 0) scale(0.996264)"/>
      <use xlink:href="#NimbusSanL-Regu-69" transform="translate(261.61553 0) scale(0.996264)"/>
      <use xlink:href="#NimbusSanL-Regu-63" transform="translate(283.732314 0) scale(0.996264)"/>
      <use xlink:href="#NimbusSanL-Regu-61" transform="translate(333.545515 0) scale(0.996264)"/>
      <use xlink:href="#NimbusSanL-Regu-6c" transform="translate(388.937192 0) scale(0.996264)"/>
     </g>
    </g>
   </g>
  </g>
 </g>
 <defs>
  <clipPath id="p0455feab0e">
   <rect x="35.96392" y="7.14916" width="200.637751" height="196.768208"/>
  </clipPath>
 </defs>
</svg>
