<?xml version="1.0" encoding="utf-8" standalone="no"?>
<!DOCTYPE svg PUBLIC "-//W3C//DTD SVG 1.1//EN"
  "http://www.w3.org/Graphics/SVG/1.1/DTD/svg11.dtd">
<svg xmlns:xlink="http://www.w3.org/1999/xlink" width="251.28pt" height="236.88pt" viewBox="0 0 251.28 236.88" xmlns="http://www.w3.org/2000/svg" version="1.1">
 <metadata>
  <rdf:RDF xmlns:dc="http://purl.org/dc/elements/1.1/" xmlns:cc="http://creativecommons.org/ns#" xmlns:rdf="http://www.w3.org/1999/02/22-rdf-syntax-ns#">
   <cc:Work>
    <dc:type rdf:resource="http://purl.org/dc/dcmitype/StillImage"/>
    <dc:date>2026-05-21T23:45:57.077654</dc:date>
    <dc:format>image/svg+xml</dc:format>
    <dc:creator>
     <cc:Agent>
      <dc:title>Matplotlib v3.10.8, https://matplotlib.org/</dc:title>
     </cc:Agent>
    </dc:creator>
   </cc:Work>
  </rdf:RDF>
 </metadata>
 <defs>
  <style type="text/css">*{stroke-linejoin: round; stroke-linecap: butt}</style>
 </defs>
 <g id="figure_1">
  <g id="patch_1">
   <path d="M 0 236.88 
L 251.28 236.88 
L 251.28 0 
L 0 0 
z
" style="fill: #ffffff"/>
  </g>
  <g id="axes_1">
   <g id="patch_2">
    <path d="M 35.96392 203.917368 
L 236.601671 203.917368 
L 236.601671 7.14916 
L 35.96392 7.14916 
z
" style="fill: #ffffff"/>
   </g>
   <g id="FillBetweenPolyCollection_1">
    <defs>
     <path id="ma698c5f505" d="M 36.962117 -235.970502 
L 36.962117 -166.708207 
L 37.295406 -158.025503 
L 37.628694 -149.486463 
L 37.961982 -140.566588 
L 38.29527 -131.084651 
L 38.628558 -121.076487 
L 38.961846 -110.827607 
L 39.295134 -100.834224 
L 39.628422 -91.512734 
L 39.96171 -83.108353 
L 40.294998 -75.782462 
L 40.628286 -69.576577 
L 40.961574 -64.390031 
L 41.294862 -60.017298 
L 41.62815 -56.224159 
L 41.961439 -52.840203 
L 42.294727 -49.824937 
L 42.628015 -47.198927 
L 42.961303 -45.003564 
L 43.294591 -43.247665 
L 43.627879 -41.747946 
L 43.961167 -40.225545 
L 44.294455 -38.566459 
L 44.627743 -37.00866 
L 44.961031 -35.932881 
L 45.294319 -35.541178 
L 45.627607 -35.675267 
L 45.960895 -36.045601 
L 46.294183 -36.436571 
L 46.627471 -36.68804 
L 46.96076 -36.69806 
L 47.294048 -36.468613 
L 47.627336 -36.045485 
L 47.960624 -35.46257 
L 48.293912 -34.740688 
L 48.6272 -33.90877 
L 48.960488 -33.02663 
L 49.293776 -32.200096 
L 49.627064 -31.582362 
L 49.960352 -31.347954 
L 50.29364 -31.595235 
L 50.626928 -32.250036 
L 50.960216 -33.163426 
L 51.293504 -34.186107 
L 51.626793 -35.191514 
L 51.960081 -36.10462 
L 52.293369 -36.916776 
L 52.626657 -37.648725 
L 52.959945 -38.315844 
L 53.293233 -38.923393 
L 53.626521 -39.473332 
L 53.959809 -39.969103 
L 54.293097 -40.417307 
L 54.626385 -40.826661 
L 54.959673 -41.206231 
L 55.292961 -41.564314 
L 55.626249 -41.907852 
L 55.959537 -42.242287 
L 56.292825 -42.571661 
L 56.626114 -42.898841 
L 56.959402 -43.225762 
L 57.29269 -43.553658 
L 57.625978 -43.883247 
L 57.959266 -44.215017 
L 58.292554 -44.549486 
L 58.625842 -44.886785 
L 58.95913 -45.226921 
L 59.292418 -45.569842 
L 59.625706 -45.915455 
L 59.958994 -46.263631 
L 60.292282 -46.61424 
L 60.62557 -46.967143 
L 60.958858 -47.322193 
L 61.292147 -47.679251 
L 61.625435 -48.038184 
L 61.958723 -48.398853 
L 62.292011 -48.761132 
L 62.625299 -49.1249 
L 62.958587 -49.490036 
L 63.291875 -49.856424 
L 63.625163 -50.223958 
L 63.958451 -50.592532 
L 64.291739 -50.96204 
L 64.625027 -51.332389 
L 64.958315 -51.703484 
L 65.291603 -52.075232 
L 65.624891 -52.447545 
L 65.958179 -52.820339 
L 66.291468 -53.193533 
L 66.624756 -53.567043 
L 66.958044 -53.940795 
L 67.291332 -54.314714 
L 67.62462 -54.688725 
L 67.957908 -55.062758 
L 68.291196 -55.436744 
L 68.624484 -55.810618 
L 68.957772 -56.184313 
L 69.29106 -56.557765 
L 69.624348 -56.930914 
L 69.957636 -57.3037 
L 70.290924 -57.676063 
L 70.624212 -58.047947 
L 70.957501 -58.419297 
L 71.290789 -58.790059 
L 71.624077 -59.160178 
L 71.957365 -59.529605 
L 72.290653 -59.898289 
L 72.623941 -60.266183 
L 72.957229 -60.633236 
L 73.290517 -60.999404 
L 73.623805 -61.364643 
L 73.957093 -61.728908 
L 74.290381 -62.092155 
L 74.623669 -62.454343 
L 74.956957 -62.815432 
L 75.290245 -63.175384 
L 75.623533 -63.534157 
L 75.956822 -63.891716 
L 76.29011 -64.248026 
L 76.623398 -64.603049 
L 76.956686 -64.956752 
L 77.289974 -65.309102 
L 77.623262 -65.660066 
L 77.95655 -66.009614 
L 78.289838 -66.357714 
L 78.623126 -66.704337 
L 78.956414 -67.049455 
L 79.289702 -67.393041 
L 79.62299 -67.735067 
L 79.956278 -68.075507 
L 80.289566 -68.414337 
L 80.622855 -68.751532 
L 80.956143 -69.087071 
L 81.289431 -69.420929 
L 81.622719 -69.753085 
L 81.956007 -70.083518 
L 82.289295 -70.412209 
L 82.622583 -70.739139 
L 82.955871 -71.064288 
L 83.289159 -71.387639 
L 83.622447 -71.709176 
L 83.955735 -72.028882 
L 84.289023 -72.346742 
L 84.622311 -72.662741 
L 84.955599 -72.976864 
L 85.288887 -73.289099 
L 85.622176 -73.599433 
L 85.955464 -73.907855 
L 86.288752 -74.214352 
L 86.62204 -74.518913 
L 86.955328 -74.82153 
L 87.288616 -75.122193 
L 87.621904 -75.420893 
L 87.955192 -75.717621 
L 88.28848 -76.012369 
L 88.621768 -76.305132 
L 88.955056 -76.595904 
L 89.288344 -76.884677 
L 89.621632 -77.171446 
L 89.95492 -77.456206 
L 90.288208 -77.738953 
L 90.621497 -78.019685 
L 90.954785 -78.298398 
L 91.288073 -78.575087 
L 91.621361 -78.849751 
L 91.954649 -79.122389 
L 92.287937 -79.393 
L 92.621225 -79.661582 
L 92.954513 -79.928135 
L 93.287801 -80.192658 
L 93.621089 -80.455152 
L 93.954377 -80.715619 
L 94.287665 -80.974059 
L 94.620953 -81.230474 
L 94.954241 -81.484865 
L 95.28753 -81.737225 
L 95.620818 -81.987554 
L 95.954106 -82.235859 
L 96.287394 -82.482147 
L 96.620682 -82.726425 
L 96.95397 -82.968698 
L 97.287258 -83.208974 
L 97.620546 -83.447259 
L 97.953834 -83.683559 
L 98.287122 -83.917881 
L 98.62041 -84.150231 
L 98.953698 -84.380617 
L 99.286986 -84.609043 
L 99.620274 -84.835518 
L 99.953562 -85.060048 
L 100.286851 -85.282638 
L 100.620139 -85.503296 
L 100.953427 -85.722028 
L 101.286715 -85.938841 
L 101.620003 -86.15374 
L 101.953291 -86.366734 
L 102.286579 -86.577827 
L 102.619867 -86.787027 
L 102.953155 -86.99434 
L 103.286443 -87.199773 
L 103.619731 -87.403332 
L 103.953019 -87.605024 
L 104.286307 -87.804855 
L 104.619595 -88.002835 
L 104.952884 -88.19898 
L 105.286172 -88.393301 
L 105.61946 -88.585811 
L 105.952748 -88.776519 
L 106.286036 -88.965437 
L 106.619324 -89.152575 
L 106.952612 -89.337945 
L 107.2859 -89.521557 
L 107.619188 -89.703422 
L 107.952476 -89.883551 
L 108.285764 -90.061955 
L 108.619052 -90.238645 
L 108.95234 -90.413632 
L 109.285628 -90.586927 
L 109.618916 -90.75854 
L 109.952205 -90.928483 
L 110.285493 -91.096766 
L 110.618781 -91.2634 
L 110.952069 -91.428397 
L 111.285357 -91.591767 
L 111.618645 -91.753521 
L 111.951933 -91.913669 
L 112.285221 -92.072224 
L 112.618509 -92.229196 
L 112.951797 -92.384595 
L 113.285085 -92.538433 
L 113.618373 -92.69072 
L 113.951661 -92.841468 
L 114.284949 -92.990687 
L 114.618238 -93.138388 
L 114.951526 -93.284582 
L 115.284814 -93.42928 
L 115.618102 -93.572499 
L 115.95139 -93.714254 
L 116.284678 -93.854555 
L 116.617966 -93.993414 
L 116.951254 -94.130842 
L 117.284542 -94.266851 
L 117.61783 -94.40145 
L 117.951118 -94.534653 
L 118.284406 -94.666471 
L 118.617694 -94.796915 
L 118.950982 -94.925998 
L 119.28427 -95.053735 
L 119.617559 -95.180138 
L 119.950847 -95.305227 
L 120.284135 -95.429019 
L 120.617423 -95.55154 
L 120.950711 -95.672822 
L 121.283999 -95.792906 
L 121.617287 -95.91185 
L 121.950575 -96.029736 
L 122.283863 -96.146679 
L 122.617151 -96.262847 
L 122.950439 -96.378485 
L 123.283727 -96.493948 
L 123.617015 -96.609762 
L 123.950303 -96.726706 
L 124.283592 -96.845945 
L 124.61688 -96.969231 
L 124.950168 -97.099221 
L 125.283456 -97.239926 
L 125.616744 -97.397309 
L 125.950032 -97.579869 
L 126.28332 -97.798739 
L 126.616608 -98.066111 
L 126.949896 -98.389872 
L 127.283184 -98.761927 
L 127.616472 -99.140834 
L 127.94976 -99.441905 
L 128.283048 -99.572376 
L 128.616336 -99.534506 
L 128.949624 -99.433458 
L 129.282913 -99.372506 
L 129.616201 -99.408048 
L 129.949489 -99.547643 
L 130.282777 -99.751565 
L 130.616065 -99.935266 
L 130.949353 -100.006402 
L 131.282641 -99.958138 
L 131.615929 -99.875327 
L 131.949217 -99.843867 
L 132.282505 -99.916259 
L 132.615793 -100.119704 
L 132.949081 -100.468788 
L 133.282369 -100.967092 
L 133.615657 -101.597602 
L 133.948946 -102.316966 
L 134.282234 -103.089622 
L 134.615522 -103.975313 
L 134.94881 -105.111547 
L 135.282098 -106.587353 
L 135.615386 -108.370175 
L 135.948674 -110.291937 
L 136.281962 -112.08107 
L 136.61525 -113.427691 
L 136.948538 -114.164669 
L 137.281826 -114.218497 
L 137.615114 -113.531436 
L 137.948402 -112.135673 
L 138.28169 -110.249875 
L 138.614978 -108.255438 
L 138.948267 -106.454139 
L 139.281555 -104.983794 
L 139.614843 -103.841977 
L 139.948131 -102.954781 
L 140.281419 -102.267858 
L 140.614707 -101.768462 
L 140.947995 -101.442417 
L 141.281283 -101.258514 
L 141.614571 -101.177559 
L 141.947859 -101.163557 
L 142.281147 -101.189106 
L 142.614435 -101.235839 
L 142.947723 -101.292594 
L 143.281011 -101.353148 
L 143.614299 -101.414319 
L 143.947588 -101.474658 
L 144.280876 -101.533629 
L 144.614164 -101.591136 
L 144.947452 -101.647269 
L 145.28074 -101.702175 
L 145.614028 -101.756006 
L 145.947316 -101.80889 
L 146.280604 -101.860928 
L 146.613892 -101.9122 
L 146.94718 -101.962762 
L 147.280468 -102.012659 
L 147.613756 -102.061921 
L 147.947044 -102.110571 
L 148.280332 -102.158627 
L 148.613621 -102.206103 
L 148.946909 -102.25301 
L 149.280197 -102.299357 
L 149.613485 -102.345151 
L 149.946773 -102.3904 
L 150.280061 -102.43511 
L 150.613349 -102.479288 
L 150.946637 -102.522939 
L 151.279925 -102.566069 
L 151.613213 -102.608684 
L 151.946501 -102.65079 
L 152.279789 -102.692392 
L 152.613077 -102.733495 
L 152.946365 -102.774105 
L 153.279653 -102.814228 
L 153.612942 -102.85387 
L 153.94623 -102.893035 
L 154.279518 -102.93173 
L 154.612806 -102.969959 
L 154.946094 -103.007729 
L 155.279382 -103.045045 
L 155.61267 -103.081912 
L 155.945958 -103.118335 
L 156.279246 -103.154322 
L 156.612534 -103.189876 
L 156.945822 -103.225004 
L 157.27911 -103.259711 
L 157.612398 -103.294002 
L 157.945686 -103.327883 
L 158.278975 -103.36136 
L 158.612263 -103.394438 
L 158.945551 -103.427122 
L 159.278839 -103.459419 
L 159.612127 -103.491333 
L 159.945415 -103.52287 
L 160.278703 -103.554036 
L 160.611991 -103.584837 
L 160.945279 -103.615276 
L 161.278567 -103.645361 
L 161.611855 -103.675097 
L 161.945143 -103.704489 
L 162.278431 -103.733543 
L 162.611719 -103.762263 
L 162.945007 -103.790653 
L 163.278296 -103.818715 
L 163.611584 -103.846452 
L 163.944872 -103.873867 
L 164.27816 -103.900963 
L 164.611448 -103.927741 
L 164.944736 -103.954205 
L 165.278024 -103.980358 
L 165.611312 -104.006203 
L 165.9446 -104.031741 
L 166.277888 -104.056977 
L 166.611176 -104.081912 
L 166.944464 -104.106549 
L 167.277752 -104.130892 
L 167.61104 -104.154942 
L 167.944329 -104.178703 
L 168.277617 -104.202178 
L 168.610905 -104.225368 
L 168.944193 -104.248277 
L 169.277481 -104.270908 
L 169.610769 -104.293262 
L 169.944057 -104.315344 
L 170.277345 -104.337156 
L 170.610633 -104.3587 
L 170.943921 -104.379979 
L 171.277209 -104.400996 
L 171.610497 -104.421754 
L 171.943785 -104.442256 
L 172.277073 -104.462503 
L 172.610361 -104.482499 
L 172.94365 -104.502247 
L 173.276938 -104.52175 
L 173.610226 -104.541009 
L 173.943514 -104.560029 
L 174.276802 -104.57881 
L 174.61009 -104.597358 
L 174.943378 -104.615673 
L 175.276666 -104.633759 
L 175.609954 -104.651619 
L 175.943242 -104.669255 
L 176.27653 -104.68667 
L 176.609818 -104.703866 
L 176.943106 -104.720847 
L 177.276394 -104.737616 
L 177.609683 -104.754174 
L 177.942971 -104.770525 
L 178.276259 -104.786672 
L 178.609547 -104.802616 
L 178.942835 -104.818362 
L 179.276123 -104.833911 
L 179.609411 -104.849267 
L 179.942699 -104.864431 
L 180.275987 -104.879408 
L 180.609275 -104.894199 
L 180.942563 -104.908808 
L 181.275851 -104.923236 
L 181.609139 -104.937488 
L 181.942427 -104.951565 
L 182.275715 -104.96547 
L 182.609004 -104.979206 
L 182.942292 -104.992776 
L 183.27558 -105.006183 
L 183.608868 -105.019429 
L 183.942156 -105.032517 
L 184.275444 -105.045449 
L 184.608732 -105.058229 
L 184.94202 -105.070859 
L 185.275308 -105.083342 
L 185.608596 -105.095681 
L 185.941884 -105.107878 
L 186.275172 -105.119937 
L 186.60846 -105.131859 
L 186.941748 -105.143648 
L 187.275037 -105.155301 
L 187.608325 -105.166818 
L 187.941613 -105.1782 
L 188.274901 -105.189448 
L 188.608189 -105.200564 
L 188.941477 -105.211549 
L 189.274765 -105.222403 
L 189.608053 -105.233128 
L 189.941341 -105.243725 
L 190.274629 -105.254195 
L 190.607917 -105.264539 
L 190.941205 -105.274758 
L 191.274493 -105.284855 
L 191.607781 -105.294828 
L 191.941069 -105.304681 
L 192.274358 -105.314413 
L 192.607646 -105.324027 
L 192.940934 -105.333522 
L 193.274222 -105.342901 
L 193.60751 -105.352165 
L 193.940798 -105.361314 
L 194.274086 -105.37035 
L 194.607374 -105.379273 
L 194.940662 -105.388086 
L 195.27395 -105.396788 
L 195.607238 -105.405382 
L 195.940526 -105.413869 
L 196.273814 -105.422249 
L 196.607102 -105.430523 
L 196.940391 -105.438694 
L 197.273679 -105.446761 
L 197.606967 -105.454726 
L 197.940255 -105.462591 
L 198.273543 -105.470356 
L 198.606831 -105.478022 
L 198.940119 -105.485591 
L 199.273407 -105.493064 
L 199.606695 -105.500442 
L 199.939983 -105.507725 
L 200.273271 -105.514916 
L 200.606559 -105.522016 
L 200.939847 -105.529024 
L 201.273135 -105.535943 
L 201.606423 -105.542774 
L 201.939712 -105.549518 
L 202.273 -105.556176 
L 202.606288 -105.562748 
L 202.939576 -105.569237 
L 203.272864 -105.575644 
L 203.606152 -105.581969 
L 203.93944 -105.588213 
L 204.272728 -105.594379 
L 204.606016 -105.600466 
L 204.939304 -105.606476 
L 205.272592 -105.612411 
L 205.60588 -105.618271 
L 205.939168 -105.624057 
L 206.272456 -105.629771 
L 206.605744 -105.635414 
L 206.939033 -105.640986 
L 207.272321 -105.64649 
L 207.605609 -105.651926 
L 207.938897 -105.657294 
L 208.272185 -105.662598 
L 208.605473 -105.667837 
L 208.938761 -105.673012 
L 209.272049 -105.678126 
L 209.605337 -105.683178 
L 209.938625 -105.688171 
L 210.271913 -105.693104 
L 210.605201 -105.69798 
L 210.938489 -105.7028 
L 211.271777 -105.707564 
L 211.605066 -105.712274 
L 211.938354 -105.716931 
L 212.271642 -105.721536 
L 212.60493 -105.726089 
L 212.938218 -105.730589 
L 213.271506 -105.735035 
L 213.604794 -105.739429 
L 213.938082 -105.74377 
L 214.27137 -105.74806 
L 214.604658 -105.752298 
L 214.937946 -105.756486 
L 215.271234 -105.760622 
L 215.604522 -105.764709 
L 215.93781 -105.768746 
L 216.271098 -105.772734 
L 216.604387 -105.776674 
L 216.937675 -105.780565 
L 217.270963 -105.784409 
L 217.604251 -105.788205 
L 217.937539 -105.791954 
L 218.270827 -105.795657 
L 218.604115 -105.799313 
L 218.937403 -105.802924 
L 219.270691 -105.806488 
L 219.603979 -105.810007 
L 219.937267 -105.81348 
L 220.270555 -105.816907 
L 220.603843 -105.820285 
L 220.937131 -105.823613 
L 221.27042 -105.826887 
L 221.603708 -105.830101 
L 221.936996 -105.833244 
L 222.270284 -105.8363 
L 222.603572 -105.839244 
L 222.93686 -105.842038 
L 223.270148 -105.844621 
L 223.603436 -105.846901 
L 223.936724 -105.848737 
L 224.270012 -105.849912 
L 224.6033 -105.850103 
L 224.936588 -105.848819 
L 225.269876 -105.845332 
L 225.603164 -105.838561 
L 225.936452 -105.826921 
L 226.269741 -105.808114 
L 226.603029 -105.778848 
L 226.936317 -105.734487 
L 227.269605 -105.668631 
L 227.602893 -105.572676 
L 227.936181 -105.435454 
L 228.269469 -105.243153 
L 228.602757 -104.979861 
L 228.936045 -104.629242 
L 229.269333 -104.177926 
L 229.602621 -103.621029 
L 229.935909 -102.969451 
L 230.269197 -102.257027 
L 230.602485 -101.543668 
L 230.935774 -100.910892 
L 231.269062 -100.452274 
L 231.60235 -100.263345 
L 231.935638 -100.400911 
L 232.268926 -100.82648 
L 232.602214 -101.447551 
L 232.935502 -102.165568 
L 233.26879 -102.892813 
L 233.602078 -103.564078 
L 233.935366 -104.14177 
L 234.268654 -104.612733 
L 234.601942 -104.980775 
L 234.93523 -105.25897 
L 235.268518 -105.463801 
L 235.601806 -105.611528 
L 235.935095 -105.716368 
L 236.268383 -105.789868 
L 236.601671 -105.840955 
L 236.601671 -177.197831 
L 236.601671 -177.197831 
L 236.268383 -177.145799 
L 235.935095 -177.070256 
L 235.601806 -176.961087 
L 235.268518 -176.804375 
L 234.93523 -176.581353 
L 234.601942 -176.267374 
L 234.268654 -175.831321 
L 233.935366 -175.236349 
L 233.602078 -174.443825 
L 233.26879 -173.42376 
L 232.935502 -172.176526 
L 232.602214 -170.769842 
L 232.268926 -169.385102 
L 231.935638 -168.335361 
L 231.60235 -167.963092 
L 231.269062 -168.410425 
L 230.935774 -169.506597 
L 230.602485 -170.903446 
L 230.269197 -172.298289 
L 229.935909 -173.521681 
L 229.602621 -174.514327 
L 229.269333 -175.280529 
L 228.936045 -175.85232 
L 228.602757 -176.268862 
L 228.269469 -176.566773 
L 227.936181 -176.776646 
L 227.602893 -176.922535 
L 227.269605 -177.022662 
L 226.936317 -177.090484 
L 226.603029 -177.135755 
L 226.269741 -177.165436 
L 225.936452 -177.184429 
L 225.603164 -177.196151 
L 225.269876 -177.202958 
L 224.936588 -177.206461 
L 224.6033 -177.207751 
L 224.270012 -177.207563 
L 223.936724 -177.206389 
L 223.603436 -177.204554 
L 223.270148 -177.202275 
L 222.93686 -177.199692 
L 222.603572 -177.196898 
L 222.270284 -177.193953 
L 221.936996 -177.190897 
L 221.603708 -177.187754 
L 221.27042 -177.184541 
L 220.937131 -177.181267 
L 220.603843 -177.177939 
L 220.270555 -177.17456 
L 219.937267 -177.171134 
L 219.603979 -177.167661 
L 219.270691 -177.164142 
L 218.937403 -177.160577 
L 218.604115 -177.156966 
L 218.270827 -177.15331 
L 217.937539 -177.149607 
L 217.604251 -177.145858 
L 217.270963 -177.142062 
L 216.937675 -177.138219 
L 216.604387 -177.134327 
L 216.271098 -177.130388 
L 215.93781 -177.1264 
L 215.604522 -177.122363 
L 215.271234 -177.118276 
L 214.937946 -177.114139 
L 214.604658 -177.109952 
L 214.27137 -177.105713 
L 213.938082 -177.101424 
L 213.604794 -177.097082 
L 213.271506 -177.092689 
L 212.938218 -177.088242 
L 212.60493 -177.083743 
L 212.271642 -177.079189 
L 211.938354 -177.074584 
L 211.605066 -177.069928 
L 211.271777 -177.065218 
L 210.938489 -177.060453 
L 210.605201 -177.055634 
L 210.271913 -177.050758 
L 209.938625 -177.045824 
L 209.605337 -177.040832 
L 209.272049 -177.035779 
L 208.938761 -177.030666 
L 208.605473 -177.02549 
L 208.272185 -177.020251 
L 207.938897 -177.014948 
L 207.605609 -177.009579 
L 207.272321 -177.004143 
L 206.939033 -176.99864 
L 206.605744 -176.993067 
L 206.272456 -176.987424 
L 205.939168 -176.981711 
L 205.60588 -176.975924 
L 205.272592 -176.970064 
L 204.939304 -176.96413 
L 204.606016 -176.958119 
L 204.272728 -176.952032 
L 203.93944 -176.945867 
L 203.606152 -176.939622 
L 203.272864 -176.933297 
L 202.939576 -176.926891 
L 202.606288 -176.920402 
L 202.273 -176.913829 
L 201.939712 -176.907171 
L 201.606423 -176.900428 
L 201.273135 -176.893597 
L 200.939847 -176.886678 
L 200.606559 -176.879669 
L 200.273271 -176.87257 
L 199.939983 -176.865379 
L 199.606695 -176.858095 
L 199.273407 -176.850717 
L 198.940119 -176.843245 
L 198.606831 -176.835676 
L 198.273543 -176.828009 
L 197.940255 -176.820244 
L 197.606967 -176.81238 
L 197.273679 -176.804414 
L 196.940391 -176.796347 
L 196.607102 -176.788177 
L 196.273814 -176.779902 
L 195.940526 -176.771522 
L 195.607238 -176.763036 
L 195.27395 -176.754442 
L 194.940662 -176.745739 
L 194.607374 -176.736927 
L 194.274086 -176.728003 
L 193.940798 -176.718967 
L 193.60751 -176.709818 
L 193.274222 -176.700555 
L 192.940934 -176.691176 
L 192.607646 -176.68168 
L 192.274358 -176.672067 
L 191.941069 -176.662334 
L 191.607781 -176.652482 
L 191.274493 -176.642508 
L 190.941205 -176.632412 
L 190.607917 -176.622192 
L 190.274629 -176.611848 
L 189.941341 -176.601378 
L 189.608053 -176.590781 
L 189.274765 -176.580056 
L 188.941477 -176.569202 
L 188.608189 -176.558218 
L 188.274901 -176.547102 
L 187.941613 -176.535853 
L 187.608325 -176.524471 
L 187.275037 -176.512954 
L 186.941748 -176.501301 
L 186.60846 -176.489512 
L 186.275172 -176.47759 
L 185.941884 -176.465532 
L 185.608596 -176.453335 
L 185.275308 -176.440996 
L 184.94202 -176.428513 
L 184.608732 -176.415883 
L 184.275444 -176.403103 
L 183.942156 -176.39017 
L 183.608868 -176.377082 
L 183.27558 -176.363836 
L 182.942292 -176.35043 
L 182.609004 -176.33686 
L 182.275715 -176.323123 
L 181.942427 -176.309218 
L 181.609139 -176.295141 
L 181.275851 -176.28089 
L 180.942563 -176.266461 
L 180.609275 -176.251853 
L 180.275987 -176.237061 
L 179.942699 -176.222085 
L 179.609411 -176.20692 
L 179.276123 -176.191564 
L 178.942835 -176.176015 
L 178.609547 -176.16027 
L 178.276259 -176.144325 
L 177.942971 -176.128179 
L 177.609683 -176.111827 
L 177.276394 -176.095269 
L 176.943106 -176.078501 
L 176.609818 -176.06152 
L 176.27653 -176.044323 
L 175.943242 -176.026908 
L 175.609954 -176.009272 
L 175.276666 -175.991412 
L 174.943378 -175.973326 
L 174.61009 -175.955011 
L 174.276802 -175.936464 
L 173.943514 -175.917682 
L 173.610226 -175.898663 
L 173.276938 -175.879403 
L 172.94365 -175.859901 
L 172.610361 -175.840153 
L 172.277073 -175.820156 
L 171.943785 -175.799909 
L 171.610497 -175.779408 
L 171.277209 -175.75865 
L 170.943921 -175.737633 
L 170.610633 -175.716353 
L 170.277345 -175.694809 
L 169.944057 -175.672998 
L 169.610769 -175.650916 
L 169.277481 -175.628561 
L 168.944193 -175.60593 
L 168.610905 -175.583021 
L 168.277617 -175.559831 
L 167.944329 -175.536357 
L 167.61104 -175.512596 
L 167.277752 -175.488545 
L 166.944464 -175.464203 
L 166.611176 -175.439565 
L 166.277888 -175.41463 
L 165.9446 -175.389395 
L 165.611312 -175.363856 
L 165.278024 -175.338012 
L 164.944736 -175.311859 
L 164.611448 -175.285394 
L 164.27816 -175.258616 
L 163.944872 -175.231521 
L 163.611584 -175.204106 
L 163.278296 -175.176369 
L 162.945007 -175.148307 
L 162.611719 -175.119917 
L 162.278431 -175.091196 
L 161.945143 -175.062143 
L 161.611855 -175.032751 
L 161.278567 -175.003015 
L 160.945279 -174.97293 
L 160.611991 -174.94249 
L 160.278703 -174.91169 
L 159.945415 -174.880524 
L 159.612127 -174.848987 
L 159.278839 -174.817072 
L 158.945551 -174.784776 
L 158.612263 -174.752091 
L 158.278975 -174.719013 
L 157.945686 -174.685537 
L 157.612398 -174.651655 
L 157.27911 -174.617364 
L 156.945822 -174.582657 
L 156.612534 -174.54753 
L 156.279246 -174.511975 
L 155.945958 -174.475989 
L 155.61267 -174.439565 
L 155.279382 -174.402698 
L 154.946094 -174.365382 
L 154.612806 -174.327613 
L 154.279518 -174.289383 
L 153.94623 -174.250689 
L 153.612942 -174.211523 
L 153.279653 -174.171882 
L 152.946365 -174.131759 
L 152.613077 -174.091148 
L 152.279789 -174.050045 
L 151.946501 -174.008443 
L 151.613213 -173.966338 
L 151.279925 -173.923723 
L 150.946637 -173.880592 
L 150.613349 -173.836941 
L 150.280061 -173.792764 
L 149.946773 -173.748054 
L 149.613485 -173.702805 
L 149.280197 -173.65701 
L 148.946909 -173.610664 
L 148.613621 -173.563757 
L 148.280332 -173.516281 
L 147.947044 -173.468224 
L 147.613756 -173.419574 
L 147.280468 -173.370312 
L 146.94718 -173.320415 
L 146.613892 -173.26985 
L 146.280604 -173.218575 
L 145.947316 -173.166528 
L 145.614028 -173.113625 
L 145.28074 -173.05975 
L 144.947452 -173.004743 
L 144.614164 -172.948385 
L 144.280876 -172.890384 
L 143.947588 -172.830343 
L 143.614299 -172.767728 
L 143.281011 -172.701814 
L 142.947723 -172.631616 
L 142.614435 -172.5558 
L 142.281147 -172.472648 
L 141.947859 -172.380312 
L 141.614571 -172.277901 
L 141.281283 -172.168646 
L 140.947995 -172.067178 
L 140.614707 -172.012951 
L 140.281419 -172.087817 
L 139.948131 -172.421636 
L 139.614843 -173.143463 
L 139.281555 -174.256715 
L 138.948267 -175.629079 
L 138.614978 -177.102807 
L 138.28169 -178.534864 
L 137.948402 -179.78688 
L 137.615114 -180.705659 
L 137.281826 -181.146576 
L 136.948538 -181.039152 
L 136.61525 -180.443483 
L 136.281962 -179.423124 
L 135.948674 -178.083673 
L 135.615386 -176.668587 
L 135.282098 -175.351932 
L 134.94881 -174.17712 
L 134.615522 -173.155523 
L 134.282234 -172.325323 
L 133.948946 -171.735306 
L 133.615657 -171.367727 
L 133.282369 -171.13533 
L 132.949081 -170.955111 
L 132.615793 -170.77608 
L 132.282505 -170.572039 
L 131.949217 -170.331418 
L 131.615929 -170.057872 
L 131.282641 -169.78166 
L 130.949353 -169.56733 
L 130.616065 -169.482894 
L 130.282777 -169.518947 
L 129.949489 -169.59266 
L 129.616201 -169.627992 
L 129.282913 -169.58549 
L 128.949624 -169.460738 
L 128.616336 -169.283382 
L 128.283048 -169.116784 
L 127.94976 -169.028486 
L 127.616472 -169.021257 
L 127.283184 -169.038419 
L 126.949896 -169.032197 
L 126.616608 -168.986002 
L 126.28332 -168.904461 
L 125.950032 -168.799531 
L 125.616744 -168.682384 
L 125.283456 -168.560675 
L 124.950168 -168.438638 
L 124.61688 -168.31809 
L 124.283592 -168.199446 
L 123.950303 -168.082435 
L 123.617015 -167.966538 
L 123.283727 -167.851207 
L 122.950439 -167.735963 
L 122.617151 -167.620424 
L 122.283863 -167.504299 
L 121.950575 -167.387375 
L 121.617287 -167.269497 
L 121.283999 -167.150557 
L 120.950711 -167.030474 
L 120.617423 -166.909193 
L 120.284135 -166.786672 
L 119.950847 -166.66288 
L 119.617559 -166.537792 
L 119.28427 -166.411388 
L 118.950982 -166.283652 
L 118.617694 -166.154568 
L 118.284406 -166.024124 
L 117.951118 -165.892306 
L 117.61783 -165.759104 
L 117.284542 -165.624504 
L 116.951254 -165.488496 
L 116.617966 -165.351068 
L 116.284678 -165.212208 
L 115.95139 -165.071907 
L 115.618102 -164.930153 
L 115.284814 -164.786934 
L 114.951526 -164.642235 
L 114.618238 -164.496041 
L 114.284949 -164.34834 
L 113.951661 -164.199121 
L 113.618373 -164.048373 
L 113.285085 -163.896086 
L 112.951797 -163.742248 
L 112.618509 -163.586849 
L 112.285221 -163.429878 
L 111.951933 -163.271323 
L 111.618645 -163.111174 
L 111.285357 -162.94942 
L 110.952069 -162.78605 
L 110.618781 -162.621054 
L 110.285493 -162.454419 
L 109.952205 -162.286136 
L 109.618916 -162.116193 
L 109.285628 -161.94458 
L 108.95234 -161.771285 
L 108.619052 -161.596299 
L 108.285764 -161.419609 
L 107.952476 -161.241204 
L 107.619188 -161.061075 
L 107.2859 -160.87921 
L 106.952612 -160.695598 
L 106.619324 -160.510229 
L 106.286036 -160.32309 
L 105.952748 -160.134173 
L 105.61946 -159.943464 
L 105.286172 -159.750955 
L 104.952884 -159.556633 
L 104.619595 -159.360488 
L 104.286307 -159.162508 
L 103.953019 -158.962677 
L 103.619731 -158.760986 
L 103.286443 -158.557426 
L 102.953155 -158.351994 
L 102.619867 -158.14468 
L 102.286579 -157.93548 
L 101.953291 -157.724387 
L 101.620003 -157.511394 
L 101.286715 -157.296494 
L 100.953427 -157.079681 
L 100.620139 -156.860949 
L 100.286851 -156.640291 
L 99.953562 -156.417701 
L 99.620274 -156.193172 
L 99.286986 -155.966697 
L 98.953698 -155.73827 
L 98.62041 -155.507885 
L 98.287122 -155.275534 
L 97.953834 -155.041212 
L 97.620546 -154.804912 
L 97.287258 -154.566627 
L 96.95397 -154.326352 
L 96.620682 -154.084078 
L 96.287394 -153.839801 
L 95.954106 -153.593513 
L 95.620818 -153.345207 
L 95.28753 -153.094878 
L 94.954241 -152.842519 
L 94.620953 -152.588127 
L 94.287665 -152.331712 
L 93.954377 -152.073272 
L 93.621089 -151.812805 
L 93.287801 -151.550311 
L 92.954513 -151.285788 
L 92.621225 -151.019235 
L 92.287937 -150.750653 
L 91.954649 -150.480043 
L 91.621361 -150.207405 
L 91.288073 -149.932741 
L 90.954785 -149.656051 
L 90.621497 -149.377339 
L 90.288208 -149.096607 
L 89.95492 -148.813859 
L 89.621632 -148.529099 
L 89.288344 -148.24233 
L 88.955056 -147.953557 
L 88.621768 -147.662786 
L 88.28848 -147.370023 
L 87.955192 -147.075274 
L 87.621904 -146.778546 
L 87.288616 -146.479846 
L 86.955328 -146.179183 
L 86.62204 -145.876567 
L 86.288752 -145.572005 
L 85.955464 -145.265508 
L 85.622176 -144.957087 
L 85.288887 -144.646752 
L 84.955599 -144.334517 
L 84.622311 -144.020394 
L 84.289023 -143.704396 
L 83.955735 -143.386535 
L 83.622447 -143.066829 
L 83.289159 -142.745293 
L 82.955871 -142.421942 
L 82.622583 -142.096792 
L 82.289295 -141.769862 
L 81.956007 -141.441171 
L 81.622719 -141.110738 
L 81.289431 -140.778582 
L 80.956143 -140.444724 
L 80.622855 -140.109186 
L 80.289566 -139.77199 
L 79.956278 -139.433161 
L 79.62299 -139.092721 
L 79.289702 -138.750694 
L 78.956414 -138.407109 
L 78.623126 -138.061991 
L 78.289838 -137.715368 
L 77.95655 -137.367267 
L 77.623262 -137.017719 
L 77.289974 -136.666755 
L 76.956686 -136.314406 
L 76.623398 -135.960703 
L 76.29011 -135.605679 
L 75.956822 -135.24937 
L 75.623533 -134.891811 
L 75.290245 -134.533037 
L 74.956957 -134.173086 
L 74.623669 -133.811996 
L 74.290381 -133.449808 
L 73.957093 -133.086561 
L 73.623805 -132.722297 
L 73.290517 -132.357058 
L 72.957229 -131.990889 
L 72.623941 -131.623836 
L 72.290653 -131.255943 
L 71.957365 -130.887258 
L 71.624077 -130.517831 
L 71.290789 -130.147712 
L 70.957501 -129.776951 
L 70.624212 -129.4056 
L 70.290924 -129.033717 
L 69.957636 -128.661354 
L 69.624348 -128.288568 
L 69.29106 -127.915418 
L 68.957772 -127.541966 
L 68.624484 -127.168272 
L 68.291196 -126.794398 
L 67.957908 -126.420411 
L 67.62462 -126.046378 
L 67.291332 -125.672367 
L 66.958044 -125.298448 
L 66.624756 -124.924697 
L 66.291468 -124.551186 
L 65.958179 -124.177993 
L 65.624891 -123.805198 
L 65.291603 -123.432885 
L 64.958315 -123.061137 
L 64.625027 -122.690043 
L 64.291739 -122.319694 
L 63.958451 -121.950185 
L 63.625163 -121.581612 
L 63.291875 -121.214078 
L 62.958587 -120.847689 
L 62.625299 -120.482554 
L 62.292011 -120.118786 
L 61.958723 -119.756507 
L 61.625435 -119.395837 
L 61.292147 -119.036905 
L 60.958858 -118.679846 
L 60.62557 -118.324797 
L 60.292282 -117.971894 
L 59.958994 -117.621285 
L 59.625706 -117.273108 
L 59.292418 -116.927495 
L 58.95913 -116.584573 
L 58.625842 -116.244437 
L 58.292554 -115.907136 
L 57.959266 -115.572662 
L 57.625978 -115.240879 
L 57.29269 -114.911262 
L 56.959402 -114.583302 
L 56.626114 -114.256237 
L 56.292825 -113.928738 
L 55.959537 -113.598667 
L 55.626249 -113.262733 
L 55.292961 -112.916034 
L 54.959673 -112.551433 
L 54.626385 -112.158761 
L 54.293097 -111.723865 
L 53.959809 -111.227666 
L 53.626521 -110.645658 
L 53.293233 -109.949225 
L 52.959945 -109.110209 
L 52.626657 -108.11138 
L 52.293369 -106.966059 
L 51.960081 -105.740022 
L 51.626793 -104.549002 
L 51.293504 -103.478883 
L 50.960216 -102.497859 
L 50.626928 -101.588695 
L 50.29364 -100.888559 
L 49.960352 -100.676409 
L 49.627064 -101.148409 
L 49.293776 -102.144881 
L 48.960488 -103.342111 
L 48.6272 -104.478713 
L 48.293912 -105.398476 
L 47.960624 -106.024458 
L 47.627336 -106.32865 
L 47.294048 -106.318212 
L 46.96076 -106.037878 
L 46.627471 -105.568514 
L 46.294183 -104.989974 
L 45.960895 -104.358799 
L 45.627607 -103.807229 
L 45.294319 -103.590032 
L 44.961031 -103.998581 
L 44.627743 -105.148172 
L 44.294455 -106.744538 
L 43.961167 -108.369475 
L 43.627879 -109.804196 
L 43.294591 -111.151442 
L 42.961303 -112.743031 
L 42.628015 -114.871774 
L 42.294727 -117.508432 
L 41.961439 -120.465767 
L 41.62815 -123.664599 
L 41.294862 -127.223421 
L 40.961574 -131.40692 
L 40.628286 -136.474821 
L 40.294998 -142.534213 
L 39.96171 -149.672188 
L 39.628422 -157.937279 
L 39.295134 -167.161403 
L 38.961846 -177.079954 
L 38.628558 -187.35788 
L 38.29527 -197.56516 
L 37.961982 -207.46001 
L 37.628694 -217.038171 
L 37.295406 -226.423267 
L 36.962117 -235.970502 
z
"/>
    </defs>
    <g clip-path="url(#p2963e414fc)">
     <use xlink:href="#ma698c5f505" x="0" y="236.88" style="fill: #888578; fill-opacity: 0.4"/>
    </g>
   </g>
   <g id="matplotlib.axis_1">
    <g id="xtick_1">
     <g id="line2d_1">
      <defs>
       <path id="m89a4961091" d="M 0 0 
L 0 2.5 
" style="stroke: #000000; stroke-width: 1.1"/>
      </defs>
      <g>
       <use xlink:href="#m89a4961091" x="36.962117" y="203.917368" style="stroke: #000000; stroke-width: 1.1"/>
      </g>
     </g>
     <g id="line2d_2">
      <defs>
       <path id="m806158a5d3" d="M 0 0 
L 0 -2.5 
" style="stroke: #000000; stroke-width: 1.1"/>
      </defs>
      <g>
       <use xlink:href="#m806158a5d3" x="36.962117" y="7.14916" style="stroke: #000000; stroke-width: 1.1"/>
      </g>
     </g>
     <g id="text_1">
      <!-- $\mathdefault{0}$ -->
      <g transform="translate(34.192535 217.015688) scale(0.1 -0.1)">
       <defs>
        <path id="NimbusSanL-Regu-30" d="M 1760 4544 
C 1338 4544 954 4360 717 4046 
C 422 3651 275 3044 275 2208 
C 275 683 787 -128 1760 -128 
C 2720 -128 3245 683 3245 2170 
C 3245 3050 3104 3638 2803 4046 
C 2566 4366 2189 4544 1760 4544 
z
M 1760 4044 
C 2368 4044 2669 3432 2669 2221 
C 2669 939 2374 340 1747 340 
C 1152 340 851 965 851 2202 
C 851 3438 1152 4044 1760 4044 
z
" transform="scale(0.015625)"/>
       </defs>
       <use xlink:href="#NimbusSanL-Regu-30" transform="scale(0.996264)"/>
      </g>
     </g>
    </g>
    <g id="xtick_2">
     <g id="line2d_3">
      <g>
       <use xlink:href="#m89a4961091" x="103.508635" y="203.917368" style="stroke: #000000; stroke-width: 1.1"/>
      </g>
     </g>
     <g id="line2d_4">
      <g>
       <use xlink:href="#m806158a5d3" x="103.508635" y="7.14916" style="stroke: #000000; stroke-width: 1.1"/>
      </g>
     </g>
     <g id="text_2">
      <!-- $\mathdefault{1000}$ -->
      <g transform="translate(92.430306 217.015688) scale(0.1 -0.1)">
       <defs>
        <path id="NimbusSanL-Regu-31" d="M 1658 3238 
L 1658 0 
L 2221 0 
L 2221 4545 
L 1850 4545 
C 1651 3847 1523 3751 653 3642 
L 653 3238 
L 1658 3238 
z
" transform="scale(0.015625)"/>
       </defs>
       <use xlink:href="#NimbusSanL-Regu-31" transform="scale(0.996264)"/>
       <use xlink:href="#NimbusSanL-Regu-30" transform="translate(55.391677 0) scale(0.996264)"/>
       <use xlink:href="#NimbusSanL-Regu-30" transform="translate(110.783354 0) scale(0.996264)"/>
       <use xlink:href="#NimbusSanL-Regu-30" transform="translate(166.175031 0) scale(0.996264)"/>
      </g>
     </g>
    </g>
    <g id="xtick_3">
     <g id="line2d_5">
      <g>
       <use xlink:href="#m89a4961091" x="170.055153" y="203.917368" style="stroke: #000000; stroke-width: 1.1"/>
      </g>
     </g>
     <g id="line2d_6">
      <g>
       <use xlink:href="#m806158a5d3" x="170.055153" y="7.14916" style="stroke: #000000; stroke-width: 1.1"/>
      </g>
     </g>
     <g id="text_3">
      <!-- $\mathdefault{2000}$ -->
      <g transform="translate(158.976824 217.015688) scale(0.1 -0.1)">
       <defs>
        <path id="NimbusSanL-Regu-32" d="M 3238 558 
L 851 558 
C 909 930 1114 1167 1670 1494 
L 2310 1840 
C 2944 2186 3270 2653 3270 3211 
C 3270 3589 3117 3942 2848 4185 
C 2579 4429 2246 4544 1818 4544 
C 1242 4544 813 4339 563 3955 
C 403 3711 333 3429 320 2967 
L 883 2967 
C 902 3275 941 3461 1018 3608 
C 1165 3884 1459 4051 1798 4051 
C 2310 4051 2694 3685 2694 3198 
C 2694 2839 2483 2531 2080 2301 
L 1491 1968 
C 544 1430 269 1000 218 0 
L 3238 0 
L 3238 558 
z
" transform="scale(0.015625)"/>
       </defs>
       <use xlink:href="#NimbusSanL-Regu-32" transform="scale(0.996264)"/>
       <use xlink:href="#NimbusSanL-Regu-30" transform="translate(55.391677 0) scale(0.996264)"/>
       <use xlink:href="#NimbusSanL-Regu-30" transform="translate(110.783354 0) scale(0.996264)"/>
       <use xlink:href="#NimbusSanL-Regu-30" transform="translate(166.175031 0) scale(0.996264)"/>
      </g>
     </g>
    </g>
    <g id="xtick_4">
     <g id="line2d_7">
      <g>
       <use xlink:href="#m89a4961091" x="236.601671" y="203.917368" style="stroke: #000000; stroke-width: 1.1"/>
      </g>
     </g>
     <g id="line2d_8">
      <g>
       <use xlink:href="#m806158a5d3" x="236.601671" y="7.14916" style="stroke: #000000; stroke-width: 1.1"/>
      </g>
     </g>
     <g id="text_4">
      <!-- $\mathdefault{3000}$ -->
      <g transform="translate(225.523341 217.015688) scale(0.1 -0.1)">
       <defs>
        <path id="NimbusSanL-Regu-33" d="M 1414 2112 
L 1485 2112 
L 1722 2112 
C 2342 2112 2662 1830 2662 1284 
C 2662 712 2310 372 1722 372 
C 1107 372 806 681 768 1345 
L 205 1345 
C 230 978 294 740 403 534 
C 634 97 1082 -128 1702 -128 
C 2637 -128 3238 431 3238 1293 
C 3238 1872 3014 2194 2470 2381 
C 2893 2546 3104 2862 3104 3311 
C 3104 4082 2586 4544 1722 4544 
C 806 4544 320 4050 301 3095 
L 864 3095 
C 870 3366 896 3517 966 3655 
C 1094 3900 1376 4051 1728 4051 
C 2227 4051 2528 3760 2528 3287 
C 2528 2971 2413 2781 2163 2681 
C 2010 2618 1811 2592 1414 2592 
L 1414 2112 
z
" transform="scale(0.015625)"/>
       </defs>
       <use xlink:href="#NimbusSanL-Regu-33" transform="scale(0.996264)"/>
       <use xlink:href="#NimbusSanL-Regu-30" transform="translate(55.391677 0) scale(0.996264)"/>
       <use xlink:href="#NimbusSanL-Regu-30" transform="translate(110.783354 0) scale(0.996264)"/>
       <use xlink:href="#NimbusSanL-Regu-30" transform="translate(166.175031 0) scale(0.996264)"/>
      </g>
     </g>
    </g>
    <g id="xtick_5">
     <g id="line2d_9">
      <g>
       <use xlink:href="#m89a4961091" x="50.271421" y="203.917368" style="stroke: #000000; stroke-width: 1.1"/>
      </g>
     </g>
     <g id="line2d_10">
      <g>
       <use xlink:href="#m806158a5d3" x="50.271421" y="7.14916" style="stroke: #000000; stroke-width: 1.1"/>
      </g>
     </g>
    </g>
    <g id="xtick_6">
     <g id="line2d_11">
      <g>
       <use xlink:href="#m89a4961091" x="63.580725" y="203.917368" style="stroke: #000000; stroke-width: 1.1"/>
      </g>
     </g>
     <g id="line2d_12">
      <g>
       <use xlink:href="#m806158a5d3" x="63.580725" y="7.14916" style="stroke: #000000; stroke-width: 1.1"/>
      </g>
     </g>
    </g>
    <g id="xtick_7">
     <g id="line2d_13">
      <g>
       <use xlink:href="#m89a4961091" x="76.890028" y="203.917368" style="stroke: #000000; stroke-width: 1.1"/>
      </g>
     </g>
     <g id="line2d_14">
      <g>
       <use xlink:href="#m806158a5d3" x="76.890028" y="7.14916" style="stroke: #000000; stroke-width: 1.1"/>
      </g>
     </g>
    </g>
    <g id="xtick_8">
     <g id="line2d_15">
      <g>
       <use xlink:href="#m89a4961091" x="90.199332" y="203.917368" style="stroke: #000000; stroke-width: 1.1"/>
      </g>
     </g>
     <g id="line2d_16">
      <g>
       <use xlink:href="#m806158a5d3" x="90.199332" y="7.14916" style="stroke: #000000; stroke-width: 1.1"/>
      </g>
     </g>
    </g>
    <g id="xtick_9">
     <g id="line2d_17">
      <g>
       <use xlink:href="#m89a4961091" x="116.817939" y="203.917368" style="stroke: #000000; stroke-width: 1.1"/>
      </g>
     </g>
     <g id="line2d_18">
      <g>
       <use xlink:href="#m806158a5d3" x="116.817939" y="7.14916" style="stroke: #000000; stroke-width: 1.1"/>
      </g>
     </g>
    </g>
    <g id="xtick_10">
     <g id="line2d_19">
      <g>
       <use xlink:href="#m89a4961091" x="130.127242" y="203.917368" style="stroke: #000000; stroke-width: 1.1"/>
      </g>
     </g>
     <g id="line2d_20">
      <g>
       <use xlink:href="#m806158a5d3" x="130.127242" y="7.14916" style="stroke: #000000; stroke-width: 1.1"/>
      </g>
     </g>
    </g>
    <g id="xtick_11">
     <g id="line2d_21">
      <g>
       <use xlink:href="#m89a4961091" x="143.436546" y="203.917368" style="stroke: #000000; stroke-width: 1.1"/>
      </g>
     </g>
     <g id="line2d_22">
      <g>
       <use xlink:href="#m806158a5d3" x="143.436546" y="7.14916" style="stroke: #000000; stroke-width: 1.1"/>
      </g>
     </g>
    </g>
    <g id="xtick_12">
     <g id="line2d_23">
      <g>
       <use xlink:href="#m89a4961091" x="156.745849" y="203.917368" style="stroke: #000000; stroke-width: 1.1"/>
      </g>
     </g>
     <g id="line2d_24">
      <g>
       <use xlink:href="#m806158a5d3" x="156.745849" y="7.14916" style="stroke: #000000; stroke-width: 1.1"/>
      </g>
     </g>
    </g>
    <g id="xtick_13">
     <g id="line2d_25">
      <g>
       <use xlink:href="#m89a4961091" x="183.364457" y="203.917368" style="stroke: #000000; stroke-width: 1.1"/>
      </g>
     </g>
     <g id="line2d_26">
      <g>
       <use xlink:href="#m806158a5d3" x="183.364457" y="7.14916" style="stroke: #000000; stroke-width: 1.1"/>
      </g>
     </g>
    </g>
    <g id="xtick_14">
     <g id="line2d_27">
      <g>
       <use xlink:href="#m89a4961091" x="196.67376" y="203.917368" style="stroke: #000000; stroke-width: 1.1"/>
      </g>
     </g>
     <g id="line2d_28">
      <g>
       <use xlink:href="#m806158a5d3" x="196.67376" y="7.14916" style="stroke: #000000; stroke-width: 1.1"/>
      </g>
     </g>
    </g>
    <g id="xtick_15">
     <g id="line2d_29">
      <g>
       <use xlink:href="#m89a4961091" x="209.983064" y="203.917368" style="stroke: #000000; stroke-width: 1.1"/>
      </g>
     </g>
     <g id="line2d_30">
      <g>
       <use xlink:href="#m806158a5d3" x="209.983064" y="7.14916" style="stroke: #000000; stroke-width: 1.1"/>
      </g>
     </g>
    </g>
    <g id="xtick_16">
     <g id="line2d_31">
      <g>
       <use xlink:href="#m89a4961091" x="223.292367" y="203.917368" style="stroke: #000000; stroke-width: 1.1"/>
      </g>
     </g>
     <g id="line2d_32">
      <g>
       <use xlink:href="#m806158a5d3" x="223.292367" y="7.14916" style="stroke: #000000; stroke-width: 1.1"/>
      </g>
     </g>
    </g>
    <g id="text_5">
     <!-- Time [min] -->
     <g transform="translate(110.710539 230.945827) scale(0.11 -0.11)">
      <defs>
       <path id="NimbusSanL-Regu-54" d="M 2266 4146 
L 3795 4146 
L 3795 4672 
L 134 4672 
L 134 4146 
L 1670 4146 
L 1670 -14 
L 2266 -14 
L 2266 4146 
z
" transform="scale(0.015625)"/>
       <path id="NimbusSanL-Regu-69" d="M 960 3359 
L 429 3359 
L 429 0 
L 960 0 
L 960 3359 
z
M 960 4672 
L 422 4672 
L 422 3999 
L 960 3999 
L 960 4672 
z
" transform="scale(0.015625)"/>
       <path id="NimbusSanL-Regu-6d" d="M 448 3359 
L 448 0 
L 986 0 
L 986 2109 
C 986 2597 1338 2988 1773 2988 
C 2170 2988 2394 2744 2394 2314 
L 2394 0 
L 2931 0 
L 2931 2109 
C 2931 2597 3283 2988 3718 2988 
C 4109 2988 4339 2738 4339 2314 
L 4339 0 
L 4877 0 
L 4877 2520 
C 4877 3122 4531 3456 3904 3456 
C 3456 3456 3187 3321 2874 2943 
C 2675 3302 2406 3456 1971 3456 
C 1523 3456 1229 3289 941 2885 
L 941 3359 
L 448 3359 
z
" transform="scale(0.015625)"/>
       <path id="NimbusSanL-Regu-65" d="M 3283 1529 
C 3283 2034 3245 2338 3149 2584 
C 2931 3127 2419 3456 1792 3456 
C 858 3456 256 2742 256 1645 
C 256 547 838 -128 1779 -128 
C 2547 -128 3078 310 3213 1044 
L 2675 1044 
C 2528 598 2227 365 1798 365 
C 1459 365 1171 520 992 805 
C 864 998 819 1193 813 1529 
L 3283 1529 
z
M 826 1984 
C 870 2577 1248 2962 1786 2962 
C 2310 2962 2714 2530 2714 1984 
C 2714 1984 2714 1984 2707 1984 
L 826 1984 
z
" transform="scale(0.015625)"/>
       <path id="NimbusSanL-Regu-5b" d="M 1600 4672 
L 410 4672 
L 410 -1357 
L 1600 -1357 
L 1600 -896 
L 941 -896 
L 941 4210 
L 1600 4210 
L 1600 4672 
z
" transform="scale(0.015625)"/>
       <path id="NimbusSanL-Regu-6e" d="M 448 3359 
L 448 0 
L 986 0 
L 986 1853 
C 986 2539 1344 2988 1894 2988 
C 2317 2988 2586 2731 2586 2327 
L 2586 0 
L 3117 0 
L 3117 2539 
C 3117 3097 2701 3456 2054 3456 
C 1555 3456 1235 3263 941 2796 
L 941 3359 
L 448 3359 
z
" transform="scale(0.015625)"/>
       <path id="NimbusSanL-Regu-5d" d="M 147 -1357 
L 1338 -1357 
L 1338 4672 
L 147 4672 
L 147 4210 
L 806 4210 
L 806 -896 
L 147 -896 
L 147 -1357 
z
" transform="scale(0.015625)"/>
      </defs>
      <use xlink:href="#NimbusSanL-Regu-54" transform="scale(0.996264)"/>
      <use xlink:href="#NimbusSanL-Regu-69" transform="translate(60.871631 0) scale(0.996264)"/>
      <use xlink:href="#NimbusSanL-Regu-6d" transform="translate(82.988415 0) scale(0.996264)"/>
      <use xlink:href="#NimbusSanL-Regu-65" transform="translate(165.976845 0) scale(0.996264)"/>
      <use xlink:href="#NimbusSanL-Regu-5b" transform="translate(249.063692 0) scale(0.996264)"/>
      <use xlink:href="#NimbusSanL-Regu-6d" transform="translate(276.758861 0) scale(0.996264)"/>
      <use xlink:href="#NimbusSanL-Regu-69" transform="translate(359.747292 0) scale(0.996264)"/>
      <use xlink:href="#NimbusSanL-Regu-6e" transform="translate(381.864076 0) scale(0.996264)"/>
      <use xlink:href="#NimbusSanL-Regu-5d" transform="translate(437.255753 0) scale(0.996264)"/>
     </g>
    </g>
   </g>
   <g id="matplotlib.axis_2">
    <g id="ytick_1">
     <g id="line2d_33">
      <defs>
       <path id="m0278b2b1da" d="M 0 0 
L -2.5 0 
" style="stroke: #000000; stroke-width: 1.1"/>
      </defs>
      <g>
       <use xlink:href="#m0278b2b1da" x="35.96392" y="194.547454" style="stroke: #000000; stroke-width: 1.1"/>
      </g>
     </g>
     <g id="line2d_34">
      <defs>
       <path id="m295a4d9685" d="M 0 0 
L 2.5 0 
" style="stroke: #000000; stroke-width: 1.1"/>
      </defs>
      <g>
       <use xlink:href="#m295a4d9685" x="236.601671" y="194.547454" style="stroke: #000000; stroke-width: 1.1"/>
      </g>
     </g>
     <g id="text_6">
      <!-- $\mathdefault{0}$ -->
      <g transform="translate(24.424755 198.096614) scale(0.1 -0.1)">
       <use xlink:href="#NimbusSanL-Regu-30" transform="scale(0.996264)"/>
      </g>
     </g>
    </g>
    <g id="ytick_2">
     <g id="line2d_35">
      <g>
       <use xlink:href="#m0278b2b1da" x="35.96392" y="171.122667" style="stroke: #000000; stroke-width: 1.1"/>
      </g>
     </g>
     <g id="line2d_36">
      <g>
       <use xlink:href="#m295a4d9685" x="236.601671" y="171.122667" style="stroke: #000000; stroke-width: 1.1"/>
      </g>
     </g>
     <g id="text_7">
      <!-- $\mathdefault{5}$ -->
      <g transform="translate(24.424755 174.671827) scale(0.1 -0.1)">
       <defs>
        <path id="NimbusSanL-Regu-35" d="M 3046 4544 
L 704 4544 
L 365 2086 
L 883 2086 
C 1146 2399 1363 2508 1715 2508 
C 2323 2508 2707 2092 2707 1421 
C 2707 768 2330 372 1715 372 
C 1222 372 922 621 787 1133 
L 224 1133 
C 301 762 365 582 499 415 
C 755 70 1216 -128 1728 -128 
C 2643 -128 3283 537 3283 1497 
C 3283 2394 2688 3008 1818 3008 
C 1498 3008 1242 2925 979 2732 
L 1158 3987 
L 3046 3987 
L 3046 4544 
z
" transform="scale(0.015625)"/>
       </defs>
       <use xlink:href="#NimbusSanL-Regu-35" transform="scale(0.996264)"/>
      </g>
     </g>
    </g>
    <g id="ytick_3">
     <g id="line2d_37">
      <g>
       <use xlink:href="#m0278b2b1da" x="35.96392" y="147.69788" style="stroke: #000000; stroke-width: 1.1"/>
      </g>
     </g>
     <g id="line2d_38">
      <g>
       <use xlink:href="#m295a4d9685" x="236.601671" y="147.69788" style="stroke: #000000; stroke-width: 1.1"/>
      </g>
     </g>
     <g id="text_8">
      <!-- $\mathdefault{10}$ -->
      <g transform="translate(18.88559 151.24704) scale(0.1 -0.1)">
       <use xlink:href="#NimbusSanL-Regu-31" transform="scale(0.996264)"/>
       <use xlink:href="#NimbusSanL-Regu-30" transform="translate(55.391677 0) scale(0.996264)"/>
      </g>
     </g>
    </g>
    <g id="ytick_4">
     <g id="line2d_39">
      <g>
       <use xlink:href="#m0278b2b1da" x="35.96392" y="124.273093" style="stroke: #000000; stroke-width: 1.1"/>
      </g>
     </g>
     <g id="line2d_40">
      <g>
       <use xlink:href="#m295a4d9685" x="236.601671" y="124.273093" style="stroke: #000000; stroke-width: 1.1"/>
      </g>
     </g>
     <g id="text_9">
      <!-- $\mathdefault{15}$ -->
      <g transform="translate(18.88559 127.822254) scale(0.1 -0.1)">
       <use xlink:href="#NimbusSanL-Regu-31" transform="scale(0.996264)"/>
       <use xlink:href="#NimbusSanL-Regu-35" transform="translate(55.391677 0) scale(0.996264)"/>
      </g>
     </g>
    </g>
    <g id="ytick_5">
     <g id="line2d_41">
      <g>
       <use xlink:href="#m0278b2b1da" x="35.96392" y="100.848307" style="stroke: #000000; stroke-width: 1.1"/>
      </g>
     </g>
     <g id="line2d_42">
      <g>
       <use xlink:href="#m295a4d9685" x="236.601671" y="100.848307" style="stroke: #000000; stroke-width: 1.1"/>
      </g>
     </g>
     <g id="text_10">
      <!-- $\mathdefault{20}$ -->
      <g transform="translate(18.88559 104.397467) scale(0.1 -0.1)">
       <use xlink:href="#NimbusSanL-Regu-32" transform="scale(0.996264)"/>
       <use xlink:href="#NimbusSanL-Regu-30" transform="translate(55.391677 0) scale(0.996264)"/>
      </g>
     </g>
    </g>
    <g id="ytick_6">
     <g id="line2d_43">
      <g>
       <use xlink:href="#m0278b2b1da" x="35.96392" y="77.42352" style="stroke: #000000; stroke-width: 1.1"/>
      </g>
     </g>
     <g id="line2d_44">
      <g>
       <use xlink:href="#m295a4d9685" x="236.601671" y="77.42352" style="stroke: #000000; stroke-width: 1.1"/>
      </g>
     </g>
     <g id="text_11">
      <!-- $\mathdefault{25}$ -->
      <g transform="translate(18.88559 80.97268) scale(0.1 -0.1)">
       <use xlink:href="#NimbusSanL-Regu-32" transform="scale(0.996264)"/>
       <use xlink:href="#NimbusSanL-Regu-35" transform="translate(55.391677 0) scale(0.996264)"/>
      </g>
     </g>
    </g>
    <g id="ytick_7">
     <g id="line2d_45">
      <g>
       <use xlink:href="#m0278b2b1da" x="35.96392" y="53.998733" style="stroke: #000000; stroke-width: 1.1"/>
      </g>
     </g>
     <g id="line2d_46">
      <g>
       <use xlink:href="#m295a4d9685" x="236.601671" y="53.998733" style="stroke: #000000; stroke-width: 1.1"/>
      </g>
     </g>
     <g id="text_12">
      <!-- $\mathdefault{30}$ -->
      <g transform="translate(18.88559 57.547894) scale(0.1 -0.1)">
       <use xlink:href="#NimbusSanL-Regu-33" transform="scale(0.996264)"/>
       <use xlink:href="#NimbusSanL-Regu-30" transform="translate(55.391677 0) scale(0.996264)"/>
      </g>
     </g>
    </g>
    <g id="ytick_8">
     <g id="line2d_47">
      <g>
       <use xlink:href="#m0278b2b1da" x="35.96392" y="30.573947" style="stroke: #000000; stroke-width: 1.1"/>
      </g>
     </g>
     <g id="line2d_48">
      <g>
       <use xlink:href="#m295a4d9685" x="236.601671" y="30.573947" style="stroke: #000000; stroke-width: 1.1"/>
      </g>
     </g>
     <g id="text_13">
      <!-- $\mathdefault{35}$ -->
      <g transform="translate(18.88559 34.123107) scale(0.1 -0.1)">
       <use xlink:href="#NimbusSanL-Regu-33" transform="scale(0.996264)"/>
       <use xlink:href="#NimbusSanL-Regu-35" transform="translate(55.391677 0) scale(0.996264)"/>
      </g>
     </g>
    </g>
    <g id="ytick_9">
     <g id="line2d_49">
      <g>
       <use xlink:href="#m0278b2b1da" x="35.96392" y="7.14916" style="stroke: #000000; stroke-width: 1.1"/>
      </g>
     </g>
     <g id="line2d_50">
      <g>
       <use xlink:href="#m295a4d9685" x="236.601671" y="7.14916" style="stroke: #000000; stroke-width: 1.1"/>
      </g>
     </g>
     <g id="text_14">
      <!-- $\mathdefault{40}$ -->
      <g transform="translate(18.88559 10.69832) scale(0.1 -0.1)">
       <defs>
        <path id="NimbusSanL-Regu-34" d="M 2093 1088 
L 2093 0 
L 2656 0 
L 2656 1088 
L 3328 1088 
L 3328 1594 
L 2656 1594 
L 2656 4545 
L 2240 4545 
L 179 1684 
L 179 1088 
L 2093 1088 
z
M 2093 1594 
L 672 1594 
L 2093 3583 
L 2093 1594 
z
" transform="scale(0.015625)"/>
       </defs>
       <use xlink:href="#NimbusSanL-Regu-34" transform="scale(0.996264)"/>
       <use xlink:href="#NimbusSanL-Regu-30" transform="translate(55.391677 0) scale(0.996264)"/>
      </g>
     </g>
    </g>
    <g id="ytick_10">
     <g id="line2d_51">
      <g>
       <use xlink:href="#m0278b2b1da" x="35.96392" y="203.917368" style="stroke: #000000; stroke-width: 1.1"/>
      </g>
     </g>
     <g id="line2d_52">
      <g>
       <use xlink:href="#m295a4d9685" x="236.601671" y="203.917368" style="stroke: #000000; stroke-width: 1.1"/>
      </g>
     </g>
    </g>
    <g id="ytick_11">
     <g id="line2d_53">
      <g>
       <use xlink:href="#m0278b2b1da" x="35.96392" y="199.232411" style="stroke: #000000; stroke-width: 1.1"/>
      </g>
     </g>
     <g id="line2d_54">
      <g>
       <use xlink:href="#m295a4d9685" x="236.601671" y="199.232411" style="stroke: #000000; stroke-width: 1.1"/>
      </g>
     </g>
    </g>
    <g id="ytick_12">
     <g id="line2d_55">
      <g>
       <use xlink:href="#m0278b2b1da" x="35.96392" y="189.862496" style="stroke: #000000; stroke-width: 1.1"/>
      </g>
     </g>
     <g id="line2d_56">
      <g>
       <use xlink:href="#m295a4d9685" x="236.601671" y="189.862496" style="stroke: #000000; stroke-width: 1.1"/>
      </g>
     </g>
    </g>
    <g id="ytick_13">
     <g id="line2d_57">
      <g>
       <use xlink:href="#m0278b2b1da" x="35.96392" y="185.177539" style="stroke: #000000; stroke-width: 1.1"/>
      </g>
     </g>
     <g id="line2d_58">
      <g>
       <use xlink:href="#m295a4d9685" x="236.601671" y="185.177539" style="stroke: #000000; stroke-width: 1.1"/>
      </g>
     </g>
    </g>
    <g id="ytick_14">
     <g id="line2d_59">
      <g>
       <use xlink:href="#m0278b2b1da" x="35.96392" y="180.492581" style="stroke: #000000; stroke-width: 1.1"/>
      </g>
     </g>
     <g id="line2d_60">
      <g>
       <use xlink:href="#m295a4d9685" x="236.601671" y="180.492581" style="stroke: #000000; stroke-width: 1.1"/>
      </g>
     </g>
    </g>
    <g id="ytick_15">
     <g id="line2d_61">
      <g>
       <use xlink:href="#m0278b2b1da" x="35.96392" y="175.807624" style="stroke: #000000; stroke-width: 1.1"/>
      </g>
     </g>
     <g id="line2d_62">
      <g>
       <use xlink:href="#m295a4d9685" x="236.601671" y="175.807624" style="stroke: #000000; stroke-width: 1.1"/>
      </g>
     </g>
    </g>
    <g id="ytick_16">
     <g id="line2d_63">
      <g>
       <use xlink:href="#m0278b2b1da" x="35.96392" y="166.437709" style="stroke: #000000; stroke-width: 1.1"/>
      </g>
     </g>
     <g id="line2d_64">
      <g>
       <use xlink:href="#m295a4d9685" x="236.601671" y="166.437709" style="stroke: #000000; stroke-width: 1.1"/>
      </g>
     </g>
    </g>
    <g id="ytick_17">
     <g id="line2d_65">
      <g>
       <use xlink:href="#m0278b2b1da" x="35.96392" y="161.752752" style="stroke: #000000; stroke-width: 1.1"/>
      </g>
     </g>
     <g id="line2d_66">
      <g>
       <use xlink:href="#m295a4d9685" x="236.601671" y="161.752752" style="stroke: #000000; stroke-width: 1.1"/>
      </g>
     </g>
    </g>
    <g id="ytick_18">
     <g id="line2d_67">
      <g>
       <use xlink:href="#m0278b2b1da" x="35.96392" y="157.067795" style="stroke: #000000; stroke-width: 1.1"/>
      </g>
     </g>
     <g id="line2d_68">
      <g>
       <use xlink:href="#m295a4d9685" x="236.601671" y="157.067795" style="stroke: #000000; stroke-width: 1.1"/>
      </g>
     </g>
    </g>
    <g id="ytick_19">
     <g id="line2d_69">
      <g>
       <use xlink:href="#m0278b2b1da" x="35.96392" y="152.382837" style="stroke: #000000; stroke-width: 1.1"/>
      </g>
     </g>
     <g id="line2d_70">
      <g>
       <use xlink:href="#m295a4d9685" x="236.601671" y="152.382837" style="stroke: #000000; stroke-width: 1.1"/>
      </g>
     </g>
    </g>
    <g id="ytick_20">
     <g id="line2d_71">
      <g>
       <use xlink:href="#m0278b2b1da" x="35.96392" y="143.012923" style="stroke: #000000; stroke-width: 1.1"/>
      </g>
     </g>
     <g id="line2d_72">
      <g>
       <use xlink:href="#m295a4d9685" x="236.601671" y="143.012923" style="stroke: #000000; stroke-width: 1.1"/>
      </g>
     </g>
    </g>
    <g id="ytick_21">
     <g id="line2d_73">
      <g>
       <use xlink:href="#m0278b2b1da" x="35.96392" y="138.327965" style="stroke: #000000; stroke-width: 1.1"/>
      </g>
     </g>
     <g id="line2d_74">
      <g>
       <use xlink:href="#m295a4d9685" x="236.601671" y="138.327965" style="stroke: #000000; stroke-width: 1.1"/>
      </g>
     </g>
    </g>
    <g id="ytick_22">
     <g id="line2d_75">
      <g>
       <use xlink:href="#m0278b2b1da" x="35.96392" y="133.643008" style="stroke: #000000; stroke-width: 1.1"/>
      </g>
     </g>
     <g id="line2d_76">
      <g>
       <use xlink:href="#m295a4d9685" x="236.601671" y="133.643008" style="stroke: #000000; stroke-width: 1.1"/>
      </g>
     </g>
    </g>
    <g id="ytick_23">
     <g id="line2d_77">
      <g>
       <use xlink:href="#m0278b2b1da" x="35.96392" y="128.958051" style="stroke: #000000; stroke-width: 1.1"/>
      </g>
     </g>
     <g id="line2d_78">
      <g>
       <use xlink:href="#m295a4d9685" x="236.601671" y="128.958051" style="stroke: #000000; stroke-width: 1.1"/>
      </g>
     </g>
    </g>
    <g id="ytick_24">
     <g id="line2d_79">
      <g>
       <use xlink:href="#m0278b2b1da" x="35.96392" y="119.588136" style="stroke: #000000; stroke-width: 1.1"/>
      </g>
     </g>
     <g id="line2d_80">
      <g>
       <use xlink:href="#m295a4d9685" x="236.601671" y="119.588136" style="stroke: #000000; stroke-width: 1.1"/>
      </g>
     </g>
    </g>
    <g id="ytick_25">
     <g id="line2d_81">
      <g>
       <use xlink:href="#m0278b2b1da" x="35.96392" y="114.903179" style="stroke: #000000; stroke-width: 1.1"/>
      </g>
     </g>
     <g id="line2d_82">
      <g>
       <use xlink:href="#m295a4d9685" x="236.601671" y="114.903179" style="stroke: #000000; stroke-width: 1.1"/>
      </g>
     </g>
    </g>
    <g id="ytick_26">
     <g id="line2d_83">
      <g>
       <use xlink:href="#m0278b2b1da" x="35.96392" y="110.218221" style="stroke: #000000; stroke-width: 1.1"/>
      </g>
     </g>
     <g id="line2d_84">
      <g>
       <use xlink:href="#m295a4d9685" x="236.601671" y="110.218221" style="stroke: #000000; stroke-width: 1.1"/>
      </g>
     </g>
    </g>
    <g id="ytick_27">
     <g id="line2d_85">
      <g>
       <use xlink:href="#m0278b2b1da" x="35.96392" y="105.533264" style="stroke: #000000; stroke-width: 1.1"/>
      </g>
     </g>
     <g id="line2d_86">
      <g>
       <use xlink:href="#m295a4d9685" x="236.601671" y="105.533264" style="stroke: #000000; stroke-width: 1.1"/>
      </g>
     </g>
    </g>
    <g id="ytick_28">
     <g id="line2d_87">
      <g>
       <use xlink:href="#m0278b2b1da" x="35.96392" y="96.163349" style="stroke: #000000; stroke-width: 1.1"/>
      </g>
     </g>
     <g id="line2d_88">
      <g>
       <use xlink:href="#m295a4d9685" x="236.601671" y="96.163349" style="stroke: #000000; stroke-width: 1.1"/>
      </g>
     </g>
    </g>
    <g id="ytick_29">
     <g id="line2d_89">
      <g>
       <use xlink:href="#m0278b2b1da" x="35.96392" y="91.478392" style="stroke: #000000; stroke-width: 1.1"/>
      </g>
     </g>
     <g id="line2d_90">
      <g>
       <use xlink:href="#m295a4d9685" x="236.601671" y="91.478392" style="stroke: #000000; stroke-width: 1.1"/>
      </g>
     </g>
    </g>
    <g id="ytick_30">
     <g id="line2d_91">
      <g>
       <use xlink:href="#m0278b2b1da" x="35.96392" y="86.793435" style="stroke: #000000; stroke-width: 1.1"/>
      </g>
     </g>
     <g id="line2d_92">
      <g>
       <use xlink:href="#m295a4d9685" x="236.601671" y="86.793435" style="stroke: #000000; stroke-width: 1.1"/>
      </g>
     </g>
    </g>
    <g id="ytick_31">
     <g id="line2d_93">
      <g>
       <use xlink:href="#m0278b2b1da" x="35.96392" y="82.108477" style="stroke: #000000; stroke-width: 1.1"/>
      </g>
     </g>
     <g id="line2d_94">
      <g>
       <use xlink:href="#m295a4d9685" x="236.601671" y="82.108477" style="stroke: #000000; stroke-width: 1.1"/>
      </g>
     </g>
    </g>
    <g id="ytick_32">
     <g id="line2d_95">
      <g>
       <use xlink:href="#m0278b2b1da" x="35.96392" y="72.738563" style="stroke: #000000; stroke-width: 1.1"/>
      </g>
     </g>
     <g id="line2d_96">
      <g>
       <use xlink:href="#m295a4d9685" x="236.601671" y="72.738563" style="stroke: #000000; stroke-width: 1.1"/>
      </g>
     </g>
    </g>
    <g id="ytick_33">
     <g id="line2d_97">
      <g>
       <use xlink:href="#m0278b2b1da" x="35.96392" y="68.053605" style="stroke: #000000; stroke-width: 1.1"/>
      </g>
     </g>
     <g id="line2d_98">
      <g>
       <use xlink:href="#m295a4d9685" x="236.601671" y="68.053605" style="stroke: #000000; stroke-width: 1.1"/>
      </g>
     </g>
    </g>
    <g id="ytick_34">
     <g id="line2d_99">
      <g>
       <use xlink:href="#m0278b2b1da" x="35.96392" y="63.368648" style="stroke: #000000; stroke-width: 1.1"/>
      </g>
     </g>
     <g id="line2d_100">
      <g>
       <use xlink:href="#m295a4d9685" x="236.601671" y="63.368648" style="stroke: #000000; stroke-width: 1.1"/>
      </g>
     </g>
    </g>
    <g id="ytick_35">
     <g id="line2d_101">
      <g>
       <use xlink:href="#m0278b2b1da" x="35.96392" y="58.683691" style="stroke: #000000; stroke-width: 1.1"/>
      </g>
     </g>
     <g id="line2d_102">
      <g>
       <use xlink:href="#m295a4d9685" x="236.601671" y="58.683691" style="stroke: #000000; stroke-width: 1.1"/>
      </g>
     </g>
    </g>
    <g id="ytick_36">
     <g id="line2d_103">
      <g>
       <use xlink:href="#m0278b2b1da" x="35.96392" y="49.313776" style="stroke: #000000; stroke-width: 1.1"/>
      </g>
     </g>
     <g id="line2d_104">
      <g>
       <use xlink:href="#m295a4d9685" x="236.601671" y="49.313776" style="stroke: #000000; stroke-width: 1.1"/>
      </g>
     </g>
    </g>
    <g id="ytick_37">
     <g id="line2d_105">
      <g>
       <use xlink:href="#m0278b2b1da" x="35.96392" y="44.628819" style="stroke: #000000; stroke-width: 1.1"/>
      </g>
     </g>
     <g id="line2d_106">
      <g>
       <use xlink:href="#m295a4d9685" x="236.601671" y="44.628819" style="stroke: #000000; stroke-width: 1.1"/>
      </g>
     </g>
    </g>
    <g id="ytick_38">
     <g id="line2d_107">
      <g>
       <use xlink:href="#m0278b2b1da" x="35.96392" y="39.943861" style="stroke: #000000; stroke-width: 1.1"/>
      </g>
     </g>
     <g id="line2d_108">
      <g>
       <use xlink:href="#m295a4d9685" x="236.601671" y="39.943861" style="stroke: #000000; stroke-width: 1.1"/>
      </g>
     </g>
    </g>
    <g id="ytick_39">
     <g id="line2d_109">
      <g>
       <use xlink:href="#m0278b2b1da" x="35.96392" y="35.258904" style="stroke: #000000; stroke-width: 1.1"/>
      </g>
     </g>
     <g id="line2d_110">
      <g>
       <use xlink:href="#m295a4d9685" x="236.601671" y="35.258904" style="stroke: #000000; stroke-width: 1.1"/>
      </g>
     </g>
    </g>
    <g id="ytick_40">
     <g id="line2d_111">
      <g>
       <use xlink:href="#m0278b2b1da" x="35.96392" y="25.888989" style="stroke: #000000; stroke-width: 1.1"/>
      </g>
     </g>
     <g id="line2d_112">
      <g>
       <use xlink:href="#m295a4d9685" x="236.601671" y="25.888989" style="stroke: #000000; stroke-width: 1.1"/>
      </g>
     </g>
    </g>
    <g id="ytick_41">
     <g id="line2d_113">
      <g>
       <use xlink:href="#m0278b2b1da" x="35.96392" y="21.204032" style="stroke: #000000; stroke-width: 1.1"/>
      </g>
     </g>
     <g id="line2d_114">
      <g>
       <use xlink:href="#m295a4d9685" x="236.601671" y="21.204032" style="stroke: #000000; stroke-width: 1.1"/>
      </g>
     </g>
    </g>
    <g id="ytick_42">
     <g id="line2d_115">
      <g>
       <use xlink:href="#m0278b2b1da" x="35.96392" y="16.519075" style="stroke: #000000; stroke-width: 1.1"/>
      </g>
     </g>
     <g id="line2d_116">
      <g>
       <use xlink:href="#m295a4d9685" x="236.601671" y="16.519075" style="stroke: #000000; stroke-width: 1.1"/>
      </g>
     </g>
    </g>
    <g id="ytick_43">
     <g id="line2d_117">
      <g>
       <use xlink:href="#m0278b2b1da" x="35.96392" y="11.834117" style="stroke: #000000; stroke-width: 1.1"/>
      </g>
     </g>
     <g id="line2d_118">
      <g>
       <use xlink:href="#m295a4d9685" x="236.601671" y="11.834117" style="stroke: #000000; stroke-width: 1.1"/>
      </g>
     </g>
    </g>
    <g id="text_15">
     <!-- Glucose [g/L] -->
     <g transform="translate(12.339216 140.752662) rotate(-90) scale(0.12 -0.12)">
      <defs>
       <path id="NimbusSanL-Regu-47" d="M 4538 2496 
L 2592 2496 
L 2592 1971 
L 4013 1971 
L 4013 1841 
C 4013 1003 3398 397 2547 397 
C 2074 397 1645 569 1370 870 
C 1062 1201 877 1756 877 2330 
C 877 3471 1530 4224 2515 4224 
C 3226 4224 3738 3864 3866 3272 
L 4474 3272 
C 4307 4211 3590 4750 2522 4750 
C 1952 4750 1491 4603 1126 4303 
C 589 3856 282 3135 282 2298 
C 282 868 1158 -128 2419 -128 
C 3053 -128 3558 109 4013 616 
L 4160 -7 
L 4538 -7 
L 4538 2496 
z
" transform="scale(0.015625)"/>
       <path id="NimbusSanL-Regu-6c" d="M 973 4672 
L 435 4672 
L 435 -2 
L 973 -2 
L 973 4672 
z
" transform="scale(0.015625)"/>
       <path id="NimbusSanL-Regu-75" d="M 3085 33 
L 3085 3392 
L 2554 3392 
L 2554 1479 
C 2554 790 2195 340 1638 340 
C 1216 340 947 597 947 1003 
L 947 3392 
L 416 3392 
L 416 792 
C 416 232 832 -128 1485 -128 
C 1978 -128 2291 45 2605 488 
L 2605 33 
L 3085 33 
z
" transform="scale(0.015625)"/>
       <path id="NimbusSanL-Regu-63" d="M 3014 2236 
C 2989 2562 2918 2773 2790 2958 
C 2560 3271 2157 3456 1690 3456 
C 787 3456 198 2742 198 1632 
C 198 554 774 -128 1683 -128 
C 2483 -128 2989 350 3053 1167 
L 2515 1167 
C 2426 632 2150 365 1696 365 
C 1107 365 755 843 755 1632 
C 755 2466 1101 2962 1683 2962 
C 2131 2962 2413 2701 2477 2236 
L 3014 2236 
z
" transform="scale(0.015625)"/>
       <path id="NimbusSanL-Regu-6f" d="M 1741 3456 
C 800 3456 230 2786 230 1663 
C 230 541 794 -128 1747 -128 
C 2688 -128 3264 541 3264 1638 
C 3264 2792 2707 3456 1741 3456 
z
M 1747 2962 
C 2349 2962 2707 2472 2707 1645 
C 2707 861 2336 365 1747 365 
C 1152 365 787 855 787 1663 
C 787 2466 1152 2962 1747 2962 
z
" transform="scale(0.015625)"/>
       <path id="NimbusSanL-Regu-73" d="M 2803 2427 
C 2797 3085 2362 3456 1587 3456 
C 806 3456 301 3054 301 2436 
C 301 1913 570 1665 1363 1474 
L 1862 1353 
C 2234 1263 2381 1130 2381 888 
C 2381 576 2067 365 1600 365 
C 1312 365 1069 448 934 588 
C 851 684 813 779 781 1014 
L 218 1014 
C 243 241 678 -128 1555 -128 
C 2400 -128 2938 285 2938 929 
C 2938 1426 2656 1701 1990 1860 
L 1478 1981 
C 1043 2082 858 2223 858 2458 
C 858 2764 1133 2962 1568 2962 
C 1997 2962 2227 2777 2240 2427 
L 2803 2427 
z
" transform="scale(0.015625)"/>
       <path id="NimbusSanL-Regu-67" d="M 2637 3341 
L 2637 2854 
C 2368 3252 2042 3438 1613 3438 
C 762 3438 186 2692 186 1600 
C 186 1048 333 598 608 276 
C 858 -7 1216 -173 1568 -173 
C 1990 -173 2285 6 2586 429 
L 2586 258 
C 2586 -192 2528 -465 2394 -649 
C 2253 -844 1978 -959 1651 -959 
C 1408 -959 1190 -896 1043 -783 
C 922 -688 870 -600 838 -406 
L 294 -406 
C 352 -1033 845 -1408 1632 -1408 
C 2131 -1408 2560 -1247 2778 -979 
C 3034 -671 3130 -249 3130 538 
L 3130 3341 
L 2637 3341 
z
M 1670 2944 
C 2246 2944 2586 2455 2586 1613 
C 2586 808 2240 320 1677 320 
C 1094 320 742 816 742 1632 
C 742 2442 1101 2944 1670 2944 
z
" transform="scale(0.015625)"/>
       <path id="NimbusSanL-Regu-2f" d="M 1466 4672 
L -51 -128 
L 301 -128 
L 1818 4672 
L 1466 4672 
z
" transform="scale(0.015625)"/>
       <path id="NimbusSanL-Regu-4c" d="M 1107 4672 
L 512 4672 
L 512 0 
L 3411 0 
L 3411 526 
L 1107 526 
L 1107 4672 
z
" transform="scale(0.015625)"/>
      </defs>
      <use xlink:href="#NimbusSanL-Regu-47" transform="scale(0.996264)"/>
      <use xlink:href="#NimbusSanL-Regu-6c" transform="translate(77.50837 0) scale(0.996264)"/>
      <use xlink:href="#NimbusSanL-Regu-75" transform="translate(99.625154 0) scale(0.996264)"/>
      <use xlink:href="#NimbusSanL-Regu-63" transform="translate(155.016831 0) scale(0.996264)"/>
      <use xlink:href="#NimbusSanL-Regu-6f" transform="translate(204.830032 0) scale(0.996264)"/>
      <use xlink:href="#NimbusSanL-Regu-73" transform="translate(260.221709 0) scale(0.996264)"/>
      <use xlink:href="#NimbusSanL-Regu-65" transform="translate(310.034909 0) scale(0.996264)"/>
      <use xlink:href="#NimbusSanL-Regu-5b" transform="translate(393.121756 0) scale(0.996264)"/>
      <use xlink:href="#NimbusSanL-Regu-67" transform="translate(420.816926 0) scale(0.996264)"/>
      <use xlink:href="#NimbusSanL-Regu-2f" transform="translate(476.208603 0) scale(0.996264)"/>
      <use xlink:href="#NimbusSanL-Regu-4c" transform="translate(503.903772 0) scale(0.996264)"/>
      <use xlink:href="#NimbusSanL-Regu-5d" transform="translate(559.295449 0) scale(0.996264)"/>
     </g>
    </g>
   </g>
   <g id="PathCollection_1">
    <defs>
     <path id="m4a8580cd0a" d="M 0 1.936492 
C 0.513564 1.936492 1.006162 1.732451 1.369306 1.369306 
C 1.732451 1.006162 1.936492 0.513564 1.936492 0 
C 1.936492 -0.513564 1.732451 -1.006162 1.369306 -1.369306 
C 1.006162 -1.732451 0.513564 -1.936492 0 -1.936492 
C -0.513564 -1.936492 -1.006162 -1.732451 -1.369306 -1.369306 
C -1.732451 -1.006162 -1.936492 -0.513564 -1.936492 0 
C -1.936492 0.513564 -1.732451 1.006162 -1.369306 1.369306 
C -1.006162 1.732451 -0.513564 1.936492 0 1.936492 
z
" style="stroke: #083370"/>
    </defs>
    <g clip-path="url(#p2963e414fc)">
     <use xlink:href="#m4a8580cd0a" x="37.627583" y="112.516892" style="fill: #083370; stroke: #083370"/>
     <use xlink:href="#m4a8580cd0a" x="38.62578" y="127.454872" style="fill: #083370; stroke: #083370"/>
     <use xlink:href="#m4a8580cd0a" x="39.623978" y="126.72317" style="fill: #083370; stroke: #083370"/>
     <use xlink:href="#m4a8580cd0a" x="41.620374" y="145.038237" style="fill: #083370; stroke: #083370"/>
     <use xlink:href="#m4a8580cd0a" x="42.618571" y="151.522243" style="fill: #083370; stroke: #083370"/>
     <use xlink:href="#m4a8580cd0a" x="45.613165" y="165.086875" style="fill: #083370; stroke: #083370"/>
     <use xlink:href="#m4a8580cd0a" x="51.602351" y="162.846741" style="fill: #083370; stroke: #083370"/>
     <use xlink:href="#m4a8580cd0a" x="136.449162" y="151.443445" style="fill: #083370; stroke: #083370"/>
     <use xlink:href="#m4a8580cd0a" x="137.114627" y="145.252119" style="fill: #083370; stroke: #083370"/>
     <use xlink:href="#m4a8580cd0a" x="137.780092" y="148.415323" style="fill: #083370; stroke: #083370"/>
    </g>
   </g>
   <g id="line2d_119">
    <path d="M 35.96392 194.547454 
L 236.601671 194.547454 
" clip-path="url(#p2963e414fc)" style="fill: none; stroke-dasharray: 12.8,3.2,2,3.2; stroke-dashoffset: 0; stroke: #666970; stroke-width: 2"/>
   </g>
   <g id="patch_3">
    <path d="M 35.96392 203.917368 
L 35.96392 7.14916 
" style="fill: none; stroke: #000000; stroke-width: 0.5; stroke-linejoin: miter; stroke-linecap: square"/>
   </g>
   <g id="patch_4">
    <path d="M 236.601671 203.917368 
L 236.601671 7.14916 
" style="fill: none; stroke: #000000; stroke-width: 0.5; stroke-linejoin: miter; stroke-linecap: square"/>
   </g>
   <g id="patch_5">
    <path d="M 35.96392 203.917368 
L 236.601671 203.917368 
" style="fill: none; stroke: #000000; stroke-width: 0.5; stroke-linejoin: miter; stroke-linecap: square"/>
   </g>
   <g id="patch_6">
    <path d="M 35.96392 7.14916 
L 236.601671 7.14916 
" style="fill: none; stroke: #000000; stroke-width: 0.5; stroke-linejoin: miter; stroke-linecap: square"/>
   </g>
   <g id="line2d_120">
    <path d="M 36.962117 53.998733 
L 37.961982 85.223279 
L 38.961846 109.419262 
L 39.96171 127.61096 
L 40.961574 140.924305 
L 41.961439 150.426152 
L 42.961303 157.076509 
L 43.627879 160.306996 
L 44.294455 162.790496 
L 44.961031 164.674433 
L 45.627607 166.077844 
L 46.294183 167.09603 
L 46.96076 167.804787 
L 47.627336 168.264218 
L 48.293912 168.521957 
L 49.293776 168.610746 
L 50.29364 168.425084 
L 51.293504 168.033512 
L 52.626657 167.274272 
L 54.293097 166.053566 
L 56.292825 164.318178 
L 59.292418 161.366878 
L 63.291875 157.081309 
L 79.956278 138.862231 
L 84.622311 134.274997 
L 88.955056 130.341834 
L 92.954513 127.009603 
L 96.95397 123.96904 
L 100.953427 121.21571 
L 104.952884 118.738758 
L 108.95234 116.524106 
L 112.951797 114.553143 
L 117.284542 112.670891 
L 121.617287 111.027016 
L 126.28332 109.495193 
L 131.282641 108.09483 
L 136.61525 106.839139 
L 142.281147 105.734954 
L 148.613621 104.731581 
L 155.61267 103.855826 
L 163.611584 103.091286 
L 172.610361 102.455239 
L 183.27558 101.931555 
L 196.940391 101.499044 
L 214.27137 101.189678 
L 236.601671 100.996399 
L 236.601671 100.996399 
" clip-path="url(#p2963e414fc)" style="fill: none; stroke: #bcae6c; stroke-width: 1.8; stroke-linecap: square"/>
   </g>
   <g id="line2d_121">
    <path d="M 36.962117 35.540645 
L 38.961846 92.92622 
L 39.96171 120.48973 
L 40.628286 133.854301 
L 41.294862 143.25964 
L 42.294727 153.213316 
L 42.961303 158.006702 
L 44.294455 164.224502 
L 44.961031 166.914269 
L 45.294319 167.314395 
L 45.627607 167.138752 
L 46.627471 165.751723 
L 46.96076 165.512031 
L 47.294048 165.486587 
L 47.627336 165.692932 
L 47.960624 166.136486 
L 48.6272 167.686259 
L 49.627064 170.514614 
L 49.960352 170.867818 
L 50.29364 170.638103 
L 50.960216 169.049357 
L 52.959945 163.166973 
L 53.626521 161.820505 
L 54.626385 160.387289 
L 55.959537 158.959523 
L 60.958858 153.878981 
L 66.291468 148.00764 
L 76.29011 136.953148 
L 81.289431 131.780244 
L 85.622176 127.60174 
L 89.621632 124.029728 
L 93.621089 120.746021 
L 97.620546 117.753915 
L 101.620003 115.047433 
L 105.61946 112.615362 
L 109.618916 110.442633 
L 113.618373 108.510453 
L 117.951118 106.66652 
L 122.617151 104.938364 
L 125.950032 103.6903 
L 128.616336 102.471056 
L 130.949353 102.093134 
L 131.949217 101.792357 
L 132.615793 101.432108 
L 133.282369 100.828789 
L 133.948946 99.853864 
L 134.615522 98.314582 
L 135.282098 95.910358 
L 136.61525 89.944413 
L 136.948538 89.278089 
L 137.281826 89.197464 
L 137.615114 89.761452 
L 137.948402 90.918723 
L 139.614843 98.38728 
L 139.948131 99.191791 
L 140.281419 99.702162 
L 140.614707 99.989294 
L 141.281283 100.16642 
L 142.281147 100.049123 
L 146.94718 99.238412 
L 153.612942 98.347303 
L 161.278567 97.555812 
L 170.277345 96.864017 
L 180.609275 96.306974 
L 193.274222 95.858272 
L 209.272049 95.523047 
L 225.936452 95.374325 
L 227.269605 95.534354 
L 227.936181 95.77395 
L 228.602757 96.255638 
L 229.269333 97.150773 
L 229.935909 98.634434 
L 231.269062 102.44865 
L 231.60235 102.766782 
L 231.935638 102.511864 
L 232.602214 100.771304 
L 233.602078 97.876049 
L 234.268654 96.657973 
L 234.93523 95.959839 
L 235.601806 95.593693 
L 236.601671 95.360607 
L 236.601671 95.360607 
" clip-path="url(#p2963e414fc)" style="fill: none; stroke-dasharray: 6.66,2.88; stroke-dashoffset: 0; stroke: #7d7c78; stroke-width: 1.8"/>
   </g>
   <g id="legend_1">
    <g id="patch_7">
     <path d="M 86.566997 21.637648 
L 104.566997 21.637648 
L 104.566997 15.337648 
L 86.566997 15.337648 
z
" style="fill: #888578; fill-opacity: 0.4"/>
    </g>
    <g id="text_16">
     <!-- Hybrid Uncertainty -->
     <g transform="translate(111.766997 21.637648) scale(0.09 -0.09)">
      <defs>
       <path id="NimbusSanL-Regu-48" d="M 3526 2112 
L 3526 -2 
L 4122 -2 
L 4122 4672 
L 3526 4672 
L 3526 2638 
L 1126 2638 
L 1126 4672 
L 531 4672 
L 531 -2 
L 1133 -2 
L 1133 2112 
L 3526 2112 
z
" transform="scale(0.015625)"/>
       <path id="NimbusSanL-Regu-79" d="M 2483 3360 
L 1555 738 
L 698 3360 
L 128 3360 
L 1261 -21 
L 1056 -554 
C 973 -792 851 -882 627 -882 
C 550 -882 461 -869 346 -843 
L 346 -1325 
C 454 -1382 563 -1408 704 -1408 
C 877 -1408 1062 -1350 1203 -1247 
C 1370 -1125 1466 -983 1568 -713 
L 3059 3360 
L 2483 3360 
z
" transform="scale(0.015625)"/>
       <path id="NimbusSanL-Regu-62" d="M 346 4672 
L 346 -2 
L 826 -2 
L 826 448 
C 1082 57 1421 -128 1888 -128 
C 2771 -128 3347 592 3347 1702 
C 3347 2786 2797 3456 1914 3456 
C 1453 3456 1126 3282 877 2905 
L 877 4672 
L 346 4672 
z
M 1811 2956 
C 2406 2956 2790 2440 2790 1645 
C 2790 887 2394 372 1811 372 
C 1248 372 877 881 877 1664 
C 877 2447 1248 2956 1811 2956 
z
" transform="scale(0.015625)"/>
       <path id="NimbusSanL-Regu-72" d="M 442 3359 
L 442 0 
L 979 0 
L 979 1741 
C 979 2221 1101 2535 1357 2720 
C 1523 2842 1683 2880 2054 2880 
L 2054 3432 
C 1965 3444 1920 3444 1850 3444 
C 1504 3444 1242 3240 934 2746 
L 934 3359 
L 442 3359 
z
" transform="scale(0.015625)"/>
       <path id="NimbusSanL-Regu-64" d="M 3168 4672 
L 2637 4672 
L 2637 2937 
C 2413 3276 2054 3456 1606 3456 
C 736 3456 166 2761 166 1695 
C 166 566 723 -128 1626 -128 
C 2086 -128 2406 45 2694 461 
L 2694 -2 
L 3168 -2 
L 3168 4672 
z
M 1696 2956 
C 2272 2956 2637 2447 2637 1651 
C 2637 881 2266 372 1702 372 
C 1114 372 723 887 723 1664 
C 723 2440 1114 2956 1696 2956 
z
" transform="scale(0.015625)"/>
       <path id="NimbusSanL-Regu-55" d="M 3533 4672 
L 3533 1395 
C 3533 768 3078 384 2330 384 
C 1984 384 1702 468 1478 628 
C 1248 806 1139 1044 1139 1395 
L 1139 4672 
L 544 4672 
L 544 1394 
C 544 447 1222 -141 2330 -141 
C 3424 -141 4128 460 4128 1394 
L 4128 4672 
L 3533 4672 
z
" transform="scale(0.015625)"/>
       <path id="NimbusSanL-Regu-74" d="M 1626 3380 
L 1075 3380 
L 1075 4288 
L 544 4288 
L 544 3380 
L 90 3380 
L 90 2944 
L 544 2944 
L 544 404 
C 544 64 774 -128 1190 -128 
C 1318 -128 1446 -116 1626 -83 
L 1626 366 
C 1555 346 1472 340 1370 340 
C 1139 340 1075 404 1075 641 
L 1075 2944 
L 1626 2944 
L 1626 3380 
z
" transform="scale(0.015625)"/>
       <path id="NimbusSanL-Regu-61" d="M 3424 333 
C 3366 320 3341 320 3309 320 
C 3123 320 3021 415 3021 581 
L 3021 2545 
C 3021 3137 2586 3456 1760 3456 
C 1274 3456 870 3316 646 3066 
C 493 2893 429 2702 416 2370 
L 954 2370 
C 998 2777 1242 2962 1741 2962 
C 2221 2962 2490 2783 2490 2465 
L 2490 2325 
C 2490 2101 2355 2006 1933 1955 
C 1178 1860 1062 1834 858 1751 
C 467 1592 269 1292 269 859 
C 269 254 691 -128 1370 -128 
C 1792 -128 2131 19 2509 365 
C 2547 25 2714 -128 3059 -128 
C 3168 -128 3251 -116 3424 -70 
L 3424 333 
z
M 2490 1072 
C 2490 893 2438 785 2278 639 
C 2061 441 1798 340 1485 340 
C 1069 340 826 537 826 874 
C 826 1225 1062 1403 1632 1486 
C 2195 1562 2310 1588 2490 1670 
L 2490 1072 
z
" transform="scale(0.015625)"/>
      </defs>
      <use xlink:href="#NimbusSanL-Regu-48" transform="scale(0.996264)"/>
      <use xlink:href="#NimbusSanL-Regu-79" transform="translate(71.929985 0) scale(0.996264)"/>
      <use xlink:href="#NimbusSanL-Regu-62" transform="translate(121.743185 0) scale(0.996264)"/>
      <use xlink:href="#NimbusSanL-Regu-72" transform="translate(177.134862 0) scale(0.996264)"/>
      <use xlink:href="#NimbusSanL-Regu-69" transform="translate(211.80347 0) scale(0.996264)"/>
      <use xlink:href="#NimbusSanL-Regu-64" transform="translate(233.920254 0) scale(0.996264)"/>
      <use xlink:href="#NimbusSanL-Regu-55" transform="translate(317.0071 0) scale(0.996264)"/>
      <use xlink:href="#NimbusSanL-Regu-6e" transform="translate(388.937085 0) scale(0.996264)"/>
      <use xlink:href="#NimbusSanL-Regu-63" transform="translate(444.328762 0) scale(0.996264)"/>
      <use xlink:href="#NimbusSanL-Regu-65" transform="translate(494.141963 0) scale(0.996264)"/>
      <use xlink:href="#NimbusSanL-Regu-72" transform="translate(549.53364 0) scale(0.996264)"/>
      <use xlink:href="#NimbusSanL-Regu-74" transform="translate(586.692968 0) scale(0.996264)"/>
      <use xlink:href="#NimbusSanL-Regu-61" transform="translate(614.388137 0) scale(0.996264)"/>
      <use xlink:href="#NimbusSanL-Regu-69" transform="translate(669.779814 0) scale(0.996264)"/>
      <use xlink:href="#NimbusSanL-Regu-6e" transform="translate(691.896599 0) scale(0.996264)"/>
      <use xlink:href="#NimbusSanL-Regu-74" transform="translate(747.288276 0) scale(0.996264)"/>
      <use xlink:href="#NimbusSanL-Regu-79" transform="translate(774.983445 0) scale(0.996264)"/>
     </g>
    </g>
    <g id="line2d_122">
     <path d="M 86.566997 31.285921 
L 95.566997 31.285921 
L 104.566997 31.285921 
" style="fill: none; stroke-dasharray: 6.66,2.88; stroke-dashoffset: 0; stroke: #7d7c78; stroke-width: 1.8"/>
    </g>
    <g id="text_17">
     <!-- Hybrid -->
     <g transform="translate(111.766997 34.435921) scale(0.09 -0.09)">
      <use xlink:href="#NimbusSanL-Regu-48" transform="scale(0.996264)"/>
      <use xlink:href="#NimbusSanL-Regu-79" transform="translate(71.929985 0) scale(0.996264)"/>
      <use xlink:href="#NimbusSanL-Regu-62" transform="translate(121.743185 0) scale(0.996264)"/>
      <use xlink:href="#NimbusSanL-Regu-72" transform="translate(177.134862 0) scale(0.996264)"/>
      <use xlink:href="#NimbusSanL-Regu-69" transform="translate(211.80347 0) scale(0.996264)"/>
      <use xlink:href="#NimbusSanL-Regu-64" transform="translate(233.920254 0) scale(0.996264)"/>
     </g>
    </g>
    <g id="line2d_123">
     <path d="M 86.566997 44.084194 
L 95.566997 44.084194 
L 104.566997 44.084194 
" style="fill: none; stroke: #bcae6c; stroke-width: 1.8; stroke-linecap: square"/>
    </g>
    <g id="text_18">
     <!-- Empirical -->
     <g transform="translate(111.766997 47.234194) scale(0.09 -0.09)">
      <defs>
       <path id="NimbusSanL-Regu-45" d="M 1171 2112 
L 3712 2112 
L 3712 2638 
L 1171 2638 
L 1171 4146 
L 3808 4146 
L 3808 4672 
L 576 4672 
L 576 0 
L 3923 0 
L 3923 526 
L 1171 526 
L 1171 2112 
z
" transform="scale(0.015625)"/>
       <path id="NimbusSanL-Regu-70" d="M 346 -1408 
L 883 -1408 
L 883 320 
C 1165 -27 1478 -180 1914 -180 
C 2778 -180 3347 522 3347 1599 
C 3347 2734 2797 3444 1907 3444 
C 1453 3444 1088 3238 838 2841 
L 838 3349 
L 346 3349 
L 346 -1408 
z
M 1818 2944 
C 2406 2944 2790 2420 2790 1612 
C 2790 843 2400 320 1818 320 
C 1254 320 883 837 883 1632 
C 883 2427 1254 2944 1818 2944 
z
" transform="scale(0.015625)"/>
      </defs>
      <use xlink:href="#NimbusSanL-Regu-45" transform="scale(0.996264)"/>
      <use xlink:href="#NimbusSanL-Regu-6d" transform="translate(66.450031 0) scale(0.996264)"/>
      <use xlink:href="#NimbusSanL-Regu-70" transform="translate(149.438461 0) scale(0.996264)"/>
      <use xlink:href="#NimbusSanL-Regu-69" transform="translate(204.830138 0) scale(0.996264)"/>
      <use xlink:href="#NimbusSanL-Regu-72" transform="translate(226.946923 0) scale(0.996264)"/>
      <use xlink:href="#NimbusSanL-Regu-69" transform="translate(261.61553 0) scale(0.996264)"/>
      <use xlink:href="#NimbusSanL-Regu-63" transform="translate(283.732314 0) scale(0.996264)"/>
      <use xlink:href="#NimbusSanL-Regu-61" transform="translate(333.545515 0) scale(0.996264)"/>
      <use xlink:href="#NimbusSanL-Regu-6c" transform="translate(388.937192 0) scale(0.996264)"/>
     </g>
    </g>
   </g>
  </g>
 </g>
 <defs>
  <clipPath id="p2963e414fc">
   <rect x="35.96392" y="7.14916" width="200.637751" height="196.768208"/>
  </clipPath>
 </defs>
</svg>
