<?xml version="1.0" encoding="utf-8" standalone="no"?>
<!DOCTYPE svg PUBLIC "-//W3C//DTD SVG 1.1//EN"
  "http://www.w3.org/Graphics/SVG/1.1/DTD/svg11.dtd">
<svg xmlns:xlink="http://www.w3.org/1999/xlink" width="251.28pt" height="236.88pt" viewBox="0 0 251.28 236.88" xmlns="http://www.w3.org/2000/svg" version="1.1">
 <metadata>
  <rdf:RDF xmlns:dc="http://purl.org/dc/elements/1.1/" xmlns:cc="http://creativecommons.org/ns#" xmlns:rdf="http://www.w3.org/1999/02/22-rdf-syntax-ns#">
   <cc:Work>
    <dc:type rdf:resource="http://purl.org/dc/dcmitype/StillImage"/>
    <dc:date>2026-05-21T23:45:12.831364</dc:date>
    <dc:format>image/svg+xml</dc:format>
    <dc:creator>
     <cc:Agent>
      <dc:title>Matplotlib v3.10.8, https://matplotlib.org/</dc:title>
     </cc:Agent>
    </dc:creator>
   </cc:Work>
  </rdf:RDF>
 </metadata>
 <defs>
  <style type="text/css">*{stroke-linejoin: round; stroke-linecap: butt}</style>
 </defs>
 <g id="figure_1">
  <g id="patch_1">
   <path d="M 0 236.88 
L 251.28 236.88 
L 251.28 0 
L 0 0 
z
" style="fill: #ffffff"/>
  </g>
  <g id="axes_1">
   <g id="patch_2">
    <path d="M 35.96392 203.917368 
L 236.601671 203.917368 
L 236.601671 7.14916 
L 35.96392 7.14916 
z
" style="fill: #ffffff"/>
   </g>
   <g id="FillBetweenPolyCollection_1">
    <defs>
     <path id="m3e03933095" d="M 36.962117 -235.970522 
L 36.962117 -166.708231 
L 37.295406 -158.445709 
L 37.628694 -150.064846 
L 37.961982 -141.077058 
L 38.29527 -131.336293 
L 38.628558 -120.912919 
L 38.961846 -110.124966 
L 39.295134 -99.498994 
L 39.628422 -89.479103 
L 39.96171 -80.335105 
L 40.294998 -72.250819 
L 40.628286 -65.28575 
L 40.961574 -59.351135 
L 41.294862 -54.251546 
L 41.62815 -49.761702 
L 41.961439 -45.719544 
L 42.294727 -42.08847 
L 42.628015 -38.887974 
L 42.961303 -36.1595 
L 43.294591 -33.912564 
L 43.627879 -31.962333 
L 43.961167 -30.026229 
L 44.294455 -27.984637 
L 44.627743 -26.072212 
L 44.961031 -24.669088 
L 45.294319 -23.975327 
L 45.627607 -23.829178 
L 45.960895 -23.936262 
L 46.294183 -24.076381 
L 46.627471 -24.08882 
L 46.96076 -23.870962 
L 47.294048 -23.4232 
L 47.627336 -22.789001 
L 47.960624 -21.999263 
L 48.293912 -21.072924 
L 48.6272 -20.039087 
L 48.960488 -18.957318 
L 49.293776 -17.932798 
L 49.627064 -17.117693 
L 49.960352 -16.685141 
L 50.29364 -16.732427 
L 50.626928 -17.185605 
L 50.960216 -17.895953 
L 51.293504 -18.714118 
L 51.626793 -19.513352 
L 51.960081 -20.218232 
L 52.293369 -20.819609 
L 52.626657 -21.337761 
L 52.959945 -21.788316 
L 53.293233 -22.176801 
L 53.626521 -22.505321 
L 53.959809 -22.777658 
L 54.293097 -23.000441 
L 54.626385 -23.182125 
L 54.959673 -23.331521 
L 55.292961 -23.45667 
L 55.626249 -23.56454 
L 55.959537 -23.660805 
L 56.292825 -23.749721 
L 56.626114 -23.834367 
L 56.959402 -23.916893 
L 57.29269 -23.998746 
L 57.625978 -24.080858 
L 57.959266 -24.163792 
L 58.292554 -24.247855 
L 58.625842 -24.333174 
L 58.95913 -24.419779 
L 59.292418 -24.507772 
L 59.625706 -24.597198 
L 59.958994 -24.688059 
L 60.292282 -24.780335 
L 60.62557 -24.873986 
L 60.958858 -24.968965 
L 61.292147 -25.065216 
L 61.625435 -25.16268 
L 61.958723 -25.261295 
L 62.292011 -25.360994 
L 62.625299 -25.461714 
L 62.958587 -25.563387 
L 63.291875 -25.665946 
L 63.625163 -25.769348 
L 63.958451 -25.873595 
L 64.291739 -25.978672 
L 64.625027 -26.084562 
L 64.958315 -26.191248 
L 65.291603 -26.298713 
L 65.624891 -26.40694 
L 65.958179 -26.515912 
L 66.291468 -26.625613 
L 66.624756 -26.736026 
L 66.958044 -26.847133 
L 67.291332 -26.958918 
L 67.62462 -27.071364 
L 67.957908 -27.184454 
L 68.291196 -27.298171 
L 68.624484 -27.412498 
L 68.957772 -27.527418 
L 69.29106 -27.642914 
L 69.624348 -27.758977 
L 69.957636 -27.875609 
L 70.290924 -27.992807 
L 70.624212 -28.110564 
L 70.957501 -28.228874 
L 71.290789 -28.347732 
L 71.624077 -28.467131 
L 71.957365 -28.587066 
L 72.290653 -28.707531 
L 72.623941 -28.82852 
L 72.957229 -28.950028 
L 73.290517 -29.072047 
L 73.623805 -29.194574 
L 73.957093 -29.317601 
L 74.290381 -29.441122 
L 74.623669 -29.565133 
L 74.956957 -29.689627 
L 75.290245 -29.814598 
L 75.623533 -29.940041 
L 75.956822 -30.065949 
L 76.29011 -30.192317 
L 76.623398 -30.319139 
L 76.956686 -30.44641 
L 77.289974 -30.574126 
L 77.623262 -30.702283 
L 77.95655 -30.830878 
L 78.289838 -30.959905 
L 78.623126 -31.08936 
L 78.956414 -31.219239 
L 79.289702 -31.349536 
L 79.62299 -31.480248 
L 79.956278 -31.61137 
L 80.289566 -31.742898 
L 80.622855 -31.874826 
L 80.956143 -32.007151 
L 81.289431 -32.139868 
L 81.622719 -32.272972 
L 81.956007 -32.406459 
L 82.289295 -32.540324 
L 82.622583 -32.674563 
L 82.955871 -32.809171 
L 83.289159 -32.944145 
L 83.622447 -33.079478 
L 83.955735 -33.215168 
L 84.289023 -33.351208 
L 84.622311 -33.487596 
L 84.955599 -33.624325 
L 85.288887 -33.761393 
L 85.622176 -33.89879 
L 85.955464 -34.036511 
L 86.288752 -34.174554 
L 86.62204 -34.312914 
L 86.955328 -34.451587 
L 87.288616 -34.590569 
L 87.621904 -34.729854 
L 87.955192 -34.869439 
L 88.28848 -35.009318 
L 88.621768 -35.149486 
L 88.955056 -35.289938 
L 89.288344 -35.430671 
L 89.621632 -35.571678 
L 89.95492 -35.712956 
L 90.288208 -35.854499 
L 90.621497 -35.996302 
L 90.954785 -36.138361 
L 91.288073 -36.280672 
L 91.621361 -36.423228 
L 91.954649 -36.566025 
L 92.287937 -36.709059 
L 92.621225 -36.852325 
L 92.954513 -36.995817 
L 93.287801 -37.139531 
L 93.621089 -37.283462 
L 93.954377 -37.427605 
L 94.287665 -37.571955 
L 94.620953 -37.716508 
L 94.954241 -37.861258 
L 95.28753 -38.006201 
L 95.620818 -38.151332 
L 95.954106 -38.296645 
L 96.287394 -38.442137 
L 96.620682 -38.587802 
L 96.95397 -38.733635 
L 97.287258 -38.879632 
L 97.620546 -39.025788 
L 97.953834 -39.172097 
L 98.287122 -39.318555 
L 98.62041 -39.465158 
L 98.953698 -39.611899 
L 99.286986 -39.758776 
L 99.620274 -39.905782 
L 99.953562 -40.052912 
L 100.286851 -40.200163 
L 100.620139 -40.34753 
L 100.953427 -40.495006 
L 101.286715 -40.642589 
L 101.620003 -40.790272 
L 101.953291 -40.938052 
L 102.286579 -41.085924 
L 102.619867 -41.233882 
L 102.953155 -41.381922 
L 103.286443 -41.53004 
L 103.619731 -41.678231 
L 103.953019 -41.826489 
L 104.286307 -41.974811 
L 104.619595 -42.123192 
L 104.952884 -42.271627 
L 105.286172 -42.420112 
L 105.61946 -42.568642 
L 105.952748 -42.717212 
L 106.286036 -42.865818 
L 106.619324 -43.014456 
L 106.952612 -43.16312 
L 107.2859 -43.311807 
L 107.619188 -43.460512 
L 107.952476 -43.60923 
L 108.285764 -43.757957 
L 108.619052 -43.90669 
L 108.95234 -44.055422 
L 109.285628 -44.20415 
L 109.618916 -44.35287 
L 109.952205 -44.501577 
L 110.285493 -44.650267 
L 110.618781 -44.798936 
L 110.952069 -44.947579 
L 111.285357 -45.096192 
L 111.618645 -45.244772 
L 111.951933 -45.393313 
L 112.285221 -45.541812 
L 112.618509 -45.690264 
L 112.951797 -45.838667 
L 113.285085 -45.987014 
L 113.618373 -46.135303 
L 113.951661 -46.28353 
L 114.284949 -46.431689 
L 114.618238 -46.579778 
L 114.951526 -46.727793 
L 115.284814 -46.875729 
L 115.618102 -47.023583 
L 115.95139 -47.171351 
L 116.284678 -47.31903 
L 116.617966 -47.466614 
L 116.951254 -47.614101 
L 117.284542 -47.761488 
L 117.61783 -47.90877 
L 117.951118 -48.055945 
L 118.284406 -48.203009 
L 118.617694 -48.349961 
L 118.950982 -48.496797 
L 119.28427 -48.643516 
L 119.617559 -48.79012 
L 119.950847 -48.93661 
L 120.284135 -49.082992 
L 120.617423 -49.229275 
L 120.950711 -49.375477 
L 121.283999 -49.521625 
L 121.617287 -49.667763 
L 121.950575 -49.813958 
L 122.283863 -49.960312 
L 122.617151 -50.106977 
L 122.950439 -50.254183 
L 123.283727 -50.402274 
L 123.617015 -50.551759 
L 123.950303 -50.703404 
L 124.283592 -50.858359 
L 124.61688 -51.018364 
L 124.950168 -51.186059 
L 125.283456 -51.365444 
L 125.616744 -51.562466 
L 125.950032 -51.78561 
L 126.28332 -52.045995 
L 126.616608 -52.355801 
L 126.949896 -52.7229 
L 127.283184 -53.139183 
L 127.616472 -53.563194 
L 127.94976 -53.91023 
L 128.283048 -54.087511 
L 128.616336 -54.09728 
L 128.949624 -54.044689 
L 129.282913 -54.033004 
L 129.616201 -54.11861 
L 129.949489 -54.309054 
L 130.282777 -54.564601 
L 130.616065 -54.80069 
L 130.949353 -54.924966 
L 131.282641 -54.930581 
L 131.615929 -54.90238 
L 131.949217 -54.926247 
L 132.282505 -55.054675 
L 132.615793 -55.314853 
L 132.949081 -55.721357 
L 133.282369 -56.277754 
L 133.615657 -56.967023 
L 133.948946 -57.745798 
L 134.282234 -58.578508 
L 134.615522 -59.524885 
L 134.94881 -60.722426 
L 135.282098 -62.26015 
L 135.615386 -64.105489 
L 135.948674 -66.090359 
L 136.281962 -67.943179 
L 136.61525 -69.354051 
L 136.948538 -70.155836 
L 137.281826 -70.275015 
L 137.615114 -69.65384 
L 137.948402 -68.324484 
L 138.28169 -66.505607 
L 138.614978 -64.578595 
L 138.948267 -62.845217 
L 139.281555 -61.443277 
L 139.614843 -60.370338 
L 139.948131 -59.552484 
L 140.281419 -58.935355 
L 140.614707 -58.506195 
L 140.947995 -58.250819 
L 141.281283 -58.138007 
L 141.614571 -58.128553 
L 141.947859 -58.186455 
L 142.281147 -58.284299 
L 142.614435 -58.403708 
L 142.947723 -58.53351 
L 143.281011 -58.667469 
L 143.614299 -58.802395 
L 143.947588 -58.936831 
L 144.280876 -59.070236 
L 144.614164 -59.202506 
L 144.947452 -59.333724 
L 145.28074 -59.464033 
L 145.614028 -59.593575 
L 145.947316 -59.722472 
L 146.280604 -59.85082 
L 146.613892 -59.97869 
L 146.94718 -60.106134 
L 147.280468 -60.233189 
L 147.613756 -60.359878 
L 147.947044 -60.48622 
L 148.280332 -60.612225 
L 148.613621 -60.7379 
L 148.946909 -60.863249 
L 149.280197 -60.988277 
L 149.613485 -61.112983 
L 149.946773 -61.237368 
L 150.280061 -61.361433 
L 150.613349 -61.485179 
L 150.946637 -61.608603 
L 151.279925 -61.731707 
L 151.613213 -61.85449 
L 151.946501 -61.97695 
L 152.279789 -62.099088 
L 152.613077 -62.220902 
L 152.946365 -62.342392 
L 153.279653 -62.463558 
L 153.612942 -62.584399 
L 153.94623 -62.704915 
L 154.279518 -62.825104 
L 154.612806 -62.944967 
L 154.946094 -63.064503 
L 155.279382 -63.183712 
L 155.61267 -63.302593 
L 155.945958 -63.421145 
L 156.279246 -63.539369 
L 156.612534 -63.657263 
L 156.945822 -63.774828 
L 157.27911 -63.892063 
L 157.612398 -64.008968 
L 157.945686 -64.125542 
L 158.278975 -64.241786 
L 158.612263 -64.357699 
L 158.945551 -64.473281 
L 159.278839 -64.588531 
L 159.612127 -64.703449 
L 159.945415 -64.818036 
L 160.278703 -64.93229 
L 160.611991 -65.046212 
L 160.945279 -65.159802 
L 161.278567 -65.273059 
L 161.611855 -65.385984 
L 161.945143 -65.498576 
L 162.278431 -65.610835 
L 162.611719 -65.722762 
L 162.945007 -65.834356 
L 163.278296 -65.945616 
L 163.611584 -66.056544 
L 163.944872 -66.167139 
L 164.27816 -66.277401 
L 164.611448 -66.38733 
L 164.944736 -66.496927 
L 165.278024 -66.60619 
L 165.611312 -66.715122 
L 165.9446 -66.823721 
L 166.277888 -66.931987 
L 166.611176 -67.039921 
L 166.944464 -67.147523 
L 167.277752 -67.254793 
L 167.61104 -67.361731 
L 167.944329 -67.468338 
L 168.277617 -67.574612 
L 168.610905 -67.680556 
L 168.944193 -67.786169 
L 169.277481 -67.891451 
L 169.610769 -67.996403 
L 169.944057 -68.101024 
L 170.277345 -68.205316 
L 170.610633 -68.309278 
L 170.943921 -68.41291 
L 171.277209 -68.516213 
L 171.610497 -68.619187 
L 171.943785 -68.721833 
L 172.277073 -68.82415 
L 172.610361 -68.92614 
L 172.94365 -69.027803 
L 173.276938 -69.129139 
L 173.610226 -69.230148 
L 173.943514 -69.330831 
L 174.276802 -69.431188 
L 174.61009 -69.531219 
L 174.943378 -69.630926 
L 175.276666 -69.730306 
L 175.609954 -69.82936 
L 175.943242 -69.92809 
L 176.27653 -70.026496 
L 176.609818 -70.124577 
L 176.943106 -70.222336 
L 177.276394 -70.319773 
L 177.609683 -70.416888 
L 177.942971 -70.513682 
L 178.276259 -70.610156 
L 178.609547 -70.70631 
L 178.942835 -70.802145 
L 179.276123 -70.897661 
L 179.609411 -70.99286 
L 179.942699 -71.087742 
L 180.275987 -71.182307 
L 180.609275 -71.276557 
L 180.942563 -71.370491 
L 181.275851 -71.464111 
L 181.609139 -71.557417 
L 181.942427 -71.65041 
L 182.275715 -71.743091 
L 182.609004 -71.835459 
L 182.942292 -71.927517 
L 183.27558 -72.019264 
L 183.608868 -72.110701 
L 183.942156 -72.201829 
L 184.275444 -72.292648 
L 184.608732 -72.383159 
L 184.94202 -72.473363 
L 185.275308 -72.56326 
L 185.608596 -72.652852 
L 185.941884 -72.742138 
L 186.275172 -72.831119 
L 186.60846 -72.919797 
L 186.941748 -73.008171 
L 187.275037 -73.096242 
L 187.608325 -73.184011 
L 187.941613 -73.271479 
L 188.274901 -73.358646 
L 188.608189 -73.445513 
L 188.941477 -73.532081 
L 189.274765 -73.61835 
L 189.608053 -73.704321 
L 189.941341 -73.789994 
L 190.274629 -73.87537 
L 190.607917 -73.96045 
L 190.941205 -74.045235 
L 191.274493 -74.129725 
L 191.607781 -74.21392 
L 191.941069 -74.297822 
L 192.274358 -74.381431 
L 192.607646 -74.464748 
L 192.940934 -74.547774 
L 193.274222 -74.630508 
L 193.60751 -74.712952 
L 193.940798 -74.795106 
L 194.274086 -74.876972 
L 194.607374 -74.958549 
L 194.940662 -75.039838 
L 195.27395 -75.12084 
L 195.607238 -75.201558 
L 195.940526 -75.281993 
L 196.273814 -75.362144 
L 196.607102 -75.442013 
L 196.940391 -75.521601 
L 197.273679 -75.600909 
L 197.606967 -75.679937 
L 197.940255 -75.758686 
L 198.273543 -75.837158 
L 198.606831 -75.915352 
L 198.940119 -75.99327 
L 199.273407 -76.070913 
L 199.606695 -76.148281 
L 199.939983 -76.225376 
L 200.273271 -76.302198 
L 200.606559 -76.378747 
L 200.939847 -76.455026 
L 201.273135 -76.531034 
L 201.606423 -76.606773 
L 201.939712 -76.682243 
L 202.273 -76.757445 
L 202.606288 -76.83238 
L 202.939576 -76.907049 
L 203.272864 -76.981453 
L 203.606152 -77.055592 
L 203.93944 -77.129468 
L 204.272728 -77.20308 
L 204.606016 -77.276431 
L 204.939304 -77.349521 
L 205.272592 -77.42235 
L 205.60588 -77.49492 
L 205.939168 -77.567231 
L 206.272456 -77.639284 
L 206.605744 -77.711081 
L 206.939033 -77.782621 
L 207.272321 -77.853906 
L 207.605609 -77.924937 
L 207.938897 -77.995714 
L 208.272185 -78.066238 
L 208.605473 -78.13651 
L 208.938761 -78.206531 
L 209.272049 -78.276302 
L 209.605337 -78.345823 
L 209.938625 -78.415096 
L 210.271913 -78.484121 
L 210.605201 -78.5529 
L 210.938489 -78.621432 
L 211.271777 -78.689719 
L 211.605066 -78.757761 
L 211.938354 -78.82556 
L 212.271642 -78.893116 
L 212.60493 -78.96043 
L 212.938218 -79.027504 
L 213.271506 -79.094336 
L 213.604794 -79.16093 
L 213.938082 -79.227285 
L 214.27137 -79.293402 
L 214.604658 -79.359283 
L 214.937946 -79.424927 
L 215.271234 -79.490337 
L 215.604522 -79.555511 
L 215.93781 -79.620453 
L 216.271098 -79.685161 
L 216.604387 -79.749638 
L 216.937675 -79.813884 
L 217.270963 -79.877899 
L 217.604251 -79.941685 
L 217.937539 -80.005243 
L 218.270827 -80.068572 
L 218.604115 -80.131675 
L 218.937403 -80.194551 
L 219.270691 -80.257202 
L 219.603979 -80.319628 
L 219.937267 -80.38183 
L 220.270555 -80.443805 
L 220.603843 -80.505555 
L 220.937131 -80.567076 
L 221.27042 -80.628366 
L 221.603708 -80.689418 
L 221.936996 -80.750222 
L 222.270284 -80.810763 
L 222.603572 -80.871015 
L 222.93686 -80.930942 
L 223.270148 -80.990481 
L 223.603436 -81.049543 
L 223.936724 -81.107984 
L 224.270012 -81.165591 
L 224.6033 -81.222039 
L 224.936588 -81.276839 
L 225.269876 -81.329261 
L 225.603164 -81.378227 
L 225.936452 -81.42215 
L 226.269741 -81.458734 
L 226.603029 -81.484686 
L 226.936317 -81.495371 
L 227.269605 -81.484389 
L 227.602893 -81.443137 
L 227.936181 -81.360448 
L 228.269469 -81.222508 
L 228.602757 -81.013407 
L 228.936045 -80.716808 
L 229.269333 -80.319343 
L 229.602621 -79.816127 
L 229.935909 -79.218062 
L 230.269197 -78.558981 
L 230.602485 -77.898797 
L 230.935774 -77.319028 
L 231.269062 -76.91325 
L 231.60235 -76.776992 
L 231.935638 -76.967064 
L 232.268926 -77.444972 
L 232.602214 -78.118216 
L 232.935502 -78.888241 
L 233.26879 -79.667326 
L 233.602078 -80.390267 
L 233.935366 -81.019469 
L 234.268654 -81.541778 
L 234.601942 -81.961001 
L 234.93523 -82.290213 
L 235.268518 -82.545897 
L 235.601806 -82.744314 
L 235.935095 -82.89968 
L 236.268383 -83.023544 
L 236.601671 -83.124832 
L 236.601671 -154.481709 
L 236.601671 -154.481709 
L 236.268383 -154.379475 
L 235.935095 -154.253568 
L 235.601806 -154.093873 
L 235.268518 -153.886471 
L 234.93523 -153.612596 
L 234.601942 -153.247601 
L 234.268654 -152.760366 
L 233.935366 -152.114048 
L 233.602078 -151.270013 
L 233.26879 -150.198272 
L 232.935502 -148.899195 
L 232.602214 -147.440502 
L 232.268926 -146.003586 
L 231.935638 -144.901503 
L 231.60235 -144.476727 
L 231.269062 -144.871389 
L 230.935774 -145.914725 
L 230.602485 -147.258569 
L 230.269197 -148.600239 
L 229.935909 -149.77029 
L 229.602621 -150.709425 
L 229.269333 -151.421945 
L 228.936045 -151.939886 
L 228.602757 -152.302407 
L 228.269469 -152.546128 
L 227.936181 -152.70164 
L 227.602893 -152.792997 
L 227.269605 -152.83842 
L 226.936317 -152.851368 
L 226.603029 -152.841593 
L 226.269741 -152.816055 
L 225.936452 -152.779658 
L 225.603164 -152.735816 
L 225.269876 -152.686887 
L 224.936588 -152.634481 
L 224.6033 -152.579688 
L 224.270012 -152.523243 
L 223.936724 -152.465637 
L 223.603436 -152.407196 
L 223.270148 -152.348135 
L 222.93686 -152.288595 
L 222.603572 -152.228669 
L 222.270284 -152.168416 
L 221.936996 -152.107875 
L 221.603708 -152.047071 
L 221.27042 -151.986019 
L 220.937131 -151.92473 
L 220.603843 -151.863208 
L 220.270555 -151.801459 
L 219.937267 -151.739483 
L 219.603979 -151.677282 
L 219.270691 -151.614856 
L 218.937403 -151.552204 
L 218.604115 -151.489328 
L 218.270827 -151.426225 
L 217.937539 -151.362896 
L 217.604251 -151.299339 
L 217.270963 -151.235552 
L 216.937675 -151.171537 
L 216.604387 -151.107291 
L 216.271098 -151.042815 
L 215.93781 -150.978106 
L 215.604522 -150.913165 
L 215.271234 -150.84799 
L 214.937946 -150.782581 
L 214.604658 -150.716936 
L 214.27137 -150.651056 
L 213.938082 -150.584939 
L 213.604794 -150.518583 
L 213.271506 -150.45199 
L 212.938218 -150.385157 
L 212.60493 -150.318084 
L 212.271642 -150.250769 
L 211.938354 -150.183213 
L 211.605066 -150.115414 
L 211.271777 -150.047372 
L 210.938489 -149.979085 
L 210.605201 -149.910553 
L 210.271913 -149.841775 
L 209.938625 -149.77275 
L 209.605337 -149.703477 
L 209.272049 -149.633955 
L 208.938761 -149.564184 
L 208.605473 -149.494163 
L 208.272185 -149.423891 
L 207.938897 -149.353367 
L 207.605609 -149.28259 
L 207.272321 -149.211559 
L 206.939033 -149.140274 
L 206.605744 -149.068734 
L 206.272456 -148.996938 
L 205.939168 -148.924884 
L 205.60588 -148.852573 
L 205.272592 -148.780003 
L 204.939304 -148.707174 
L 204.606016 -148.634084 
L 204.272728 -148.560734 
L 203.93944 -148.487121 
L 203.606152 -148.413245 
L 203.272864 -148.339106 
L 202.939576 -148.264703 
L 202.606288 -148.190033 
L 202.273 -148.115098 
L 201.939712 -148.039896 
L 201.606423 -147.964426 
L 201.273135 -147.888687 
L 200.939847 -147.812679 
L 200.606559 -147.736401 
L 200.273271 -147.659851 
L 199.939983 -147.583029 
L 199.606695 -147.505935 
L 199.273407 -147.428566 
L 198.940119 -147.350924 
L 198.606831 -147.273005 
L 198.273543 -147.194811 
L 197.940255 -147.116339 
L 197.606967 -147.03759 
L 197.273679 -146.958562 
L 196.940391 -146.879254 
L 196.607102 -146.799666 
L 196.273814 -146.719797 
L 195.940526 -146.639646 
L 195.607238 -146.559212 
L 195.27395 -146.478494 
L 194.940662 -146.397491 
L 194.607374 -146.316202 
L 194.274086 -146.234625 
L 193.940798 -146.15276 
L 193.60751 -146.070605 
L 193.274222 -145.988161 
L 192.940934 -145.905427 
L 192.607646 -145.822402 
L 192.274358 -145.739085 
L 191.941069 -145.655476 
L 191.607781 -145.571574 
L 191.274493 -145.487378 
L 190.941205 -145.402888 
L 190.607917 -145.318104 
L 190.274629 -145.233024 
L 189.941341 -145.147647 
L 189.608053 -145.061974 
L 189.274765 -144.976003 
L 188.941477 -144.889734 
L 188.608189 -144.803167 
L 188.274901 -144.7163 
L 187.941613 -144.629133 
L 187.608325 -144.541665 
L 187.275037 -144.453896 
L 186.941748 -144.365824 
L 186.60846 -144.27745 
L 186.275172 -144.188773 
L 185.941884 -144.099791 
L 185.608596 -144.010505 
L 185.275308 -143.920914 
L 184.94202 -143.831016 
L 184.608732 -143.740812 
L 184.275444 -143.650301 
L 183.942156 -143.559482 
L 183.608868 -143.468354 
L 183.27558 -143.376917 
L 182.942292 -143.28517 
L 182.609004 -143.193113 
L 182.275715 -143.100744 
L 181.942427 -143.008064 
L 181.609139 -142.915071 
L 181.275851 -142.821764 
L 180.942563 -142.728144 
L 180.609275 -142.63421 
L 180.275987 -142.53996 
L 179.942699 -142.445395 
L 179.609411 -142.350513 
L 179.276123 -142.255314 
L 178.942835 -142.159798 
L 178.609547 -142.063963 
L 178.276259 -141.967809 
L 177.942971 -141.871335 
L 177.609683 -141.774541 
L 177.276394 -141.677426 
L 176.943106 -141.57999 
L 176.609818 -141.482231 
L 176.27653 -141.384149 
L 175.943242 -141.285744 
L 175.609954 -141.187014 
L 175.276666 -141.087959 
L 174.943378 -140.988579 
L 174.61009 -140.888873 
L 174.276802 -140.788841 
L 173.943514 -140.688484 
L 173.610226 -140.587801 
L 173.276938 -140.486792 
L 172.94365 -140.385456 
L 172.610361 -140.283794 
L 172.277073 -140.181804 
L 171.943785 -140.079486 
L 171.610497 -139.97684 
L 171.277209 -139.873866 
L 170.943921 -139.770563 
L 170.610633 -139.666931 
L 170.277345 -139.562969 
L 169.944057 -139.458678 
L 169.610769 -139.354056 
L 169.277481 -139.249105 
L 168.944193 -139.143822 
L 168.610905 -139.03821 
L 168.277617 -138.932266 
L 167.944329 -138.825991 
L 167.61104 -138.719385 
L 167.277752 -138.612447 
L 166.944464 -138.505177 
L 166.611176 -138.397575 
L 166.277888 -138.28964 
L 165.9446 -138.181374 
L 165.611312 -138.072775 
L 165.278024 -137.963844 
L 164.944736 -137.85458 
L 164.611448 -137.744984 
L 164.27816 -137.635054 
L 163.944872 -137.524792 
L 163.611584 -137.414198 
L 163.278296 -137.30327 
L 162.945007 -137.192009 
L 162.611719 -137.080415 
L 162.278431 -136.968489 
L 161.945143 -136.856229 
L 161.611855 -136.743637 
L 161.278567 -136.630712 
L 160.945279 -136.517455 
L 160.611991 -136.403865 
L 160.278703 -136.289943 
L 159.945415 -136.175689 
L 159.612127 -136.061103 
L 159.278839 -135.946184 
L 158.945551 -135.830934 
L 158.612263 -135.715352 
L 158.278975 -135.59944 
L 157.945686 -135.483196 
L 157.612398 -135.366621 
L 157.27911 -135.249716 
L 156.945822 -135.132481 
L 156.612534 -135.014917 
L 156.279246 -134.897022 
L 155.945958 -134.778799 
L 155.61267 -134.660246 
L 155.279382 -134.541365 
L 154.946094 -134.422157 
L 154.612806 -134.302621 
L 154.279518 -134.182758 
L 153.94623 -134.062568 
L 153.612942 -133.942053 
L 153.279653 -133.821212 
L 152.946365 -133.700046 
L 152.613077 -133.578555 
L 152.279789 -133.456741 
L 151.946501 -133.334603 
L 151.613213 -133.212143 
L 151.279925 -133.089361 
L 150.946637 -132.966257 
L 150.613349 -132.842832 
L 150.280061 -132.719087 
L 149.946773 -132.595022 
L 149.613485 -132.470636 
L 149.280197 -132.34593 
L 148.946909 -132.220903 
L 148.613621 -132.095553 
L 148.280332 -131.969878 
L 147.947044 -131.843873 
L 147.613756 -131.717532 
L 147.280468 -131.590842 
L 146.94718 -131.463787 
L 146.613892 -131.336341 
L 146.280604 -131.208467 
L 145.947316 -131.08011 
L 145.614028 -130.951194 
L 145.28074 -130.821607 
L 144.947452 -130.691198 
L 144.614164 -130.559755 
L 144.280876 -130.426991 
L 143.947588 -130.292517 
L 143.614299 -130.155804 
L 143.281011 -130.016135 
L 142.947723 -129.872533 
L 142.614435 -129.723669 
L 142.281147 -129.567841 
L 141.947859 -129.40321 
L 141.614571 -129.228894 
L 141.281283 -129.048137 
L 140.947995 -128.875578 
L 140.614707 -128.750682 
L 140.281419 -128.75531 
L 139.948131 -129.019333 
L 139.614843 -129.671818 
L 139.281555 -130.716193 
L 138.948267 -132.020152 
L 138.614978 -133.42596 
L 138.28169 -134.79059 
L 137.948402 -135.975683 
L 137.615114 -136.828053 
L 137.281826 -137.203083 
L 136.948538 -137.030307 
L 136.61525 -136.369832 
L 136.281962 -135.285224 
L 135.948674 -133.88209 
L 135.615386 -132.403898 
L 135.282098 -131.024727 
L 134.94881 -129.787998 
L 134.615522 -128.705094 
L 134.282234 -127.814209 
L 133.948946 -127.164138 
L 133.615657 -126.737148 
L 133.282369 -126.445992 
L 132.949081 -126.207679 
L 132.615793 -125.971228 
L 132.282505 -125.710454 
L 131.949217 -125.413797 
L 131.615929 -125.084922 
L 131.282641 -124.754098 
L 130.949353 -124.485888 
L 130.616065 -124.348312 
L 130.282777 -124.331978 
L 129.949489 -124.354068 
L 129.616201 -124.338551 
L 129.282913 -124.245985 
L 128.949624 -124.071966 
L 128.616336 -123.846151 
L 128.283048 -123.631912 
L 127.94976 -123.496806 
L 127.616472 -123.443612 
L 127.283184 -123.415671 
L 126.949896 -123.365223 
L 126.616608 -123.275691 
L 126.28332 -123.151717 
L 125.950032 -123.005272 
L 125.616744 -122.84754 
L 125.283456 -122.686193 
L 124.950168 -122.525476 
L 124.61688 -122.367223 
L 124.283592 -122.211861 
L 123.950303 -122.059133 
L 123.617015 -121.908535 
L 123.283727 -121.759532 
L 122.950439 -121.611661 
L 122.617151 -121.464553 
L 122.283863 -121.317932 
L 121.950575 -121.171597 
L 121.617287 -121.025411 
L 121.283999 -120.879276 
L 120.950711 -120.73313 
L 120.617423 -120.586928 
L 120.284135 -120.440645 
L 119.950847 -120.294264 
L 119.617559 -120.147774 
L 119.28427 -120.00117 
L 118.950982 -119.85445 
L 118.617694 -119.707614 
L 118.284406 -119.560663 
L 117.951118 -119.413598 
L 117.61783 -119.266424 
L 117.284542 -119.119141 
L 116.951254 -118.971755 
L 116.617966 -118.824267 
L 116.284678 -118.676683 
L 115.95139 -118.529005 
L 115.618102 -118.381237 
L 115.284814 -118.233383 
L 114.951526 -118.085446 
L 114.618238 -117.937432 
L 114.284949 -117.789343 
L 113.951661 -117.641183 
L 113.618373 -117.492957 
L 113.285085 -117.344668 
L 112.951797 -117.19632 
L 112.618509 -117.047918 
L 112.285221 -116.899465 
L 111.951933 -116.750966 
L 111.618645 -116.602425 
L 111.285357 -116.453846 
L 110.952069 -116.305232 
L 110.618781 -116.156589 
L 110.285493 -116.00792 
L 109.952205 -115.85923 
L 109.618916 -115.710523 
L 109.285628 -115.561803 
L 108.95234 -115.413075 
L 108.619052 -115.264343 
L 108.285764 -115.115611 
L 107.952476 -114.966884 
L 107.619188 -114.818165 
L 107.2859 -114.669461 
L 106.952612 -114.520774 
L 106.619324 -114.372109 
L 106.286036 -114.223472 
L 105.952748 -114.074865 
L 105.61946 -113.926295 
L 105.286172 -113.777765 
L 104.952884 -113.629281 
L 104.619595 -113.480846 
L 104.286307 -113.332465 
L 103.953019 -113.184143 
L 103.619731 -113.035884 
L 103.286443 -112.887693 
L 102.953155 -112.739576 
L 102.619867 -112.591535 
L 102.286579 -112.443577 
L 101.953291 -112.295706 
L 101.620003 -112.147926 
L 101.286715 -112.000242 
L 100.953427 -111.85266 
L 100.620139 -111.705183 
L 100.286851 -111.557817 
L 99.953562 -111.410566 
L 99.620274 -111.263435 
L 99.286986 -111.116429 
L 98.953698 -110.969553 
L 98.62041 -110.822811 
L 98.287122 -110.676209 
L 97.953834 -110.52975 
L 97.620546 -110.383441 
L 97.287258 -110.237286 
L 96.95397 -110.091289 
L 96.620682 -109.945456 
L 96.287394 -109.799791 
L 95.954106 -109.654299 
L 95.620818 -109.508985 
L 95.28753 -109.363855 
L 94.954241 -109.218912 
L 94.620953 -109.074161 
L 94.287665 -108.929609 
L 93.954377 -108.785258 
L 93.621089 -108.641115 
L 93.287801 -108.497184 
L 92.954513 -108.35347 
L 92.621225 -108.209978 
L 92.287937 -108.066713 
L 91.954649 -107.923679 
L 91.621361 -107.780881 
L 91.288073 -107.638325 
L 90.954785 -107.496015 
L 90.621497 -107.353956 
L 90.288208 -107.212152 
L 89.95492 -107.070609 
L 89.621632 -106.929332 
L 89.288344 -106.788324 
L 88.955056 -106.647592 
L 88.621768 -106.507139 
L 88.28848 -106.366971 
L 87.955192 -106.227092 
L 87.621904 -106.087508 
L 87.288616 -105.948222 
L 86.955328 -105.80924 
L 86.62204 -105.670567 
L 86.288752 -105.532207 
L 85.955464 -105.394165 
L 85.622176 -105.256443 
L 85.288887 -105.119046 
L 84.955599 -104.981979 
L 84.622311 -104.845249 
L 84.289023 -104.708862 
L 83.955735 -104.572821 
L 83.622447 -104.437132 
L 83.289159 -104.301798 
L 82.955871 -104.166825 
L 82.622583 -104.032216 
L 82.289295 -103.897977 
L 81.956007 -103.764112 
L 81.622719 -103.630625 
L 81.289431 -103.497521 
L 80.956143 -103.364804 
L 80.622855 -103.23248 
L 80.289566 -103.100551 
L 79.956278 -102.969024 
L 79.62299 -102.837902 
L 79.289702 -102.70719 
L 78.956414 -102.576892 
L 78.623126 -102.447013 
L 78.289838 -102.317558 
L 77.95655 -102.188531 
L 77.623262 -102.059937 
L 77.289974 -101.931779 
L 76.956686 -101.804063 
L 76.623398 -101.676793 
L 76.29011 -101.549971 
L 75.956822 -101.423603 
L 75.623533 -101.297694 
L 75.290245 -101.172252 
L 74.956957 -101.04728 
L 74.623669 -100.922786 
L 74.290381 -100.798776 
L 73.957093 -100.675254 
L 73.623805 -100.552227 
L 73.290517 -100.429701 
L 72.957229 -100.307681 
L 72.623941 -100.186174 
L 72.290653 -100.065185 
L 71.957365 -99.94472 
L 71.624077 -99.824785 
L 71.290789 -99.705385 
L 70.957501 -99.586528 
L 70.624212 -99.468217 
L 70.290924 -99.350461 
L 69.957636 -99.233263 
L 69.624348 -99.11663 
L 69.29106 -99.000568 
L 68.957772 -98.885071 
L 68.624484 -98.770151 
L 68.291196 -98.655824 
L 67.957908 -98.542107 
L 67.62462 -98.429017 
L 67.291332 -98.316572 
L 66.958044 -98.204787 
L 66.624756 -98.093679 
L 66.291468 -97.983267 
L 65.958179 -97.873566 
L 65.624891 -97.764593 
L 65.291603 -97.656366 
L 64.958315 -97.548901 
L 64.625027 -97.442216 
L 64.291739 -97.336326 
L 63.958451 -97.231249 
L 63.625163 -97.127001 
L 63.291875 -97.0236 
L 62.958587 -96.92104 
L 62.625299 -96.819367 
L 62.292011 -96.718648 
L 61.958723 -96.618948 
L 61.625435 -96.520334 
L 61.292147 -96.42287 
L 60.958858 -96.326619 
L 60.62557 -96.23164 
L 60.292282 -96.137988 
L 59.958994 -96.045713 
L 59.625706 -95.954851 
L 59.292418 -95.865425 
L 58.95913 -95.777432 
L 58.625842 -95.690825 
L 58.292554 -95.605505 
L 57.959266 -95.521437 
L 57.625978 -95.43849 
L 57.29269 -95.35635 
L 56.959402 -95.274433 
L 56.626114 -95.191763 
L 56.292825 -95.106798 
L 55.959537 -95.017185 
L 55.626249 -94.919422 
L 55.292961 -94.808391 
L 54.959673 -94.676722 
L 54.626385 -94.514225 
L 54.293097 -94.306999 
L 53.959809 -94.036221 
L 53.626521 -93.677646 
L 53.293233 -93.202632 
L 52.959945 -92.582681 
L 52.626657 -91.800414 
L 52.293369 -90.868888 
L 51.960081 -89.853628 
L 51.626793 -88.870834 
L 51.293504 -88.006889 
L 50.960216 -87.230383 
L 50.626928 -86.524263 
L 50.29364 -86.02575 
L 49.960352 -86.013596 
L 49.627064 -86.683739 
L 49.293776 -87.877583 
L 48.960488 -89.272799 
L 48.6272 -90.60903 
L 48.293912 -91.73071 
L 47.960624 -92.56115 
L 47.627336 -93.072164 
L 47.294048 -93.272795 
L 46.96076 -93.210773 
L 46.627471 -92.969287 
L 46.294183 -92.629777 
L 45.960895 -92.249453 
L 45.627607 -91.961133 
L 45.294319 -92.024175 
L 44.961031 -92.734783 
L 44.627743 -94.211719 
L 44.294455 -96.162711 
L 43.961167 -98.170153 
L 43.627879 -100.018576 
L 43.294591 -101.816334 
L 42.961303 -103.89896 
L 42.628015 -106.560813 
L 42.294727 -109.771958 
L 41.961439 -113.3451 
L 41.62815 -117.202133 
L 41.294862 -121.45766 
L 40.961574 -126.368016 
L 40.628286 -132.183986 
L 40.294998 -139.002562 
L 39.96171 -146.898932 
L 39.628422 -155.903638 
L 39.295134 -165.826162 
L 38.961846 -176.377302 
L 38.628558 -187.194301 
L 38.29527 -197.816792 
L 37.961982 -207.970471 
L 37.628694 -217.616547 
L 37.295406 -226.843468 
L 36.962117 -235.970522 
z
"/>
    </defs>
    <g clip-path="url(#pc71da34446)">
     <use xlink:href="#m3e03933095" x="0" y="236.88" style="fill: #888578; fill-opacity: 0.4"/>
    </g>
   </g>
   <g id="PathCollection_1">
    <defs>
     <path id="m2ea56be2f8" d="M 0 1.936492 
C 0.513564 1.936492 1.006162 1.732451 1.369306 1.369306 
C 1.732451 1.006162 1.936492 0.513564 1.936492 0 
C 1.936492 -0.513564 1.732451 -1.006162 1.369306 -1.369306 
C 1.006162 -1.732451 0.513564 -1.936492 0 -1.936492 
C -0.513564 -1.936492 -1.006162 -1.732451 -1.369306 -1.369306 
C -1.732451 -1.006162 -1.936492 -0.513564 -1.936492 0 
C -1.936492 0.513564 -1.732451 1.006162 -1.369306 1.369306 
C -1.006162 1.732451 -0.513564 1.936492 0 1.936492 
z
" style="stroke: #083370"/>
    </defs>
    <g clip-path="url(#pc71da34446)">
     <use xlink:href="#m2ea56be2f8" x="38.293048" y="94.911013" style="fill: #083370; stroke: #083370"/>
     <use xlink:href="#m2ea56be2f8" x="38.958513" y="106.336823" style="fill: #083370; stroke: #083370"/>
     <use xlink:href="#m2ea56be2f8" x="39.956711" y="129.683749" style="fill: #083370; stroke: #083370"/>
     <use xlink:href="#m2ea56be2f8" x="40.954909" y="138.160237" style="fill: #083370; stroke: #083370"/>
     <use xlink:href="#m2ea56be2f8" x="43.949502" y="177.942318" style="fill: #083370; stroke: #083370"/>
     <use xlink:href="#m2ea56be2f8" x="46.611363" y="178.583965" style="fill: #083370; stroke: #083370"/>
     <use xlink:href="#m2ea56be2f8" x="128.130847" y="163.488387" style="fill: #083370; stroke: #083370"/>
     <use xlink:href="#m2ea56be2f8" x="130.792707" y="160.62912" style="fill: #083370; stroke: #083370"/>
     <use xlink:href="#m2ea56be2f8" x="136.781894" y="152.208918" style="fill: #083370; stroke: #083370"/>
     <use xlink:href="#m2ea56be2f8" x="139.776487" y="153.71735" style="fill: #083370; stroke: #083370"/>
     <use xlink:href="#m2ea56be2f8" x="231.277949" y="117.267327" style="fill: #083370; stroke: #083370"/>
     <use xlink:href="#m2ea56be2f8" x="231.610682" y="109.488771" style="fill: #083370; stroke: #083370"/>
     <use xlink:href="#m2ea56be2f8" x="231.943414" y="116.186659" style="fill: #083370; stroke: #083370"/>
    </g>
   </g>
   <g id="matplotlib.axis_1">
    <g id="xtick_1">
     <g id="line2d_1">
      <defs>
       <path id="m5c2f450340" d="M 0 0 
L 0 2.5 
" style="stroke: #000000; stroke-width: 1.1"/>
      </defs>
      <g>
       <use xlink:href="#m5c2f450340" x="36.962117" y="203.917368" style="stroke: #000000; stroke-width: 1.1"/>
      </g>
     </g>
     <g id="line2d_2">
      <defs>
       <path id="m6e1a78cce6" d="M 0 0 
L 0 -2.5 
" style="stroke: #000000; stroke-width: 1.1"/>
      </defs>
      <g>
       <use xlink:href="#m6e1a78cce6" x="36.962117" y="7.14916" style="stroke: #000000; stroke-width: 1.1"/>
      </g>
     </g>
     <g id="text_1">
      <!-- $\mathdefault{0}$ -->
      <g transform="translate(34.192535 217.015688) scale(0.1 -0.1)">
       <defs>
        <path id="NimbusSanL-Regu-30" d="M 1760 4544 
C 1338 4544 954 4360 717 4046 
C 422 3651 275 3044 275 2208 
C 275 683 787 -128 1760 -128 
C 2720 -128 3245 683 3245 2170 
C 3245 3050 3104 3638 2803 4046 
C 2566 4366 2189 4544 1760 4544 
z
M 1760 4044 
C 2368 4044 2669 3432 2669 2221 
C 2669 939 2374 340 1747 340 
C 1152 340 851 965 851 2202 
C 851 3438 1152 4044 1760 4044 
z
" transform="scale(0.015625)"/>
       </defs>
       <use xlink:href="#NimbusSanL-Regu-30" transform="scale(0.996264)"/>
      </g>
     </g>
    </g>
    <g id="xtick_2">
     <g id="line2d_3">
      <g>
       <use xlink:href="#m5c2f450340" x="103.508635" y="203.917368" style="stroke: #000000; stroke-width: 1.1"/>
      </g>
     </g>
     <g id="line2d_4">
      <g>
       <use xlink:href="#m6e1a78cce6" x="103.508635" y="7.14916" style="stroke: #000000; stroke-width: 1.1"/>
      </g>
     </g>
     <g id="text_2">
      <!-- $\mathdefault{1000}$ -->
      <g transform="translate(92.430306 217.015688) scale(0.1 -0.1)">
       <defs>
        <path id="NimbusSanL-Regu-31" d="M 1658 3238 
L 1658 0 
L 2221 0 
L 2221 4545 
L 1850 4545 
C 1651 3847 1523 3751 653 3642 
L 653 3238 
L 1658 3238 
z
" transform="scale(0.015625)"/>
       </defs>
       <use xlink:href="#NimbusSanL-Regu-31" transform="scale(0.996264)"/>
       <use xlink:href="#NimbusSanL-Regu-30" transform="translate(55.391677 0) scale(0.996264)"/>
       <use xlink:href="#NimbusSanL-Regu-30" transform="translate(110.783354 0) scale(0.996264)"/>
       <use xlink:href="#NimbusSanL-Regu-30" transform="translate(166.175031 0) scale(0.996264)"/>
      </g>
     </g>
    </g>
    <g id="xtick_3">
     <g id="line2d_5">
      <g>
       <use xlink:href="#m5c2f450340" x="170.055153" y="203.917368" style="stroke: #000000; stroke-width: 1.1"/>
      </g>
     </g>
     <g id="line2d_6">
      <g>
       <use xlink:href="#m6e1a78cce6" x="170.055153" y="7.14916" style="stroke: #000000; stroke-width: 1.1"/>
      </g>
     </g>
     <g id="text_3">
      <!-- $\mathdefault{2000}$ -->
      <g transform="translate(158.976824 217.015688) scale(0.1 -0.1)">
       <defs>
        <path id="NimbusSanL-Regu-32" d="M 3238 558 
L 851 558 
C 909 930 1114 1167 1670 1494 
L 2310 1840 
C 2944 2186 3270 2653 3270 3211 
C 3270 3589 3117 3942 2848 4185 
C 2579 4429 2246 4544 1818 4544 
C 1242 4544 813 4339 563 3955 
C 403 3711 333 3429 320 2967 
L 883 2967 
C 902 3275 941 3461 1018 3608 
C 1165 3884 1459 4051 1798 4051 
C 2310 4051 2694 3685 2694 3198 
C 2694 2839 2483 2531 2080 2301 
L 1491 1968 
C 544 1430 269 1000 218 0 
L 3238 0 
L 3238 558 
z
" transform="scale(0.015625)"/>
       </defs>
       <use xlink:href="#NimbusSanL-Regu-32" transform="scale(0.996264)"/>
       <use xlink:href="#NimbusSanL-Regu-30" transform="translate(55.391677 0) scale(0.996264)"/>
       <use xlink:href="#NimbusSanL-Regu-30" transform="translate(110.783354 0) scale(0.996264)"/>
       <use xlink:href="#NimbusSanL-Regu-30" transform="translate(166.175031 0) scale(0.996264)"/>
      </g>
     </g>
    </g>
    <g id="xtick_4">
     <g id="line2d_7">
      <g>
       <use xlink:href="#m5c2f450340" x="236.601671" y="203.917368" style="stroke: #000000; stroke-width: 1.1"/>
      </g>
     </g>
     <g id="line2d_8">
      <g>
       <use xlink:href="#m6e1a78cce6" x="236.601671" y="7.14916" style="stroke: #000000; stroke-width: 1.1"/>
      </g>
     </g>
     <g id="text_4">
      <!-- $\mathdefault{3000}$ -->
      <g transform="translate(225.523341 217.015688) scale(0.1 -0.1)">
       <defs>
        <path id="NimbusSanL-Regu-33" d="M 1414 2112 
L 1485 2112 
L 1722 2112 
C 2342 2112 2662 1830 2662 1284 
C 2662 712 2310 372 1722 372 
C 1107 372 806 681 768 1345 
L 205 1345 
C 230 978 294 740 403 534 
C 634 97 1082 -128 1702 -128 
C 2637 -128 3238 431 3238 1293 
C 3238 1872 3014 2194 2470 2381 
C 2893 2546 3104 2862 3104 3311 
C 3104 4082 2586 4544 1722 4544 
C 806 4544 320 4050 301 3095 
L 864 3095 
C 870 3366 896 3517 966 3655 
C 1094 3900 1376 4051 1728 4051 
C 2227 4051 2528 3760 2528 3287 
C 2528 2971 2413 2781 2163 2681 
C 2010 2618 1811 2592 1414 2592 
L 1414 2112 
z
" transform="scale(0.015625)"/>
       </defs>
       <use xlink:href="#NimbusSanL-Regu-33" transform="scale(0.996264)"/>
       <use xlink:href="#NimbusSanL-Regu-30" transform="translate(55.391677 0) scale(0.996264)"/>
       <use xlink:href="#NimbusSanL-Regu-30" transform="translate(110.783354 0) scale(0.996264)"/>
       <use xlink:href="#NimbusSanL-Regu-30" transform="translate(166.175031 0) scale(0.996264)"/>
      </g>
     </g>
    </g>
    <g id="xtick_5">
     <g id="line2d_9">
      <g>
       <use xlink:href="#m5c2f450340" x="50.271421" y="203.917368" style="stroke: #000000; stroke-width: 1.1"/>
      </g>
     </g>
     <g id="line2d_10">
      <g>
       <use xlink:href="#m6e1a78cce6" x="50.271421" y="7.14916" style="stroke: #000000; stroke-width: 1.1"/>
      </g>
     </g>
    </g>
    <g id="xtick_6">
     <g id="line2d_11">
      <g>
       <use xlink:href="#m5c2f450340" x="63.580725" y="203.917368" style="stroke: #000000; stroke-width: 1.1"/>
      </g>
     </g>
     <g id="line2d_12">
      <g>
       <use xlink:href="#m6e1a78cce6" x="63.580725" y="7.14916" style="stroke: #000000; stroke-width: 1.1"/>
      </g>
     </g>
    </g>
    <g id="xtick_7">
     <g id="line2d_13">
      <g>
       <use xlink:href="#m5c2f450340" x="76.890028" y="203.917368" style="stroke: #000000; stroke-width: 1.1"/>
      </g>
     </g>
     <g id="line2d_14">
      <g>
       <use xlink:href="#m6e1a78cce6" x="76.890028" y="7.14916" style="stroke: #000000; stroke-width: 1.1"/>
      </g>
     </g>
    </g>
    <g id="xtick_8">
     <g id="line2d_15">
      <g>
       <use xlink:href="#m5c2f450340" x="90.199332" y="203.917368" style="stroke: #000000; stroke-width: 1.1"/>
      </g>
     </g>
     <g id="line2d_16">
      <g>
       <use xlink:href="#m6e1a78cce6" x="90.199332" y="7.14916" style="stroke: #000000; stroke-width: 1.1"/>
      </g>
     </g>
    </g>
    <g id="xtick_9">
     <g id="line2d_17">
      <g>
       <use xlink:href="#m5c2f450340" x="116.817939" y="203.917368" style="stroke: #000000; stroke-width: 1.1"/>
      </g>
     </g>
     <g id="line2d_18">
      <g>
       <use xlink:href="#m6e1a78cce6" x="116.817939" y="7.14916" style="stroke: #000000; stroke-width: 1.1"/>
      </g>
     </g>
    </g>
    <g id="xtick_10">
     <g id="line2d_19">
      <g>
       <use xlink:href="#m5c2f450340" x="130.127242" y="203.917368" style="stroke: #000000; stroke-width: 1.1"/>
      </g>
     </g>
     <g id="line2d_20">
      <g>
       <use xlink:href="#m6e1a78cce6" x="130.127242" y="7.14916" style="stroke: #000000; stroke-width: 1.1"/>
      </g>
     </g>
    </g>
    <g id="xtick_11">
     <g id="line2d_21">
      <g>
       <use xlink:href="#m5c2f450340" x="143.436546" y="203.917368" style="stroke: #000000; stroke-width: 1.1"/>
      </g>
     </g>
     <g id="line2d_22">
      <g>
       <use xlink:href="#m6e1a78cce6" x="143.436546" y="7.14916" style="stroke: #000000; stroke-width: 1.1"/>
      </g>
     </g>
    </g>
    <g id="xtick_12">
     <g id="line2d_23">
      <g>
       <use xlink:href="#m5c2f450340" x="156.745849" y="203.917368" style="stroke: #000000; stroke-width: 1.1"/>
      </g>
     </g>
     <g id="line2d_24">
      <g>
       <use xlink:href="#m6e1a78cce6" x="156.745849" y="7.14916" style="stroke: #000000; stroke-width: 1.1"/>
      </g>
     </g>
    </g>
    <g id="xtick_13">
     <g id="line2d_25">
      <g>
       <use xlink:href="#m5c2f450340" x="183.364457" y="203.917368" style="stroke: #000000; stroke-width: 1.1"/>
      </g>
     </g>
     <g id="line2d_26">
      <g>
       <use xlink:href="#m6e1a78cce6" x="183.364457" y="7.14916" style="stroke: #000000; stroke-width: 1.1"/>
      </g>
     </g>
    </g>
    <g id="xtick_14">
     <g id="line2d_27">
      <g>
       <use xlink:href="#m5c2f450340" x="196.67376" y="203.917368" style="stroke: #000000; stroke-width: 1.1"/>
      </g>
     </g>
     <g id="line2d_28">
      <g>
       <use xlink:href="#m6e1a78cce6" x="196.67376" y="7.14916" style="stroke: #000000; stroke-width: 1.1"/>
      </g>
     </g>
    </g>
    <g id="xtick_15">
     <g id="line2d_29">
      <g>
       <use xlink:href="#m5c2f450340" x="209.983064" y="203.917368" style="stroke: #000000; stroke-width: 1.1"/>
      </g>
     </g>
     <g id="line2d_30">
      <g>
       <use xlink:href="#m6e1a78cce6" x="209.983064" y="7.14916" style="stroke: #000000; stroke-width: 1.1"/>
      </g>
     </g>
    </g>
    <g id="xtick_16">
     <g id="line2d_31">
      <g>
       <use xlink:href="#m5c2f450340" x="223.292367" y="203.917368" style="stroke: #000000; stroke-width: 1.1"/>
      </g>
     </g>
     <g id="line2d_32">
      <g>
       <use xlink:href="#m6e1a78cce6" x="223.292367" y="7.14916" style="stroke: #000000; stroke-width: 1.1"/>
      </g>
     </g>
    </g>
    <g id="text_5">
     <!-- Time [min] -->
     <g transform="translate(110.710539 230.945827) scale(0.11 -0.11)">
      <defs>
       <path id="NimbusSanL-Regu-54" d="M 2266 4146 
L 3795 4146 
L 3795 4672 
L 134 4672 
L 134 4146 
L 1670 4146 
L 1670 -14 
L 2266 -14 
L 2266 4146 
z
" transform="scale(0.015625)"/>
       <path id="NimbusSanL-Regu-69" d="M 960 3359 
L 429 3359 
L 429 0 
L 960 0 
L 960 3359 
z
M 960 4672 
L 422 4672 
L 422 3999 
L 960 3999 
L 960 4672 
z
" transform="scale(0.015625)"/>
       <path id="NimbusSanL-Regu-6d" d="M 448 3359 
L 448 0 
L 986 0 
L 986 2109 
C 986 2597 1338 2988 1773 2988 
C 2170 2988 2394 2744 2394 2314 
L 2394 0 
L 2931 0 
L 2931 2109 
C 2931 2597 3283 2988 3718 2988 
C 4109 2988 4339 2738 4339 2314 
L 4339 0 
L 4877 0 
L 4877 2520 
C 4877 3122 4531 3456 3904 3456 
C 3456 3456 3187 3321 2874 2943 
C 2675 3302 2406 3456 1971 3456 
C 1523 3456 1229 3289 941 2885 
L 941 3359 
L 448 3359 
z
" transform="scale(0.015625)"/>
       <path id="NimbusSanL-Regu-65" d="M 3283 1529 
C 3283 2034 3245 2338 3149 2584 
C 2931 3127 2419 3456 1792 3456 
C 858 3456 256 2742 256 1645 
C 256 547 838 -128 1779 -128 
C 2547 -128 3078 310 3213 1044 
L 2675 1044 
C 2528 598 2227 365 1798 365 
C 1459 365 1171 520 992 805 
C 864 998 819 1193 813 1529 
L 3283 1529 
z
M 826 1984 
C 870 2577 1248 2962 1786 2962 
C 2310 2962 2714 2530 2714 1984 
C 2714 1984 2714 1984 2707 1984 
L 826 1984 
z
" transform="scale(0.015625)"/>
       <path id="NimbusSanL-Regu-5b" d="M 1600 4672 
L 410 4672 
L 410 -1357 
L 1600 -1357 
L 1600 -896 
L 941 -896 
L 941 4210 
L 1600 4210 
L 1600 4672 
z
" transform="scale(0.015625)"/>
       <path id="NimbusSanL-Regu-6e" d="M 448 3359 
L 448 0 
L 986 0 
L 986 1853 
C 986 2539 1344 2988 1894 2988 
C 2317 2988 2586 2731 2586 2327 
L 2586 0 
L 3117 0 
L 3117 2539 
C 3117 3097 2701 3456 2054 3456 
C 1555 3456 1235 3263 941 2796 
L 941 3359 
L 448 3359 
z
" transform="scale(0.015625)"/>
       <path id="NimbusSanL-Regu-5d" d="M 147 -1357 
L 1338 -1357 
L 1338 4672 
L 147 4672 
L 147 4210 
L 806 4210 
L 806 -896 
L 147 -896 
L 147 -1357 
z
" transform="scale(0.015625)"/>
      </defs>
      <use xlink:href="#NimbusSanL-Regu-54" transform="scale(0.996264)"/>
      <use xlink:href="#NimbusSanL-Regu-69" transform="translate(60.871631 0) scale(0.996264)"/>
      <use xlink:href="#NimbusSanL-Regu-6d" transform="translate(82.988415 0) scale(0.996264)"/>
      <use xlink:href="#NimbusSanL-Regu-65" transform="translate(165.976845 0) scale(0.996264)"/>
      <use xlink:href="#NimbusSanL-Regu-5b" transform="translate(249.063692 0) scale(0.996264)"/>
      <use xlink:href="#NimbusSanL-Regu-6d" transform="translate(276.758861 0) scale(0.996264)"/>
      <use xlink:href="#NimbusSanL-Regu-69" transform="translate(359.747292 0) scale(0.996264)"/>
      <use xlink:href="#NimbusSanL-Regu-6e" transform="translate(381.864076 0) scale(0.996264)"/>
      <use xlink:href="#NimbusSanL-Regu-5d" transform="translate(437.255753 0) scale(0.996264)"/>
     </g>
    </g>
   </g>
   <g id="matplotlib.axis_2">
    <g id="ytick_1">
     <g id="line2d_33">
      <defs>
       <path id="m49e98a3022" d="M 0 0 
L -2.5 0 
" style="stroke: #000000; stroke-width: 1.1"/>
      </defs>
      <g>
       <use xlink:href="#m49e98a3022" x="35.96392" y="194.547454" style="stroke: #000000; stroke-width: 1.1"/>
      </g>
     </g>
     <g id="line2d_34">
      <defs>
       <path id="m907a621f59" d="M 0 0 
L 2.5 0 
" style="stroke: #000000; stroke-width: 1.1"/>
      </defs>
      <g>
       <use xlink:href="#m907a621f59" x="236.601671" y="194.547454" style="stroke: #000000; stroke-width: 1.1"/>
      </g>
     </g>
     <g id="text_6">
      <!-- $\mathdefault{0}$ -->
      <g transform="translate(24.424755 198.096614) scale(0.1 -0.1)">
       <use xlink:href="#NimbusSanL-Regu-30" transform="scale(0.996264)"/>
      </g>
     </g>
    </g>
    <g id="ytick_2">
     <g id="line2d_35">
      <g>
       <use xlink:href="#m49e98a3022" x="35.96392" y="171.122667" style="stroke: #000000; stroke-width: 1.1"/>
      </g>
     </g>
     <g id="line2d_36">
      <g>
       <use xlink:href="#m907a621f59" x="236.601671" y="171.122667" style="stroke: #000000; stroke-width: 1.1"/>
      </g>
     </g>
     <g id="text_7">
      <!-- $\mathdefault{5}$ -->
      <g transform="translate(24.424755 174.671827) scale(0.1 -0.1)">
       <defs>
        <path id="NimbusSanL-Regu-35" d="M 3046 4544 
L 704 4544 
L 365 2086 
L 883 2086 
C 1146 2399 1363 2508 1715 2508 
C 2323 2508 2707 2092 2707 1421 
C 2707 768 2330 372 1715 372 
C 1222 372 922 621 787 1133 
L 224 1133 
C 301 762 365 582 499 415 
C 755 70 1216 -128 1728 -128 
C 2643 -128 3283 537 3283 1497 
C 3283 2394 2688 3008 1818 3008 
C 1498 3008 1242 2925 979 2732 
L 1158 3987 
L 3046 3987 
L 3046 4544 
z
" transform="scale(0.015625)"/>
       </defs>
       <use xlink:href="#NimbusSanL-Regu-35" transform="scale(0.996264)"/>
      </g>
     </g>
    </g>
    <g id="ytick_3">
     <g id="line2d_37">
      <g>
       <use xlink:href="#m49e98a3022" x="35.96392" y="147.69788" style="stroke: #000000; stroke-width: 1.1"/>
      </g>
     </g>
     <g id="line2d_38">
      <g>
       <use xlink:href="#m907a621f59" x="236.601671" y="147.69788" style="stroke: #000000; stroke-width: 1.1"/>
      </g>
     </g>
     <g id="text_8">
      <!-- $\mathdefault{10}$ -->
      <g transform="translate(18.88559 151.24704) scale(0.1 -0.1)">
       <use xlink:href="#NimbusSanL-Regu-31" transform="scale(0.996264)"/>
       <use xlink:href="#NimbusSanL-Regu-30" transform="translate(55.391677 0) scale(0.996264)"/>
      </g>
     </g>
    </g>
    <g id="ytick_4">
     <g id="line2d_39">
      <g>
       <use xlink:href="#m49e98a3022" x="35.96392" y="124.273093" style="stroke: #000000; stroke-width: 1.1"/>
      </g>
     </g>
     <g id="line2d_40">
      <g>
       <use xlink:href="#m907a621f59" x="236.601671" y="124.273093" style="stroke: #000000; stroke-width: 1.1"/>
      </g>
     </g>
     <g id="text_9">
      <!-- $\mathdefault{15}$ -->
      <g transform="translate(18.88559 127.822254) scale(0.1 -0.1)">
       <use xlink:href="#NimbusSanL-Regu-31" transform="scale(0.996264)"/>
       <use xlink:href="#NimbusSanL-Regu-35" transform="translate(55.391677 0) scale(0.996264)"/>
      </g>
     </g>
    </g>
    <g id="ytick_5">
     <g id="line2d_41">
      <g>
       <use xlink:href="#m49e98a3022" x="35.96392" y="100.848307" style="stroke: #000000; stroke-width: 1.1"/>
      </g>
     </g>
     <g id="line2d_42">
      <g>
       <use xlink:href="#m907a621f59" x="236.601671" y="100.848307" style="stroke: #000000; stroke-width: 1.1"/>
      </g>
     </g>
     <g id="text_10">
      <!-- $\mathdefault{20}$ -->
      <g transform="translate(18.88559 104.397467) scale(0.1 -0.1)">
       <use xlink:href="#NimbusSanL-Regu-32" transform="scale(0.996264)"/>
       <use xlink:href="#NimbusSanL-Regu-30" transform="translate(55.391677 0) scale(0.996264)"/>
      </g>
     </g>
    </g>
    <g id="ytick_6">
     <g id="line2d_43">
      <g>
       <use xlink:href="#m49e98a3022" x="35.96392" y="77.42352" style="stroke: #000000; stroke-width: 1.1"/>
      </g>
     </g>
     <g id="line2d_44">
      <g>
       <use xlink:href="#m907a621f59" x="236.601671" y="77.42352" style="stroke: #000000; stroke-width: 1.1"/>
      </g>
     </g>
     <g id="text_11">
      <!-- $\mathdefault{25}$ -->
      <g transform="translate(18.88559 80.97268) scale(0.1 -0.1)">
       <use xlink:href="#NimbusSanL-Regu-32" transform="scale(0.996264)"/>
       <use xlink:href="#NimbusSanL-Regu-35" transform="translate(55.391677 0) scale(0.996264)"/>
      </g>
     </g>
    </g>
    <g id="ytick_7">
     <g id="line2d_45">
      <g>
       <use xlink:href="#m49e98a3022" x="35.96392" y="53.998733" style="stroke: #000000; stroke-width: 1.1"/>
      </g>
     </g>
     <g id="line2d_46">
      <g>
       <use xlink:href="#m907a621f59" x="236.601671" y="53.998733" style="stroke: #000000; stroke-width: 1.1"/>
      </g>
     </g>
     <g id="text_12">
      <!-- $\mathdefault{30}$ -->
      <g transform="translate(18.88559 57.547894) scale(0.1 -0.1)">
       <use xlink:href="#NimbusSanL-Regu-33" transform="scale(0.996264)"/>
       <use xlink:href="#NimbusSanL-Regu-30" transform="translate(55.391677 0) scale(0.996264)"/>
      </g>
     </g>
    </g>
    <g id="ytick_8">
     <g id="line2d_47">
      <g>
       <use xlink:href="#m49e98a3022" x="35.96392" y="30.573947" style="stroke: #000000; stroke-width: 1.1"/>
      </g>
     </g>
     <g id="line2d_48">
      <g>
       <use xlink:href="#m907a621f59" x="236.601671" y="30.573947" style="stroke: #000000; stroke-width: 1.1"/>
      </g>
     </g>
     <g id="text_13">
      <!-- $\mathdefault{35}$ -->
      <g transform="translate(18.88559 34.123107) scale(0.1 -0.1)">
       <use xlink:href="#NimbusSanL-Regu-33" transform="scale(0.996264)"/>
       <use xlink:href="#NimbusSanL-Regu-35" transform="translate(55.391677 0) scale(0.996264)"/>
      </g>
     </g>
    </g>
    <g id="ytick_9">
     <g id="line2d_49">
      <g>
       <use xlink:href="#m49e98a3022" x="35.96392" y="7.14916" style="stroke: #000000; stroke-width: 1.1"/>
      </g>
     </g>
     <g id="line2d_50">
      <g>
       <use xlink:href="#m907a621f59" x="236.601671" y="7.14916" style="stroke: #000000; stroke-width: 1.1"/>
      </g>
     </g>
     <g id="text_14">
      <!-- $\mathdefault{40}$ -->
      <g transform="translate(18.88559 10.69832) scale(0.1 -0.1)">
       <defs>
        <path id="NimbusSanL-Regu-34" d="M 2093 1088 
L 2093 0 
L 2656 0 
L 2656 1088 
L 3328 1088 
L 3328 1594 
L 2656 1594 
L 2656 4545 
L 2240 4545 
L 179 1684 
L 179 1088 
L 2093 1088 
z
M 2093 1594 
L 672 1594 
L 2093 3583 
L 2093 1594 
z
" transform="scale(0.015625)"/>
       </defs>
       <use xlink:href="#NimbusSanL-Regu-34" transform="scale(0.996264)"/>
       <use xlink:href="#NimbusSanL-Regu-30" transform="translate(55.391677 0) scale(0.996264)"/>
      </g>
     </g>
    </g>
    <g id="ytick_10">
     <g id="line2d_51">
      <g>
       <use xlink:href="#m49e98a3022" x="35.96392" y="203.917368" style="stroke: #000000; stroke-width: 1.1"/>
      </g>
     </g>
     <g id="line2d_52">
      <g>
       <use xlink:href="#m907a621f59" x="236.601671" y="203.917368" style="stroke: #000000; stroke-width: 1.1"/>
      </g>
     </g>
    </g>
    <g id="ytick_11">
     <g id="line2d_53">
      <g>
       <use xlink:href="#m49e98a3022" x="35.96392" y="199.232411" style="stroke: #000000; stroke-width: 1.1"/>
      </g>
     </g>
     <g id="line2d_54">
      <g>
       <use xlink:href="#m907a621f59" x="236.601671" y="199.232411" style="stroke: #000000; stroke-width: 1.1"/>
      </g>
     </g>
    </g>
    <g id="ytick_12">
     <g id="line2d_55">
      <g>
       <use xlink:href="#m49e98a3022" x="35.96392" y="189.862496" style="stroke: #000000; stroke-width: 1.1"/>
      </g>
     </g>
     <g id="line2d_56">
      <g>
       <use xlink:href="#m907a621f59" x="236.601671" y="189.862496" style="stroke: #000000; stroke-width: 1.1"/>
      </g>
     </g>
    </g>
    <g id="ytick_13">
     <g id="line2d_57">
      <g>
       <use xlink:href="#m49e98a3022" x="35.96392" y="185.177539" style="stroke: #000000; stroke-width: 1.1"/>
      </g>
     </g>
     <g id="line2d_58">
      <g>
       <use xlink:href="#m907a621f59" x="236.601671" y="185.177539" style="stroke: #000000; stroke-width: 1.1"/>
      </g>
     </g>
    </g>
    <g id="ytick_14">
     <g id="line2d_59">
      <g>
       <use xlink:href="#m49e98a3022" x="35.96392" y="180.492581" style="stroke: #000000; stroke-width: 1.1"/>
      </g>
     </g>
     <g id="line2d_60">
      <g>
       <use xlink:href="#m907a621f59" x="236.601671" y="180.492581" style="stroke: #000000; stroke-width: 1.1"/>
      </g>
     </g>
    </g>
    <g id="ytick_15">
     <g id="line2d_61">
      <g>
       <use xlink:href="#m49e98a3022" x="35.96392" y="175.807624" style="stroke: #000000; stroke-width: 1.1"/>
      </g>
     </g>
     <g id="line2d_62">
      <g>
       <use xlink:href="#m907a621f59" x="236.601671" y="175.807624" style="stroke: #000000; stroke-width: 1.1"/>
      </g>
     </g>
    </g>
    <g id="ytick_16">
     <g id="line2d_63">
      <g>
       <use xlink:href="#m49e98a3022" x="35.96392" y="166.437709" style="stroke: #000000; stroke-width: 1.1"/>
      </g>
     </g>
     <g id="line2d_64">
      <g>
       <use xlink:href="#m907a621f59" x="236.601671" y="166.437709" style="stroke: #000000; stroke-width: 1.1"/>
      </g>
     </g>
    </g>
    <g id="ytick_17">
     <g id="line2d_65">
      <g>
       <use xlink:href="#m49e98a3022" x="35.96392" y="161.752752" style="stroke: #000000; stroke-width: 1.1"/>
      </g>
     </g>
     <g id="line2d_66">
      <g>
       <use xlink:href="#m907a621f59" x="236.601671" y="161.752752" style="stroke: #000000; stroke-width: 1.1"/>
      </g>
     </g>
    </g>
    <g id="ytick_18">
     <g id="line2d_67">
      <g>
       <use xlink:href="#m49e98a3022" x="35.96392" y="157.067795" style="stroke: #000000; stroke-width: 1.1"/>
      </g>
     </g>
     <g id="line2d_68">
      <g>
       <use xlink:href="#m907a621f59" x="236.601671" y="157.067795" style="stroke: #000000; stroke-width: 1.1"/>
      </g>
     </g>
    </g>
    <g id="ytick_19">
     <g id="line2d_69">
      <g>
       <use xlink:href="#m49e98a3022" x="35.96392" y="152.382837" style="stroke: #000000; stroke-width: 1.1"/>
      </g>
     </g>
     <g id="line2d_70">
      <g>
       <use xlink:href="#m907a621f59" x="236.601671" y="152.382837" style="stroke: #000000; stroke-width: 1.1"/>
      </g>
     </g>
    </g>
    <g id="ytick_20">
     <g id="line2d_71">
      <g>
       <use xlink:href="#m49e98a3022" x="35.96392" y="143.012923" style="stroke: #000000; stroke-width: 1.1"/>
      </g>
     </g>
     <g id="line2d_72">
      <g>
       <use xlink:href="#m907a621f59" x="236.601671" y="143.012923" style="stroke: #000000; stroke-width: 1.1"/>
      </g>
     </g>
    </g>
    <g id="ytick_21">
     <g id="line2d_73">
      <g>
       <use xlink:href="#m49e98a3022" x="35.96392" y="138.327965" style="stroke: #000000; stroke-width: 1.1"/>
      </g>
     </g>
     <g id="line2d_74">
      <g>
       <use xlink:href="#m907a621f59" x="236.601671" y="138.327965" style="stroke: #000000; stroke-width: 1.1"/>
      </g>
     </g>
    </g>
    <g id="ytick_22">
     <g id="line2d_75">
      <g>
       <use xlink:href="#m49e98a3022" x="35.96392" y="133.643008" style="stroke: #000000; stroke-width: 1.1"/>
      </g>
     </g>
     <g id="line2d_76">
      <g>
       <use xlink:href="#m907a621f59" x="236.601671" y="133.643008" style="stroke: #000000; stroke-width: 1.1"/>
      </g>
     </g>
    </g>
    <g id="ytick_23">
     <g id="line2d_77">
      <g>
       <use xlink:href="#m49e98a3022" x="35.96392" y="128.958051" style="stroke: #000000; stroke-width: 1.1"/>
      </g>
     </g>
     <g id="line2d_78">
      <g>
       <use xlink:href="#m907a621f59" x="236.601671" y="128.958051" style="stroke: #000000; stroke-width: 1.1"/>
      </g>
     </g>
    </g>
    <g id="ytick_24">
     <g id="line2d_79">
      <g>
       <use xlink:href="#m49e98a3022" x="35.96392" y="119.588136" style="stroke: #000000; stroke-width: 1.1"/>
      </g>
     </g>
     <g id="line2d_80">
      <g>
       <use xlink:href="#m907a621f59" x="236.601671" y="119.588136" style="stroke: #000000; stroke-width: 1.1"/>
      </g>
     </g>
    </g>
    <g id="ytick_25">
     <g id="line2d_81">
      <g>
       <use xlink:href="#m49e98a3022" x="35.96392" y="114.903179" style="stroke: #000000; stroke-width: 1.1"/>
      </g>
     </g>
     <g id="line2d_82">
      <g>
       <use xlink:href="#m907a621f59" x="236.601671" y="114.903179" style="stroke: #000000; stroke-width: 1.1"/>
      </g>
     </g>
    </g>
    <g id="ytick_26">
     <g id="line2d_83">
      <g>
       <use xlink:href="#m49e98a3022" x="35.96392" y="110.218221" style="stroke: #000000; stroke-width: 1.1"/>
      </g>
     </g>
     <g id="line2d_84">
      <g>
       <use xlink:href="#m907a621f59" x="236.601671" y="110.218221" style="stroke: #000000; stroke-width: 1.1"/>
      </g>
     </g>
    </g>
    <g id="ytick_27">
     <g id="line2d_85">
      <g>
       <use xlink:href="#m49e98a3022" x="35.96392" y="105.533264" style="stroke: #000000; stroke-width: 1.1"/>
      </g>
     </g>
     <g id="line2d_86">
      <g>
       <use xlink:href="#m907a621f59" x="236.601671" y="105.533264" style="stroke: #000000; stroke-width: 1.1"/>
      </g>
     </g>
    </g>
    <g id="ytick_28">
     <g id="line2d_87">
      <g>
       <use xlink:href="#m49e98a3022" x="35.96392" y="96.163349" style="stroke: #000000; stroke-width: 1.1"/>
      </g>
     </g>
     <g id="line2d_88">
      <g>
       <use xlink:href="#m907a621f59" x="236.601671" y="96.163349" style="stroke: #000000; stroke-width: 1.1"/>
      </g>
     </g>
    </g>
    <g id="ytick_29">
     <g id="line2d_89">
      <g>
       <use xlink:href="#m49e98a3022" x="35.96392" y="91.478392" style="stroke: #000000; stroke-width: 1.1"/>
      </g>
     </g>
     <g id="line2d_90">
      <g>
       <use xlink:href="#m907a621f59" x="236.601671" y="91.478392" style="stroke: #000000; stroke-width: 1.1"/>
      </g>
     </g>
    </g>
    <g id="ytick_30">
     <g id="line2d_91">
      <g>
       <use xlink:href="#m49e98a3022" x="35.96392" y="86.793435" style="stroke: #000000; stroke-width: 1.1"/>
      </g>
     </g>
     <g id="line2d_92">
      <g>
       <use xlink:href="#m907a621f59" x="236.601671" y="86.793435" style="stroke: #000000; stroke-width: 1.1"/>
      </g>
     </g>
    </g>
    <g id="ytick_31">
     <g id="line2d_93">
      <g>
       <use xlink:href="#m49e98a3022" x="35.96392" y="82.108477" style="stroke: #000000; stroke-width: 1.1"/>
      </g>
     </g>
     <g id="line2d_94">
      <g>
       <use xlink:href="#m907a621f59" x="236.601671" y="82.108477" style="stroke: #000000; stroke-width: 1.1"/>
      </g>
     </g>
    </g>
    <g id="ytick_32">
     <g id="line2d_95">
      <g>
       <use xlink:href="#m49e98a3022" x="35.96392" y="72.738563" style="stroke: #000000; stroke-width: 1.1"/>
      </g>
     </g>
     <g id="line2d_96">
      <g>
       <use xlink:href="#m907a621f59" x="236.601671" y="72.738563" style="stroke: #000000; stroke-width: 1.1"/>
      </g>
     </g>
    </g>
    <g id="ytick_33">
     <g id="line2d_97">
      <g>
       <use xlink:href="#m49e98a3022" x="35.96392" y="68.053605" style="stroke: #000000; stroke-width: 1.1"/>
      </g>
     </g>
     <g id="line2d_98">
      <g>
       <use xlink:href="#m907a621f59" x="236.601671" y="68.053605" style="stroke: #000000; stroke-width: 1.1"/>
      </g>
     </g>
    </g>
    <g id="ytick_34">
     <g id="line2d_99">
      <g>
       <use xlink:href="#m49e98a3022" x="35.96392" y="63.368648" style="stroke: #000000; stroke-width: 1.1"/>
      </g>
     </g>
     <g id="line2d_100">
      <g>
       <use xlink:href="#m907a621f59" x="236.601671" y="63.368648" style="stroke: #000000; stroke-width: 1.1"/>
      </g>
     </g>
    </g>
    <g id="ytick_35">
     <g id="line2d_101">
      <g>
       <use xlink:href="#m49e98a3022" x="35.96392" y="58.683691" style="stroke: #000000; stroke-width: 1.1"/>
      </g>
     </g>
     <g id="line2d_102">
      <g>
       <use xlink:href="#m907a621f59" x="236.601671" y="58.683691" style="stroke: #000000; stroke-width: 1.1"/>
      </g>
     </g>
    </g>
    <g id="ytick_36">
     <g id="line2d_103">
      <g>
       <use xlink:href="#m49e98a3022" x="35.96392" y="49.313776" style="stroke: #000000; stroke-width: 1.1"/>
      </g>
     </g>
     <g id="line2d_104">
      <g>
       <use xlink:href="#m907a621f59" x="236.601671" y="49.313776" style="stroke: #000000; stroke-width: 1.1"/>
      </g>
     </g>
    </g>
    <g id="ytick_37">
     <g id="line2d_105">
      <g>
       <use xlink:href="#m49e98a3022" x="35.96392" y="44.628819" style="stroke: #000000; stroke-width: 1.1"/>
      </g>
     </g>
     <g id="line2d_106">
      <g>
       <use xlink:href="#m907a621f59" x="236.601671" y="44.628819" style="stroke: #000000; stroke-width: 1.1"/>
      </g>
     </g>
    </g>
    <g id="ytick_38">
     <g id="line2d_107">
      <g>
       <use xlink:href="#m49e98a3022" x="35.96392" y="39.943861" style="stroke: #000000; stroke-width: 1.1"/>
      </g>
     </g>
     <g id="line2d_108">
      <g>
       <use xlink:href="#m907a621f59" x="236.601671" y="39.943861" style="stroke: #000000; stroke-width: 1.1"/>
      </g>
     </g>
    </g>
    <g id="ytick_39">
     <g id="line2d_109">
      <g>
       <use xlink:href="#m49e98a3022" x="35.96392" y="35.258904" style="stroke: #000000; stroke-width: 1.1"/>
      </g>
     </g>
     <g id="line2d_110">
      <g>
       <use xlink:href="#m907a621f59" x="236.601671" y="35.258904" style="stroke: #000000; stroke-width: 1.1"/>
      </g>
     </g>
    </g>
    <g id="ytick_40">
     <g id="line2d_111">
      <g>
       <use xlink:href="#m49e98a3022" x="35.96392" y="25.888989" style="stroke: #000000; stroke-width: 1.1"/>
      </g>
     </g>
     <g id="line2d_112">
      <g>
       <use xlink:href="#m907a621f59" x="236.601671" y="25.888989" style="stroke: #000000; stroke-width: 1.1"/>
      </g>
     </g>
    </g>
    <g id="ytick_41">
     <g id="line2d_113">
      <g>
       <use xlink:href="#m49e98a3022" x="35.96392" y="21.204032" style="stroke: #000000; stroke-width: 1.1"/>
      </g>
     </g>
     <g id="line2d_114">
      <g>
       <use xlink:href="#m907a621f59" x="236.601671" y="21.204032" style="stroke: #000000; stroke-width: 1.1"/>
      </g>
     </g>
    </g>
    <g id="ytick_42">
     <g id="line2d_115">
      <g>
       <use xlink:href="#m49e98a3022" x="35.96392" y="16.519075" style="stroke: #000000; stroke-width: 1.1"/>
      </g>
     </g>
     <g id="line2d_116">
      <g>
       <use xlink:href="#m907a621f59" x="236.601671" y="16.519075" style="stroke: #000000; stroke-width: 1.1"/>
      </g>
     </g>
    </g>
    <g id="ytick_43">
     <g id="line2d_117">
      <g>
       <use xlink:href="#m49e98a3022" x="35.96392" y="11.834117" style="stroke: #000000; stroke-width: 1.1"/>
      </g>
     </g>
     <g id="line2d_118">
      <g>
       <use xlink:href="#m907a621f59" x="236.601671" y="11.834117" style="stroke: #000000; stroke-width: 1.1"/>
      </g>
     </g>
    </g>
    <g id="text_15">
     <!-- Glucose [g/L] -->
     <g transform="translate(12.339216 140.752662) rotate(-90) scale(0.12 -0.12)">
      <defs>
       <path id="NimbusSanL-Regu-47" d="M 4538 2496 
L 2592 2496 
L 2592 1971 
L 4013 1971 
L 4013 1841 
C 4013 1003 3398 397 2547 397 
C 2074 397 1645 569 1370 870 
C 1062 1201 877 1756 877 2330 
C 877 3471 1530 4224 2515 4224 
C 3226 4224 3738 3864 3866 3272 
L 4474 3272 
C 4307 4211 3590 4750 2522 4750 
C 1952 4750 1491 4603 1126 4303 
C 589 3856 282 3135 282 2298 
C 282 868 1158 -128 2419 -128 
C 3053 -128 3558 109 4013 616 
L 4160 -7 
L 4538 -7 
L 4538 2496 
z
" transform="scale(0.015625)"/>
       <path id="NimbusSanL-Regu-6c" d="M 973 4672 
L 435 4672 
L 435 -2 
L 973 -2 
L 973 4672 
z
" transform="scale(0.015625)"/>
       <path id="NimbusSanL-Regu-75" d="M 3085 33 
L 3085 3392 
L 2554 3392 
L 2554 1479 
C 2554 790 2195 340 1638 340 
C 1216 340 947 597 947 1003 
L 947 3392 
L 416 3392 
L 416 792 
C 416 232 832 -128 1485 -128 
C 1978 -128 2291 45 2605 488 
L 2605 33 
L 3085 33 
z
" transform="scale(0.015625)"/>
       <path id="NimbusSanL-Regu-63" d="M 3014 2236 
C 2989 2562 2918 2773 2790 2958 
C 2560 3271 2157 3456 1690 3456 
C 787 3456 198 2742 198 1632 
C 198 554 774 -128 1683 -128 
C 2483 -128 2989 350 3053 1167 
L 2515 1167 
C 2426 632 2150 365 1696 365 
C 1107 365 755 843 755 1632 
C 755 2466 1101 2962 1683 2962 
C 2131 2962 2413 2701 2477 2236 
L 3014 2236 
z
" transform="scale(0.015625)"/>
       <path id="NimbusSanL-Regu-6f" d="M 1741 3456 
C 800 3456 230 2786 230 1663 
C 230 541 794 -128 1747 -128 
C 2688 -128 3264 541 3264 1638 
C 3264 2792 2707 3456 1741 3456 
z
M 1747 2962 
C 2349 2962 2707 2472 2707 1645 
C 2707 861 2336 365 1747 365 
C 1152 365 787 855 787 1663 
C 787 2466 1152 2962 1747 2962 
z
" transform="scale(0.015625)"/>
       <path id="NimbusSanL-Regu-73" d="M 2803 2427 
C 2797 3085 2362 3456 1587 3456 
C 806 3456 301 3054 301 2436 
C 301 1913 570 1665 1363 1474 
L 1862 1353 
C 2234 1263 2381 1130 2381 888 
C 2381 576 2067 365 1600 365 
C 1312 365 1069 448 934 588 
C 851 684 813 779 781 1014 
L 218 1014 
C 243 241 678 -128 1555 -128 
C 2400 -128 2938 285 2938 929 
C 2938 1426 2656 1701 1990 1860 
L 1478 1981 
C 1043 2082 858 2223 858 2458 
C 858 2764 1133 2962 1568 2962 
C 1997 2962 2227 2777 2240 2427 
L 2803 2427 
z
" transform="scale(0.015625)"/>
       <path id="NimbusSanL-Regu-67" d="M 2637 3341 
L 2637 2854 
C 2368 3252 2042 3438 1613 3438 
C 762 3438 186 2692 186 1600 
C 186 1048 333 598 608 276 
C 858 -7 1216 -173 1568 -173 
C 1990 -173 2285 6 2586 429 
L 2586 258 
C 2586 -192 2528 -465 2394 -649 
C 2253 -844 1978 -959 1651 -959 
C 1408 -959 1190 -896 1043 -783 
C 922 -688 870 -600 838 -406 
L 294 -406 
C 352 -1033 845 -1408 1632 -1408 
C 2131 -1408 2560 -1247 2778 -979 
C 3034 -671 3130 -249 3130 538 
L 3130 3341 
L 2637 3341 
z
M 1670 2944 
C 2246 2944 2586 2455 2586 1613 
C 2586 808 2240 320 1677 320 
C 1094 320 742 816 742 1632 
C 742 2442 1101 2944 1670 2944 
z
" transform="scale(0.015625)"/>
       <path id="NimbusSanL-Regu-2f" d="M 1466 4672 
L -51 -128 
L 301 -128 
L 1818 4672 
L 1466 4672 
z
" transform="scale(0.015625)"/>
       <path id="NimbusSanL-Regu-4c" d="M 1107 4672 
L 512 4672 
L 512 0 
L 3411 0 
L 3411 526 
L 1107 526 
L 1107 4672 
z
" transform="scale(0.015625)"/>
      </defs>
      <use xlink:href="#NimbusSanL-Regu-47" transform="scale(0.996264)"/>
      <use xlink:href="#NimbusSanL-Regu-6c" transform="translate(77.50837 0) scale(0.996264)"/>
      <use xlink:href="#NimbusSanL-Regu-75" transform="translate(99.625154 0) scale(0.996264)"/>
      <use xlink:href="#NimbusSanL-Regu-63" transform="translate(155.016831 0) scale(0.996264)"/>
      <use xlink:href="#NimbusSanL-Regu-6f" transform="translate(204.830032 0) scale(0.996264)"/>
      <use xlink:href="#NimbusSanL-Regu-73" transform="translate(260.221709 0) scale(0.996264)"/>
      <use xlink:href="#NimbusSanL-Regu-65" transform="translate(310.034909 0) scale(0.996264)"/>
      <use xlink:href="#NimbusSanL-Regu-5b" transform="translate(393.121756 0) scale(0.996264)"/>
      <use xlink:href="#NimbusSanL-Regu-67" transform="translate(420.816926 0) scale(0.996264)"/>
      <use xlink:href="#NimbusSanL-Regu-2f" transform="translate(476.208603 0) scale(0.996264)"/>
      <use xlink:href="#NimbusSanL-Regu-4c" transform="translate(503.903772 0) scale(0.996264)"/>
      <use xlink:href="#NimbusSanL-Regu-5d" transform="translate(559.295449 0) scale(0.996264)"/>
     </g>
    </g>
   </g>
   <g id="line2d_119">
    <path d="M 36.962117 53.998733 
L 38.29527 93.770883 
L 39.295134 117.430859 
L 40.294998 136.067095 
L 41.294862 150.230329 
L 42.294727 160.655303 
L 43.294591 168.130686 
L 44.294455 173.372326 
L 45.294319 176.995594 
L 46.294183 179.456224 
L 47.294048 181.107845 
L 48.293912 182.189721 
L 49.293776 182.878043 
L 50.29364 183.28789 
L 51.626793 183.54435 
L 53.293233 183.562892 
L 55.292961 183.324325 
L 57.959266 182.76808 
L 61.958723 181.676416 
L 67.62462 179.866374 
L 74.290381 177.496616 
L 81.956007 174.531279 
L 90.954785 170.799377 
L 102.953155 165.555816 
L 129.616201 153.825512 
L 139.948131 149.565864 
L 149.280197 145.949439 
L 158.278975 142.695952 
L 167.277752 139.682945 
L 176.27653 136.911242 
L 185.275308 134.374478 
L 194.607374 131.979189 
L 204.272728 129.734658 
L 214.27137 127.644335 
L 224.936588 125.649026 
L 235.935095 123.816825 
L 236.601671 123.712522 
L 236.601671 123.712522 
" clip-path="url(#pc71da34446)" style="fill: none; stroke: #bcae6c; stroke-width: 1.8; stroke-linecap: square"/>
   </g>
   <g id="line2d_120">
    <path d="M 35.96392 194.547454 
L 236.601671 194.547454 
" clip-path="url(#pc71da34446)" style="fill: none; stroke-dasharray: 12.8,3.2,2,3.2; stroke-dashoffset: 0; stroke: #666970; stroke-width: 2"/>
   </g>
   <g id="patch_3">
    <path d="M 35.96392 203.917368 
L 35.96392 7.14916 
" style="fill: none; stroke: #000000; stroke-width: 0.5; stroke-linejoin: miter; stroke-linecap: square"/>
   </g>
   <g id="patch_4">
    <path d="M 236.601671 203.917368 
L 236.601671 7.14916 
" style="fill: none; stroke: #000000; stroke-width: 0.5; stroke-linejoin: miter; stroke-linecap: square"/>
   </g>
   <g id="patch_5">
    <path d="M 35.96392 203.917368 
L 236.601671 203.917368 
" style="fill: none; stroke: #000000; stroke-width: 0.5; stroke-linejoin: miter; stroke-linecap: square"/>
   </g>
   <g id="patch_6">
    <path d="M 35.96392 7.14916 
L 236.601671 7.14916 
" style="fill: none; stroke: #000000; stroke-width: 0.5; stroke-linejoin: miter; stroke-linecap: square"/>
   </g>
   <g id="line2d_121">
    <path d="M 36.962117 35.540623 
L 38.29527 72.303458 
L 39.96171 123.262981 
L 40.628286 138.145132 
L 41.294862 149.025397 
L 42.294727 160.949786 
L 42.961303 166.85077 
L 44.294455 174.806326 
L 44.961031 178.178064 
L 45.294319 178.880249 
L 45.627607 178.984844 
L 46.627471 178.350946 
L 46.96076 178.339133 
L 47.294048 178.532002 
L 47.627336 178.949417 
L 48.293912 180.478183 
L 49.960352 185.530632 
L 50.29364 185.500911 
L 50.626928 185.025066 
L 51.626793 182.687907 
L 52.626657 180.310912 
L 53.293233 179.190284 
L 53.959809 178.47306 
L 54.626385 178.031825 
L 55.626249 177.638019 
L 58.95913 176.781394 
L 63.291875 175.535227 
L 69.29106 173.558259 
L 76.29011 171.008856 
L 84.289023 167.849965 
L 93.621089 163.917712 
L 107.2859 157.889366 
L 125.950032 149.484559 
L 128.616336 147.908285 
L 130.616065 147.305499 
L 131.949217 146.709978 
L 132.615793 146.23696 
L 133.282369 145.518127 
L 133.948946 144.425032 
L 134.615522 142.76501 
L 135.282098 140.237562 
L 136.61525 134.018059 
L 136.948538 133.286928 
L 137.281826 133.140951 
L 137.615114 133.639054 
L 137.948402 134.729916 
L 139.614843 141.858922 
L 139.948131 142.594091 
L 140.281419 143.034668 
L 140.614707 143.251562 
L 141.281283 143.286928 
L 142.281147 142.95393 
L 148.280332 140.588949 
L 157.27911 137.30911 
L 166.277888 134.269186 
L 175.276666 131.470868 
L 184.275444 128.908526 
L 193.60751 126.488221 
L 203.272864 124.219721 
L 213.271506 122.106837 
L 223.603436 120.151631 
L 226.603029 119.71686 
L 227.602893 119.761933 
L 228.269469 119.995682 
L 228.936045 120.551653 
L 229.602621 121.617224 
L 230.269197 123.30039 
L 231.269062 125.987681 
L 231.60235 126.25314 
L 231.935638 125.945717 
L 232.602214 124.100641 
L 233.602078 121.04986 
L 234.268654 119.728928 
L 234.93523 118.928596 
L 235.601806 118.460907 
L 236.601671 118.07673 
L 236.601671 118.07673 
" clip-path="url(#pc71da34446)" style="fill: none; stroke-dasharray: 6.66,2.88; stroke-dashoffset: 0; stroke: #7d7c78; stroke-width: 1.8"/>
   </g>
   <g id="legend_1">
    <g id="patch_7">
     <path d="M 86.566997 21.637648 
L 104.566997 21.637648 
L 104.566997 15.337648 
L 86.566997 15.337648 
z
" style="fill: #888578; fill-opacity: 0.4"/>
    </g>
    <g id="text_16">
     <!-- Hybrid Uncertainty -->
     <g transform="translate(111.766997 21.637648) scale(0.09 -0.09)">
      <defs>
       <path id="NimbusSanL-Regu-48" d="M 3526 2112 
L 3526 -2 
L 4122 -2 
L 4122 4672 
L 3526 4672 
L 3526 2638 
L 1126 2638 
L 1126 4672 
L 531 4672 
L 531 -2 
L 1133 -2 
L 1133 2112 
L 3526 2112 
z
" transform="scale(0.015625)"/>
       <path id="NimbusSanL-Regu-79" d="M 2483 3360 
L 1555 738 
L 698 3360 
L 128 3360 
L 1261 -21 
L 1056 -554 
C 973 -792 851 -882 627 -882 
C 550 -882 461 -869 346 -843 
L 346 -1325 
C 454 -1382 563 -1408 704 -1408 
C 877 -1408 1062 -1350 1203 -1247 
C 1370 -1125 1466 -983 1568 -713 
L 3059 3360 
L 2483 3360 
z
" transform="scale(0.015625)"/>
       <path id="NimbusSanL-Regu-62" d="M 346 4672 
L 346 -2 
L 826 -2 
L 826 448 
C 1082 57 1421 -128 1888 -128 
C 2771 -128 3347 592 3347 1702 
C 3347 2786 2797 3456 1914 3456 
C 1453 3456 1126 3282 877 2905 
L 877 4672 
L 346 4672 
z
M 1811 2956 
C 2406 2956 2790 2440 2790 1645 
C 2790 887 2394 372 1811 372 
C 1248 372 877 881 877 1664 
C 877 2447 1248 2956 1811 2956 
z
" transform="scale(0.015625)"/>
       <path id="NimbusSanL-Regu-72" d="M 442 3359 
L 442 0 
L 979 0 
L 979 1741 
C 979 2221 1101 2535 1357 2720 
C 1523 2842 1683 2880 2054 2880 
L 2054 3432 
C 1965 3444 1920 3444 1850 3444 
C 1504 3444 1242 3240 934 2746 
L 934 3359 
L 442 3359 
z
" transform="scale(0.015625)"/>
       <path id="NimbusSanL-Regu-64" d="M 3168 4672 
L 2637 4672 
L 2637 2937 
C 2413 3276 2054 3456 1606 3456 
C 736 3456 166 2761 166 1695 
C 166 566 723 -128 1626 -128 
C 2086 -128 2406 45 2694 461 
L 2694 -2 
L 3168 -2 
L 3168 4672 
z
M 1696 2956 
C 2272 2956 2637 2447 2637 1651 
C 2637 881 2266 372 1702 372 
C 1114 372 723 887 723 1664 
C 723 2440 1114 2956 1696 2956 
z
" transform="scale(0.015625)"/>
       <path id="NimbusSanL-Regu-55" d="M 3533 4672 
L 3533 1395 
C 3533 768 3078 384 2330 384 
C 1984 384 1702 468 1478 628 
C 1248 806 1139 1044 1139 1395 
L 1139 4672 
L 544 4672 
L 544 1394 
C 544 447 1222 -141 2330 -141 
C 3424 -141 4128 460 4128 1394 
L 4128 4672 
L 3533 4672 
z
" transform="scale(0.015625)"/>
       <path id="NimbusSanL-Regu-74" d="M 1626 3380 
L 1075 3380 
L 1075 4288 
L 544 4288 
L 544 3380 
L 90 3380 
L 90 2944 
L 544 2944 
L 544 404 
C 544 64 774 -128 1190 -128 
C 1318 -128 1446 -116 1626 -83 
L 1626 366 
C 1555 346 1472 340 1370 340 
C 1139 340 1075 404 1075 641 
L 1075 2944 
L 1626 2944 
L 1626 3380 
z
" transform="scale(0.015625)"/>
       <path id="NimbusSanL-Regu-61" d="M 3424 333 
C 3366 320 3341 320 3309 320 
C 3123 320 3021 415 3021 581 
L 3021 2545 
C 3021 3137 2586 3456 1760 3456 
C 1274 3456 870 3316 646 3066 
C 493 2893 429 2702 416 2370 
L 954 2370 
C 998 2777 1242 2962 1741 2962 
C 2221 2962 2490 2783 2490 2465 
L 2490 2325 
C 2490 2101 2355 2006 1933 1955 
C 1178 1860 1062 1834 858 1751 
C 467 1592 269 1292 269 859 
C 269 254 691 -128 1370 -128 
C 1792 -128 2131 19 2509 365 
C 2547 25 2714 -128 3059 -128 
C 3168 -128 3251 -116 3424 -70 
L 3424 333 
z
M 2490 1072 
C 2490 893 2438 785 2278 639 
C 2061 441 1798 340 1485 340 
C 1069 340 826 537 826 874 
C 826 1225 1062 1403 1632 1486 
C 2195 1562 2310 1588 2490 1670 
L 2490 1072 
z
" transform="scale(0.015625)"/>
      </defs>
      <use xlink:href="#NimbusSanL-Regu-48" transform="scale(0.996264)"/>
      <use xlink:href="#NimbusSanL-Regu-79" transform="translate(71.929985 0) scale(0.996264)"/>
      <use xlink:href="#NimbusSanL-Regu-62" transform="translate(121.743185 0) scale(0.996264)"/>
      <use xlink:href="#NimbusSanL-Regu-72" transform="translate(177.134862 0) scale(0.996264)"/>
      <use xlink:href="#NimbusSanL-Regu-69" transform="translate(211.80347 0) scale(0.996264)"/>
      <use xlink:href="#NimbusSanL-Regu-64" transform="translate(233.920254 0) scale(0.996264)"/>
      <use xlink:href="#NimbusSanL-Regu-55" transform="translate(317.0071 0) scale(0.996264)"/>
      <use xlink:href="#NimbusSanL-Regu-6e" transform="translate(388.937085 0) scale(0.996264)"/>
      <use xlink:href="#NimbusSanL-Regu-63" transform="translate(444.328762 0) scale(0.996264)"/>
      <use xlink:href="#NimbusSanL-Regu-65" transform="translate(494.141963 0) scale(0.996264)"/>
      <use xlink:href="#NimbusSanL-Regu-72" transform="translate(549.53364 0) scale(0.996264)"/>
      <use xlink:href="#NimbusSanL-Regu-74" transform="translate(586.692968 0) scale(0.996264)"/>
      <use xlink:href="#NimbusSanL-Regu-61" transform="translate(614.388137 0) scale(0.996264)"/>
      <use xlink:href="#NimbusSanL-Regu-69" transform="translate(669.779814 0) scale(0.996264)"/>
      <use xlink:href="#NimbusSanL-Regu-6e" transform="translate(691.896599 0) scale(0.996264)"/>
      <use xlink:href="#NimbusSanL-Regu-74" transform="translate(747.288276 0) scale(0.996264)"/>
      <use xlink:href="#NimbusSanL-Regu-79" transform="translate(774.983445 0) scale(0.996264)"/>
     </g>
    </g>
    <g id="line2d_122">
     <path d="M 86.566997 31.285921 
L 95.566997 31.285921 
L 104.566997 31.285921 
" style="fill: none; stroke-dasharray: 6.66,2.88; stroke-dashoffset: 0; stroke: #7d7c78; stroke-width: 1.8"/>
    </g>
    <g id="text_17">
     <!-- Hybrid -->
     <g transform="translate(111.766997 34.435921) scale(0.09 -0.09)">
      <use xlink:href="#NimbusSanL-Regu-48" transform="scale(0.996264)"/>
      <use xlink:href="#NimbusSanL-Regu-79" transform="translate(71.929985 0) scale(0.996264)"/>
      <use xlink:href="#NimbusSanL-Regu-62" transform="translate(121.743185 0) scale(0.996264)"/>
      <use xlink:href="#NimbusSanL-Regu-72" transform="translate(177.134862 0) scale(0.996264)"/>
      <use xlink:href="#NimbusSanL-Regu-69" transform="translate(211.80347 0) scale(0.996264)"/>
      <use xlink:href="#NimbusSanL-Regu-64" transform="translate(233.920254 0) scale(0.996264)"/>
     </g>
    </g>
    <g id="line2d_123">
     <path d="M 86.566997 44.084194 
L 95.566997 44.084194 
L 104.566997 44.084194 
" style="fill: none; stroke: #bcae6c; stroke-width: 1.8; stroke-linecap: square"/>
    </g>
    <g id="text_18">
     <!-- Empirical -->
     <g transform="translate(111.766997 47.234194) scale(0.09 -0.09)">
      <defs>
       <path id="NimbusSanL-Regu-45" d="M 1171 2112 
L 3712 2112 
L 3712 2638 
L 1171 2638 
L 1171 4146 
L 3808 4146 
L 3808 4672 
L 576 4672 
L 576 0 
L 3923 0 
L 3923 526 
L 1171 526 
L 1171 2112 
z
" transform="scale(0.015625)"/>
       <path id="NimbusSanL-Regu-70" d="M 346 -1408 
L 883 -1408 
L 883 320 
C 1165 -27 1478 -180 1914 -180 
C 2778 -180 3347 522 3347 1599 
C 3347 2734 2797 3444 1907 3444 
C 1453 3444 1088 3238 838 2841 
L 838 3349 
L 346 3349 
L 346 -1408 
z
M 1818 2944 
C 2406 2944 2790 2420 2790 1612 
C 2790 843 2400 320 1818 320 
C 1254 320 883 837 883 1632 
C 883 2427 1254 2944 1818 2944 
z
" transform="scale(0.015625)"/>
      </defs>
      <use xlink:href="#NimbusSanL-Regu-45" transform="scale(0.996264)"/>
      <use xlink:href="#NimbusSanL-Regu-6d" transform="translate(66.450031 0) scale(0.996264)"/>
      <use xlink:href="#NimbusSanL-Regu-70" transform="translate(149.438461 0) scale(0.996264)"/>
      <use xlink:href="#NimbusSanL-Regu-69" transform="translate(204.830138 0) scale(0.996264)"/>
      <use xlink:href="#NimbusSanL-Regu-72" transform="translate(226.946923 0) scale(0.996264)"/>
      <use xlink:href="#NimbusSanL-Regu-69" transform="translate(261.61553 0) scale(0.996264)"/>
      <use xlink:href="#NimbusSanL-Regu-63" transform="translate(283.732314 0) scale(0.996264)"/>
      <use xlink:href="#NimbusSanL-Regu-61" transform="translate(333.545515 0) scale(0.996264)"/>
      <use xlink:href="#NimbusSanL-Regu-6c" transform="translate(388.937192 0) scale(0.996264)"/>
     </g>
    </g>
   </g>
  </g>
 </g>
 <defs>
  <clipPath id="pc71da34446">
   <rect x="35.96392" y="7.14916" width="200.637751" height="196.768208"/>
  </clipPath>
 </defs>
</svg>
