<?xml version="1.0" encoding="utf-8" standalone="no"?>
<!DOCTYPE svg PUBLIC "-//W3C//DTD SVG 1.1//EN"
  "http://www.w3.org/Graphics/SVG/1.1/DTD/svg11.dtd">
<svg xmlns:xlink="http://www.w3.org/1999/xlink" width="251.28pt" height="236.88pt" viewBox="0 0 251.28 236.88" xmlns="http://www.w3.org/2000/svg" version="1.1">
 <metadata>
  <rdf:RDF xmlns:dc="http://purl.org/dc/elements/1.1/" xmlns:cc="http://creativecommons.org/ns#" xmlns:rdf="http://www.w3.org/1999/02/22-rdf-syntax-ns#">
   <cc:Work>
    <dc:type rdf:resource="http://purl.org/dc/dcmitype/StillImage"/>
    <dc:date>2026-05-21T23:46:22.697865</dc:date>
    <dc:format>image/svg+xml</dc:format>
    <dc:creator>
     <cc:Agent>
      <dc:title>Matplotlib v3.10.8, https://matplotlib.org/</dc:title>
     </cc:Agent>
    </dc:creator>
   </cc:Work>
  </rdf:RDF>
 </metadata>
 <defs>
  <style type="text/css">*{stroke-linejoin: round; stroke-linecap: butt}</style>
 </defs>
 <g id="figure_1">
  <g id="patch_1">
   <path d="M 0 236.88 
L 251.28 236.88 
L 251.28 0 
L 0 0 
z
" style="fill: #ffffff"/>
  </g>
  <g id="axes_1">
   <g id="patch_2">
    <path d="M 35.96392 203.917368 
L 236.601671 203.917368 
L 236.601671 7.14916 
L 35.96392 7.14916 
z
" style="fill: #ffffff"/>
   </g>
   <g id="FillBetweenPolyCollection_1">
    <defs>
     <path id="m231f7b822c" d="M 36.962117 -235.970522 
L 36.962117 -166.708231 
L 37.295406 -158.445711 
L 37.628694 -150.064849 
L 37.961982 -141.077062 
L 38.29527 -131.336298 
L 38.628558 -120.912925 
L 38.961846 -110.124972 
L 39.295134 -99.499001 
L 39.628422 -89.479111 
L 39.96171 -80.335114 
L 40.294998 -72.250828 
L 40.628286 -65.285759 
L 40.961574 -59.351144 
L 41.294862 -54.251554 
L 41.62815 -49.76171 
L 41.961439 -45.719552 
L 42.294727 -42.088478 
L 42.628015 -38.887981 
L 42.961303 -36.159507 
L 43.294591 -33.91257 
L 43.627879 -31.962339 
L 43.961167 -30.026235 
L 44.294455 -27.984643 
L 44.627743 -26.072217 
L 44.961031 -24.669093 
L 45.294319 -23.975331 
L 45.627607 -23.829182 
L 45.960895 -23.936266 
L 46.294183 -24.076384 
L 46.627471 -24.088823 
L 46.96076 -23.870965 
L 47.294048 -23.423202 
L 47.627336 -22.789004 
L 47.960624 -21.999265 
L 48.293912 -21.072926 
L 48.6272 -20.039089 
L 48.960488 -18.95732 
L 49.293776 -17.9328 
L 49.627064 -17.117694 
L 49.960352 -16.685142 
L 50.29364 -16.732429 
L 50.626928 -17.185607 
L 50.960216 -17.895955 
L 51.293504 -18.714119 
L 51.626793 -19.513353 
L 51.960081 -20.218233 
L 52.293369 -20.81961 
L 52.626657 -21.337762 
L 52.959945 -21.788317 
L 53.293233 -22.176802 
L 53.626521 -22.505322 
L 53.959809 -22.777659 
L 54.293097 -23.000441 
L 54.626385 -23.182126 
L 54.959673 -23.331521 
L 55.292961 -23.456671 
L 55.626249 -23.564541 
L 55.959537 -23.660806 
L 56.292825 -23.749721 
L 56.626114 -23.834367 
L 56.959402 -23.916894 
L 57.29269 -23.998747 
L 57.625978 -24.080858 
L 57.959266 -24.163793 
L 58.292554 -24.247856 
L 58.625842 -24.333174 
L 58.95913 -24.41978 
L 59.292418 -24.507773 
L 59.625706 -24.597198 
L 59.958994 -24.68806 
L 60.292282 -24.780335 
L 60.62557 -24.873987 
L 60.958858 -24.968966 
L 61.292147 -25.065217 
L 61.625435 -25.162681 
L 61.958723 -25.261295 
L 62.292011 -25.360995 
L 62.625299 -25.461714 
L 62.958587 -25.563387 
L 63.291875 -25.665947 
L 63.625163 -25.769348 
L 63.958451 -25.873596 
L 64.291739 -25.978673 
L 64.625027 -26.084563 
L 64.958315 -26.191248 
L 65.291603 -26.298713 
L 65.624891 -26.40694 
L 65.958179 -26.515913 
L 66.291468 -26.625614 
L 66.624756 -26.736027 
L 66.958044 -26.847134 
L 67.291332 -26.958919 
L 67.62462 -27.071365 
L 67.957908 -27.184454 
L 68.291196 -27.298171 
L 68.624484 -27.412498 
L 68.957772 -27.527418 
L 69.29106 -27.642915 
L 69.624348 -27.758977 
L 69.957636 -27.87561 
L 70.290924 -27.992808 
L 70.624212 -28.110565 
L 70.957501 -28.228875 
L 71.290789 -28.347733 
L 71.624077 -28.467132 
L 71.957365 -28.587067 
L 72.290653 -28.707532 
L 72.623941 -28.828521 
L 72.957229 -28.950028 
L 73.290517 -29.072048 
L 73.623805 -29.194574 
L 73.957093 -29.317601 
L 74.290381 -29.441123 
L 74.623669 -29.565134 
L 74.956957 -29.689627 
L 75.290245 -29.814599 
L 75.623533 -29.940041 
L 75.956822 -30.06595 
L 76.29011 -30.192318 
L 76.623398 -30.31914 
L 76.956686 -30.44641 
L 77.289974 -30.574126 
L 77.623262 -30.702284 
L 77.95655 -30.830878 
L 78.289838 -30.959905 
L 78.623126 -31.089361 
L 78.956414 -31.219239 
L 79.289702 -31.349537 
L 79.62299 -31.480249 
L 79.956278 -31.611371 
L 80.289566 -31.742898 
L 80.622855 -31.874827 
L 80.956143 -32.007151 
L 81.289431 -32.139868 
L 81.622719 -32.272972 
L 81.956007 -32.406459 
L 82.289295 -32.540324 
L 82.622583 -32.674563 
L 82.955871 -32.809172 
L 83.289159 -32.944145 
L 83.622447 -33.079479 
L 83.955735 -33.215168 
L 84.289023 -33.351209 
L 84.622311 -33.487596 
L 84.955599 -33.624326 
L 85.288887 -33.761393 
L 85.622176 -33.89879 
L 85.955464 -34.036512 
L 86.288752 -34.174554 
L 86.62204 -34.312914 
L 86.955328 -34.451587 
L 87.288616 -34.590569 
L 87.621904 -34.729855 
L 87.955192 -34.869439 
L 88.28848 -35.009318 
L 88.621768 -35.149486 
L 88.955056 -35.289939 
L 89.288344 -35.430671 
L 89.621632 -35.571679 
L 89.95492 -35.712956 
L 90.288208 -35.854499 
L 90.621497 -35.996303 
L 90.954785 -36.138362 
L 91.288073 -36.280672 
L 91.621361 -36.423228 
L 91.954649 -36.566026 
L 92.287937 -36.70906 
L 92.621225 -36.852325 
L 92.954513 -36.995817 
L 93.287801 -37.139531 
L 93.621089 -37.283462 
L 93.954377 -37.427605 
L 94.287665 -37.571956 
L 94.620953 -37.716508 
L 94.954241 -37.861259 
L 95.28753 -38.006201 
L 95.620818 -38.151332 
L 95.954106 -38.296646 
L 96.287394 -38.442138 
L 96.620682 -38.587803 
L 96.95397 -38.733636 
L 97.287258 -38.879633 
L 97.620546 -39.025788 
L 97.953834 -39.172097 
L 98.287122 -39.318556 
L 98.62041 -39.465158 
L 98.953698 -39.6119 
L 99.286986 -39.758776 
L 99.620274 -39.905782 
L 99.953562 -40.052913 
L 100.286851 -40.200164 
L 100.620139 -40.34753 
L 100.953427 -40.495007 
L 101.286715 -40.642589 
L 101.620003 -40.790273 
L 101.953291 -40.938053 
L 102.286579 -41.085924 
L 102.619867 -41.233882 
L 102.953155 -41.381923 
L 103.286443 -41.53004 
L 103.619731 -41.678231 
L 103.953019 -41.826489 
L 104.286307 -41.974812 
L 104.619595 -42.123193 
L 104.952884 -42.271628 
L 105.286172 -42.420112 
L 105.61946 -42.568642 
L 105.952748 -42.717212 
L 106.286036 -42.865818 
L 106.619324 -43.014456 
L 106.952612 -43.163121 
L 107.2859 -43.311807 
L 107.619188 -43.460512 
L 107.952476 -43.60923 
L 108.285764 -43.757958 
L 108.619052 -43.90669 
L 108.95234 -44.055422 
L 109.285628 -44.20415 
L 109.618916 -44.35287 
L 109.952205 -44.501577 
L 110.285493 -44.650267 
L 110.618781 -44.798936 
L 110.952069 -44.947579 
L 111.285357 -45.096192 
L 111.618645 -45.244772 
L 111.951933 -45.393313 
L 112.285221 -45.541812 
L 112.618509 -45.690265 
L 112.951797 -45.838667 
L 113.285085 -45.987014 
L 113.618373 -46.135303 
L 113.951661 -46.28353 
L 114.284949 -46.431689 
L 114.618238 -46.579778 
L 114.951526 -46.727793 
L 115.284814 -46.875729 
L 115.618102 -47.023584 
L 115.95139 -47.171352 
L 116.284678 -47.31903 
L 116.617966 -47.466614 
L 116.951254 -47.614101 
L 117.284542 -47.761488 
L 117.61783 -47.90877 
L 117.951118 -48.055945 
L 118.284406 -48.20301 
L 118.617694 -48.349961 
L 118.950982 -48.496797 
L 119.28427 -48.643517 
L 119.617559 -48.79012 
L 119.950847 -48.93661 
L 120.284135 -49.082992 
L 120.617423 -49.229275 
L 120.950711 -49.375477 
L 121.283999 -49.521626 
L 121.617287 -49.667763 
L 121.950575 -49.813958 
L 122.283863 -49.960312 
L 122.617151 -50.106977 
L 122.950439 -50.254183 
L 123.283727 -50.402274 
L 123.617015 -50.551759 
L 123.950303 -50.703404 
L 124.283592 -50.858359 
L 124.61688 -51.018364 
L 124.950168 -51.186059 
L 125.283456 -51.365444 
L 125.616744 -51.562465 
L 125.950032 -51.78561 
L 126.28332 -52.045995 
L 126.616608 -52.355801 
L 126.949896 -52.7229 
L 127.283184 -53.139183 
L 127.616472 -53.563193 
L 127.94976 -53.91023 
L 128.283048 -54.087511 
L 128.616336 -54.09728 
L 128.949624 -54.044689 
L 129.282913 -54.033003 
L 129.616201 -54.11861 
L 129.949489 -54.309054 
L 130.282777 -54.564601 
L 130.616065 -54.80069 
L 130.949353 -54.924965 
L 131.282641 -54.930581 
L 131.615929 -54.902379 
L 131.949217 -54.926247 
L 132.282505 -55.054675 
L 132.615793 -55.314852 
L 132.949081 -55.721356 
L 133.282369 -56.277754 
L 133.615657 -56.967023 
L 133.948946 -57.745798 
L 134.282234 -58.578508 
L 134.615522 -59.524885 
L 134.94881 -60.722425 
L 135.282098 -62.260149 
L 135.615386 -64.105489 
L 135.948674 -66.090359 
L 136.281962 -67.943178 
L 136.61525 -69.35405 
L 136.948538 -70.155836 
L 137.281826 -70.275015 
L 137.615114 -69.653839 
L 137.948402 -68.324484 
L 138.28169 -66.505606 
L 138.614978 -64.578595 
L 138.948267 -62.845216 
L 139.281555 -61.443276 
L 139.614843 -60.370338 
L 139.948131 -59.552484 
L 140.281419 -58.935355 
L 140.614707 -58.506194 
L 140.947995 -58.250818 
L 141.281283 -58.138006 
L 141.614571 -58.128553 
L 141.947859 -58.186455 
L 142.281147 -58.284298 
L 142.614435 -58.403707 
L 142.947723 -58.53351 
L 143.281011 -58.667469 
L 143.614299 -58.802395 
L 143.947588 -58.936831 
L 144.280876 -59.070236 
L 144.614164 -59.202505 
L 144.947452 -59.333724 
L 145.28074 -59.464032 
L 145.614028 -59.593574 
L 145.947316 -59.722471 
L 146.280604 -59.850819 
L 146.613892 -59.97869 
L 146.94718 -60.106134 
L 147.280468 -60.233188 
L 147.613756 -60.359878 
L 147.947044 -60.48622 
L 148.280332 -60.612224 
L 148.613621 -60.737899 
L 148.946909 -60.863249 
L 149.280197 -60.988276 
L 149.613485 -61.112982 
L 149.946773 -61.237368 
L 150.280061 -61.361433 
L 150.613349 -61.485178 
L 150.946637 -61.608603 
L 151.279925 -61.731707 
L 151.613213 -61.854489 
L 151.946501 -61.976949 
L 152.279789 -62.099087 
L 152.613077 -62.220901 
L 152.946365 -62.342392 
L 153.279653 -62.463558 
L 153.612942 -62.584399 
L 153.94623 -62.704914 
L 154.279518 -62.825104 
L 154.612806 -62.944967 
L 154.946094 -63.064503 
L 155.279382 -63.183711 
L 155.61267 -63.302592 
L 155.945958 -63.421145 
L 156.279246 -63.539368 
L 156.612534 -63.657262 
L 156.945822 -63.774827 
L 157.27911 -63.892062 
L 157.612398 -64.008967 
L 157.945686 -64.125542 
L 158.278975 -64.241785 
L 158.612263 -64.357698 
L 158.945551 -64.47328 
L 159.278839 -64.58853 
L 159.612127 -64.703449 
L 159.945415 -64.818035 
L 160.278703 -64.932289 
L 160.611991 -65.046211 
L 160.945279 -65.159801 
L 161.278567 -65.273058 
L 161.611855 -65.385983 
L 161.945143 -65.498575 
L 162.278431 -65.610834 
L 162.611719 -65.722761 
L 162.945007 -65.834355 
L 163.278296 -65.945616 
L 163.611584 -66.056543 
L 163.944872 -66.167138 
L 164.27816 -66.2774 
L 164.611448 -66.387329 
L 164.944736 -66.496926 
L 165.278024 -66.60619 
L 165.611312 -66.715121 
L 165.9446 -66.82372 
L 166.277888 -66.931986 
L 166.611176 -67.03992 
L 166.944464 -67.147522 
L 167.277752 -67.254792 
L 167.61104 -67.36173 
L 167.944329 -67.468337 
L 168.277617 -67.574612 
L 168.610905 -67.680555 
L 168.944193 -67.786168 
L 169.277481 -67.89145 
L 169.610769 -67.996402 
L 169.944057 -68.101023 
L 170.277345 -68.205315 
L 170.610633 -68.309277 
L 170.943921 -68.412909 
L 171.277209 -68.516212 
L 171.610497 -68.619186 
L 171.943785 -68.721832 
L 172.277073 -68.824149 
L 172.610361 -68.926139 
L 172.94365 -69.027802 
L 173.276938 -69.129138 
L 173.610226 -69.230147 
L 173.943514 -69.33083 
L 174.276802 -69.431187 
L 174.61009 -69.531218 
L 174.943378 -69.630924 
L 175.276666 -69.730305 
L 175.609954 -69.829359 
L 175.943242 -69.928089 
L 176.27653 -70.026495 
L 176.609818 -70.124576 
L 176.943106 -70.222335 
L 177.276394 -70.319772 
L 177.609683 -70.416887 
L 177.942971 -70.513681 
L 178.276259 -70.610155 
L 178.609547 -70.706309 
L 178.942835 -70.802143 
L 179.276123 -70.89766 
L 179.609411 -70.992859 
L 179.942699 -71.087741 
L 180.275987 -71.182306 
L 180.609275 -71.276555 
L 180.942563 -71.37049 
L 181.275851 -71.46411 
L 181.609139 -71.557416 
L 181.942427 -71.650409 
L 182.275715 -71.74309 
L 182.609004 -71.835458 
L 182.942292 -71.927516 
L 183.27558 -72.019263 
L 183.608868 -72.1107 
L 183.942156 -72.201827 
L 184.275444 -72.292647 
L 184.608732 -72.383158 
L 184.94202 -72.473362 
L 185.275308 -72.563259 
L 185.608596 -72.652851 
L 185.941884 -72.742137 
L 186.275172 -72.831118 
L 186.60846 -72.919796 
L 186.941748 -73.00817 
L 187.275037 -73.096241 
L 187.608325 -73.18401 
L 187.941613 -73.271478 
L 188.274901 -73.358645 
L 188.608189 -73.445512 
L 188.941477 -73.53208 
L 189.274765 -73.618349 
L 189.608053 -73.704319 
L 189.941341 -73.789992 
L 190.274629 -73.875369 
L 190.607917 -73.960449 
L 190.941205 -74.045234 
L 191.274493 -74.129723 
L 191.607781 -74.213919 
L 191.941069 -74.297821 
L 192.274358 -74.38143 
L 192.607646 -74.464747 
L 192.940934 -74.547772 
L 193.274222 -74.630506 
L 193.60751 -74.71295 
L 193.940798 -74.795105 
L 194.274086 -74.87697 
L 194.607374 -74.958547 
L 194.940662 -75.039836 
L 195.27395 -75.120839 
L 195.607238 -75.201557 
L 195.940526 -75.281991 
L 196.273814 -75.362142 
L 196.607102 -75.442012 
L 196.940391 -75.5216 
L 197.273679 -75.600907 
L 197.606967 -75.679935 
L 197.940255 -75.758685 
L 198.273543 -75.837156 
L 198.606831 -75.91535 
L 198.940119 -75.993269 
L 199.273407 -76.070912 
L 199.606695 -76.14828 
L 199.939983 -76.225374 
L 200.273271 -76.302196 
L 200.606559 -76.378746 
L 200.939847 -76.455024 
L 201.273135 -76.531033 
L 201.606423 -76.606771 
L 201.939712 -76.682241 
L 202.273 -76.757443 
L 202.606288 -76.832379 
L 202.939576 -76.907048 
L 203.272864 -76.981451 
L 203.606152 -77.05559 
L 203.93944 -77.129466 
L 204.272728 -77.203079 
L 204.606016 -77.276429 
L 204.939304 -77.349519 
L 205.272592 -77.422348 
L 205.60588 -77.494918 
L 205.939168 -77.567229 
L 206.272456 -77.639283 
L 206.605744 -77.711079 
L 206.939033 -77.782619 
L 207.272321 -77.853904 
L 207.605609 -77.924935 
L 207.938897 -77.995712 
L 208.272185 -78.066236 
L 208.605473 -78.136508 
L 208.938761 -78.20653 
L 209.272049 -78.2763 
L 209.605337 -78.345822 
L 209.938625 -78.415095 
L 210.271913 -78.48412 
L 210.605201 -78.552898 
L 210.938489 -78.62143 
L 211.271777 -78.689717 
L 211.605066 -78.757759 
L 211.938354 -78.825558 
L 212.271642 -78.893114 
L 212.60493 -78.960429 
L 212.938218 -79.027502 
L 213.271506 -79.094335 
L 213.604794 -79.160928 
L 213.938082 -79.227283 
L 214.27137 -79.293401 
L 214.604658 -79.359281 
L 214.937946 -79.424926 
L 215.271234 -79.490335 
L 215.604522 -79.55551 
L 215.93781 -79.620451 
L 216.271098 -79.68516 
L 216.604387 -79.749636 
L 216.937675 -79.813882 
L 217.270963 -79.877897 
L 217.604251 -79.941683 
L 217.937539 -80.005241 
L 218.270827 -80.06857 
L 218.604115 -80.131673 
L 218.937403 -80.194549 
L 219.270691 -80.257201 
L 219.603979 -80.319627 
L 219.937267 -80.381828 
L 220.270555 -80.443804 
L 220.603843 -80.505553 
L 220.937131 -80.567075 
L 221.27042 -80.628364 
L 221.603708 -80.689416 
L 221.936996 -80.75022 
L 222.270284 -80.810761 
L 222.603572 -80.871014 
L 222.93686 -80.93094 
L 223.270148 -80.99048 
L 223.603436 -81.049541 
L 223.936724 -81.107983 
L 224.270012 -81.16559 
L 224.6033 -81.222037 
L 224.936588 -81.276837 
L 225.269876 -81.32926 
L 225.603164 -81.378225 
L 225.936452 -81.422148 
L 226.269741 -81.458732 
L 226.603029 -81.484684 
L 226.936317 -81.495369 
L 227.269605 -81.484387 
L 227.602893 -81.443135 
L 227.936181 -81.360446 
L 228.269469 -81.222506 
L 228.602757 -81.013405 
L 228.936045 -80.716806 
L 229.269333 -80.319341 
L 229.602621 -79.816125 
L 229.935909 -79.21806 
L 230.269197 -78.558979 
L 230.602485 -77.898794 
L 230.935774 -77.319025 
L 231.269062 -76.913247 
L 231.60235 -76.776989 
L 231.935638 -76.967061 
L 232.268926 -77.44497 
L 232.602214 -78.118214 
L 232.935502 -78.888238 
L 233.26879 -79.667324 
L 233.602078 -80.390265 
L 233.935366 -81.019467 
L 234.268654 -81.541776 
L 234.601942 -81.960999 
L 234.93523 -82.290211 
L 235.268518 -82.545895 
L 235.601806 -82.744312 
L 235.935095 -82.899678 
L 236.268383 -83.023542 
L 236.601671 -83.12483 
L 236.601671 -154.481707 
L 236.601671 -154.481707 
L 236.268383 -154.379473 
L 235.935095 -154.253567 
L 235.601806 -154.093871 
L 235.268518 -153.886469 
L 234.93523 -153.612594 
L 234.601942 -153.247599 
L 234.268654 -152.760364 
L 233.935366 -152.114046 
L 233.602078 -151.270011 
L 233.26879 -150.198269 
L 232.935502 -148.899193 
L 232.602214 -147.440499 
L 232.268926 -146.003583 
L 231.935638 -144.9015 
L 231.60235 -144.476724 
L 231.269062 -144.871387 
L 230.935774 -145.914722 
L 230.602485 -147.258567 
L 230.269197 -148.600237 
L 229.935909 -149.770287 
L 229.602621 -150.709422 
L 229.269333 -151.421943 
L 228.936045 -151.939884 
L 228.602757 -152.302405 
L 228.269469 -152.546126 
L 227.936181 -152.701638 
L 227.602893 -152.792995 
L 227.269605 -152.838418 
L 226.936317 -152.851366 
L 226.603029 -152.841591 
L 226.269741 -152.816053 
L 225.936452 -152.779656 
L 225.603164 -152.735815 
L 225.269876 -152.686886 
L 224.936588 -152.634479 
L 224.6033 -152.579686 
L 224.270012 -152.523241 
L 223.936724 -152.465635 
L 223.603436 -152.407194 
L 223.270148 -152.348133 
L 222.93686 -152.288593 
L 222.603572 -152.228667 
L 222.270284 -152.168414 
L 221.936996 -152.107873 
L 221.603708 -152.047069 
L 221.27042 -151.986018 
L 220.937131 -151.924728 
L 220.603843 -151.863207 
L 220.270555 -151.801457 
L 219.937267 -151.739481 
L 219.603979 -151.67728 
L 219.270691 -151.614854 
L 218.937403 -151.552203 
L 218.604115 -151.489326 
L 218.270827 -151.426224 
L 217.937539 -151.362894 
L 217.604251 -151.299337 
L 217.270963 -151.235551 
L 216.937675 -151.171535 
L 216.604387 -151.10729 
L 216.271098 -151.042813 
L 215.93781 -150.978104 
L 215.604522 -150.913163 
L 215.271234 -150.847988 
L 214.937946 -150.782579 
L 214.604658 -150.716935 
L 214.27137 -150.651054 
L 213.938082 -150.584937 
L 213.604794 -150.518582 
L 213.271506 -150.451988 
L 212.938218 -150.385155 
L 212.60493 -150.318082 
L 212.271642 -150.250768 
L 211.938354 -150.183212 
L 211.605066 -150.115413 
L 211.271777 -150.04737 
L 210.938489 -149.979083 
L 210.605201 -149.910551 
L 210.271913 -149.841773 
L 209.938625 -149.772748 
L 209.605337 -149.703475 
L 209.272049 -149.633954 
L 208.938761 -149.564183 
L 208.605473 -149.494162 
L 208.272185 -149.42389 
L 207.938897 -149.353365 
L 207.605609 -149.282588 
L 207.272321 -149.211558 
L 206.939033 -149.140273 
L 206.605744 -149.068732 
L 206.272456 -148.996936 
L 205.939168 -148.924883 
L 205.60588 -148.852572 
L 205.272592 -148.780002 
L 204.939304 -148.707172 
L 204.606016 -148.634083 
L 204.272728 -148.560732 
L 203.93944 -148.487119 
L 203.606152 -148.413244 
L 203.272864 -148.339105 
L 202.939576 -148.264701 
L 202.606288 -148.190032 
L 202.273 -148.115097 
L 201.939712 -148.039895 
L 201.606423 -147.964425 
L 201.273135 -147.888686 
L 200.939847 -147.812678 
L 200.606559 -147.736399 
L 200.273271 -147.65985 
L 199.939983 -147.583028 
L 199.606695 -147.505933 
L 199.273407 -147.428565 
L 198.940119 -147.350922 
L 198.606831 -147.273004 
L 198.273543 -147.194809 
L 197.940255 -147.116338 
L 197.606967 -147.037589 
L 197.273679 -146.958561 
L 196.940391 -146.879253 
L 196.607102 -146.799665 
L 196.273814 -146.719796 
L 195.940526 -146.639645 
L 195.607238 -146.55921 
L 195.27395 -146.478492 
L 194.940662 -146.39749 
L 194.607374 -146.316201 
L 194.274086 -146.234624 
L 193.940798 -146.152758 
L 193.60751 -146.070604 
L 193.274222 -145.98816 
L 192.940934 -145.905426 
L 192.607646 -145.8224 
L 192.274358 -145.739084 
L 191.941069 -145.655474 
L 191.607781 -145.571572 
L 191.274493 -145.487377 
L 190.941205 -145.402887 
L 190.607917 -145.318102 
L 190.274629 -145.233022 
L 189.941341 -145.147646 
L 189.608053 -145.061973 
L 189.274765 -144.976002 
L 188.941477 -144.889733 
L 188.608189 -144.803166 
L 188.274901 -144.716299 
L 187.941613 -144.629131 
L 187.608325 -144.541664 
L 187.275037 -144.453894 
L 186.941748 -144.365823 
L 186.60846 -144.277449 
L 186.275172 -144.188771 
L 185.941884 -144.09979 
L 185.608596 -144.010504 
L 185.275308 -143.920913 
L 184.94202 -143.831015 
L 184.608732 -143.740811 
L 184.275444 -143.6503 
L 183.942156 -143.559481 
L 183.608868 -143.468353 
L 183.27558 -143.376916 
L 182.942292 -143.285169 
L 182.609004 -143.193112 
L 182.275715 -143.100743 
L 181.942427 -143.008062 
L 181.609139 -142.915069 
L 181.275851 -142.821763 
L 180.942563 -142.728143 
L 180.609275 -142.634209 
L 180.275987 -142.539959 
L 179.942699 -142.445394 
L 179.609411 -142.350512 
L 179.276123 -142.255313 
L 178.942835 -142.159797 
L 178.609547 -142.063962 
L 178.276259 -141.967808 
L 177.942971 -141.871334 
L 177.609683 -141.77454 
L 177.276394 -141.677425 
L 176.943106 -141.579989 
L 176.609818 -141.48223 
L 176.27653 -141.384148 
L 175.943242 -141.285742 
L 175.609954 -141.187013 
L 175.276666 -141.087958 
L 174.943378 -140.988578 
L 174.61009 -140.888872 
L 174.276802 -140.78884 
L 173.943514 -140.688483 
L 173.610226 -140.5878 
L 173.276938 -140.486791 
L 172.94365 -140.385455 
L 172.610361 -140.283793 
L 172.277073 -140.181803 
L 171.943785 -140.079485 
L 171.610497 -139.976839 
L 171.277209 -139.873865 
L 170.943921 -139.770562 
L 170.610633 -139.66693 
L 170.277345 -139.562968 
L 169.944057 -139.458677 
L 169.610769 -139.354055 
L 169.277481 -139.249104 
L 168.944193 -139.143822 
L 168.610905 -139.038209 
L 168.277617 -138.932265 
L 167.944329 -138.82599 
L 167.61104 -138.719384 
L 167.277752 -138.612446 
L 166.944464 -138.505176 
L 166.611176 -138.397574 
L 166.277888 -138.28964 
L 165.9446 -138.181373 
L 165.611312 -138.072774 
L 165.278024 -137.963843 
L 164.944736 -137.854579 
L 164.611448 -137.744983 
L 164.27816 -137.635053 
L 163.944872 -137.524792 
L 163.611584 -137.414197 
L 163.278296 -137.303269 
L 162.945007 -137.192008 
L 162.611719 -137.080414 
L 162.278431 -136.968488 
L 161.945143 -136.856228 
L 161.611855 -136.743636 
L 161.278567 -136.630712 
L 160.945279 -136.517454 
L 160.611991 -136.403865 
L 160.278703 -136.289943 
L 159.945415 -136.175688 
L 159.612127 -136.061102 
L 159.278839 -135.946184 
L 158.945551 -135.830933 
L 158.612263 -135.715352 
L 158.278975 -135.599439 
L 157.945686 -135.483195 
L 157.612398 -135.36662 
L 157.27911 -135.249716 
L 156.945822 -135.132481 
L 156.612534 -135.014916 
L 156.279246 -134.897022 
L 155.945958 -134.778798 
L 155.61267 -134.660246 
L 155.279382 -134.541365 
L 154.946094 -134.422156 
L 154.612806 -134.30262 
L 154.279518 -134.182757 
L 153.94623 -134.062568 
L 153.612942 -133.942052 
L 153.279653 -133.821211 
L 152.946365 -133.700045 
L 152.613077 -133.578555 
L 152.279789 -133.45674 
L 151.946501 -133.334603 
L 151.613213 -133.212142 
L 151.279925 -133.08936 
L 150.946637 -132.966256 
L 150.613349 -132.842831 
L 150.280061 -132.719086 
L 149.946773 -132.595021 
L 149.613485 -132.470635 
L 149.280197 -132.345929 
L 148.946909 -132.220902 
L 148.613621 -132.095553 
L 148.280332 -131.969878 
L 147.947044 -131.843873 
L 147.613756 -131.717531 
L 147.280468 -131.590841 
L 146.94718 -131.463786 
L 146.613892 -131.33634 
L 146.280604 -131.208466 
L 145.947316 -131.08011 
L 145.614028 -130.951193 
L 145.28074 -130.821607 
L 144.947452 -130.691198 
L 144.614164 -130.559755 
L 144.280876 -130.426991 
L 143.947588 -130.292516 
L 143.614299 -130.155803 
L 143.281011 -130.016135 
L 142.947723 -129.872532 
L 142.614435 -129.723668 
L 142.281147 -129.56784 
L 141.947859 -129.403209 
L 141.614571 -129.228894 
L 141.281283 -129.048136 
L 140.947995 -128.875578 
L 140.614707 -128.750681 
L 140.281419 -128.755309 
L 139.948131 -129.019333 
L 139.614843 -129.671818 
L 139.281555 -130.716192 
L 138.948267 -132.020151 
L 138.614978 -133.425959 
L 138.28169 -134.790589 
L 137.948402 -135.975683 
L 137.615114 -136.828053 
L 137.281826 -137.203083 
L 136.948538 -137.030307 
L 136.61525 -136.369831 
L 136.281962 -135.285223 
L 135.948674 -133.882089 
L 135.615386 -132.403898 
L 135.282098 -131.024727 
L 134.94881 -129.787998 
L 134.615522 -128.705094 
L 134.282234 -127.814209 
L 133.948946 -127.164138 
L 133.615657 -126.737148 
L 133.282369 -126.445991 
L 132.949081 -126.207679 
L 132.615793 -125.971228 
L 132.282505 -125.710454 
L 131.949217 -125.413796 
L 131.615929 -125.084921 
L 131.282641 -124.754098 
L 130.949353 -124.485888 
L 130.616065 -124.348312 
L 130.282777 -124.331978 
L 129.949489 -124.354068 
L 129.616201 -124.338551 
L 129.282913 -124.245985 
L 128.949624 -124.071966 
L 128.616336 -123.846151 
L 128.283048 -123.631912 
L 127.94976 -123.496806 
L 127.616472 -123.443611 
L 127.283184 -123.415671 
L 126.949896 -123.365223 
L 126.616608 -123.275691 
L 126.28332 -123.151717 
L 125.950032 -123.005272 
L 125.616744 -122.84754 
L 125.283456 -122.686192 
L 124.950168 -122.525476 
L 124.61688 -122.367223 
L 124.283592 -122.211861 
L 123.950303 -122.059133 
L 123.617015 -121.908535 
L 123.283727 -121.759532 
L 122.950439 -121.611661 
L 122.617151 -121.464553 
L 122.283863 -121.317932 
L 121.950575 -121.171597 
L 121.617287 -121.025411 
L 121.283999 -120.879276 
L 120.950711 -120.73313 
L 120.617423 -120.586928 
L 120.284135 -120.440645 
L 119.950847 -120.294264 
L 119.617559 -120.147774 
L 119.28427 -120.00117 
L 118.950982 -119.85445 
L 118.617694 -119.707614 
L 118.284406 -119.560663 
L 117.951118 -119.413599 
L 117.61783 -119.266424 
L 117.284542 -119.119141 
L 116.951254 -118.971755 
L 116.617966 -118.824268 
L 116.284678 -118.676683 
L 115.95139 -118.529005 
L 115.618102 -118.381237 
L 115.284814 -118.233383 
L 114.951526 -118.085446 
L 114.618238 -117.937432 
L 114.284949 -117.789343 
L 113.951661 -117.641183 
L 113.618373 -117.492957 
L 113.285085 -117.344668 
L 112.951797 -117.19632 
L 112.618509 -117.047918 
L 112.285221 -116.899465 
L 111.951933 -116.750966 
L 111.618645 -116.602425 
L 111.285357 -116.453846 
L 110.952069 -116.305232 
L 110.618781 -116.156589 
L 110.285493 -116.00792 
L 109.952205 -115.85923 
L 109.618916 -115.710523 
L 109.285628 -115.561804 
L 108.95234 -115.413076 
L 108.619052 -115.264343 
L 108.285764 -115.115611 
L 107.952476 -114.966884 
L 107.619188 -114.818165 
L 107.2859 -114.669461 
L 106.952612 -114.520774 
L 106.619324 -114.372109 
L 106.286036 -114.223472 
L 105.952748 -114.074866 
L 105.61946 -113.926295 
L 105.286172 -113.777766 
L 104.952884 -113.629281 
L 104.619595 -113.480846 
L 104.286307 -113.332465 
L 103.953019 -113.184143 
L 103.619731 -113.035884 
L 103.286443 -112.887694 
L 102.953155 -112.739576 
L 102.619867 -112.591536 
L 102.286579 -112.443577 
L 101.953291 -112.295706 
L 101.620003 -112.147926 
L 101.286715 -112.000243 
L 100.953427 -111.85266 
L 100.620139 -111.705183 
L 100.286851 -111.557817 
L 99.953562 -111.410566 
L 99.620274 -111.263435 
L 99.286986 -111.116429 
L 98.953698 -110.969553 
L 98.62041 -110.822812 
L 98.287122 -110.676209 
L 97.953834 -110.529751 
L 97.620546 -110.383442 
L 97.287258 -110.237286 
L 96.95397 -110.091289 
L 96.620682 -109.945456 
L 96.287394 -109.799791 
L 95.954106 -109.654299 
L 95.620818 -109.508986 
L 95.28753 -109.363855 
L 94.954241 -109.218912 
L 94.620953 -109.074162 
L 94.287665 -108.929609 
L 93.954377 -108.785259 
L 93.621089 -108.641116 
L 93.287801 -108.497185 
L 92.954513 -108.353471 
L 92.621225 -108.209978 
L 92.287937 -108.066713 
L 91.954649 -107.923679 
L 91.621361 -107.780882 
L 91.288073 -107.638325 
L 90.954785 -107.496015 
L 90.621497 -107.353956 
L 90.288208 -107.212152 
L 89.95492 -107.07061 
L 89.621632 -106.929332 
L 89.288344 -106.788325 
L 88.955056 -106.647592 
L 88.621768 -106.50714 
L 88.28848 -106.366972 
L 87.955192 -106.227093 
L 87.621904 -106.087508 
L 87.288616 -105.948223 
L 86.955328 -105.80924 
L 86.62204 -105.670567 
L 86.288752 -105.532208 
L 85.955464 -105.394165 
L 85.622176 -105.256443 
L 85.288887 -105.119046 
L 84.955599 -104.981979 
L 84.622311 -104.84525 
L 84.289023 -104.708862 
L 83.955735 -104.572822 
L 83.622447 -104.437132 
L 83.289159 -104.301799 
L 82.955871 -104.166825 
L 82.622583 -104.032217 
L 82.289295 -103.897978 
L 81.956007 -103.764112 
L 81.622719 -103.630626 
L 81.289431 -103.497521 
L 80.956143 -103.364805 
L 80.622855 -103.23248 
L 80.289566 -103.100552 
L 79.956278 -102.969024 
L 79.62299 -102.837902 
L 79.289702 -102.70719 
L 78.956414 -102.576893 
L 78.623126 -102.447014 
L 78.289838 -102.317559 
L 77.95655 -102.188532 
L 77.623262 -102.059937 
L 77.289974 -101.93178 
L 76.956686 -101.804064 
L 76.623398 -101.676793 
L 76.29011 -101.549971 
L 75.956822 -101.423603 
L 75.623533 -101.297695 
L 75.290245 -101.172252 
L 74.956957 -101.047281 
L 74.623669 -100.922787 
L 74.290381 -100.798776 
L 73.957093 -100.675254 
L 73.623805 -100.552228 
L 73.290517 -100.429701 
L 72.957229 -100.307682 
L 72.623941 -100.186174 
L 72.290653 -100.065185 
L 71.957365 -99.94472 
L 71.624077 -99.824785 
L 71.290789 -99.705386 
L 70.957501 -99.586528 
L 70.624212 -99.468218 
L 70.290924 -99.350461 
L 69.957636 -99.233263 
L 69.624348 -99.116631 
L 69.29106 -99.000568 
L 68.957772 -98.885072 
L 68.624484 -98.770151 
L 68.291196 -98.655825 
L 67.957908 -98.542108 
L 67.62462 -98.429018 
L 67.291332 -98.316572 
L 66.958044 -98.204787 
L 66.624756 -98.09368 
L 66.291468 -97.983267 
L 65.958179 -97.873566 
L 65.624891 -97.764594 
L 65.291603 -97.656367 
L 64.958315 -97.548902 
L 64.625027 -97.442216 
L 64.291739 -97.336326 
L 63.958451 -97.231249 
L 63.625163 -97.127002 
L 63.291875 -97.0236 
L 62.958587 -96.921041 
L 62.625299 -96.819368 
L 62.292011 -96.718648 
L 61.958723 -96.618948 
L 61.625435 -96.520334 
L 61.292147 -96.42287 
L 60.958858 -96.326619 
L 60.62557 -96.23164 
L 60.292282 -96.137989 
L 59.958994 -96.045713 
L 59.625706 -95.954852 
L 59.292418 -95.865426 
L 58.95913 -95.777432 
L 58.625842 -95.690826 
L 58.292554 -95.605505 
L 57.959266 -95.521437 
L 57.625978 -95.438491 
L 57.29269 -95.356351 
L 56.959402 -95.274434 
L 56.626114 -95.191764 
L 56.292825 -95.106799 
L 55.959537 -95.017186 
L 55.626249 -94.919422 
L 55.292961 -94.808392 
L 54.959673 -94.676723 
L 54.626385 -94.514225 
L 54.293097 -94.306999 
L 53.959809 -94.036222 
L 53.626521 -93.677647 
L 53.293233 -93.202633 
L 52.959945 -92.582682 
L 52.626657 -91.800415 
L 52.293369 -90.868889 
L 51.960081 -89.85363 
L 51.626793 -88.870836 
L 51.293504 -88.00689 
L 50.960216 -87.230384 
L 50.626928 -86.524264 
L 50.29364 -86.025752 
L 49.960352 -86.013597 
L 49.627064 -86.683741 
L 49.293776 -87.877585 
L 48.960488 -89.272801 
L 48.6272 -90.609031 
L 48.293912 -91.730712 
L 47.960624 -92.561152 
L 47.627336 -93.072166 
L 47.294048 -93.272798 
L 46.96076 -93.210776 
L 46.627471 -92.96929 
L 46.294183 -92.62978 
L 45.960895 -92.249457 
L 45.627607 -91.961137 
L 45.294319 -92.024179 
L 44.961031 -92.734788 
L 44.627743 -94.211724 
L 44.294455 -96.162716 
L 43.961167 -98.170158 
L 43.627879 -100.018583 
L 43.294591 -101.816341 
L 42.961303 -103.898967 
L 42.628015 -106.56082 
L 42.294727 -109.771965 
L 41.961439 -113.345108 
L 41.62815 -117.202142 
L 41.294862 -121.457668 
L 40.961574 -126.368025 
L 40.628286 -132.183995 
L 40.294998 -139.00257 
L 39.96171 -146.89894 
L 39.628422 -155.903645 
L 39.295134 -165.826169 
L 38.961846 -176.377308 
L 38.628558 -187.194307 
L 38.29527 -197.816796 
L 37.961982 -207.970474 
L 37.628694 -217.616549 
L 37.295406 -226.843469 
L 36.962117 -235.970522 
z
"/>
    </defs>
    <g clip-path="url(#pf505473f74)">
     <use xlink:href="#m231f7b822c" x="0" y="236.88" style="fill: #888578; fill-opacity: 0.4"/>
    </g>
   </g>
   <g id="matplotlib.axis_1">
    <g id="xtick_1">
     <g id="line2d_1">
      <defs>
       <path id="mecc554506d" d="M 0 0 
L 0 2.5 
" style="stroke: #000000; stroke-width: 1.1"/>
      </defs>
      <g>
       <use xlink:href="#mecc554506d" x="36.962117" y="203.917368" style="stroke: #000000; stroke-width: 1.1"/>
      </g>
     </g>
     <g id="line2d_2">
      <defs>
       <path id="mf619477f52" d="M 0 0 
L 0 -2.5 
" style="stroke: #000000; stroke-width: 1.1"/>
      </defs>
      <g>
       <use xlink:href="#mf619477f52" x="36.962117" y="7.14916" style="stroke: #000000; stroke-width: 1.1"/>
      </g>
     </g>
     <g id="text_1">
      <!-- $\mathdefault{0}$ -->
      <g transform="translate(34.192535 217.015688) scale(0.1 -0.1)">
       <defs>
        <path id="NimbusSanL-Regu-30" d="M 1760 4544 
C 1338 4544 954 4360 717 4046 
C 422 3651 275 3044 275 2208 
C 275 683 787 -128 1760 -128 
C 2720 -128 3245 683 3245 2170 
C 3245 3050 3104 3638 2803 4046 
C 2566 4366 2189 4544 1760 4544 
z
M 1760 4044 
C 2368 4044 2669 3432 2669 2221 
C 2669 939 2374 340 1747 340 
C 1152 340 851 965 851 2202 
C 851 3438 1152 4044 1760 4044 
z
" transform="scale(0.015625)"/>
       </defs>
       <use xlink:href="#NimbusSanL-Regu-30" transform="scale(0.996264)"/>
      </g>
     </g>
    </g>
    <g id="xtick_2">
     <g id="line2d_3">
      <g>
       <use xlink:href="#mecc554506d" x="103.508635" y="203.917368" style="stroke: #000000; stroke-width: 1.1"/>
      </g>
     </g>
     <g id="line2d_4">
      <g>
       <use xlink:href="#mf619477f52" x="103.508635" y="7.14916" style="stroke: #000000; stroke-width: 1.1"/>
      </g>
     </g>
     <g id="text_2">
      <!-- $\mathdefault{1000}$ -->
      <g transform="translate(92.430306 217.015688) scale(0.1 -0.1)">
       <defs>
        <path id="NimbusSanL-Regu-31" d="M 1658 3238 
L 1658 0 
L 2221 0 
L 2221 4545 
L 1850 4545 
C 1651 3847 1523 3751 653 3642 
L 653 3238 
L 1658 3238 
z
" transform="scale(0.015625)"/>
       </defs>
       <use xlink:href="#NimbusSanL-Regu-31" transform="scale(0.996264)"/>
       <use xlink:href="#NimbusSanL-Regu-30" transform="translate(55.391677 0) scale(0.996264)"/>
       <use xlink:href="#NimbusSanL-Regu-30" transform="translate(110.783354 0) scale(0.996264)"/>
       <use xlink:href="#NimbusSanL-Regu-30" transform="translate(166.175031 0) scale(0.996264)"/>
      </g>
     </g>
    </g>
    <g id="xtick_3">
     <g id="line2d_5">
      <g>
       <use xlink:href="#mecc554506d" x="170.055153" y="203.917368" style="stroke: #000000; stroke-width: 1.1"/>
      </g>
     </g>
     <g id="line2d_6">
      <g>
       <use xlink:href="#mf619477f52" x="170.055153" y="7.14916" style="stroke: #000000; stroke-width: 1.1"/>
      </g>
     </g>
     <g id="text_3">
      <!-- $\mathdefault{2000}$ -->
      <g transform="translate(158.976824 217.015688) scale(0.1 -0.1)">
       <defs>
        <path id="NimbusSanL-Regu-32" d="M 3238 558 
L 851 558 
C 909 930 1114 1167 1670 1494 
L 2310 1840 
C 2944 2186 3270 2653 3270 3211 
C 3270 3589 3117 3942 2848 4185 
C 2579 4429 2246 4544 1818 4544 
C 1242 4544 813 4339 563 3955 
C 403 3711 333 3429 320 2967 
L 883 2967 
C 902 3275 941 3461 1018 3608 
C 1165 3884 1459 4051 1798 4051 
C 2310 4051 2694 3685 2694 3198 
C 2694 2839 2483 2531 2080 2301 
L 1491 1968 
C 544 1430 269 1000 218 0 
L 3238 0 
L 3238 558 
z
" transform="scale(0.015625)"/>
       </defs>
       <use xlink:href="#NimbusSanL-Regu-32" transform="scale(0.996264)"/>
       <use xlink:href="#NimbusSanL-Regu-30" transform="translate(55.391677 0) scale(0.996264)"/>
       <use xlink:href="#NimbusSanL-Regu-30" transform="translate(110.783354 0) scale(0.996264)"/>
       <use xlink:href="#NimbusSanL-Regu-30" transform="translate(166.175031 0) scale(0.996264)"/>
      </g>
     </g>
    </g>
    <g id="xtick_4">
     <g id="line2d_7">
      <g>
       <use xlink:href="#mecc554506d" x="236.601671" y="203.917368" style="stroke: #000000; stroke-width: 1.1"/>
      </g>
     </g>
     <g id="line2d_8">
      <g>
       <use xlink:href="#mf619477f52" x="236.601671" y="7.14916" style="stroke: #000000; stroke-width: 1.1"/>
      </g>
     </g>
     <g id="text_4">
      <!-- $\mathdefault{3000}$ -->
      <g transform="translate(225.523341 217.015688) scale(0.1 -0.1)">
       <defs>
        <path id="NimbusSanL-Regu-33" d="M 1414 2112 
L 1485 2112 
L 1722 2112 
C 2342 2112 2662 1830 2662 1284 
C 2662 712 2310 372 1722 372 
C 1107 372 806 681 768 1345 
L 205 1345 
C 230 978 294 740 403 534 
C 634 97 1082 -128 1702 -128 
C 2637 -128 3238 431 3238 1293 
C 3238 1872 3014 2194 2470 2381 
C 2893 2546 3104 2862 3104 3311 
C 3104 4082 2586 4544 1722 4544 
C 806 4544 320 4050 301 3095 
L 864 3095 
C 870 3366 896 3517 966 3655 
C 1094 3900 1376 4051 1728 4051 
C 2227 4051 2528 3760 2528 3287 
C 2528 2971 2413 2781 2163 2681 
C 2010 2618 1811 2592 1414 2592 
L 1414 2112 
z
" transform="scale(0.015625)"/>
       </defs>
       <use xlink:href="#NimbusSanL-Regu-33" transform="scale(0.996264)"/>
       <use xlink:href="#NimbusSanL-Regu-30" transform="translate(55.391677 0) scale(0.996264)"/>
       <use xlink:href="#NimbusSanL-Regu-30" transform="translate(110.783354 0) scale(0.996264)"/>
       <use xlink:href="#NimbusSanL-Regu-30" transform="translate(166.175031 0) scale(0.996264)"/>
      </g>
     </g>
    </g>
    <g id="xtick_5">
     <g id="line2d_9">
      <g>
       <use xlink:href="#mecc554506d" x="50.271421" y="203.917368" style="stroke: #000000; stroke-width: 1.1"/>
      </g>
     </g>
     <g id="line2d_10">
      <g>
       <use xlink:href="#mf619477f52" x="50.271421" y="7.14916" style="stroke: #000000; stroke-width: 1.1"/>
      </g>
     </g>
    </g>
    <g id="xtick_6">
     <g id="line2d_11">
      <g>
       <use xlink:href="#mecc554506d" x="63.580725" y="203.917368" style="stroke: #000000; stroke-width: 1.1"/>
      </g>
     </g>
     <g id="line2d_12">
      <g>
       <use xlink:href="#mf619477f52" x="63.580725" y="7.14916" style="stroke: #000000; stroke-width: 1.1"/>
      </g>
     </g>
    </g>
    <g id="xtick_7">
     <g id="line2d_13">
      <g>
       <use xlink:href="#mecc554506d" x="76.890028" y="203.917368" style="stroke: #000000; stroke-width: 1.1"/>
      </g>
     </g>
     <g id="line2d_14">
      <g>
       <use xlink:href="#mf619477f52" x="76.890028" y="7.14916" style="stroke: #000000; stroke-width: 1.1"/>
      </g>
     </g>
    </g>
    <g id="xtick_8">
     <g id="line2d_15">
      <g>
       <use xlink:href="#mecc554506d" x="90.199332" y="203.917368" style="stroke: #000000; stroke-width: 1.1"/>
      </g>
     </g>
     <g id="line2d_16">
      <g>
       <use xlink:href="#mf619477f52" x="90.199332" y="7.14916" style="stroke: #000000; stroke-width: 1.1"/>
      </g>
     </g>
    </g>
    <g id="xtick_9">
     <g id="line2d_17">
      <g>
       <use xlink:href="#mecc554506d" x="116.817939" y="203.917368" style="stroke: #000000; stroke-width: 1.1"/>
      </g>
     </g>
     <g id="line2d_18">
      <g>
       <use xlink:href="#mf619477f52" x="116.817939" y="7.14916" style="stroke: #000000; stroke-width: 1.1"/>
      </g>
     </g>
    </g>
    <g id="xtick_10">
     <g id="line2d_19">
      <g>
       <use xlink:href="#mecc554506d" x="130.127242" y="203.917368" style="stroke: #000000; stroke-width: 1.1"/>
      </g>
     </g>
     <g id="line2d_20">
      <g>
       <use xlink:href="#mf619477f52" x="130.127242" y="7.14916" style="stroke: #000000; stroke-width: 1.1"/>
      </g>
     </g>
    </g>
    <g id="xtick_11">
     <g id="line2d_21">
      <g>
       <use xlink:href="#mecc554506d" x="143.436546" y="203.917368" style="stroke: #000000; stroke-width: 1.1"/>
      </g>
     </g>
     <g id="line2d_22">
      <g>
       <use xlink:href="#mf619477f52" x="143.436546" y="7.14916" style="stroke: #000000; stroke-width: 1.1"/>
      </g>
     </g>
    </g>
    <g id="xtick_12">
     <g id="line2d_23">
      <g>
       <use xlink:href="#mecc554506d" x="156.745849" y="203.917368" style="stroke: #000000; stroke-width: 1.1"/>
      </g>
     </g>
     <g id="line2d_24">
      <g>
       <use xlink:href="#mf619477f52" x="156.745849" y="7.14916" style="stroke: #000000; stroke-width: 1.1"/>
      </g>
     </g>
    </g>
    <g id="xtick_13">
     <g id="line2d_25">
      <g>
       <use xlink:href="#mecc554506d" x="183.364457" y="203.917368" style="stroke: #000000; stroke-width: 1.1"/>
      </g>
     </g>
     <g id="line2d_26">
      <g>
       <use xlink:href="#mf619477f52" x="183.364457" y="7.14916" style="stroke: #000000; stroke-width: 1.1"/>
      </g>
     </g>
    </g>
    <g id="xtick_14">
     <g id="line2d_27">
      <g>
       <use xlink:href="#mecc554506d" x="196.67376" y="203.917368" style="stroke: #000000; stroke-width: 1.1"/>
      </g>
     </g>
     <g id="line2d_28">
      <g>
       <use xlink:href="#mf619477f52" x="196.67376" y="7.14916" style="stroke: #000000; stroke-width: 1.1"/>
      </g>
     </g>
    </g>
    <g id="xtick_15">
     <g id="line2d_29">
      <g>
       <use xlink:href="#mecc554506d" x="209.983064" y="203.917368" style="stroke: #000000; stroke-width: 1.1"/>
      </g>
     </g>
     <g id="line2d_30">
      <g>
       <use xlink:href="#mf619477f52" x="209.983064" y="7.14916" style="stroke: #000000; stroke-width: 1.1"/>
      </g>
     </g>
    </g>
    <g id="xtick_16">
     <g id="line2d_31">
      <g>
       <use xlink:href="#mecc554506d" x="223.292367" y="203.917368" style="stroke: #000000; stroke-width: 1.1"/>
      </g>
     </g>
     <g id="line2d_32">
      <g>
       <use xlink:href="#mf619477f52" x="223.292367" y="7.14916" style="stroke: #000000; stroke-width: 1.1"/>
      </g>
     </g>
    </g>
    <g id="text_5">
     <!-- Time [min] -->
     <g transform="translate(110.710539 230.945827) scale(0.11 -0.11)">
      <defs>
       <path id="NimbusSanL-Regu-54" d="M 2266 4146 
L 3795 4146 
L 3795 4672 
L 134 4672 
L 134 4146 
L 1670 4146 
L 1670 -14 
L 2266 -14 
L 2266 4146 
z
" transform="scale(0.015625)"/>
       <path id="NimbusSanL-Regu-69" d="M 960 3359 
L 429 3359 
L 429 0 
L 960 0 
L 960 3359 
z
M 960 4672 
L 422 4672 
L 422 3999 
L 960 3999 
L 960 4672 
z
" transform="scale(0.015625)"/>
       <path id="NimbusSanL-Regu-6d" d="M 448 3359 
L 448 0 
L 986 0 
L 986 2109 
C 986 2597 1338 2988 1773 2988 
C 2170 2988 2394 2744 2394 2314 
L 2394 0 
L 2931 0 
L 2931 2109 
C 2931 2597 3283 2988 3718 2988 
C 4109 2988 4339 2738 4339 2314 
L 4339 0 
L 4877 0 
L 4877 2520 
C 4877 3122 4531 3456 3904 3456 
C 3456 3456 3187 3321 2874 2943 
C 2675 3302 2406 3456 1971 3456 
C 1523 3456 1229 3289 941 2885 
L 941 3359 
L 448 3359 
z
" transform="scale(0.015625)"/>
       <path id="NimbusSanL-Regu-65" d="M 3283 1529 
C 3283 2034 3245 2338 3149 2584 
C 2931 3127 2419 3456 1792 3456 
C 858 3456 256 2742 256 1645 
C 256 547 838 -128 1779 -128 
C 2547 -128 3078 310 3213 1044 
L 2675 1044 
C 2528 598 2227 365 1798 365 
C 1459 365 1171 520 992 805 
C 864 998 819 1193 813 1529 
L 3283 1529 
z
M 826 1984 
C 870 2577 1248 2962 1786 2962 
C 2310 2962 2714 2530 2714 1984 
C 2714 1984 2714 1984 2707 1984 
L 826 1984 
z
" transform="scale(0.015625)"/>
       <path id="NimbusSanL-Regu-5b" d="M 1600 4672 
L 410 4672 
L 410 -1357 
L 1600 -1357 
L 1600 -896 
L 941 -896 
L 941 4210 
L 1600 4210 
L 1600 4672 
z
" transform="scale(0.015625)"/>
       <path id="NimbusSanL-Regu-6e" d="M 448 3359 
L 448 0 
L 986 0 
L 986 1853 
C 986 2539 1344 2988 1894 2988 
C 2317 2988 2586 2731 2586 2327 
L 2586 0 
L 3117 0 
L 3117 2539 
C 3117 3097 2701 3456 2054 3456 
C 1555 3456 1235 3263 941 2796 
L 941 3359 
L 448 3359 
z
" transform="scale(0.015625)"/>
       <path id="NimbusSanL-Regu-5d" d="M 147 -1357 
L 1338 -1357 
L 1338 4672 
L 147 4672 
L 147 4210 
L 806 4210 
L 806 -896 
L 147 -896 
L 147 -1357 
z
" transform="scale(0.015625)"/>
      </defs>
      <use xlink:href="#NimbusSanL-Regu-54" transform="scale(0.996264)"/>
      <use xlink:href="#NimbusSanL-Regu-69" transform="translate(60.871631 0) scale(0.996264)"/>
      <use xlink:href="#NimbusSanL-Regu-6d" transform="translate(82.988415 0) scale(0.996264)"/>
      <use xlink:href="#NimbusSanL-Regu-65" transform="translate(165.976845 0) scale(0.996264)"/>
      <use xlink:href="#NimbusSanL-Regu-5b" transform="translate(249.063692 0) scale(0.996264)"/>
      <use xlink:href="#NimbusSanL-Regu-6d" transform="translate(276.758861 0) scale(0.996264)"/>
      <use xlink:href="#NimbusSanL-Regu-69" transform="translate(359.747292 0) scale(0.996264)"/>
      <use xlink:href="#NimbusSanL-Regu-6e" transform="translate(381.864076 0) scale(0.996264)"/>
      <use xlink:href="#NimbusSanL-Regu-5d" transform="translate(437.255753 0) scale(0.996264)"/>
     </g>
    </g>
   </g>
   <g id="matplotlib.axis_2">
    <g id="ytick_1">
     <g id="line2d_33">
      <defs>
       <path id="m757b300fd9" d="M 0 0 
L -2.5 0 
" style="stroke: #000000; stroke-width: 1.1"/>
      </defs>
      <g>
       <use xlink:href="#m757b300fd9" x="35.96392" y="194.547454" style="stroke: #000000; stroke-width: 1.1"/>
      </g>
     </g>
     <g id="line2d_34">
      <defs>
       <path id="me902f8c4e4" d="M 0 0 
L 2.5 0 
" style="stroke: #000000; stroke-width: 1.1"/>
      </defs>
      <g>
       <use xlink:href="#me902f8c4e4" x="236.601671" y="194.547454" style="stroke: #000000; stroke-width: 1.1"/>
      </g>
     </g>
     <g id="text_6">
      <!-- $\mathdefault{0}$ -->
      <g transform="translate(24.424755 198.096614) scale(0.1 -0.1)">
       <use xlink:href="#NimbusSanL-Regu-30" transform="scale(0.996264)"/>
      </g>
     </g>
    </g>
    <g id="ytick_2">
     <g id="line2d_35">
      <g>
       <use xlink:href="#m757b300fd9" x="35.96392" y="171.122667" style="stroke: #000000; stroke-width: 1.1"/>
      </g>
     </g>
     <g id="line2d_36">
      <g>
       <use xlink:href="#me902f8c4e4" x="236.601671" y="171.122667" style="stroke: #000000; stroke-width: 1.1"/>
      </g>
     </g>
     <g id="text_7">
      <!-- $\mathdefault{5}$ -->
      <g transform="translate(24.424755 174.671827) scale(0.1 -0.1)">
       <defs>
        <path id="NimbusSanL-Regu-35" d="M 3046 4544 
L 704 4544 
L 365 2086 
L 883 2086 
C 1146 2399 1363 2508 1715 2508 
C 2323 2508 2707 2092 2707 1421 
C 2707 768 2330 372 1715 372 
C 1222 372 922 621 787 1133 
L 224 1133 
C 301 762 365 582 499 415 
C 755 70 1216 -128 1728 -128 
C 2643 -128 3283 537 3283 1497 
C 3283 2394 2688 3008 1818 3008 
C 1498 3008 1242 2925 979 2732 
L 1158 3987 
L 3046 3987 
L 3046 4544 
z
" transform="scale(0.015625)"/>
       </defs>
       <use xlink:href="#NimbusSanL-Regu-35" transform="scale(0.996264)"/>
      </g>
     </g>
    </g>
    <g id="ytick_3">
     <g id="line2d_37">
      <g>
       <use xlink:href="#m757b300fd9" x="35.96392" y="147.69788" style="stroke: #000000; stroke-width: 1.1"/>
      </g>
     </g>
     <g id="line2d_38">
      <g>
       <use xlink:href="#me902f8c4e4" x="236.601671" y="147.69788" style="stroke: #000000; stroke-width: 1.1"/>
      </g>
     </g>
     <g id="text_8">
      <!-- $\mathdefault{10}$ -->
      <g transform="translate(18.88559 151.24704) scale(0.1 -0.1)">
       <use xlink:href="#NimbusSanL-Regu-31" transform="scale(0.996264)"/>
       <use xlink:href="#NimbusSanL-Regu-30" transform="translate(55.391677 0) scale(0.996264)"/>
      </g>
     </g>
    </g>
    <g id="ytick_4">
     <g id="line2d_39">
      <g>
       <use xlink:href="#m757b300fd9" x="35.96392" y="124.273093" style="stroke: #000000; stroke-width: 1.1"/>
      </g>
     </g>
     <g id="line2d_40">
      <g>
       <use xlink:href="#me902f8c4e4" x="236.601671" y="124.273093" style="stroke: #000000; stroke-width: 1.1"/>
      </g>
     </g>
     <g id="text_9">
      <!-- $\mathdefault{15}$ -->
      <g transform="translate(18.88559 127.822254) scale(0.1 -0.1)">
       <use xlink:href="#NimbusSanL-Regu-31" transform="scale(0.996264)"/>
       <use xlink:href="#NimbusSanL-Regu-35" transform="translate(55.391677 0) scale(0.996264)"/>
      </g>
     </g>
    </g>
    <g id="ytick_5">
     <g id="line2d_41">
      <g>
       <use xlink:href="#m757b300fd9" x="35.96392" y="100.848307" style="stroke: #000000; stroke-width: 1.1"/>
      </g>
     </g>
     <g id="line2d_42">
      <g>
       <use xlink:href="#me902f8c4e4" x="236.601671" y="100.848307" style="stroke: #000000; stroke-width: 1.1"/>
      </g>
     </g>
     <g id="text_10">
      <!-- $\mathdefault{20}$ -->
      <g transform="translate(18.88559 104.397467) scale(0.1 -0.1)">
       <use xlink:href="#NimbusSanL-Regu-32" transform="scale(0.996264)"/>
       <use xlink:href="#NimbusSanL-Regu-30" transform="translate(55.391677 0) scale(0.996264)"/>
      </g>
     </g>
    </g>
    <g id="ytick_6">
     <g id="line2d_43">
      <g>
       <use xlink:href="#m757b300fd9" x="35.96392" y="77.42352" style="stroke: #000000; stroke-width: 1.1"/>
      </g>
     </g>
     <g id="line2d_44">
      <g>
       <use xlink:href="#me902f8c4e4" x="236.601671" y="77.42352" style="stroke: #000000; stroke-width: 1.1"/>
      </g>
     </g>
     <g id="text_11">
      <!-- $\mathdefault{25}$ -->
      <g transform="translate(18.88559 80.97268) scale(0.1 -0.1)">
       <use xlink:href="#NimbusSanL-Regu-32" transform="scale(0.996264)"/>
       <use xlink:href="#NimbusSanL-Regu-35" transform="translate(55.391677 0) scale(0.996264)"/>
      </g>
     </g>
    </g>
    <g id="ytick_7">
     <g id="line2d_45">
      <g>
       <use xlink:href="#m757b300fd9" x="35.96392" y="53.998733" style="stroke: #000000; stroke-width: 1.1"/>
      </g>
     </g>
     <g id="line2d_46">
      <g>
       <use xlink:href="#me902f8c4e4" x="236.601671" y="53.998733" style="stroke: #000000; stroke-width: 1.1"/>
      </g>
     </g>
     <g id="text_12">
      <!-- $\mathdefault{30}$ -->
      <g transform="translate(18.88559 57.547894) scale(0.1 -0.1)">
       <use xlink:href="#NimbusSanL-Regu-33" transform="scale(0.996264)"/>
       <use xlink:href="#NimbusSanL-Regu-30" transform="translate(55.391677 0) scale(0.996264)"/>
      </g>
     </g>
    </g>
    <g id="ytick_8">
     <g id="line2d_47">
      <g>
       <use xlink:href="#m757b300fd9" x="35.96392" y="30.573947" style="stroke: #000000; stroke-width: 1.1"/>
      </g>
     </g>
     <g id="line2d_48">
      <g>
       <use xlink:href="#me902f8c4e4" x="236.601671" y="30.573947" style="stroke: #000000; stroke-width: 1.1"/>
      </g>
     </g>
     <g id="text_13">
      <!-- $\mathdefault{35}$ -->
      <g transform="translate(18.88559 34.123107) scale(0.1 -0.1)">
       <use xlink:href="#NimbusSanL-Regu-33" transform="scale(0.996264)"/>
       <use xlink:href="#NimbusSanL-Regu-35" transform="translate(55.391677 0) scale(0.996264)"/>
      </g>
     </g>
    </g>
    <g id="ytick_9">
     <g id="line2d_49">
      <g>
       <use xlink:href="#m757b300fd9" x="35.96392" y="7.14916" style="stroke: #000000; stroke-width: 1.1"/>
      </g>
     </g>
     <g id="line2d_50">
      <g>
       <use xlink:href="#me902f8c4e4" x="236.601671" y="7.14916" style="stroke: #000000; stroke-width: 1.1"/>
      </g>
     </g>
     <g id="text_14">
      <!-- $\mathdefault{40}$ -->
      <g transform="translate(18.88559 10.69832) scale(0.1 -0.1)">
       <defs>
        <path id="NimbusSanL-Regu-34" d="M 2093 1088 
L 2093 0 
L 2656 0 
L 2656 1088 
L 3328 1088 
L 3328 1594 
L 2656 1594 
L 2656 4545 
L 2240 4545 
L 179 1684 
L 179 1088 
L 2093 1088 
z
M 2093 1594 
L 672 1594 
L 2093 3583 
L 2093 1594 
z
" transform="scale(0.015625)"/>
       </defs>
       <use xlink:href="#NimbusSanL-Regu-34" transform="scale(0.996264)"/>
       <use xlink:href="#NimbusSanL-Regu-30" transform="translate(55.391677 0) scale(0.996264)"/>
      </g>
     </g>
    </g>
    <g id="ytick_10">
     <g id="line2d_51">
      <g>
       <use xlink:href="#m757b300fd9" x="35.96392" y="203.917368" style="stroke: #000000; stroke-width: 1.1"/>
      </g>
     </g>
     <g id="line2d_52">
      <g>
       <use xlink:href="#me902f8c4e4" x="236.601671" y="203.917368" style="stroke: #000000; stroke-width: 1.1"/>
      </g>
     </g>
    </g>
    <g id="ytick_11">
     <g id="line2d_53">
      <g>
       <use xlink:href="#m757b300fd9" x="35.96392" y="199.232411" style="stroke: #000000; stroke-width: 1.1"/>
      </g>
     </g>
     <g id="line2d_54">
      <g>
       <use xlink:href="#me902f8c4e4" x="236.601671" y="199.232411" style="stroke: #000000; stroke-width: 1.1"/>
      </g>
     </g>
    </g>
    <g id="ytick_12">
     <g id="line2d_55">
      <g>
       <use xlink:href="#m757b300fd9" x="35.96392" y="189.862496" style="stroke: #000000; stroke-width: 1.1"/>
      </g>
     </g>
     <g id="line2d_56">
      <g>
       <use xlink:href="#me902f8c4e4" x="236.601671" y="189.862496" style="stroke: #000000; stroke-width: 1.1"/>
      </g>
     </g>
    </g>
    <g id="ytick_13">
     <g id="line2d_57">
      <g>
       <use xlink:href="#m757b300fd9" x="35.96392" y="185.177539" style="stroke: #000000; stroke-width: 1.1"/>
      </g>
     </g>
     <g id="line2d_58">
      <g>
       <use xlink:href="#me902f8c4e4" x="236.601671" y="185.177539" style="stroke: #000000; stroke-width: 1.1"/>
      </g>
     </g>
    </g>
    <g id="ytick_14">
     <g id="line2d_59">
      <g>
       <use xlink:href="#m757b300fd9" x="35.96392" y="180.492581" style="stroke: #000000; stroke-width: 1.1"/>
      </g>
     </g>
     <g id="line2d_60">
      <g>
       <use xlink:href="#me902f8c4e4" x="236.601671" y="180.492581" style="stroke: #000000; stroke-width: 1.1"/>
      </g>
     </g>
    </g>
    <g id="ytick_15">
     <g id="line2d_61">
      <g>
       <use xlink:href="#m757b300fd9" x="35.96392" y="175.807624" style="stroke: #000000; stroke-width: 1.1"/>
      </g>
     </g>
     <g id="line2d_62">
      <g>
       <use xlink:href="#me902f8c4e4" x="236.601671" y="175.807624" style="stroke: #000000; stroke-width: 1.1"/>
      </g>
     </g>
    </g>
    <g id="ytick_16">
     <g id="line2d_63">
      <g>
       <use xlink:href="#m757b300fd9" x="35.96392" y="166.437709" style="stroke: #000000; stroke-width: 1.1"/>
      </g>
     </g>
     <g id="line2d_64">
      <g>
       <use xlink:href="#me902f8c4e4" x="236.601671" y="166.437709" style="stroke: #000000; stroke-width: 1.1"/>
      </g>
     </g>
    </g>
    <g id="ytick_17">
     <g id="line2d_65">
      <g>
       <use xlink:href="#m757b300fd9" x="35.96392" y="161.752752" style="stroke: #000000; stroke-width: 1.1"/>
      </g>
     </g>
     <g id="line2d_66">
      <g>
       <use xlink:href="#me902f8c4e4" x="236.601671" y="161.752752" style="stroke: #000000; stroke-width: 1.1"/>
      </g>
     </g>
    </g>
    <g id="ytick_18">
     <g id="line2d_67">
      <g>
       <use xlink:href="#m757b300fd9" x="35.96392" y="157.067795" style="stroke: #000000; stroke-width: 1.1"/>
      </g>
     </g>
     <g id="line2d_68">
      <g>
       <use xlink:href="#me902f8c4e4" x="236.601671" y="157.067795" style="stroke: #000000; stroke-width: 1.1"/>
      </g>
     </g>
    </g>
    <g id="ytick_19">
     <g id="line2d_69">
      <g>
       <use xlink:href="#m757b300fd9" x="35.96392" y="152.382837" style="stroke: #000000; stroke-width: 1.1"/>
      </g>
     </g>
     <g id="line2d_70">
      <g>
       <use xlink:href="#me902f8c4e4" x="236.601671" y="152.382837" style="stroke: #000000; stroke-width: 1.1"/>
      </g>
     </g>
    </g>
    <g id="ytick_20">
     <g id="line2d_71">
      <g>
       <use xlink:href="#m757b300fd9" x="35.96392" y="143.012923" style="stroke: #000000; stroke-width: 1.1"/>
      </g>
     </g>
     <g id="line2d_72">
      <g>
       <use xlink:href="#me902f8c4e4" x="236.601671" y="143.012923" style="stroke: #000000; stroke-width: 1.1"/>
      </g>
     </g>
    </g>
    <g id="ytick_21">
     <g id="line2d_73">
      <g>
       <use xlink:href="#m757b300fd9" x="35.96392" y="138.327965" style="stroke: #000000; stroke-width: 1.1"/>
      </g>
     </g>
     <g id="line2d_74">
      <g>
       <use xlink:href="#me902f8c4e4" x="236.601671" y="138.327965" style="stroke: #000000; stroke-width: 1.1"/>
      </g>
     </g>
    </g>
    <g id="ytick_22">
     <g id="line2d_75">
      <g>
       <use xlink:href="#m757b300fd9" x="35.96392" y="133.643008" style="stroke: #000000; stroke-width: 1.1"/>
      </g>
     </g>
     <g id="line2d_76">
      <g>
       <use xlink:href="#me902f8c4e4" x="236.601671" y="133.643008" style="stroke: #000000; stroke-width: 1.1"/>
      </g>
     </g>
    </g>
    <g id="ytick_23">
     <g id="line2d_77">
      <g>
       <use xlink:href="#m757b300fd9" x="35.96392" y="128.958051" style="stroke: #000000; stroke-width: 1.1"/>
      </g>
     </g>
     <g id="line2d_78">
      <g>
       <use xlink:href="#me902f8c4e4" x="236.601671" y="128.958051" style="stroke: #000000; stroke-width: 1.1"/>
      </g>
     </g>
    </g>
    <g id="ytick_24">
     <g id="line2d_79">
      <g>
       <use xlink:href="#m757b300fd9" x="35.96392" y="119.588136" style="stroke: #000000; stroke-width: 1.1"/>
      </g>
     </g>
     <g id="line2d_80">
      <g>
       <use xlink:href="#me902f8c4e4" x="236.601671" y="119.588136" style="stroke: #000000; stroke-width: 1.1"/>
      </g>
     </g>
    </g>
    <g id="ytick_25">
     <g id="line2d_81">
      <g>
       <use xlink:href="#m757b300fd9" x="35.96392" y="114.903179" style="stroke: #000000; stroke-width: 1.1"/>
      </g>
     </g>
     <g id="line2d_82">
      <g>
       <use xlink:href="#me902f8c4e4" x="236.601671" y="114.903179" style="stroke: #000000; stroke-width: 1.1"/>
      </g>
     </g>
    </g>
    <g id="ytick_26">
     <g id="line2d_83">
      <g>
       <use xlink:href="#m757b300fd9" x="35.96392" y="110.218221" style="stroke: #000000; stroke-width: 1.1"/>
      </g>
     </g>
     <g id="line2d_84">
      <g>
       <use xlink:href="#me902f8c4e4" x="236.601671" y="110.218221" style="stroke: #000000; stroke-width: 1.1"/>
      </g>
     </g>
    </g>
    <g id="ytick_27">
     <g id="line2d_85">
      <g>
       <use xlink:href="#m757b300fd9" x="35.96392" y="105.533264" style="stroke: #000000; stroke-width: 1.1"/>
      </g>
     </g>
     <g id="line2d_86">
      <g>
       <use xlink:href="#me902f8c4e4" x="236.601671" y="105.533264" style="stroke: #000000; stroke-width: 1.1"/>
      </g>
     </g>
    </g>
    <g id="ytick_28">
     <g id="line2d_87">
      <g>
       <use xlink:href="#m757b300fd9" x="35.96392" y="96.163349" style="stroke: #000000; stroke-width: 1.1"/>
      </g>
     </g>
     <g id="line2d_88">
      <g>
       <use xlink:href="#me902f8c4e4" x="236.601671" y="96.163349" style="stroke: #000000; stroke-width: 1.1"/>
      </g>
     </g>
    </g>
    <g id="ytick_29">
     <g id="line2d_89">
      <g>
       <use xlink:href="#m757b300fd9" x="35.96392" y="91.478392" style="stroke: #000000; stroke-width: 1.1"/>
      </g>
     </g>
     <g id="line2d_90">
      <g>
       <use xlink:href="#me902f8c4e4" x="236.601671" y="91.478392" style="stroke: #000000; stroke-width: 1.1"/>
      </g>
     </g>
    </g>
    <g id="ytick_30">
     <g id="line2d_91">
      <g>
       <use xlink:href="#m757b300fd9" x="35.96392" y="86.793435" style="stroke: #000000; stroke-width: 1.1"/>
      </g>
     </g>
     <g id="line2d_92">
      <g>
       <use xlink:href="#me902f8c4e4" x="236.601671" y="86.793435" style="stroke: #000000; stroke-width: 1.1"/>
      </g>
     </g>
    </g>
    <g id="ytick_31">
     <g id="line2d_93">
      <g>
       <use xlink:href="#m757b300fd9" x="35.96392" y="82.108477" style="stroke: #000000; stroke-width: 1.1"/>
      </g>
     </g>
     <g id="line2d_94">
      <g>
       <use xlink:href="#me902f8c4e4" x="236.601671" y="82.108477" style="stroke: #000000; stroke-width: 1.1"/>
      </g>
     </g>
    </g>
    <g id="ytick_32">
     <g id="line2d_95">
      <g>
       <use xlink:href="#m757b300fd9" x="35.96392" y="72.738563" style="stroke: #000000; stroke-width: 1.1"/>
      </g>
     </g>
     <g id="line2d_96">
      <g>
       <use xlink:href="#me902f8c4e4" x="236.601671" y="72.738563" style="stroke: #000000; stroke-width: 1.1"/>
      </g>
     </g>
    </g>
    <g id="ytick_33">
     <g id="line2d_97">
      <g>
       <use xlink:href="#m757b300fd9" x="35.96392" y="68.053605" style="stroke: #000000; stroke-width: 1.1"/>
      </g>
     </g>
     <g id="line2d_98">
      <g>
       <use xlink:href="#me902f8c4e4" x="236.601671" y="68.053605" style="stroke: #000000; stroke-width: 1.1"/>
      </g>
     </g>
    </g>
    <g id="ytick_34">
     <g id="line2d_99">
      <g>
       <use xlink:href="#m757b300fd9" x="35.96392" y="63.368648" style="stroke: #000000; stroke-width: 1.1"/>
      </g>
     </g>
     <g id="line2d_100">
      <g>
       <use xlink:href="#me902f8c4e4" x="236.601671" y="63.368648" style="stroke: #000000; stroke-width: 1.1"/>
      </g>
     </g>
    </g>
    <g id="ytick_35">
     <g id="line2d_101">
      <g>
       <use xlink:href="#m757b300fd9" x="35.96392" y="58.683691" style="stroke: #000000; stroke-width: 1.1"/>
      </g>
     </g>
     <g id="line2d_102">
      <g>
       <use xlink:href="#me902f8c4e4" x="236.601671" y="58.683691" style="stroke: #000000; stroke-width: 1.1"/>
      </g>
     </g>
    </g>
    <g id="ytick_36">
     <g id="line2d_103">
      <g>
       <use xlink:href="#m757b300fd9" x="35.96392" y="49.313776" style="stroke: #000000; stroke-width: 1.1"/>
      </g>
     </g>
     <g id="line2d_104">
      <g>
       <use xlink:href="#me902f8c4e4" x="236.601671" y="49.313776" style="stroke: #000000; stroke-width: 1.1"/>
      </g>
     </g>
    </g>
    <g id="ytick_37">
     <g id="line2d_105">
      <g>
       <use xlink:href="#m757b300fd9" x="35.96392" y="44.628819" style="stroke: #000000; stroke-width: 1.1"/>
      </g>
     </g>
     <g id="line2d_106">
      <g>
       <use xlink:href="#me902f8c4e4" x="236.601671" y="44.628819" style="stroke: #000000; stroke-width: 1.1"/>
      </g>
     </g>
    </g>
    <g id="ytick_38">
     <g id="line2d_107">
      <g>
       <use xlink:href="#m757b300fd9" x="35.96392" y="39.943861" style="stroke: #000000; stroke-width: 1.1"/>
      </g>
     </g>
     <g id="line2d_108">
      <g>
       <use xlink:href="#me902f8c4e4" x="236.601671" y="39.943861" style="stroke: #000000; stroke-width: 1.1"/>
      </g>
     </g>
    </g>
    <g id="ytick_39">
     <g id="line2d_109">
      <g>
       <use xlink:href="#m757b300fd9" x="35.96392" y="35.258904" style="stroke: #000000; stroke-width: 1.1"/>
      </g>
     </g>
     <g id="line2d_110">
      <g>
       <use xlink:href="#me902f8c4e4" x="236.601671" y="35.258904" style="stroke: #000000; stroke-width: 1.1"/>
      </g>
     </g>
    </g>
    <g id="ytick_40">
     <g id="line2d_111">
      <g>
       <use xlink:href="#m757b300fd9" x="35.96392" y="25.888989" style="stroke: #000000; stroke-width: 1.1"/>
      </g>
     </g>
     <g id="line2d_112">
      <g>
       <use xlink:href="#me902f8c4e4" x="236.601671" y="25.888989" style="stroke: #000000; stroke-width: 1.1"/>
      </g>
     </g>
    </g>
    <g id="ytick_41">
     <g id="line2d_113">
      <g>
       <use xlink:href="#m757b300fd9" x="35.96392" y="21.204032" style="stroke: #000000; stroke-width: 1.1"/>
      </g>
     </g>
     <g id="line2d_114">
      <g>
       <use xlink:href="#me902f8c4e4" x="236.601671" y="21.204032" style="stroke: #000000; stroke-width: 1.1"/>
      </g>
     </g>
    </g>
    <g id="ytick_42">
     <g id="line2d_115">
      <g>
       <use xlink:href="#m757b300fd9" x="35.96392" y="16.519075" style="stroke: #000000; stroke-width: 1.1"/>
      </g>
     </g>
     <g id="line2d_116">
      <g>
       <use xlink:href="#me902f8c4e4" x="236.601671" y="16.519075" style="stroke: #000000; stroke-width: 1.1"/>
      </g>
     </g>
    </g>
    <g id="ytick_43">
     <g id="line2d_117">
      <g>
       <use xlink:href="#m757b300fd9" x="35.96392" y="11.834117" style="stroke: #000000; stroke-width: 1.1"/>
      </g>
     </g>
     <g id="line2d_118">
      <g>
       <use xlink:href="#me902f8c4e4" x="236.601671" y="11.834117" style="stroke: #000000; stroke-width: 1.1"/>
      </g>
     </g>
    </g>
    <g id="text_15">
     <!-- Glucose [g/L] -->
     <g transform="translate(12.339216 140.752662) rotate(-90) scale(0.12 -0.12)">
      <defs>
       <path id="NimbusSanL-Regu-47" d="M 4538 2496 
L 2592 2496 
L 2592 1971 
L 4013 1971 
L 4013 1841 
C 4013 1003 3398 397 2547 397 
C 2074 397 1645 569 1370 870 
C 1062 1201 877 1756 877 2330 
C 877 3471 1530 4224 2515 4224 
C 3226 4224 3738 3864 3866 3272 
L 4474 3272 
C 4307 4211 3590 4750 2522 4750 
C 1952 4750 1491 4603 1126 4303 
C 589 3856 282 3135 282 2298 
C 282 868 1158 -128 2419 -128 
C 3053 -128 3558 109 4013 616 
L 4160 -7 
L 4538 -7 
L 4538 2496 
z
" transform="scale(0.015625)"/>
       <path id="NimbusSanL-Regu-6c" d="M 973 4672 
L 435 4672 
L 435 -2 
L 973 -2 
L 973 4672 
z
" transform="scale(0.015625)"/>
       <path id="NimbusSanL-Regu-75" d="M 3085 33 
L 3085 3392 
L 2554 3392 
L 2554 1479 
C 2554 790 2195 340 1638 340 
C 1216 340 947 597 947 1003 
L 947 3392 
L 416 3392 
L 416 792 
C 416 232 832 -128 1485 -128 
C 1978 -128 2291 45 2605 488 
L 2605 33 
L 3085 33 
z
" transform="scale(0.015625)"/>
       <path id="NimbusSanL-Regu-63" d="M 3014 2236 
C 2989 2562 2918 2773 2790 2958 
C 2560 3271 2157 3456 1690 3456 
C 787 3456 198 2742 198 1632 
C 198 554 774 -128 1683 -128 
C 2483 -128 2989 350 3053 1167 
L 2515 1167 
C 2426 632 2150 365 1696 365 
C 1107 365 755 843 755 1632 
C 755 2466 1101 2962 1683 2962 
C 2131 2962 2413 2701 2477 2236 
L 3014 2236 
z
" transform="scale(0.015625)"/>
       <path id="NimbusSanL-Regu-6f" d="M 1741 3456 
C 800 3456 230 2786 230 1663 
C 230 541 794 -128 1747 -128 
C 2688 -128 3264 541 3264 1638 
C 3264 2792 2707 3456 1741 3456 
z
M 1747 2962 
C 2349 2962 2707 2472 2707 1645 
C 2707 861 2336 365 1747 365 
C 1152 365 787 855 787 1663 
C 787 2466 1152 2962 1747 2962 
z
" transform="scale(0.015625)"/>
       <path id="NimbusSanL-Regu-73" d="M 2803 2427 
C 2797 3085 2362 3456 1587 3456 
C 806 3456 301 3054 301 2436 
C 301 1913 570 1665 1363 1474 
L 1862 1353 
C 2234 1263 2381 1130 2381 888 
C 2381 576 2067 365 1600 365 
C 1312 365 1069 448 934 588 
C 851 684 813 779 781 1014 
L 218 1014 
C 243 241 678 -128 1555 -128 
C 2400 -128 2938 285 2938 929 
C 2938 1426 2656 1701 1990 1860 
L 1478 1981 
C 1043 2082 858 2223 858 2458 
C 858 2764 1133 2962 1568 2962 
C 1997 2962 2227 2777 2240 2427 
L 2803 2427 
z
" transform="scale(0.015625)"/>
       <path id="NimbusSanL-Regu-67" d="M 2637 3341 
L 2637 2854 
C 2368 3252 2042 3438 1613 3438 
C 762 3438 186 2692 186 1600 
C 186 1048 333 598 608 276 
C 858 -7 1216 -173 1568 -173 
C 1990 -173 2285 6 2586 429 
L 2586 258 
C 2586 -192 2528 -465 2394 -649 
C 2253 -844 1978 -959 1651 -959 
C 1408 -959 1190 -896 1043 -783 
C 922 -688 870 -600 838 -406 
L 294 -406 
C 352 -1033 845 -1408 1632 -1408 
C 2131 -1408 2560 -1247 2778 -979 
C 3034 -671 3130 -249 3130 538 
L 3130 3341 
L 2637 3341 
z
M 1670 2944 
C 2246 2944 2586 2455 2586 1613 
C 2586 808 2240 320 1677 320 
C 1094 320 742 816 742 1632 
C 742 2442 1101 2944 1670 2944 
z
" transform="scale(0.015625)"/>
       <path id="NimbusSanL-Regu-2f" d="M 1466 4672 
L -51 -128 
L 301 -128 
L 1818 4672 
L 1466 4672 
z
" transform="scale(0.015625)"/>
       <path id="NimbusSanL-Regu-4c" d="M 1107 4672 
L 512 4672 
L 512 0 
L 3411 0 
L 3411 526 
L 1107 526 
L 1107 4672 
z
" transform="scale(0.015625)"/>
      </defs>
      <use xlink:href="#NimbusSanL-Regu-47" transform="scale(0.996264)"/>
      <use xlink:href="#NimbusSanL-Regu-6c" transform="translate(77.50837 0) scale(0.996264)"/>
      <use xlink:href="#NimbusSanL-Regu-75" transform="translate(99.625154 0) scale(0.996264)"/>
      <use xlink:href="#NimbusSanL-Regu-63" transform="translate(155.016831 0) scale(0.996264)"/>
      <use xlink:href="#NimbusSanL-Regu-6f" transform="translate(204.830032 0) scale(0.996264)"/>
      <use xlink:href="#NimbusSanL-Regu-73" transform="translate(260.221709 0) scale(0.996264)"/>
      <use xlink:href="#NimbusSanL-Regu-65" transform="translate(310.034909 0) scale(0.996264)"/>
      <use xlink:href="#NimbusSanL-Regu-5b" transform="translate(393.121756 0) scale(0.996264)"/>
      <use xlink:href="#NimbusSanL-Regu-67" transform="translate(420.816926 0) scale(0.996264)"/>
      <use xlink:href="#NimbusSanL-Regu-2f" transform="translate(476.208603 0) scale(0.996264)"/>
      <use xlink:href="#NimbusSanL-Regu-4c" transform="translate(503.903772 0) scale(0.996264)"/>
      <use xlink:href="#NimbusSanL-Regu-5d" transform="translate(559.295449 0) scale(0.996264)"/>
     </g>
    </g>
   </g>
   <g id="PathCollection_1">
    <defs>
     <path id="m3766d83fe2" d="M 0 1.936492 
C 0.513564 1.936492 1.006162 1.732451 1.369306 1.369306 
C 1.732451 1.006162 1.936492 0.513564 1.936492 0 
C 1.936492 -0.513564 1.732451 -1.006162 1.369306 -1.369306 
C 1.006162 -1.732451 0.513564 -1.936492 0 -1.936492 
C -0.513564 -1.936492 -1.006162 -1.732451 -1.369306 -1.369306 
C -1.732451 -1.006162 -1.936492 -0.513564 -1.936492 0 
C -1.936492 0.513564 -1.732451 1.006162 -1.369306 1.369306 
C -1.006162 1.732451 -0.513564 1.936492 0 1.936492 
z
" style="stroke: #083370"/>
    </defs>
    <g clip-path="url(#pf505473f74)">
     <use xlink:href="#m3766d83fe2" x="38.293048" y="94.911013" style="fill: #083370; stroke: #083370"/>
     <use xlink:href="#m3766d83fe2" x="38.958513" y="106.336823" style="fill: #083370; stroke: #083370"/>
     <use xlink:href="#m3766d83fe2" x="39.956711" y="129.683749" style="fill: #083370; stroke: #083370"/>
     <use xlink:href="#m3766d83fe2" x="40.954909" y="138.160237" style="fill: #083370; stroke: #083370"/>
     <use xlink:href="#m3766d83fe2" x="43.949502" y="177.942318" style="fill: #083370; stroke: #083370"/>
     <use xlink:href="#m3766d83fe2" x="46.611363" y="178.583965" style="fill: #083370; stroke: #083370"/>
     <use xlink:href="#m3766d83fe2" x="128.130847" y="163.488387" style="fill: #083370; stroke: #083370"/>
     <use xlink:href="#m3766d83fe2" x="130.792707" y="160.62912" style="fill: #083370; stroke: #083370"/>
     <use xlink:href="#m3766d83fe2" x="136.781894" y="152.208918" style="fill: #083370; stroke: #083370"/>
     <use xlink:href="#m3766d83fe2" x="139.776487" y="153.71735" style="fill: #083370; stroke: #083370"/>
     <use xlink:href="#m3766d83fe2" x="231.277949" y="117.267327" style="fill: #083370; stroke: #083370"/>
     <use xlink:href="#m3766d83fe2" x="231.610682" y="109.488771" style="fill: #083370; stroke: #083370"/>
     <use xlink:href="#m3766d83fe2" x="231.943414" y="116.186659" style="fill: #083370; stroke: #083370"/>
    </g>
   </g>
   <g id="line2d_119">
    <path d="M 35.96392 194.547454 
L 236.601671 194.547454 
" clip-path="url(#pf505473f74)" style="fill: none; stroke-dasharray: 12.8,3.2,2,3.2; stroke-dashoffset: 0; stroke: #666970; stroke-width: 2"/>
   </g>
   <g id="patch_3">
    <path d="M 35.96392 203.917368 
L 35.96392 7.14916 
" style="fill: none; stroke: #000000; stroke-width: 0.5; stroke-linejoin: miter; stroke-linecap: square"/>
   </g>
   <g id="patch_4">
    <path d="M 236.601671 203.917368 
L 236.601671 7.14916 
" style="fill: none; stroke: #000000; stroke-width: 0.5; stroke-linejoin: miter; stroke-linecap: square"/>
   </g>
   <g id="patch_5">
    <path d="M 35.96392 203.917368 
L 236.601671 203.917368 
" style="fill: none; stroke: #000000; stroke-width: 0.5; stroke-linejoin: miter; stroke-linecap: square"/>
   </g>
   <g id="patch_6">
    <path d="M 35.96392 7.14916 
L 236.601671 7.14916 
" style="fill: none; stroke: #000000; stroke-width: 0.5; stroke-linejoin: miter; stroke-linecap: square"/>
   </g>
   <g id="line2d_120">
    <path d="M 36.962117 53.998733 
L 38.29527 93.77088 
L 39.295134 117.430854 
L 40.294998 136.06709 
L 41.294862 150.230324 
L 42.294727 160.655298 
L 43.294591 168.130682 
L 44.294455 173.372323 
L 45.294319 176.995591 
L 46.294183 179.456222 
L 47.294048 181.107843 
L 48.293912 182.18972 
L 49.293776 182.878042 
L 50.29364 183.287889 
L 51.626793 183.544349 
L 53.293233 183.562891 
L 55.292961 183.324325 
L 57.959266 182.76808 
L 61.958723 181.676416 
L 67.62462 179.866373 
L 74.290381 177.496615 
L 81.956007 174.531279 
L 90.954785 170.799376 
L 102.953155 165.555815 
L 129.616201 153.825512 
L 139.948131 149.565865 
L 149.280197 145.94944 
L 158.278975 142.695953 
L 167.277752 139.682946 
L 176.27653 136.911243 
L 185.275308 134.374479 
L 194.607374 131.979191 
L 204.272728 129.734659 
L 214.27137 127.644337 
L 224.936588 125.649028 
L 235.935095 123.816827 
L 236.601671 123.712524 
L 236.601671 123.712524 
" clip-path="url(#pf505473f74)" style="fill: none; stroke: #bcae6c; stroke-width: 1.8; stroke-linecap: square"/>
   </g>
   <g id="line2d_121">
    <path d="M 36.962117 35.540623 
L 38.29527 72.303453 
L 39.96171 123.262973 
L 40.628286 138.145123 
L 41.294862 149.025389 
L 42.294727 160.949778 
L 42.961303 166.850763 
L 44.294455 174.806321 
L 44.961031 178.17806 
L 45.294319 178.880245 
L 45.627607 178.98484 
L 46.627471 178.350943 
L 46.96076 178.33913 
L 47.294048 178.532 
L 47.627336 178.949415 
L 48.293912 180.478181 
L 49.960352 185.53063 
L 50.29364 185.50091 
L 50.626928 185.025064 
L 51.626793 182.687905 
L 52.626657 180.310911 
L 53.293233 179.190283 
L 53.959809 178.47306 
L 54.626385 178.031824 
L 55.626249 177.638018 
L 58.95913 176.781394 
L 63.291875 175.535227 
L 69.29106 173.558259 
L 76.29011 171.008856 
L 84.289023 167.849965 
L 93.621089 163.917711 
L 107.2859 157.889366 
L 125.950032 149.484559 
L 128.616336 147.908285 
L 130.616065 147.305499 
L 131.949217 146.709978 
L 132.615793 146.23696 
L 133.282369 145.518127 
L 133.948946 144.425032 
L 134.615522 142.765011 
L 135.282098 140.237562 
L 136.61525 134.018059 
L 136.948538 133.286929 
L 137.281826 133.140951 
L 137.615114 133.639054 
L 137.948402 134.729917 
L 139.614843 141.858922 
L 139.948131 142.594092 
L 140.281419 143.034668 
L 140.614707 143.251562 
L 141.281283 143.286929 
L 142.281147 142.953931 
L 148.280332 140.588949 
L 157.27911 137.309111 
L 166.277888 134.269187 
L 175.276666 131.470869 
L 184.275444 128.908527 
L 193.60751 126.488223 
L 203.272864 124.219722 
L 213.271506 122.106838 
L 223.603436 120.151633 
L 226.603029 119.716862 
L 227.602893 119.761935 
L 228.269469 119.995684 
L 228.936045 120.551655 
L 229.602621 121.617226 
L 230.269197 123.300392 
L 231.269062 125.987683 
L 231.60235 126.253143 
L 231.935638 125.945719 
L 232.602214 124.100643 
L 233.602078 121.049862 
L 234.268654 119.72893 
L 234.93523 118.928598 
L 235.601806 118.460909 
L 236.601671 118.076732 
L 236.601671 118.076732 
" clip-path="url(#pf505473f74)" style="fill: none; stroke-dasharray: 6.66,2.88; stroke-dashoffset: 0; stroke: #7d7c78; stroke-width: 1.8"/>
   </g>
   <g id="legend_1">
    <g id="patch_7">
     <path d="M 86.566997 21.637648 
L 104.566997 21.637648 
L 104.566997 15.337648 
L 86.566997 15.337648 
z
" style="fill: #888578; fill-opacity: 0.4"/>
    </g>
    <g id="text_16">
     <!-- Hybrid Uncertainty -->
     <g transform="translate(111.766997 21.637648) scale(0.09 -0.09)">
      <defs>
       <path id="NimbusSanL-Regu-48" d="M 3526 2112 
L 3526 -2 
L 4122 -2 
L 4122 4672 
L 3526 4672 
L 3526 2638 
L 1126 2638 
L 1126 4672 
L 531 4672 
L 531 -2 
L 1133 -2 
L 1133 2112 
L 3526 2112 
z
" transform="scale(0.015625)"/>
       <path id="NimbusSanL-Regu-79" d="M 2483 3360 
L 1555 738 
L 698 3360 
L 128 3360 
L 1261 -21 
L 1056 -554 
C 973 -792 851 -882 627 -882 
C 550 -882 461 -869 346 -843 
L 346 -1325 
C 454 -1382 563 -1408 704 -1408 
C 877 -1408 1062 -1350 1203 -1247 
C 1370 -1125 1466 -983 1568 -713 
L 3059 3360 
L 2483 3360 
z
" transform="scale(0.015625)"/>
       <path id="NimbusSanL-Regu-62" d="M 346 4672 
L 346 -2 
L 826 -2 
L 826 448 
C 1082 57 1421 -128 1888 -128 
C 2771 -128 3347 592 3347 1702 
C 3347 2786 2797 3456 1914 3456 
C 1453 3456 1126 3282 877 2905 
L 877 4672 
L 346 4672 
z
M 1811 2956 
C 2406 2956 2790 2440 2790 1645 
C 2790 887 2394 372 1811 372 
C 1248 372 877 881 877 1664 
C 877 2447 1248 2956 1811 2956 
z
" transform="scale(0.015625)"/>
       <path id="NimbusSanL-Regu-72" d="M 442 3359 
L 442 0 
L 979 0 
L 979 1741 
C 979 2221 1101 2535 1357 2720 
C 1523 2842 1683 2880 2054 2880 
L 2054 3432 
C 1965 3444 1920 3444 1850 3444 
C 1504 3444 1242 3240 934 2746 
L 934 3359 
L 442 3359 
z
" transform="scale(0.015625)"/>
       <path id="NimbusSanL-Regu-64" d="M 3168 4672 
L 2637 4672 
L 2637 2937 
C 2413 3276 2054 3456 1606 3456 
C 736 3456 166 2761 166 1695 
C 166 566 723 -128 1626 -128 
C 2086 -128 2406 45 2694 461 
L 2694 -2 
L 3168 -2 
L 3168 4672 
z
M 1696 2956 
C 2272 2956 2637 2447 2637 1651 
C 2637 881 2266 372 1702 372 
C 1114 372 723 887 723 1664 
C 723 2440 1114 2956 1696 2956 
z
" transform="scale(0.015625)"/>
       <path id="NimbusSanL-Regu-55" d="M 3533 4672 
L 3533 1395 
C 3533 768 3078 384 2330 384 
C 1984 384 1702 468 1478 628 
C 1248 806 1139 1044 1139 1395 
L 1139 4672 
L 544 4672 
L 544 1394 
C 544 447 1222 -141 2330 -141 
C 3424 -141 4128 460 4128 1394 
L 4128 4672 
L 3533 4672 
z
" transform="scale(0.015625)"/>
       <path id="NimbusSanL-Regu-74" d="M 1626 3380 
L 1075 3380 
L 1075 4288 
L 544 4288 
L 544 3380 
L 90 3380 
L 90 2944 
L 544 2944 
L 544 404 
C 544 64 774 -128 1190 -128 
C 1318 -128 1446 -116 1626 -83 
L 1626 366 
C 1555 346 1472 340 1370 340 
C 1139 340 1075 404 1075 641 
L 1075 2944 
L 1626 2944 
L 1626 3380 
z
" transform="scale(0.015625)"/>
       <path id="NimbusSanL-Regu-61" d="M 3424 333 
C 3366 320 3341 320 3309 320 
C 3123 320 3021 415 3021 581 
L 3021 2545 
C 3021 3137 2586 3456 1760 3456 
C 1274 3456 870 3316 646 3066 
C 493 2893 429 2702 416 2370 
L 954 2370 
C 998 2777 1242 2962 1741 2962 
C 2221 2962 2490 2783 2490 2465 
L 2490 2325 
C 2490 2101 2355 2006 1933 1955 
C 1178 1860 1062 1834 858 1751 
C 467 1592 269 1292 269 859 
C 269 254 691 -128 1370 -128 
C 1792 -128 2131 19 2509 365 
C 2547 25 2714 -128 3059 -128 
C 3168 -128 3251 -116 3424 -70 
L 3424 333 
z
M 2490 1072 
C 2490 893 2438 785 2278 639 
C 2061 441 1798 340 1485 340 
C 1069 340 826 537 826 874 
C 826 1225 1062 1403 1632 1486 
C 2195 1562 2310 1588 2490 1670 
L 2490 1072 
z
" transform="scale(0.015625)"/>
      </defs>
      <use xlink:href="#NimbusSanL-Regu-48" transform="scale(0.996264)"/>
      <use xlink:href="#NimbusSanL-Regu-79" transform="translate(71.929985 0) scale(0.996264)"/>
      <use xlink:href="#NimbusSanL-Regu-62" transform="translate(121.743185 0) scale(0.996264)"/>
      <use xlink:href="#NimbusSanL-Regu-72" transform="translate(177.134862 0) scale(0.996264)"/>
      <use xlink:href="#NimbusSanL-Regu-69" transform="translate(211.80347 0) scale(0.996264)"/>
      <use xlink:href="#NimbusSanL-Regu-64" transform="translate(233.920254 0) scale(0.996264)"/>
      <use xlink:href="#NimbusSanL-Regu-55" transform="translate(317.0071 0) scale(0.996264)"/>
      <use xlink:href="#NimbusSanL-Regu-6e" transform="translate(388.937085 0) scale(0.996264)"/>
      <use xlink:href="#NimbusSanL-Regu-63" transform="translate(444.328762 0) scale(0.996264)"/>
      <use xlink:href="#NimbusSanL-Regu-65" transform="translate(494.141963 0) scale(0.996264)"/>
      <use xlink:href="#NimbusSanL-Regu-72" transform="translate(549.53364 0) scale(0.996264)"/>
      <use xlink:href="#NimbusSanL-Regu-74" transform="translate(586.692968 0) scale(0.996264)"/>
      <use xlink:href="#NimbusSanL-Regu-61" transform="translate(614.388137 0) scale(0.996264)"/>
      <use xlink:href="#NimbusSanL-Regu-69" transform="translate(669.779814 0) scale(0.996264)"/>
      <use xlink:href="#NimbusSanL-Regu-6e" transform="translate(691.896599 0) scale(0.996264)"/>
      <use xlink:href="#NimbusSanL-Regu-74" transform="translate(747.288276 0) scale(0.996264)"/>
      <use xlink:href="#NimbusSanL-Regu-79" transform="translate(774.983445 0) scale(0.996264)"/>
     </g>
    </g>
    <g id="line2d_122">
     <path d="M 86.566997 31.285921 
L 95.566997 31.285921 
L 104.566997 31.285921 
" style="fill: none; stroke-dasharray: 6.66,2.88; stroke-dashoffset: 0; stroke: #7d7c78; stroke-width: 1.8"/>
    </g>
    <g id="text_17">
     <!-- Hybrid -->
     <g transform="translate(111.766997 34.435921) scale(0.09 -0.09)">
      <use xlink:href="#NimbusSanL-Regu-48" transform="scale(0.996264)"/>
      <use xlink:href="#NimbusSanL-Regu-79" transform="translate(71.929985 0) scale(0.996264)"/>
      <use xlink:href="#NimbusSanL-Regu-62" transform="translate(121.743185 0) scale(0.996264)"/>
      <use xlink:href="#NimbusSanL-Regu-72" transform="translate(177.134862 0) scale(0.996264)"/>
      <use xlink:href="#NimbusSanL-Regu-69" transform="translate(211.80347 0) scale(0.996264)"/>
      <use xlink:href="#NimbusSanL-Regu-64" transform="translate(233.920254 0) scale(0.996264)"/>
     </g>
    </g>
    <g id="line2d_123">
     <path d="M 86.566997 44.084194 
L 95.566997 44.084194 
L 104.566997 44.084194 
" style="fill: none; stroke: #bcae6c; stroke-width: 1.8; stroke-linecap: square"/>
    </g>
    <g id="text_18">
     <!-- Empirical -->
     <g transform="translate(111.766997 47.234194) scale(0.09 -0.09)">
      <defs>
       <path id="NimbusSanL-Regu-45" d="M 1171 2112 
L 3712 2112 
L 3712 2638 
L 1171 2638 
L 1171 4146 
L 3808 4146 
L 3808 4672 
L 576 4672 
L 576 0 
L 3923 0 
L 3923 526 
L 1171 526 
L 1171 2112 
z
" transform="scale(0.015625)"/>
       <path id="NimbusSanL-Regu-70" d="M 346 -1408 
L 883 -1408 
L 883 320 
C 1165 -27 1478 -180 1914 -180 
C 2778 -180 3347 522 3347 1599 
C 3347 2734 2797 3444 1907 3444 
C 1453 3444 1088 3238 838 2841 
L 838 3349 
L 346 3349 
L 346 -1408 
z
M 1818 2944 
C 2406 2944 2790 2420 2790 1612 
C 2790 843 2400 320 1818 320 
C 1254 320 883 837 883 1632 
C 883 2427 1254 2944 1818 2944 
z
" transform="scale(0.015625)"/>
      </defs>
      <use xlink:href="#NimbusSanL-Regu-45" transform="scale(0.996264)"/>
      <use xlink:href="#NimbusSanL-Regu-6d" transform="translate(66.450031 0) scale(0.996264)"/>
      <use xlink:href="#NimbusSanL-Regu-70" transform="translate(149.438461 0) scale(0.996264)"/>
      <use xlink:href="#NimbusSanL-Regu-69" transform="translate(204.830138 0) scale(0.996264)"/>
      <use xlink:href="#NimbusSanL-Regu-72" transform="translate(226.946923 0) scale(0.996264)"/>
      <use xlink:href="#NimbusSanL-Regu-69" transform="translate(261.61553 0) scale(0.996264)"/>
      <use xlink:href="#NimbusSanL-Regu-63" transform="translate(283.732314 0) scale(0.996264)"/>
      <use xlink:href="#NimbusSanL-Regu-61" transform="translate(333.545515 0) scale(0.996264)"/>
      <use xlink:href="#NimbusSanL-Regu-6c" transform="translate(388.937192 0) scale(0.996264)"/>
     </g>
    </g>
   </g>
  </g>
 </g>
 <defs>
  <clipPath id="pf505473f74">
   <rect x="35.96392" y="7.14916" width="200.637751" height="196.768208"/>
  </clipPath>
 </defs>
</svg>
